G04*
G04 #@! TF.GenerationSoftware,Altium Limited,Altium Designer,19.0.12 (326)*
G04*
G04 Layer_Color=2752767*
%FSLAX25Y25*%
%MOIN*%
G70*
G01*
G75*
%ADD169C,0.00200*%
%ADD173C,0.00267*%
D169*
X334161Y138470D02*
Y140070D01*
X335761D01*
Y138470D01*
X334161D01*
Y130596D02*
Y132196D01*
X335761D01*
Y130596D01*
X334161D01*
Y122722D02*
Y124322D01*
X335761D01*
Y122722D01*
X334161D01*
Y114848D02*
Y116448D01*
X335761D01*
Y114848D01*
X334161D01*
Y106974D02*
Y108574D01*
X335761D01*
Y106974D01*
X334161D01*
Y99100D02*
Y100700D01*
X335761D01*
Y99100D01*
X334161D01*
X123500Y86800D02*
X122700Y88400D01*
X124300D01*
X123500Y86800D01*
Y67115D02*
X122700Y68715D01*
X124300D01*
X123500Y67115D01*
X109721D02*
X108921Y68715D01*
X110521D01*
X109721Y67115D01*
Y86800D02*
X108921Y88400D01*
X110521D01*
X109721Y86800D01*
X269559Y90579D02*
X268759Y92180D01*
X270359D01*
X269559Y90579D01*
X249559D02*
X248759Y92180D01*
X250359D01*
X249559Y90579D01*
X229559D02*
X228759Y92180D01*
X230359D01*
X229559Y90579D01*
X209559D02*
X208759Y92180D01*
X210359D01*
X209559Y90579D01*
X189559D02*
X188759Y92180D01*
X190359D01*
X189559Y90579D01*
X169559D02*
X168759Y92180D01*
X170359D01*
X169559Y90579D01*
X269559Y63020D02*
X268759Y64621D01*
X270359D01*
X269559Y63020D01*
X249559D02*
X248759Y64621D01*
X250359D01*
X249559Y63020D01*
X229559D02*
X228759Y64621D01*
X230359D01*
X229559Y63020D01*
X209559D02*
X208759Y64621D01*
X210359D01*
X209559Y63020D01*
X189559D02*
X188759Y64621D01*
X190359D01*
X189559Y63020D01*
X169559D02*
X168759Y64621D01*
X170359D01*
X169559Y63020D01*
X149559D02*
X148759Y64621D01*
X150359D01*
X149559Y63020D01*
Y90579D02*
X148759Y92180D01*
X150359D01*
X149559Y90579D01*
X162100Y169232D02*
X162500Y169632D01*
X162900D01*
X162500Y170032D01*
X162900Y170432D01*
X162500D01*
X162100Y170832D01*
X161700Y170432D01*
X161300D01*
X161700Y170032D01*
X161300Y169632D01*
X161700D01*
X162100Y169232D01*
X142100Y165232D02*
X142500Y165632D01*
X142900D01*
X142500Y166032D01*
X142900Y166432D01*
X142500D01*
X142100Y166832D01*
X141700Y166432D01*
X141300D01*
X141700Y166032D01*
X141300Y165632D01*
X141700D01*
X142100Y165232D01*
Y173232D02*
X142500Y173632D01*
X142900D01*
X142500Y174032D01*
X142900Y174432D01*
X142500D01*
X142100Y174832D01*
X141700Y174432D01*
X141300D01*
X141700Y174032D01*
X141300Y173632D01*
X141700D01*
X142100Y173232D01*
X359244Y216651D02*
X359644Y217051D01*
X360044D01*
X359644Y217451D01*
X360044Y217851D01*
X359644D01*
X359244Y218251D01*
X358844Y217851D01*
X358444D01*
X358844Y217451D01*
X358444Y217051D01*
X358844D01*
X359244Y216651D01*
X355244Y236651D02*
X355644Y237051D01*
X356044D01*
X355644Y237451D01*
X356044Y237851D01*
X355644D01*
X355244Y238251D01*
X354844Y237851D01*
X354444D01*
X354844Y237451D01*
X354444Y237051D01*
X354844D01*
X355244Y236651D01*
X363244D02*
X363644Y237051D01*
X364044D01*
X363644Y237451D01*
X364044Y237851D01*
X363644D01*
X363244Y238251D01*
X362844Y237851D01*
X362444D01*
X362844Y237451D01*
X362444Y237051D01*
X362844D01*
X363244Y236651D01*
X87800Y227047D02*
X88200Y227847D01*
X87800Y228647D01*
X88600Y228247D01*
X89400Y228647D01*
X89000Y227847D01*
X89400Y227047D01*
X88600Y227447D01*
X87800Y227047D01*
X88000Y238288D02*
X88400Y239088D01*
X88000Y239888D01*
X88800Y239488D01*
X89600Y239888D01*
X89200Y239088D01*
X89600Y238288D01*
X88800Y238688D01*
X88000Y238288D01*
X83100Y197900D02*
X83500Y198700D01*
X83100Y199500D01*
X83900Y199100D01*
X84700Y199500D01*
X84300Y198700D01*
X84700Y197900D01*
X83900Y198300D01*
X83100Y197900D01*
X28700Y203400D02*
X29100Y204200D01*
X28700Y205000D01*
X29500Y204600D01*
X30300Y205000D01*
X29900Y204200D01*
X30300Y203400D01*
X29500Y203800D01*
X28700Y203400D01*
X83700Y193000D02*
X84100Y193800D01*
X83700Y194600D01*
X84500Y194200D01*
X85300Y194600D01*
X84900Y193800D01*
X85300Y193000D01*
X84500Y193400D01*
X83700Y193000D01*
X28800Y268600D02*
X29200Y269400D01*
X28800Y270200D01*
X29600Y269800D01*
X30400Y270200D01*
X30000Y269400D01*
X30400Y268600D01*
X29600Y269000D01*
X28800Y268600D01*
X26000Y272100D02*
X26400Y272900D01*
X26000Y273700D01*
X26800Y273300D01*
X27600Y273700D01*
X27200Y272900D01*
X27600Y272100D01*
X26800Y272500D01*
X26000Y272100D01*
X37800Y235096D02*
X38200Y235896D01*
X37800Y236696D01*
X38600Y236296D01*
X39400Y236696D01*
X39000Y235896D01*
X39400Y235096D01*
X38600Y235496D01*
X37800Y235096D01*
X40900Y233800D02*
X41300Y234600D01*
X40900Y235400D01*
X41700Y235000D01*
X42500Y235400D01*
X42100Y234600D01*
X42500Y233800D01*
X41700Y234200D01*
X40900Y233800D01*
X32800Y217300D02*
X33200Y218100D01*
X32800Y218900D01*
X33600Y218500D01*
X34400Y218900D01*
X34000Y218100D01*
X34400Y217300D01*
X33600Y217700D01*
X32800Y217300D01*
X37200Y226700D02*
X37600Y227500D01*
X37200Y228300D01*
X38000Y227900D01*
X38800Y228300D01*
X38400Y227500D01*
X38800Y226700D01*
X38000Y227100D01*
X37200Y226700D01*
X9300Y155800D02*
X9700Y156600D01*
X9300Y157400D01*
X10100Y157000D01*
X10900Y157400D01*
X10500Y156600D01*
X10900Y155800D01*
X10100Y156200D01*
X9300Y155800D01*
X9400Y160400D02*
X9800Y161200D01*
X9400Y162000D01*
X10200Y161600D01*
X11000Y162000D01*
X10600Y161200D01*
X11000Y160400D01*
X10200Y160800D01*
X9400Y160400D01*
X7200Y158000D02*
X7600Y158800D01*
X7200Y159600D01*
X8000Y159200D01*
X8800Y159600D01*
X8400Y158800D01*
X8800Y158000D01*
X8000Y158400D01*
X7200Y158000D01*
X85200Y154100D02*
X85600Y154900D01*
X85200Y155700D01*
X86000Y155300D01*
X86800Y155700D01*
X86400Y154900D01*
X86800Y154100D01*
X86000Y154500D01*
X85200Y154100D01*
X65047Y154300D02*
X65447Y155100D01*
X65047Y155900D01*
X65847Y155500D01*
X66647Y155900D01*
X66247Y155100D01*
X66647Y154300D01*
X65847Y154700D01*
X65047Y154300D01*
X74929Y148200D02*
X75329Y149000D01*
X74929Y149800D01*
X75729Y149400D01*
X76529Y149800D01*
X76129Y149000D01*
X76529Y148200D01*
X75729Y148600D01*
X74929Y148200D01*
Y160200D02*
X75329Y161000D01*
X74929Y161800D01*
X75729Y161400D01*
X76529Y161800D01*
X76129Y161000D01*
X76529Y160200D01*
X75729Y160600D01*
X74929Y160200D01*
X203500Y138200D02*
X203900Y139000D01*
X203500Y139800D01*
X204300Y139400D01*
X205100Y139800D01*
X204700Y139000D01*
X205100Y138200D01*
X204300Y138600D01*
X203500Y138200D01*
X220400Y136300D02*
X220800Y137100D01*
X220400Y137900D01*
X221200Y137500D01*
X222000Y137900D01*
X221600Y137100D01*
X222000Y136300D01*
X221200Y136700D01*
X220400Y136300D01*
X223800Y138200D02*
X224200Y139000D01*
X223800Y139800D01*
X224600Y139400D01*
X225400Y139800D01*
X225000Y139000D01*
X225400Y138200D01*
X224600Y138600D01*
X223800Y138200D01*
X220100Y139700D02*
X220500Y140500D01*
X220100Y141300D01*
X220900Y140900D01*
X221700Y141300D01*
X221300Y140500D01*
X221700Y139700D01*
X220900Y140100D01*
X220100Y139700D01*
X219100Y142200D02*
X219500Y143000D01*
X219100Y143800D01*
X219900Y143400D01*
X220700Y143800D01*
X220300Y143000D01*
X220700Y142200D01*
X219900Y142600D01*
X219100Y142200D01*
X222400Y134400D02*
X222800Y135200D01*
X222400Y136000D01*
X223200Y135600D01*
X224000Y136000D01*
X223600Y135200D01*
X224000Y134400D01*
X223200Y134800D01*
X222400Y134400D01*
X228010Y133810D02*
X228410Y134610D01*
X228010Y135410D01*
X228810Y135010D01*
X229610Y135410D01*
X229210Y134610D01*
X229610Y133810D01*
X228810Y134210D01*
X228010Y133810D01*
X218800Y132300D02*
X219200Y133100D01*
X218800Y133900D01*
X219600Y133500D01*
X220400Y133900D01*
X220000Y133100D01*
X220400Y132300D01*
X219600Y132700D01*
X218800Y132300D01*
X160900Y141000D02*
X161300Y141800D01*
X160900Y142600D01*
X161700Y142200D01*
X162500Y142600D01*
X162100Y141800D01*
X162500Y141000D01*
X161700Y141400D01*
X160900Y141000D01*
X164300Y146300D02*
X164700Y147100D01*
X164300Y147900D01*
X165100Y147500D01*
X165900Y147900D01*
X165500Y147100D01*
X165900Y146300D01*
X165100Y146700D01*
X164300Y146300D01*
X162761Y144527D02*
X163161Y145327D01*
X162761Y146127D01*
X163561Y145727D01*
X164361Y146127D01*
X163961Y145327D01*
X164361Y144527D01*
X163561Y144927D01*
X162761Y144527D01*
X163893Y142100D02*
X164293Y142900D01*
X163893Y143700D01*
X164693Y143300D01*
X165493Y143700D01*
X165093Y142900D01*
X165493Y142100D01*
X164693Y142500D01*
X163893Y142100D01*
X163700Y138300D02*
X164100Y139100D01*
X163700Y139900D01*
X164500Y139500D01*
X165300Y139900D01*
X164900Y139100D01*
X165300Y138300D01*
X164500Y138700D01*
X163700Y138300D01*
X163800Y136100D02*
X164200Y136900D01*
X163800Y137700D01*
X164600Y137300D01*
X165400Y137700D01*
X165000Y136900D01*
X165400Y136100D01*
X164600Y136500D01*
X163800Y136100D01*
X165211Y134400D02*
X165611Y135200D01*
X165211Y136000D01*
X166011Y135600D01*
X166811Y136000D01*
X166411Y135200D01*
X166811Y134400D01*
X166011Y134800D01*
X165211Y134400D01*
X163200Y132700D02*
X163600Y133500D01*
X163200Y134300D01*
X164000Y133900D01*
X164800Y134300D01*
X164400Y133500D01*
X164800Y132700D01*
X164000Y133100D01*
X163200Y132700D01*
X44600Y141200D02*
X45000Y142000D01*
X44600Y142800D01*
X45400Y142400D01*
X46200Y142800D01*
X45800Y142000D01*
X46200Y141200D01*
X45400Y141600D01*
X44600Y141200D01*
X254800Y153700D02*
X255200Y154500D01*
X254800Y155300D01*
X255600Y154900D01*
X256400Y155300D01*
X256000Y154500D01*
X256400Y153700D01*
X255600Y154100D01*
X254800Y153700D01*
X252527Y172473D02*
X252927Y173273D01*
X252527Y174073D01*
X253327Y173673D01*
X254127Y174073D01*
X253727Y173273D01*
X254127Y172473D01*
X253327Y172873D01*
X252527Y172473D01*
X241827D02*
X242227Y173273D01*
X241827Y174073D01*
X242627Y173673D01*
X243427Y174073D01*
X243027Y173273D01*
X243427Y172473D01*
X242627Y172873D01*
X241827Y172473D01*
X63840Y198481D02*
Y198081D01*
X64640D01*
Y198481D01*
X65040D01*
Y199281D01*
X64640D01*
Y199681D01*
X63840D01*
Y199281D01*
X63440D01*
Y198481D01*
X63840D01*
X190700Y162500D02*
X191100Y163300D01*
X190700Y164100D01*
X191500Y163700D01*
X192300Y164100D01*
X191900Y163300D01*
X192300Y162500D01*
X191500Y162900D01*
X190700Y162500D01*
X73310Y237490D02*
X73710Y238290D01*
X73310Y239090D01*
X74110Y238690D01*
X74910Y239090D01*
X74510Y238290D01*
X74910Y237490D01*
X74110Y237890D01*
X73310Y237490D01*
X66810D02*
X67210Y238290D01*
X66810Y239090D01*
X67610Y238690D01*
X68410Y239090D01*
X68010Y238290D01*
X68410Y237490D01*
X67610Y237890D01*
X66810Y237490D01*
X228500Y141400D02*
X228900Y142200D01*
X228500Y143000D01*
X229300Y142600D01*
X230100Y143000D01*
X229700Y142200D01*
X230100Y141400D01*
X229300Y141800D01*
X228500Y141400D01*
X228453Y146453D02*
X228853Y147253D01*
X228453Y148053D01*
X229253Y147653D01*
X230053Y148053D01*
X229653Y147253D01*
X230053Y146453D01*
X229253Y146853D01*
X228453Y146453D01*
X100300Y245200D02*
X100700Y246000D01*
X100300Y246800D01*
X101100Y246400D01*
X101900Y246800D01*
X101500Y246000D01*
X101900Y245200D01*
X101100Y245600D01*
X100300Y245200D01*
X98232Y246932D02*
X98632Y247731D01*
X98232Y248532D01*
X99032Y248131D01*
X99831Y248532D01*
X99432Y247731D01*
X99831Y246932D01*
X99032Y247332D01*
X98232Y246932D01*
X110600Y215900D02*
X111000Y216700D01*
X110600Y217500D01*
X111400Y217100D01*
X112200Y217500D01*
X111800Y216700D01*
X112200Y215900D01*
X111400Y216300D01*
X110600Y215900D01*
X101500D02*
X101900Y216700D01*
X101500Y217500D01*
X102300Y217100D01*
X103100Y217500D01*
X102700Y216700D01*
X103100Y215900D01*
X102300Y216300D01*
X101500Y215900D01*
X318200Y236800D02*
X318600Y237600D01*
X318200Y238400D01*
X319000Y238000D01*
X319800Y238400D01*
X319400Y237600D01*
X319800Y236800D01*
X319000Y237200D01*
X318200Y236800D01*
X300500Y236900D02*
X300900Y237700D01*
X300500Y238500D01*
X301300Y238100D01*
X302100Y238500D01*
X301700Y237700D01*
X302100Y236900D01*
X301300Y237300D01*
X300500Y236900D01*
X196600Y157200D02*
X197000Y158000D01*
X196600Y158800D01*
X197400Y158400D01*
X198200Y158800D01*
X197800Y158000D01*
X198200Y157200D01*
X197400Y157600D01*
X196600Y157200D01*
X230200Y157400D02*
X230600Y158200D01*
X230200Y159000D01*
X231000Y158600D01*
X231800Y159000D01*
X231400Y158200D01*
X231800Y157400D01*
X231000Y157800D01*
X230200Y157400D01*
X192700Y161300D02*
X193100Y162100D01*
X192700Y162900D01*
X193500Y162500D01*
X194300Y162900D01*
X193900Y162100D01*
X194300Y161300D01*
X193500Y161700D01*
X192700Y161300D01*
X246800Y165800D02*
X247200Y166600D01*
X246800Y167400D01*
X247600Y167000D01*
X248400Y167400D01*
X248000Y166600D01*
X248400Y165800D01*
X247600Y166200D01*
X246800Y165800D01*
X242437Y186063D02*
X242837Y186863D01*
X242437Y187663D01*
X243237Y187263D01*
X244037Y187663D01*
X243637Y186863D01*
X244037Y186063D01*
X243237Y186463D01*
X242437Y186063D01*
X202140Y179240D02*
X202540Y180040D01*
X202140Y180840D01*
X202940Y180440D01*
X203740Y180840D01*
X203340Y180040D01*
X203740Y179240D01*
X202940Y179640D01*
X202140Y179240D01*
X220200Y153500D02*
X220600Y154300D01*
X220200Y155100D01*
X221000Y154700D01*
X221800Y155100D01*
X221400Y154300D01*
X221800Y153500D01*
X221000Y153900D01*
X220200Y153500D01*
X181004Y130596D02*
X181404Y131396D01*
X181004Y132196D01*
X181804Y131796D01*
X182604Y132196D01*
X182204Y131396D01*
X182604Y130596D01*
X181804Y130996D01*
X181004Y130596D01*
X237800Y127500D02*
X238200Y128300D01*
X237800Y129100D01*
X238600Y128700D01*
X239400Y129100D01*
X239000Y128300D01*
X239400Y127500D01*
X238600Y127900D01*
X237800Y127500D01*
X178600Y131000D02*
X179000Y131800D01*
X178600Y132600D01*
X179400Y132200D01*
X180200Y132600D01*
X179800Y131800D01*
X180200Y131000D01*
X179400Y131400D01*
X178600Y131000D01*
X235600Y128400D02*
X236000Y129200D01*
X235600Y130000D01*
X236400Y129600D01*
X237200Y130000D01*
X236800Y129200D01*
X237200Y128400D01*
X236400Y128800D01*
X235600Y128400D01*
X174800Y140100D02*
X175200Y140900D01*
X174800Y141700D01*
X175600Y141300D01*
X176400Y141700D01*
X176000Y140900D01*
X176400Y140100D01*
X175600Y140500D01*
X174800Y140100D01*
X259200Y147400D02*
X259600Y148200D01*
X259200Y149000D01*
X260000Y148600D01*
X260800Y149000D01*
X260400Y148200D01*
X260800Y147400D01*
X260000Y147800D01*
X259200Y147400D01*
X178800Y134000D02*
X179200Y134800D01*
X178800Y135600D01*
X179600Y135200D01*
X180400Y135600D01*
X180000Y134800D01*
X180400Y134000D01*
X179600Y134400D01*
X178800Y134000D01*
X181400Y157600D02*
X181800Y158400D01*
X181400Y159200D01*
X182200Y158800D01*
X183000Y159200D01*
X182600Y158400D01*
X183000Y157600D01*
X182200Y158000D01*
X181400Y157600D01*
X280800Y164703D02*
X281200Y165503D01*
X280800Y166303D01*
X281600Y165903D01*
X282400Y166303D01*
X282000Y165503D01*
X282400Y164703D01*
X281600Y165103D01*
X280800Y164703D01*
X299400Y134100D02*
X299800Y134900D01*
X299400Y135700D01*
X300200Y135300D01*
X301000Y135700D01*
X300600Y134900D01*
X301000Y134100D01*
X300200Y134500D01*
X299400Y134100D01*
X200758Y161658D02*
X201158Y162458D01*
X200758Y163258D01*
X201558Y162858D01*
X202358Y163258D01*
X201958Y162458D01*
X202358Y161658D01*
X201558Y162058D01*
X200758Y161658D01*
X361400Y165100D02*
X361800Y165900D01*
X361400Y166700D01*
X362200Y166300D01*
X363000Y166700D01*
X362600Y165900D01*
X363000Y165100D01*
X362200Y165500D01*
X361400Y165100D01*
X359600Y155100D02*
X360000Y155900D01*
X359600Y156700D01*
X360400Y156300D01*
X361200Y156700D01*
X360800Y155900D01*
X361200Y155100D01*
X360400Y155500D01*
X359600Y155100D01*
X149500Y132100D02*
X149900Y132900D01*
X149500Y133700D01*
X150300Y133300D01*
X151100Y133700D01*
X150700Y132900D01*
X151100Y132100D01*
X150300Y132500D01*
X149500Y132100D01*
X144200Y203900D02*
X144600Y204700D01*
X144200Y205500D01*
X145000Y205100D01*
X145800Y205500D01*
X145400Y204700D01*
X145800Y203900D01*
X145000Y204300D01*
X144200Y203900D01*
X334400Y193500D02*
X334800Y194300D01*
X334400Y195100D01*
X335200Y194700D01*
X336000Y195100D01*
X335600Y194300D01*
X336000Y193500D01*
X335200Y193900D01*
X334400Y193500D01*
X274900Y135600D02*
X275300Y136400D01*
X274900Y137200D01*
X275700Y136800D01*
X276500Y137200D01*
X276100Y136400D01*
X276500Y135600D01*
X275700Y136000D01*
X274900Y135600D01*
X219700Y156200D02*
X220100Y157000D01*
X219700Y157800D01*
X220500Y157400D01*
X221300Y157800D01*
X220900Y157000D01*
X221300Y156200D01*
X220500Y156600D01*
X219700Y156200D01*
X264600Y168300D02*
X265000Y169100D01*
X264600Y169900D01*
X265400Y169500D01*
X266200Y169900D01*
X265800Y169100D01*
X266200Y168300D01*
X265400Y168700D01*
X264600Y168300D01*
X213800Y127400D02*
X214200Y128200D01*
X213800Y129000D01*
X214600Y128600D01*
X215400Y129000D01*
X215000Y128200D01*
X215400Y127400D01*
X214600Y127800D01*
X213800Y127400D01*
X270100Y134000D02*
X270500Y134800D01*
X270100Y135600D01*
X270900Y135200D01*
X271700Y135600D01*
X271300Y134800D01*
X271700Y134000D01*
X270900Y134400D01*
X270100Y134000D01*
X302800Y248700D02*
X303200Y249500D01*
X302800Y250300D01*
X303600Y249900D01*
X304400Y250300D01*
X304000Y249500D01*
X304400Y248700D01*
X303600Y249100D01*
X302800Y248700D01*
X316200Y259900D02*
X316600Y260700D01*
X316200Y261500D01*
X317000Y261100D01*
X317800Y261500D01*
X317400Y260700D01*
X317800Y259900D01*
X317000Y260300D01*
X316200Y259900D01*
X179400Y136200D02*
X179800Y137000D01*
X179400Y137800D01*
X180200Y137400D01*
X181000Y137800D01*
X180600Y137000D01*
X181000Y136200D01*
X180200Y136600D01*
X179400Y136200D01*
X163607Y160200D02*
X164007Y161000D01*
X163607Y161800D01*
X164407Y161400D01*
X165207Y161800D01*
X164807Y161000D01*
X165207Y160200D01*
X164407Y160600D01*
X163607Y160200D01*
X166800Y282900D02*
X167200Y283700D01*
X166800Y284500D01*
X167600Y284100D01*
X168400Y284500D01*
X168000Y283700D01*
X168400Y282900D01*
X167600Y283300D01*
X166800Y282900D01*
X308800Y283300D02*
X309200Y284100D01*
X308800Y284900D01*
X309600Y284500D01*
X310400Y284900D01*
X310000Y284100D01*
X310400Y283300D01*
X309600Y283700D01*
X308800Y283300D01*
X187300Y187300D02*
X187700Y188100D01*
X187300Y188900D01*
X188100Y188500D01*
X188900Y188900D01*
X188500Y188100D01*
X188900Y187300D01*
X188100Y187700D01*
X187300Y187300D01*
X193600D02*
X194000Y188100D01*
X193600Y188900D01*
X194400Y188500D01*
X195200Y188900D01*
X194800Y188100D01*
X195200Y187300D01*
X194400Y187700D01*
X193600Y187300D01*
X193700Y264500D02*
X194100Y265300D01*
X193700Y266100D01*
X194500Y265700D01*
X195300Y266100D01*
X194900Y265300D01*
X195300Y264500D01*
X194500Y264900D01*
X193700Y264500D01*
X339500Y274000D02*
X339900Y274800D01*
X339500Y275600D01*
X340300Y275200D01*
X341100Y275600D01*
X340700Y274800D01*
X341100Y274000D01*
X340300Y274400D01*
X339500Y274000D01*
X183100Y161800D02*
X183500Y162600D01*
X183100Y163400D01*
X183900Y163000D01*
X184700Y163400D01*
X184300Y162600D01*
X184700Y161800D01*
X183900Y162200D01*
X183100Y161800D01*
X185300Y190400D02*
X185700Y191200D01*
X185300Y192000D01*
X186100Y191600D01*
X186900Y192000D01*
X186500Y191200D01*
X186900Y190400D01*
X186100Y190800D01*
X185300Y190400D01*
X193500Y190300D02*
X193900Y191100D01*
X193500Y191900D01*
X194300Y191500D01*
X195100Y191900D01*
X194700Y191100D01*
X195100Y190300D01*
X194300Y190700D01*
X193500Y190300D01*
X197300Y271900D02*
X197700Y272700D01*
X197300Y273500D01*
X198100Y273100D01*
X198900Y273500D01*
X198500Y272700D01*
X198900Y271900D01*
X198100Y272300D01*
X197300Y271900D01*
X318700Y280100D02*
X319100Y280900D01*
X318700Y281700D01*
X319500Y281300D01*
X320300Y281700D01*
X319900Y280900D01*
X320300Y280100D01*
X319500Y280500D01*
X318700Y280100D01*
X349200Y239000D02*
X349600Y239800D01*
X349200Y240600D01*
X350000Y240200D01*
X350800Y240600D01*
X350400Y239800D01*
X350800Y239000D01*
X350000Y239400D01*
X349200Y239000D01*
X365049Y221651D02*
X365449Y222451D01*
X365049Y223251D01*
X365849Y222851D01*
X366649Y223251D01*
X366249Y222451D01*
X366649Y221651D01*
X365849Y222051D01*
X365049Y221651D01*
X345454Y274946D02*
X345853Y275746D01*
X345454Y276547D01*
X346253Y276147D01*
X347054Y276547D01*
X346654Y275746D01*
X347054Y274946D01*
X346253Y275346D01*
X345454Y274946D01*
Y284200D02*
X345853Y285000D01*
X345454Y285800D01*
X346253Y285400D01*
X347054Y285800D01*
X346654Y285000D01*
X347054Y284200D01*
X346253Y284600D01*
X345454Y284200D01*
X351700Y231651D02*
X352100Y232451D01*
X351700Y233251D01*
X352500Y232851D01*
X353300Y233251D01*
X352900Y232451D01*
X353300Y231651D01*
X352500Y232051D01*
X351700Y231651D01*
X352151Y221651D02*
X352551Y222451D01*
X352151Y223251D01*
X352951Y222851D01*
X353751Y223251D01*
X353351Y222451D01*
X353751Y221651D01*
X352951Y222051D01*
X352151Y221651D01*
X325976Y231124D02*
X326376Y231924D01*
X325976Y232724D01*
X326776Y232324D01*
X327576Y232724D01*
X327176Y231924D01*
X327576Y231124D01*
X326776Y231524D01*
X325976Y231124D01*
X323685Y228385D02*
X324085Y229185D01*
X323685Y229985D01*
X324485Y229585D01*
X325285Y229985D01*
X324885Y229185D01*
X325285Y228385D01*
X324485Y228785D01*
X323685Y228385D01*
X336005Y248705D02*
X336405Y249505D01*
X336005Y250305D01*
X336805Y249905D01*
X337605Y250305D01*
X337205Y249505D01*
X337605Y248705D01*
X336805Y249105D01*
X336005Y248705D01*
X335163Y237837D02*
X335563Y238637D01*
X335163Y239437D01*
X335963Y239037D01*
X336763Y239437D01*
X336363Y238637D01*
X336763Y237837D01*
X335963Y238237D01*
X335163Y237837D01*
Y229563D02*
X335563Y230363D01*
X335163Y231163D01*
X335963Y230763D01*
X336763Y231163D01*
X336363Y230363D01*
X336763Y229563D01*
X335963Y229963D01*
X335163Y229563D01*
X185500Y130900D02*
X185900Y131700D01*
X185500Y132500D01*
X186300Y132100D01*
X187100Y132500D01*
X186700Y131700D01*
X187100Y130900D01*
X186300Y131300D01*
X185500Y130900D01*
X343300Y191700D02*
X343700Y192500D01*
X343300Y193300D01*
X344100Y192900D01*
X344900Y193300D01*
X344500Y192500D01*
X344900Y191700D01*
X344100Y192100D01*
X343300Y191700D01*
X271500Y185400D02*
X271900Y186200D01*
X271500Y187000D01*
X272300Y186600D01*
X273100Y187000D01*
X272700Y186200D01*
X273100Y185400D01*
X272300Y185800D01*
X271500Y185400D01*
X271600Y144500D02*
X272000Y145300D01*
X271600Y146100D01*
X272400Y145700D01*
X273200Y146100D01*
X272800Y145300D01*
X273200Y144500D01*
X272400Y144900D01*
X271600Y144500D01*
X183200Y144300D02*
X183600Y145100D01*
X183200Y145900D01*
X184000Y145500D01*
X184800Y145900D01*
X184400Y145100D01*
X184800Y144300D01*
X184000Y144700D01*
X183200Y144300D01*
X175000Y166100D02*
X175400Y166900D01*
X175000Y167700D01*
X175800Y167300D01*
X176600Y167700D01*
X176200Y166900D01*
X176600Y166100D01*
X175800Y166500D01*
X175000Y166100D01*
X327200Y149200D02*
X327600Y150000D01*
X327200Y150800D01*
X328000Y150400D01*
X328800Y150800D01*
X328400Y150000D01*
X328800Y149200D01*
X328000Y149600D01*
X327200Y149200D01*
X227710Y117190D02*
X228110Y117990D01*
X227710Y118790D01*
X228510Y118390D01*
X229310Y118790D01*
X228910Y117990D01*
X229310Y117190D01*
X228510Y117590D01*
X227710Y117190D01*
X198900Y113000D02*
X199300Y113800D01*
X198900Y114600D01*
X199700Y114200D01*
X200500Y114600D01*
X200100Y113800D01*
X200500Y113000D01*
X199700Y113400D01*
X198900Y113000D01*
X324500Y149800D02*
X324900Y150600D01*
X324500Y151400D01*
X325300Y151000D01*
X326100Y151400D01*
X325700Y150600D01*
X326100Y149800D01*
X325300Y150200D01*
X324500Y149800D01*
X202800Y114848D02*
X203200Y115648D01*
X202800Y116448D01*
X203600Y116048D01*
X204400Y116448D01*
X204000Y115648D01*
X204400Y114848D01*
X203600Y115248D01*
X202800Y114848D01*
X321700Y151700D02*
X322100Y152500D01*
X321700Y153300D01*
X322500Y152900D01*
X323300Y153300D01*
X322900Y152500D01*
X323300Y151700D01*
X322500Y152100D01*
X321700Y151700D01*
X200609Y116900D02*
X201009Y117700D01*
X200609Y118500D01*
X201409Y118100D01*
X202209Y118500D01*
X201809Y117700D01*
X202209Y116900D01*
X201409Y117300D01*
X200609Y116900D01*
X190266Y179875D02*
X190666Y180675D01*
X190266Y181475D01*
X191066Y181075D01*
X191866Y181475D01*
X191466Y180675D01*
X191866Y179875D01*
X191066Y180275D01*
X190266Y179875D01*
X186700Y179900D02*
X187100Y180700D01*
X186700Y181500D01*
X187500Y181100D01*
X188300Y181500D01*
X187900Y180700D01*
X188300Y179900D01*
X187500Y180300D01*
X186700Y179900D01*
X187004Y175275D02*
X187404Y176075D01*
X187004Y176875D01*
X187804Y176475D01*
X188604Y176875D01*
X188204Y176075D01*
X188604Y175275D01*
X187804Y175675D01*
X187004Y175275D01*
X188947Y173053D02*
X189347Y173853D01*
X188947Y174653D01*
X189747Y174253D01*
X190547Y174653D01*
X190147Y173853D01*
X190547Y173053D01*
X189747Y173453D01*
X188947Y173053D01*
X172200Y216100D02*
X172600Y216900D01*
X172200Y217700D01*
X173000Y217300D01*
X173800Y217700D01*
X173400Y216900D01*
X173800Y216100D01*
X173000Y216500D01*
X172200Y216100D01*
X137300Y217600D02*
X137700Y218400D01*
X137300Y219200D01*
X138100Y218800D01*
X138900Y219200D01*
X138500Y218400D01*
X138900Y217600D01*
X138100Y218000D01*
X137300Y217600D01*
X140700Y130100D02*
X141100Y130900D01*
X140700Y131700D01*
X141500Y131300D01*
X142300Y131700D01*
X141900Y130900D01*
X142300Y130100D01*
X141500Y130500D01*
X140700Y130100D01*
X164601Y130200D02*
X165001Y131000D01*
X164601Y131800D01*
X165401Y131400D01*
X166201Y131800D01*
X165801Y131000D01*
X166201Y130200D01*
X165401Y130600D01*
X164601Y130200D01*
X157731Y144200D02*
X158132Y145000D01*
X157731Y145800D01*
X158531Y145400D01*
X159332Y145800D01*
X158932Y145000D01*
X159332Y144200D01*
X158531Y144600D01*
X157731Y144200D01*
Y140469D02*
X158132Y141269D01*
X157731Y142069D01*
X158531Y141668D01*
X159332Y142069D01*
X158932Y141269D01*
X159332Y140469D01*
X158531Y140868D01*
X157731Y140469D01*
X192884Y128916D02*
X193284Y129716D01*
X192884Y130516D01*
X193684Y130116D01*
X194484Y130516D01*
X194084Y129716D01*
X194484Y128916D01*
X193684Y129316D01*
X192884Y128916D01*
X251400Y135100D02*
X251800Y135900D01*
X251400Y136700D01*
X252200Y136300D01*
X253000Y136700D01*
X252600Y135900D01*
X253000Y135100D01*
X252200Y135500D01*
X251400Y135100D01*
X227710Y111490D02*
X228110Y112290D01*
X227710Y113090D01*
X228510Y112690D01*
X229310Y113090D01*
X228910Y112290D01*
X229310Y111490D01*
X228510Y111890D01*
X227710Y111490D01*
X228010Y128000D02*
X228410Y128800D01*
X228010Y129600D01*
X228810Y129200D01*
X229610Y129600D01*
X229210Y128800D01*
X229610Y128000D01*
X228810Y128400D01*
X228010Y128000D01*
X242100Y102500D02*
X242500Y103300D01*
X242100Y104100D01*
X242900Y103700D01*
X243700Y104100D01*
X243300Y103300D01*
X243700Y102500D01*
X242900Y102900D01*
X242100Y102500D01*
X214300Y165900D02*
X214700Y166700D01*
X214300Y167500D01*
X215100Y167100D01*
X215900Y167500D01*
X215500Y166700D01*
X215900Y165900D01*
X215100Y166300D01*
X214300Y165900D01*
X205000Y173800D02*
X205400Y174600D01*
X205000Y175400D01*
X205800Y175000D01*
X206600Y175400D01*
X206200Y174600D01*
X206600Y173800D01*
X205800Y174200D01*
X205000Y173800D01*
X94500Y164400D02*
X94900Y165200D01*
X94500Y166000D01*
X95300Y165600D01*
X96100Y166000D01*
X95700Y165200D01*
X96100Y164400D01*
X95300Y164800D01*
X94500Y164400D01*
X105300Y126000D02*
X105700Y126800D01*
X105300Y127600D01*
X106100Y127200D01*
X106900Y127600D01*
X106500Y126800D01*
X106900Y126000D01*
X106100Y126400D01*
X105300Y126000D01*
X111700Y154100D02*
X112100Y154900D01*
X111700Y155700D01*
X112500Y155300D01*
X113300Y155700D01*
X112900Y154900D01*
X113300Y154100D01*
X112500Y154500D01*
X111700Y154100D01*
X99000Y149200D02*
X99400Y150000D01*
X99000Y150800D01*
X99800Y150400D01*
X100600Y150800D01*
X100200Y150000D01*
X100600Y149200D01*
X99800Y149600D01*
X99000Y149200D01*
X90341Y144400D02*
X90741Y145200D01*
X90341Y146000D01*
X91141Y145600D01*
X91941Y146000D01*
X91541Y145200D01*
X91941Y144400D01*
X91141Y144800D01*
X90341Y144400D01*
X94670Y142030D02*
X95070Y142830D01*
X94670Y143630D01*
X95470Y143230D01*
X96270Y143630D01*
X95870Y142830D01*
X96270Y142030D01*
X95470Y142430D01*
X94670Y142030D01*
X211700Y171800D02*
X212100Y172600D01*
X211700Y173400D01*
X212500Y173000D01*
X213300Y173400D01*
X212900Y172600D01*
X213300Y171800D01*
X212500Y172200D01*
X211700Y171800D01*
X166800Y171900D02*
X167200Y172700D01*
X166800Y173500D01*
X167600Y173100D01*
X168400Y173500D01*
X168000Y172700D01*
X168400Y171900D01*
X167600Y172300D01*
X166800Y171900D01*
X175500Y150100D02*
X175900Y150900D01*
X175500Y151700D01*
X176300Y151300D01*
X177100Y151700D01*
X176700Y150900D01*
X177100Y150100D01*
X176300Y150500D01*
X175500Y150100D01*
X149000D02*
X149400Y150900D01*
X149000Y151700D01*
X149800Y151300D01*
X150600Y151700D01*
X150200Y150900D01*
X150600Y150100D01*
X149800Y150500D01*
X149000Y150100D01*
X135300Y174600D02*
X135700Y175400D01*
X135300Y176200D01*
X136100Y175800D01*
X136900Y176200D01*
X136500Y175400D01*
X136900Y174600D01*
X136100Y175000D01*
X135300Y174600D01*
X147500Y175500D02*
X147900Y176300D01*
X147500Y177100D01*
X148300Y176700D01*
X149100Y177100D01*
X148700Y176300D01*
X149100Y175500D01*
X148300Y175900D01*
X147500Y175500D01*
X93353Y179853D02*
X93753Y180653D01*
X93353Y181453D01*
X94153Y181053D01*
X94953Y181453D01*
X94553Y180653D01*
X94953Y179853D01*
X94153Y180253D01*
X93353Y179853D01*
X212000Y193800D02*
X212400Y194600D01*
X212000Y195400D01*
X212800Y195000D01*
X213600Y195400D01*
X213200Y194600D01*
X213600Y193800D01*
X212800Y194200D01*
X212000Y193800D01*
X82200Y214400D02*
X82600Y215200D01*
X82200Y216000D01*
X83000Y215600D01*
X83800Y216000D01*
X83400Y215200D01*
X83800Y214400D01*
X83000Y214800D01*
X82200Y214400D01*
X52000Y222300D02*
X52400Y223100D01*
X52000Y223900D01*
X52800Y223500D01*
X53600Y223900D01*
X53200Y223100D01*
X53600Y222300D01*
X52800Y222700D01*
X52000Y222300D01*
X56300Y219600D02*
X56700Y220400D01*
X56300Y221200D01*
X57100Y220800D01*
X57900Y221200D01*
X57500Y220400D01*
X57900Y219600D01*
X57100Y220000D01*
X56300Y219600D01*
X208700Y194300D02*
X209100Y195100D01*
X208700Y195900D01*
X209500Y195500D01*
X210300Y195900D01*
X209900Y195100D01*
X210300Y194300D01*
X209500Y194700D01*
X208700Y194300D01*
X65319Y221281D02*
X65719Y222081D01*
X65319Y222881D01*
X66119Y222481D01*
X66919Y222881D01*
X66519Y222081D01*
X66919Y221281D01*
X66119Y221681D01*
X65319Y221281D01*
X203300Y193200D02*
X203700Y194000D01*
X203300Y194800D01*
X204100Y194400D01*
X204900Y194800D01*
X204500Y194000D01*
X204900Y193200D01*
X204100Y193600D01*
X203300Y193200D01*
X207200Y175300D02*
X207600Y176100D01*
X207200Y176900D01*
X208000Y176500D01*
X208800Y176900D01*
X208400Y176100D01*
X208800Y175300D01*
X208000Y175700D01*
X207200Y175300D01*
X33000Y224477D02*
X33400Y225277D01*
X33000Y226077D01*
X33800Y225677D01*
X34600Y226077D01*
X34200Y225277D01*
X34600Y224477D01*
X33800Y224877D01*
X33000Y224477D01*
X165100Y151800D02*
X165500Y152600D01*
X165100Y153400D01*
X165900Y153000D01*
X166700Y153400D01*
X166300Y152600D01*
X166700Y151800D01*
X165900Y152200D01*
X165100Y151800D01*
X120900Y149100D02*
X121300Y149900D01*
X120900Y150700D01*
X121700Y150300D01*
X122500Y150700D01*
X122100Y149900D01*
X122500Y149100D01*
X121700Y149500D01*
X120900Y149100D01*
X109900Y177000D02*
X110300Y177800D01*
X109900Y178600D01*
X110700Y178200D01*
X111500Y178600D01*
X111100Y177800D01*
X111500Y177000D01*
X110700Y177400D01*
X109900Y177000D01*
X129100Y192900D02*
X129500Y193700D01*
X129100Y194500D01*
X129900Y194100D01*
X130700Y194500D01*
X130300Y193700D01*
X130700Y192900D01*
X129900Y193300D01*
X129100Y192900D01*
X34700Y229000D02*
X35100Y229800D01*
X34700Y230600D01*
X35500Y230200D01*
X36300Y230600D01*
X35900Y229800D01*
X36300Y229000D01*
X35500Y229400D01*
X34700Y229000D01*
X150100Y163300D02*
X150500Y164100D01*
X150100Y164900D01*
X150900Y164500D01*
X151700Y164900D01*
X151300Y164100D01*
X151700Y163300D01*
X150900Y163700D01*
X150100Y163300D01*
X176600Y176000D02*
X177000Y176800D01*
X176600Y177600D01*
X177400Y177200D01*
X178200Y177600D01*
X177800Y176800D01*
X178200Y176000D01*
X177400Y176400D01*
X176600Y176000D01*
X156300Y164400D02*
X156700Y165200D01*
X156300Y166000D01*
X157100Y165600D01*
X157900Y166000D01*
X157500Y165200D01*
X157900Y164400D01*
X157100Y164800D01*
X156300Y164400D01*
X151300Y174100D02*
X151700Y174900D01*
X151300Y175700D01*
X152100Y175300D01*
X152900Y175700D01*
X152500Y174900D01*
X152900Y174100D01*
X152100Y174500D01*
X151300Y174100D01*
X192000Y176800D02*
X192400Y177600D01*
X192000Y178400D01*
X192800Y178000D01*
X193600Y178400D01*
X193200Y177600D01*
X193600Y176800D01*
X192800Y177200D01*
X192000Y176800D01*
X161100Y174100D02*
X161500Y174900D01*
X161100Y175700D01*
X161900Y175300D01*
X162700Y175700D01*
X162300Y174900D01*
X162700Y174100D01*
X161900Y174500D01*
X161100Y174100D01*
X156426Y153074D02*
X156826Y153874D01*
X156426Y154674D01*
X157226Y154274D01*
X158026Y154674D01*
X157626Y153874D01*
X158026Y153074D01*
X157226Y153474D01*
X156426Y153074D01*
X156388Y156812D02*
X156788Y157612D01*
X156388Y158412D01*
X157188Y158012D01*
X157988Y158412D01*
X157588Y157612D01*
X157988Y156812D01*
X157188Y157212D01*
X156388Y156812D01*
X181200Y176500D02*
X181600Y177300D01*
X181200Y178100D01*
X182000Y177700D01*
X182800Y178100D01*
X182400Y177300D01*
X182800Y176500D01*
X182000Y176900D01*
X181200Y176500D01*
X17800Y171200D02*
X18200Y172000D01*
X17800Y172800D01*
X18600Y172400D01*
X19400Y172800D01*
X19000Y172000D01*
X19400Y171200D01*
X18600Y171600D01*
X17800Y171200D01*
X144400Y118300D02*
X144800Y119100D01*
X144400Y119900D01*
X145200Y119500D01*
X146000Y119900D01*
X145600Y119100D01*
X146000Y118300D01*
X145200Y118700D01*
X144400Y118300D01*
X148100Y147256D02*
X148500Y148056D01*
X148100Y148856D01*
X148900Y148456D01*
X149700Y148856D01*
X149300Y148056D01*
X149700Y147256D01*
X148900Y147656D01*
X148100Y147256D01*
X144413Y145413D02*
X144813Y146213D01*
X144413Y147013D01*
X145213Y146613D01*
X146013Y147013D01*
X145613Y146213D01*
X146013Y145413D01*
X145213Y145813D01*
X144413Y145413D01*
X137225Y144775D02*
X137625Y145575D01*
X137225Y146375D01*
X138025Y145975D01*
X138825Y146375D01*
X138425Y145575D01*
X138825Y144775D01*
X138025Y145175D01*
X137225Y144775D01*
X139100Y143100D02*
X139500Y143900D01*
X139100Y144700D01*
X139900Y144300D01*
X140700Y144700D01*
X140300Y143900D01*
X140700Y143100D01*
X139900Y143500D01*
X139100Y143100D01*
X120000Y133900D02*
X120400Y134700D01*
X120000Y135500D01*
X120800Y135100D01*
X121600Y135500D01*
X121200Y134700D01*
X121600Y133900D01*
X120800Y134300D01*
X120000Y133900D01*
X153500Y161800D02*
X153900Y162600D01*
X153500Y163400D01*
X154300Y163000D01*
X155100Y163400D01*
X154700Y162600D01*
X155100Y161800D01*
X154300Y162200D01*
X153500Y161800D01*
X150200Y100400D02*
X150600Y101200D01*
X150200Y102000D01*
X151000Y101600D01*
X151800Y102000D01*
X151400Y101200D01*
X151800Y100400D01*
X151000Y100800D01*
X150200Y100400D01*
X60100Y82300D02*
X60500Y83100D01*
X60100Y83900D01*
X60900Y83500D01*
X61700Y83900D01*
X61300Y83100D01*
X61700Y82300D01*
X60900Y82700D01*
X60100Y82300D01*
X311000Y97500D02*
X311400Y98300D01*
X311000Y99100D01*
X311800Y98700D01*
X312600Y99100D01*
X312200Y98300D01*
X312600Y97500D01*
X311800Y97900D01*
X311000Y97500D01*
X322000Y92800D02*
X322400Y93600D01*
X322000Y94400D01*
X322800Y94000D01*
X323600Y94400D01*
X323200Y93600D01*
X323600Y92800D01*
X322800Y93200D01*
X322000Y92800D01*
X342700Y86200D02*
X343100Y87000D01*
X342700Y87800D01*
X343500Y87400D01*
X344300Y87800D01*
X343900Y87000D01*
X344300Y86200D01*
X343500Y86600D01*
X342700Y86200D01*
X194900Y117200D02*
X195300Y118000D01*
X194900Y118800D01*
X195700Y118400D01*
X196500Y118800D01*
X196100Y118000D01*
X196500Y117200D01*
X195700Y117600D01*
X194900Y117200D01*
X186800Y118000D02*
X187200Y118800D01*
X186800Y119600D01*
X187600Y119200D01*
X188400Y119600D01*
X188000Y118800D01*
X188400Y118000D01*
X187600Y118400D01*
X186800Y118000D01*
X186912Y113106D02*
X187312Y113906D01*
X186912Y114706D01*
X187712Y114306D01*
X188512Y114706D01*
X188112Y113906D01*
X188512Y113106D01*
X187712Y113506D01*
X186912Y113106D01*
X147500Y118700D02*
X147900Y119500D01*
X147500Y120300D01*
X148300Y119900D01*
X149100Y120300D01*
X148700Y119500D01*
X149100Y118700D01*
X148300Y119100D01*
X147500Y118700D01*
X145500Y56800D02*
X145900Y57600D01*
X145500Y58400D01*
X146300Y58000D01*
X147100Y58400D01*
X146700Y57600D01*
X147100Y56800D01*
X146300Y57200D01*
X145500Y56800D01*
X279200Y21980D02*
X279600Y22780D01*
X279200Y23580D01*
X280000Y23180D01*
X280800Y23580D01*
X280400Y22780D01*
X280800Y21980D01*
X280000Y22380D01*
X279200Y21980D01*
X279400Y27442D02*
X279800Y28242D01*
X279400Y29043D01*
X280200Y28642D01*
X281000Y29043D01*
X280600Y28242D01*
X281000Y27442D01*
X280200Y27843D01*
X279400Y27442D01*
X251500Y140300D02*
X251900Y141100D01*
X251500Y141900D01*
X252300Y141500D01*
X253100Y141900D01*
X252700Y141100D01*
X253100Y140300D01*
X252300Y140700D01*
X251500Y140300D01*
X255000Y114600D02*
X255400Y115400D01*
X255000Y116200D01*
X255800Y115800D01*
X256600Y116200D01*
X256200Y115400D01*
X256600Y114600D01*
X255800Y115000D01*
X255000Y114600D01*
X255300Y103600D02*
X255700Y104400D01*
X255300Y105200D01*
X256100Y104800D01*
X256900Y105200D01*
X256500Y104400D01*
X256900Y103600D01*
X256100Y104000D01*
X255300Y103600D01*
X259400Y73500D02*
X259800Y74300D01*
X259400Y75100D01*
X260200Y74700D01*
X261000Y75100D01*
X260600Y74300D01*
X261000Y73500D01*
X260200Y73900D01*
X259400Y73500D01*
X328456Y71600D02*
X328856Y72400D01*
X328456Y73200D01*
X329257Y72800D01*
X330057Y73200D01*
X329657Y72400D01*
X330057Y71600D01*
X329257Y72000D01*
X328456Y71600D01*
X255400Y142300D02*
X255800Y143100D01*
X255400Y143900D01*
X256200Y143500D01*
X257000Y143900D01*
X256600Y143100D01*
X257000Y142300D01*
X256200Y142700D01*
X255400Y142300D01*
X259500Y114848D02*
X259900Y115648D01*
X259500Y116448D01*
X260300Y116048D01*
X261100Y116448D01*
X260700Y115648D01*
X261100Y114848D01*
X260300Y115248D01*
X259500Y114848D01*
Y105700D02*
X259900Y106500D01*
X259500Y107300D01*
X260300Y106900D01*
X261100Y107300D01*
X260700Y106500D01*
X261100Y105700D01*
X260300Y106100D01*
X259500Y105700D01*
X263500Y70700D02*
X263900Y71500D01*
X263500Y72300D01*
X264300Y71900D01*
X265100Y72300D01*
X264700Y71500D01*
X265100Y70700D01*
X264300Y71100D01*
X263500Y70700D01*
X283200Y48300D02*
X283600Y49100D01*
X283200Y49900D01*
X284000Y49500D01*
X284800Y49900D01*
X284400Y49100D01*
X284800Y48300D01*
X284000Y48700D01*
X283200Y48300D01*
X182975Y113425D02*
X183375Y114225D01*
X182975Y115025D01*
X183775Y114625D01*
X184575Y115025D01*
X184175Y114225D01*
X184575Y113425D01*
X183775Y113825D01*
X182975Y113425D01*
X181300Y115000D02*
X181700Y115800D01*
X181300Y116600D01*
X182100Y116200D01*
X182900Y116600D01*
X182500Y115800D01*
X182900Y115000D01*
X182100Y115400D01*
X181300Y115000D01*
X190500Y112600D02*
X190900Y113400D01*
X190500Y114200D01*
X191300Y113800D01*
X192100Y114200D01*
X191700Y113400D01*
X192100Y112600D01*
X191300Y113000D01*
X190500Y112600D01*
X165000Y111200D02*
X165400Y112000D01*
X165000Y112800D01*
X165800Y112400D01*
X166600Y112800D01*
X166200Y112000D01*
X166600Y111200D01*
X165800Y111600D01*
X165000Y111200D01*
X162100Y50300D02*
X162500Y51100D01*
X162100Y51900D01*
X162900Y51500D01*
X163700Y51900D01*
X163300Y51100D01*
X163700Y50300D01*
X162900Y50700D01*
X162100Y50300D01*
X303600Y31093D02*
X304000Y31892D01*
X303600Y32693D01*
X304400Y32293D01*
X305200Y32693D01*
X304800Y31892D01*
X305200Y31093D01*
X304400Y31492D01*
X303600Y31093D01*
X189000Y117500D02*
X189400Y118300D01*
X189000Y119100D01*
X189800Y118700D01*
X190600Y119100D01*
X190200Y118300D01*
X190600Y117500D01*
X189800Y117900D01*
X189000Y117500D01*
X156900Y116100D02*
X157300Y116900D01*
X156900Y117700D01*
X157700Y117300D01*
X158500Y117700D01*
X158100Y116900D01*
X158500Y116100D01*
X157700Y116500D01*
X156900Y116100D01*
X154500Y69500D02*
X154900Y70300D01*
X154500Y71100D01*
X155300Y70700D01*
X156100Y71100D01*
X155700Y70300D01*
X156100Y69500D01*
X155300Y69900D01*
X154500Y69500D01*
X312200Y27200D02*
X312600Y28000D01*
X312200Y28800D01*
X313000Y28400D01*
X313800Y28800D01*
X313400Y28000D01*
X313800Y27200D01*
X313000Y27600D01*
X312200Y27200D01*
X347431Y8432D02*
X347832Y9232D01*
X347431Y10031D01*
X348232Y9631D01*
X349031Y10031D01*
X348632Y9232D01*
X349031Y8432D01*
X348232Y8832D01*
X347431Y8432D01*
X345100Y10700D02*
X345500Y11500D01*
X345100Y12300D01*
X345900Y11900D01*
X346700Y12300D01*
X346300Y11500D01*
X346700Y10700D01*
X345900Y11100D01*
X345100Y10700D01*
X125969Y161369D02*
X126368Y162169D01*
X125969Y162969D01*
X126769Y162568D01*
X127568Y162969D01*
X127169Y162169D01*
X127568Y161369D01*
X126769Y161768D01*
X125969Y161369D01*
Y157668D02*
X126368Y158468D01*
X125969Y159268D01*
X126769Y158869D01*
X127568Y159268D01*
X127169Y158468D01*
X127568Y157668D01*
X126769Y158069D01*
X125969Y157668D01*
X105600Y162600D02*
X106000Y163400D01*
X105600Y164200D01*
X106400Y163800D01*
X107200Y164200D01*
X106800Y163400D01*
X107200Y162600D01*
X106400Y163000D01*
X105600Y162600D01*
X134400Y50600D02*
X134800Y51400D01*
X134400Y52200D01*
X135200Y51800D01*
X136000Y52200D01*
X135600Y51400D01*
X136000Y50600D01*
X135200Y51000D01*
X134400Y50600D01*
X353200Y3376D02*
X353600Y4176D01*
X353200Y4976D01*
X354000Y4576D01*
X354800Y4976D01*
X354400Y4176D01*
X354800Y3376D01*
X354000Y3776D01*
X353200Y3376D01*
X161200Y58800D02*
X161600Y59600D01*
X161200Y60400D01*
X162000Y60000D01*
X162800Y60400D01*
X162400Y59600D01*
X162800Y58800D01*
X162000Y59200D01*
X161200Y58800D01*
X363100Y3200D02*
X363500Y4000D01*
X363100Y4800D01*
X363900Y4400D01*
X364700Y4800D01*
X364300Y4000D01*
X364700Y3200D01*
X363900Y3600D01*
X363100Y3200D01*
X172700Y162500D02*
X173100Y163300D01*
X172700Y164100D01*
X173500Y163700D01*
X174300Y164100D01*
X173900Y163300D01*
X174300Y162500D01*
X173500Y162900D01*
X172700Y162500D01*
X130600Y157600D02*
X131000Y158400D01*
X130600Y159200D01*
X131400Y158800D01*
X132200Y159200D01*
X131800Y158400D01*
X132200Y157600D01*
X131400Y158000D01*
X130600Y157600D01*
X138200Y52500D02*
X138600Y53300D01*
X138200Y54100D01*
X139000Y53700D01*
X139800Y54100D01*
X139400Y53300D01*
X139800Y52500D01*
X139000Y52900D01*
X138200Y52500D01*
X362400Y6400D02*
X362800Y7200D01*
X362400Y8000D01*
X363200Y7600D01*
X364000Y8000D01*
X363600Y7200D01*
X364000Y6400D01*
X363200Y6800D01*
X362400Y6400D01*
X137800Y178400D02*
X138200Y179200D01*
X137800Y180000D01*
X138600Y179600D01*
X139400Y180000D01*
X139000Y179200D01*
X139400Y178400D01*
X138600Y178800D01*
X137800Y178400D01*
X143100Y57000D02*
X143500Y57800D01*
X143100Y58600D01*
X143900Y58200D01*
X144700Y58600D01*
X144300Y57800D01*
X144700Y57000D01*
X143900Y57400D01*
X143100Y57000D01*
X362894Y9600D02*
X363294Y10400D01*
X362894Y11200D01*
X363694Y10800D01*
X364494Y11200D01*
X364094Y10400D01*
X364494Y9600D01*
X363694Y10000D01*
X362894Y9600D01*
X157600Y60900D02*
X158000Y61700D01*
X157600Y62500D01*
X158400Y62100D01*
X159200Y62500D01*
X158800Y61700D01*
X159200Y60900D01*
X158400Y61300D01*
X157600Y60900D01*
X328900Y43200D02*
X329300Y44000D01*
X328900Y44800D01*
X329700Y44400D01*
X330500Y44800D01*
X330100Y44000D01*
X330500Y43200D01*
X329700Y43600D01*
X328900Y43200D01*
X354331Y24122D02*
X354731Y24922D01*
X354331Y25722D01*
X355132Y25322D01*
X355931Y25722D01*
X355532Y24922D01*
X355931Y24122D01*
X355132Y24522D01*
X354331Y24122D01*
Y20569D02*
X354731Y21369D01*
X354331Y22169D01*
X355132Y21768D01*
X355931Y22169D01*
X355532Y21369D01*
X355931Y20569D01*
X355132Y20968D01*
X354331Y20569D01*
X363687Y18813D02*
X364087Y19613D01*
X363687Y20413D01*
X364487Y20013D01*
X365287Y20413D01*
X364887Y19613D01*
X365287Y18813D01*
X364487Y19213D01*
X363687Y18813D01*
X364724Y14776D02*
X365124Y15576D01*
X364724Y16376D01*
X365524Y15976D01*
X366324Y16376D01*
X365924Y15576D01*
X366324Y14776D01*
X365524Y15176D01*
X364724Y14776D01*
X357125Y9675D02*
X357525Y10475D01*
X357125Y11275D01*
X357925Y10875D01*
X358725Y11275D01*
X358325Y10475D01*
X358725Y9675D01*
X357925Y10075D01*
X357125Y9675D01*
X345200Y6500D02*
X345600Y7300D01*
X345200Y8100D01*
X346000Y7700D01*
X346800Y8100D01*
X346400Y7300D01*
X346800Y6500D01*
X346000Y6900D01*
X345200Y6500D01*
X294041Y213458D02*
X294442Y214259D01*
X294041Y215058D01*
X294842Y214658D01*
X295641Y215058D01*
X295241Y214259D01*
X295641Y213458D01*
X294842Y213859D01*
X294041Y213458D01*
X291194Y219106D02*
X291594Y219906D01*
X291194Y220706D01*
X291994Y220306D01*
X292794Y220706D01*
X292394Y219906D01*
X292794Y219106D01*
X291994Y219506D01*
X291194Y219106D01*
X255678Y188278D02*
X256078Y189078D01*
X255678Y189878D01*
X256478Y189478D01*
X257278Y189878D01*
X256878Y189078D01*
X257278Y188278D01*
X256478Y188678D01*
X255678Y188278D01*
X257469Y189931D02*
X257869Y190732D01*
X257469Y191532D01*
X258268Y191131D01*
X259068Y191532D01*
X258668Y190732D01*
X259068Y189931D01*
X258268Y190331D01*
X257469Y189931D01*
X250168D02*
X250569Y190732D01*
X250168Y191532D01*
X250969Y191131D01*
X251768Y191532D01*
X251368Y190732D01*
X251768Y189931D01*
X250969Y190331D01*
X250168Y189931D01*
X231778Y193000D02*
X232178Y193800D01*
X231778Y194600D01*
X232578Y194200D01*
X233378Y194600D01*
X232978Y193800D01*
X233378Y193000D01*
X232578Y193400D01*
X231778Y193000D01*
X235437Y189337D02*
X235837Y190137D01*
X235437Y190937D01*
X236237Y190537D01*
X237037Y190937D01*
X236637Y190137D01*
X237037Y189337D01*
X236237Y189737D01*
X235437Y189337D01*
X212300Y181100D02*
X212700Y181900D01*
X212300Y182700D01*
X213100Y182300D01*
X213900Y182700D01*
X213500Y181900D01*
X213900Y181100D01*
X213100Y181500D01*
X212300Y181100D01*
X214726Y185026D02*
X215126Y185826D01*
X214726Y186626D01*
X215526Y186226D01*
X216326Y186626D01*
X215926Y185826D01*
X216326Y185026D01*
X215526Y185426D01*
X214726Y185026D01*
X200471Y185271D02*
X200871Y186071D01*
X200471Y186871D01*
X201271Y186471D01*
X202071Y186871D01*
X201671Y186071D01*
X202071Y185271D01*
X201271Y185671D01*
X200471Y185271D01*
X216710Y195890D02*
X217110Y196690D01*
X216710Y197490D01*
X217510Y197090D01*
X218310Y197490D01*
X217910Y196690D01*
X218310Y195890D01*
X217510Y196290D01*
X216710Y195890D01*
Y192290D02*
X217110Y193090D01*
X216710Y193890D01*
X217510Y193490D01*
X218310Y193890D01*
X217910Y193090D01*
X218310Y192290D01*
X217510Y192690D01*
X216710Y192290D01*
X220328Y208500D02*
X220728Y209300D01*
X220328Y210100D01*
X221128Y209700D01*
X221928Y210100D01*
X221528Y209300D01*
X221928Y208500D01*
X221128Y208900D01*
X220328Y208500D01*
X220647Y196216D02*
X221047Y197016D01*
X220647Y197816D01*
X221447Y197416D01*
X222247Y197816D01*
X221847Y197016D01*
X222247Y196216D01*
X221447Y196616D01*
X220647Y196216D01*
X220631Y191331D02*
X221031Y192131D01*
X220631Y192931D01*
X221431Y192531D01*
X222231Y192931D01*
X221831Y192131D01*
X222231Y191331D01*
X221431Y191731D01*
X220631Y191331D01*
X220731Y184931D02*
X221131Y185731D01*
X220731Y186531D01*
X221531Y186131D01*
X222331Y186531D01*
X221931Y185731D01*
X222331Y184931D01*
X221531Y185331D01*
X220731Y184931D01*
X225063Y181463D02*
X225463Y182263D01*
X225063Y183063D01*
X225863Y182663D01*
X226663Y183063D01*
X226263Y182263D01*
X226663Y181463D01*
X225863Y181863D01*
X225063Y181463D01*
X235237D02*
X235637Y182263D01*
X235237Y183063D01*
X236037Y182663D01*
X236837Y183063D01*
X236437Y182263D01*
X236837Y181463D01*
X236037Y181863D01*
X235237Y181463D01*
X240400Y182084D02*
X240800Y182884D01*
X240400Y183684D01*
X241200Y183284D01*
X242000Y183684D01*
X241600Y182884D01*
X242000Y182084D01*
X241200Y182484D01*
X240400Y182084D01*
X246716D02*
X247116Y182884D01*
X246716Y183684D01*
X247516Y183284D01*
X248316Y183684D01*
X247916Y182884D01*
X248316Y182084D01*
X247516Y182484D01*
X246716Y182084D01*
X244406Y184180D02*
X244806Y184980D01*
X244406Y185780D01*
X245206Y185380D01*
X246006Y185780D01*
X245606Y184980D01*
X246006Y184180D01*
X245206Y184580D01*
X244406Y184180D01*
X250331Y169900D02*
X250731Y170700D01*
X250331Y171500D01*
X251131Y171100D01*
X251931Y171500D01*
X251531Y170700D01*
X251931Y169900D01*
X251131Y170300D01*
X250331Y169900D01*
X244406Y175084D02*
X244806Y175884D01*
X244406Y176684D01*
X245206Y176284D01*
X246006Y176684D01*
X245606Y175884D01*
X246006Y175084D01*
X245206Y175484D01*
X244406Y175084D01*
X179900Y185900D02*
X180300Y186700D01*
X179900Y187500D01*
X180700Y187100D01*
X181500Y187500D01*
X181100Y186700D01*
X181500Y185900D01*
X180700Y186300D01*
X179900Y185900D01*
X172100D02*
X172500Y186700D01*
X172100Y187500D01*
X172900Y187100D01*
X173700Y187500D01*
X173300Y186700D01*
X173700Y185900D01*
X172900Y186300D01*
X172100Y185900D01*
X180477Y220900D02*
X180877Y221700D01*
X180477Y222500D01*
X181277Y222100D01*
X182077Y222500D01*
X181677Y221700D01*
X182077Y220900D01*
X181277Y221300D01*
X180477Y220900D01*
X172500D02*
X172900Y221700D01*
X172500Y222500D01*
X173300Y222100D01*
X174100Y222500D01*
X173700Y221700D01*
X174100Y220900D01*
X173300Y221300D01*
X172500Y220900D01*
X184600Y229900D02*
X185000Y230700D01*
X184600Y231500D01*
X185400Y231100D01*
X186200Y231500D01*
X185800Y230700D01*
X186200Y229900D01*
X185400Y230300D01*
X184600Y229900D01*
X172000Y235900D02*
X172400Y236700D01*
X172000Y237500D01*
X172800Y237100D01*
X173600Y237500D01*
X173200Y236700D01*
X173600Y235900D01*
X172800Y236300D01*
X172000Y235900D01*
X180300D02*
X180700Y236700D01*
X180300Y237500D01*
X181100Y237100D01*
X181900Y237500D01*
X181500Y236700D01*
X181900Y235900D01*
X181100Y236300D01*
X180300Y235900D01*
X184600Y244400D02*
X185000Y245200D01*
X184600Y246000D01*
X185400Y245600D01*
X186200Y246000D01*
X185800Y245200D01*
X186200Y244400D01*
X185400Y244800D01*
X184600Y244400D01*
X180400Y240900D02*
X180800Y241700D01*
X180400Y242500D01*
X181200Y242100D01*
X182000Y242500D01*
X181600Y241700D01*
X182000Y240900D01*
X181200Y241300D01*
X180400Y240900D01*
X172300Y280900D02*
X172700Y281700D01*
X172300Y282500D01*
X173100Y282100D01*
X173900Y282500D01*
X173500Y281700D01*
X173900Y280900D01*
X173100Y281300D01*
X172300Y280900D01*
X180100D02*
X180500Y281700D01*
X180100Y282500D01*
X180900Y282100D01*
X181700Y282500D01*
X181300Y281700D01*
X181700Y280900D01*
X180900Y281300D01*
X180100Y280900D01*
X156300Y290000D02*
X156700Y290800D01*
X156300Y291600D01*
X157100Y291200D01*
X157900Y291600D01*
X157500Y290800D01*
X157900Y290000D01*
X157100Y290400D01*
X156300Y290000D01*
Y281700D02*
X156700Y282500D01*
X156300Y283300D01*
X157100Y282900D01*
X157900Y283300D01*
X157500Y282500D01*
X157900Y281700D01*
X157100Y282100D01*
X156300Y281700D01*
X151300Y289900D02*
X151700Y290700D01*
X151300Y291500D01*
X152100Y291100D01*
X152900Y291500D01*
X152500Y290700D01*
X152900Y289900D01*
X152100Y290300D01*
X151300Y289900D01*
Y281900D02*
X151700Y282700D01*
X151300Y283500D01*
X152100Y283100D01*
X152900Y283500D01*
X152500Y282700D01*
X152900Y281900D01*
X152100Y282300D01*
X151300Y281900D01*
X152107Y293300D02*
X152507Y294100D01*
X152107Y294900D01*
X152907Y294500D01*
X153707Y294900D01*
X153307Y294100D01*
X153707Y293300D01*
X152907Y293700D01*
X152107Y293300D01*
X155200Y298804D02*
X155600Y299604D01*
X155200Y300404D01*
X156000Y300004D01*
X156800Y300404D01*
X156400Y299604D01*
X156800Y298804D01*
X156000Y299204D01*
X155200Y298804D01*
X148804D02*
X149204Y299604D01*
X148804Y300404D01*
X149604Y300004D01*
X150404Y300404D01*
X150004Y299604D01*
X150404Y298804D01*
X149604Y299204D01*
X148804Y298804D01*
X140493Y293707D02*
X140893Y294507D01*
X140493Y295307D01*
X141293Y294907D01*
X142093Y295307D01*
X141693Y294507D01*
X142093Y293707D01*
X141293Y294107D01*
X140493Y293707D01*
X143504Y298804D02*
X143904Y299604D01*
X143504Y300404D01*
X144304Y300004D01*
X145104Y300404D01*
X144704Y299604D01*
X145104Y298804D01*
X144304Y299204D01*
X143504Y298804D01*
X137504D02*
X137904Y299604D01*
X137504Y300404D01*
X138304Y300004D01*
X139104Y300404D01*
X138704Y299604D01*
X139104Y298804D01*
X138304Y299204D01*
X137504Y298804D01*
X141300Y281500D02*
X141700Y282300D01*
X141300Y283100D01*
X142100Y282700D01*
X142900Y283100D01*
X142500Y282300D01*
X142900Y281500D01*
X142100Y281900D01*
X141300Y281500D01*
Y290500D02*
X141700Y291300D01*
X141300Y292100D01*
X142100Y291700D01*
X142900Y292100D01*
X142500Y291300D01*
X142900Y290500D01*
X142100Y290900D01*
X141300Y290500D01*
X131300Y290000D02*
X131700Y290800D01*
X131300Y291600D01*
X132100Y291200D01*
X132900Y291600D01*
X132500Y290800D01*
X132900Y290000D01*
X132100Y290400D01*
X131300Y290000D01*
Y281600D02*
X131700Y282400D01*
X131300Y283200D01*
X132100Y282800D01*
X132900Y283200D01*
X132500Y282400D01*
X132900Y281600D01*
X132100Y282000D01*
X131300Y281600D01*
X126300Y290100D02*
X126700Y290900D01*
X126300Y291700D01*
X127100Y291300D01*
X127900Y291700D01*
X127500Y290900D01*
X127900Y290100D01*
X127100Y290500D01*
X126300Y290100D01*
Y282000D02*
X126700Y282800D01*
X126300Y283600D01*
X127100Y283200D01*
X127900Y283600D01*
X127500Y282800D01*
X127900Y282000D01*
X127100Y282400D01*
X126300Y282000D01*
X110200Y280900D02*
X110600Y281700D01*
X110200Y282500D01*
X111000Y282100D01*
X111800Y282500D01*
X111400Y281700D01*
X111800Y280900D01*
X111000Y281300D01*
X110200Y280900D01*
X102300D02*
X102700Y281700D01*
X102300Y282500D01*
X103100Y282100D01*
X103900Y282500D01*
X103500Y281700D01*
X103900Y280900D01*
X103100Y281300D01*
X102300Y280900D01*
X102100Y255900D02*
X102500Y256700D01*
X102100Y257500D01*
X102900Y257100D01*
X103700Y257500D01*
X103300Y256700D01*
X103700Y255900D01*
X102900Y256300D01*
X102100Y255900D01*
X94500Y260800D02*
X94900Y261600D01*
X94500Y262400D01*
X95300Y262000D01*
X96100Y262400D01*
X95700Y261600D01*
X96100Y260800D01*
X95300Y261200D01*
X94500Y260800D01*
X110500Y255900D02*
X110900Y256700D01*
X110500Y257500D01*
X111300Y257100D01*
X112100Y257500D01*
X111700Y256700D01*
X112100Y255900D01*
X111300Y256300D01*
X110500Y255900D01*
X98369Y250869D02*
X98769Y251669D01*
X98369Y252468D01*
X99168Y252068D01*
X99968Y252468D01*
X99568Y251669D01*
X99968Y250869D01*
X99168Y251269D01*
X98369Y250869D01*
X102400Y250900D02*
X102800Y251700D01*
X102400Y252500D01*
X103200Y252100D01*
X104000Y252500D01*
X103600Y251700D01*
X104000Y250900D01*
X103200Y251300D01*
X102400Y250900D01*
X106300Y182482D02*
X106700Y183282D01*
X106300Y184081D01*
X107100Y183681D01*
X107900Y184081D01*
X107500Y183282D01*
X107900Y182482D01*
X107100Y182881D01*
X106300Y182482D01*
X110400Y185900D02*
X110800Y186700D01*
X110400Y187500D01*
X111200Y187100D01*
X112000Y187500D01*
X111600Y186700D01*
X112000Y185900D01*
X111200Y186300D01*
X110400Y185900D01*
X85189Y180989D02*
X85589Y181789D01*
X85189Y182589D01*
X85989Y182189D01*
X86789Y182589D01*
X86389Y181789D01*
X86789Y180989D01*
X85989Y181389D01*
X85189Y180989D01*
X91815Y183584D02*
X92215Y184384D01*
X91815Y185184D01*
X92615Y184784D01*
X93415Y185184D01*
X93015Y184384D01*
X93415Y183584D01*
X92615Y183984D01*
X91815Y183584D01*
X98000D02*
X98400Y184384D01*
X98000Y185184D01*
X98800Y184784D01*
X99600Y185184D01*
X99200Y184384D01*
X99600Y183584D01*
X98800Y183984D01*
X98000Y183584D01*
X95321Y185879D02*
X95721Y186679D01*
X95321Y187479D01*
X96121Y187079D01*
X96921Y187479D01*
X96521Y186679D01*
X96921Y185879D01*
X96121Y186279D01*
X95321Y185879D01*
X90516Y175084D02*
X90916Y175884D01*
X90516Y176684D01*
X91316Y176284D01*
X92116Y176684D01*
X91716Y175884D01*
X92116Y175084D01*
X91316Y175484D01*
X90516Y175084D01*
X87800Y172100D02*
X88200Y172900D01*
X87800Y173700D01*
X88600Y173300D01*
X89400Y173700D01*
X89000Y172900D01*
X89400Y172100D01*
X88600Y172500D01*
X87800Y172100D01*
X91744Y127300D02*
X92144Y128100D01*
X91744Y128900D01*
X92544Y128500D01*
X93344Y128900D01*
X92944Y128100D01*
X93344Y127300D01*
X92544Y127700D01*
X91744Y127300D01*
X95237Y124337D02*
X95637Y125137D01*
X95237Y125937D01*
X96037Y125537D01*
X96837Y125937D01*
X96437Y125137D01*
X96837Y124337D01*
X96037Y124737D01*
X95237Y124337D01*
X50340Y229140D02*
X50740Y229940D01*
X50340Y230740D01*
X51140Y230340D01*
X51940Y230740D01*
X51540Y229940D01*
X51940Y229140D01*
X51140Y229540D01*
X50340Y229140D01*
Y224260D02*
X50740Y225060D01*
X50340Y225860D01*
X51140Y225460D01*
X51940Y225860D01*
X51540Y225060D01*
X51940Y224260D01*
X51140Y224660D01*
X50340Y224260D01*
X46830Y179170D02*
X47230Y179970D01*
X46830Y180770D01*
X47630Y180370D01*
X48430Y180770D01*
X48030Y179970D01*
X48430Y179170D01*
X47630Y179570D01*
X46830Y179170D01*
X50140Y182640D02*
X50540Y183440D01*
X50140Y184240D01*
X50940Y183840D01*
X51740Y184240D01*
X51340Y183440D01*
X51740Y182640D01*
X50940Y183040D01*
X50140Y182640D01*
X30177Y187200D02*
X30577Y188000D01*
X30177Y188800D01*
X30977Y188400D01*
X31777Y188800D01*
X31377Y188000D01*
X31777Y187200D01*
X30977Y187600D01*
X30177Y187200D01*
X35400Y182456D02*
X35800Y183256D01*
X35400Y184056D01*
X36200Y183656D01*
X37000Y184056D01*
X36600Y183256D01*
X37000Y182456D01*
X36200Y182856D01*
X35400Y182456D01*
X33344D02*
X33744Y183256D01*
X33344Y184056D01*
X34144Y183656D01*
X34944Y184056D01*
X34544Y183256D01*
X34944Y182456D01*
X34144Y182856D01*
X33344Y182456D01*
X20004Y181496D02*
X20404Y182296D01*
X20004Y183096D01*
X20804Y182696D01*
X21604Y183096D01*
X21204Y182296D01*
X21604Y181496D01*
X20804Y181896D01*
X20004Y181496D01*
X22400Y184400D02*
X22800Y185200D01*
X22400Y186000D01*
X23200Y185600D01*
X24000Y186000D01*
X23600Y185200D01*
X24000Y184400D01*
X23200Y184800D01*
X22400Y184400D01*
X22449Y173151D02*
X22849Y173951D01*
X22449Y174751D01*
X23249Y174351D01*
X24049Y174751D01*
X23649Y173951D01*
X24049Y173151D01*
X23249Y173551D01*
X22449Y173151D01*
X25600Y175800D02*
X26000Y176600D01*
X25600Y177400D01*
X26400Y177000D01*
X27200Y177400D01*
X26800Y176600D01*
X27200Y175800D01*
X26400Y176200D01*
X25600Y175800D01*
X56346Y207000D02*
X56746Y207800D01*
X56346Y208600D01*
X57146Y208200D01*
X57946Y208600D01*
X57546Y207800D01*
X57946Y207000D01*
X57146Y207400D01*
X56346Y207000D01*
Y214300D02*
X56746Y215100D01*
X56346Y215900D01*
X57146Y215500D01*
X57946Y215900D01*
X57546Y215100D01*
X57946Y214300D01*
X57146Y214700D01*
X56346Y214300D01*
X56246Y224246D02*
X56646Y225046D01*
X56246Y225846D01*
X57046Y225446D01*
X57846Y225846D01*
X57446Y225046D01*
X57846Y224246D01*
X57046Y224646D01*
X56246Y224246D01*
Y229668D02*
X56646Y230468D01*
X56246Y231268D01*
X57046Y230868D01*
X57846Y231268D01*
X57446Y230468D01*
X57846Y229668D01*
X57046Y230068D01*
X56246Y229668D01*
X82847Y227047D02*
X83247Y227847D01*
X82847Y228647D01*
X83647Y228247D01*
X84447Y228647D01*
X84047Y227847D01*
X84447Y227047D01*
X83647Y227447D01*
X82847Y227047D01*
X82688Y238288D02*
X83088Y239088D01*
X82688Y239888D01*
X83488Y239488D01*
X84288Y239888D01*
X83888Y239088D01*
X84288Y238288D01*
X83488Y238688D01*
X82688Y238288D01*
X56446Y231900D02*
X56846Y232700D01*
X56446Y233500D01*
X57246Y233100D01*
X58046Y233500D01*
X57646Y232700D01*
X58046Y231900D01*
X57246Y232300D01*
X56446Y231900D01*
X56346Y251400D02*
X56746Y252200D01*
X56346Y253000D01*
X57146Y252600D01*
X57946Y253000D01*
X57546Y252200D01*
X57946Y251400D01*
X57146Y251800D01*
X56346Y251400D01*
X58738Y248940D02*
X59138Y249740D01*
X58738Y250540D01*
X59538Y250140D01*
X60338Y250540D01*
X59938Y249740D01*
X60338Y248940D01*
X59538Y249340D01*
X58738Y248940D01*
X58840Y241640D02*
X59240Y242440D01*
X58840Y243240D01*
X59640Y242840D01*
X60440Y243240D01*
X60040Y242440D01*
X60440Y241640D01*
X59640Y242040D01*
X58840Y241640D01*
X56346Y239200D02*
X56746Y240000D01*
X56346Y240800D01*
X57146Y240400D01*
X57946Y240800D01*
X57546Y240000D01*
X57946Y239200D01*
X57146Y239600D01*
X56346Y239200D01*
X56446Y236454D02*
X56846Y237254D01*
X56446Y238054D01*
X57246Y237654D01*
X58046Y238054D01*
X57646Y237254D01*
X58046Y236454D01*
X57246Y236854D01*
X56446Y236454D01*
X47400Y248800D02*
X47800Y249600D01*
X47400Y250400D01*
X48200Y250000D01*
X49000Y250400D01*
X48600Y249600D01*
X49000Y248800D01*
X48200Y249200D01*
X47400Y248800D01*
X36500Y241000D02*
X36900Y241800D01*
X36500Y242600D01*
X37300Y242200D01*
X38100Y242600D01*
X37700Y241800D01*
X38100Y241000D01*
X37300Y241400D01*
X36500Y241000D01*
X40207Y266793D02*
X40607Y267593D01*
X40207Y268393D01*
X41007Y267993D01*
X41807Y268393D01*
X41407Y267593D01*
X41807Y266793D01*
X41007Y267193D01*
X40207Y266793D01*
X35093D02*
X35493Y267593D01*
X35093Y268393D01*
X35893Y267993D01*
X36693Y268393D01*
X36293Y267593D01*
X36693Y266793D01*
X35893Y267193D01*
X35093Y266793D01*
X330847Y197353D02*
X331247D01*
X331647Y197753D01*
X332047Y197353D01*
X332447D01*
Y197753D01*
X332047Y198153D01*
X332447Y198553D01*
Y198953D01*
X332047D01*
X331647Y198553D01*
X331247Y198953D01*
X330847D01*
Y198553D01*
X331247Y198153D01*
X330847Y197753D01*
Y197353D01*
X324937D02*
X325337D01*
X325737Y197753D01*
X326137Y197353D01*
X326537D01*
Y197753D01*
X326137Y198153D01*
X326537Y198553D01*
Y198953D01*
X326137D01*
X325737Y198553D01*
X325337Y198953D01*
X324937D01*
Y198553D01*
X325337Y198153D01*
X324937Y197753D01*
Y197353D01*
X325047Y191447D02*
X325447D01*
X325847Y191847D01*
X326247Y191447D01*
X326647D01*
Y191847D01*
X326247Y192247D01*
X326647Y192647D01*
Y193047D01*
X326247D01*
X325847Y192647D01*
X325447Y193047D01*
X325047D01*
Y192647D01*
X325447Y192247D01*
X325047Y191847D01*
Y191447D01*
X327984Y188594D02*
X328384D01*
X328784Y188994D01*
X329184Y188594D01*
X329584D01*
Y188994D01*
X329184Y189394D01*
X329584Y189794D01*
Y190194D01*
X329184D01*
X328784Y189794D01*
X328384Y190194D01*
X327984D01*
Y189794D01*
X328384Y189394D01*
X327984Y188994D01*
Y188594D01*
X317570Y136230D02*
X317970D01*
X318370Y136630D01*
X318770Y136230D01*
X319170D01*
Y136630D01*
X318770Y137030D01*
X319170Y137430D01*
Y137830D01*
X318770D01*
X318370Y137430D01*
X317970Y137830D01*
X317570D01*
Y137430D01*
X317970Y137030D01*
X317570Y136630D01*
Y136230D01*
X336700Y144200D02*
X337100D01*
X337500Y144600D01*
X337900Y144200D01*
X338300D01*
Y144600D01*
X337900Y145000D01*
X338300Y145400D01*
Y145800D01*
X337900D01*
X337500Y145400D01*
X337100Y145800D01*
X336700D01*
Y145400D01*
X337100Y145000D01*
X336700Y144600D01*
Y144200D01*
X327984Y160116D02*
X328384D01*
X328784Y160516D01*
X329184Y160116D01*
X329584D01*
Y160516D01*
X329184Y160916D01*
X329584Y161316D01*
Y161716D01*
X329184D01*
X328784Y161316D01*
X328384Y161716D01*
X327984D01*
Y161316D01*
X328384Y160916D01*
X327984Y160516D01*
Y160116D01*
X345898Y150902D02*
X346298D01*
X346698Y151302D01*
X347098Y150902D01*
X347498D01*
Y151302D01*
X347098Y151702D01*
X347498Y152102D01*
Y152502D01*
X347098D01*
X346698Y152102D01*
X346298Y152502D01*
X345898D01*
Y152102D01*
X346298Y151702D01*
X345898Y151302D01*
Y150902D01*
X340779Y150920D02*
X341179D01*
X341580Y151321D01*
X341980Y150920D01*
X342379D01*
Y151321D01*
X341980Y151720D01*
X342379Y152120D01*
Y152521D01*
X341980D01*
X341580Y152120D01*
X341179Y152521D01*
X340779D01*
Y152120D01*
X341179Y151720D01*
X340779Y151321D01*
Y150920D01*
X353073Y155427D02*
X353473D01*
X353873Y155827D01*
X354273Y155427D01*
X354673D01*
Y155827D01*
X354273Y156227D01*
X354673Y156627D01*
Y157027D01*
X354273D01*
X353873Y156627D01*
X353473Y157027D01*
X353073D01*
Y156627D01*
X353473Y156227D01*
X353073Y155827D01*
Y155427D01*
X351461Y129561D02*
X351861D01*
X352261Y129961D01*
X352661Y129561D01*
X353061D01*
Y129961D01*
X352661Y130361D01*
X353061Y130761D01*
Y131161D01*
X352661D01*
X352261Y130761D01*
X351861Y131161D01*
X351461D01*
Y130761D01*
X351861Y130361D01*
X351461Y129961D01*
Y129561D01*
X351824Y125624D02*
X352224D01*
X352624Y126024D01*
X353024Y125624D01*
X353424D01*
Y126024D01*
X353024Y126424D01*
X353424Y126824D01*
Y127224D01*
X353024D01*
X352624Y126824D01*
X352224Y127224D01*
X351824D01*
Y126824D01*
X352224Y126424D01*
X351824Y126024D01*
Y125624D01*
X347702Y132398D02*
X348102D01*
X348502Y132798D01*
X348902Y132398D01*
X349302D01*
Y132798D01*
X348902Y133198D01*
X349302Y133598D01*
Y133998D01*
X348902D01*
X348502Y133598D01*
X348102Y133998D01*
X347702D01*
Y133598D01*
X348102Y133198D01*
X347702Y132798D01*
Y132398D01*
Y103098D02*
X348102D01*
X348502Y103498D01*
X348902Y103098D01*
X349302D01*
Y103498D01*
X348902Y103898D01*
X349302Y104298D01*
Y104698D01*
X348902D01*
X348502Y104298D01*
X348102Y104698D01*
X347702D01*
Y104298D01*
X348102Y103898D01*
X347702Y103498D01*
Y103098D01*
X315300Y125900D02*
X315700D01*
X316100Y126300D01*
X316500Y125900D01*
X316900D01*
Y126300D01*
X316500Y126700D01*
X316900Y127100D01*
Y127500D01*
X316500D01*
X316100Y127100D01*
X315700Y127500D01*
X315300D01*
Y127100D01*
X315700Y126700D01*
X315300Y126300D01*
Y125900D01*
X292543Y169800D02*
X292943D01*
X293342Y170200D01*
X293742Y169800D01*
X294143D01*
Y170200D01*
X293742Y170600D01*
X294143Y171000D01*
Y171400D01*
X293742D01*
X293342Y171000D01*
X292943Y171400D01*
X292543D01*
Y171000D01*
X292943Y170600D01*
X292543Y170200D01*
Y169800D01*
X299925Y163175D02*
X300325D01*
X300725Y163575D01*
X301125Y163175D01*
X301525D01*
Y163575D01*
X301125Y163975D01*
X301525Y164375D01*
Y164775D01*
X301125D01*
X300725Y164375D01*
X300325Y164775D01*
X299925D01*
Y164375D01*
X300325Y163975D01*
X299925Y163575D01*
Y163175D01*
X282918Y152082D02*
X283318D01*
X283718Y152482D01*
X284118Y152082D01*
X284518D01*
Y152482D01*
X284118Y152882D01*
X284518Y153282D01*
Y153682D01*
X284118D01*
X283718Y153282D01*
X283318Y153682D01*
X282918D01*
Y153282D01*
X283318Y152882D01*
X282918Y152482D01*
Y152082D01*
X277400Y155843D02*
X277800D01*
X278200Y156243D01*
X278600Y155843D01*
X279000D01*
Y156243D01*
X278600Y156643D01*
X279000Y157043D01*
Y157443D01*
X278600D01*
X278200Y157043D01*
X277800Y157443D01*
X277400D01*
Y157043D01*
X277800Y156643D01*
X277400Y156243D01*
Y155843D01*
X288057Y105843D02*
X288457D01*
X288857Y106243D01*
X289257Y105843D01*
X289657D01*
Y106243D01*
X289257Y106643D01*
X289657Y107043D01*
Y107443D01*
X289257D01*
X288857Y107043D01*
X288457Y107443D01*
X288057D01*
Y107043D01*
X288457Y106643D01*
X288057Y106243D01*
Y105843D01*
X282918Y101882D02*
X283318D01*
X283718Y102282D01*
X284118Y101882D01*
X284518D01*
Y102282D01*
X284118Y102682D01*
X284518Y103082D01*
Y103482D01*
X284118D01*
X283718Y103082D01*
X283318Y103482D01*
X282918D01*
Y103082D01*
X283318Y102682D01*
X282918Y102282D01*
Y101882D01*
X336043Y81657D02*
X336443D01*
X336843Y82057D01*
X337243Y81657D01*
X337643D01*
Y82057D01*
X337243Y82457D01*
X337643Y82857D01*
Y83257D01*
X337243D01*
X336843Y82857D01*
X336443Y83257D01*
X336043D01*
Y82857D01*
X336443Y82457D01*
X336043Y82057D01*
Y81657D01*
X332218Y86882D02*
X332618D01*
X333018Y87282D01*
X333418Y86882D01*
X333818D01*
Y87282D01*
X333418Y87682D01*
X333818Y88082D01*
Y88482D01*
X333418D01*
X333018Y88082D01*
X332618Y88482D01*
X332218D01*
Y88082D01*
X332618Y87682D01*
X332218Y87282D01*
Y86882D01*
X286043Y81257D02*
X286443D01*
X286843Y81657D01*
X287243Y81257D01*
X287643D01*
Y81657D01*
X287243Y82057D01*
X287643Y82457D01*
Y82857D01*
X287243D01*
X286843Y82457D01*
X286443Y82857D01*
X286043D01*
Y82457D01*
X286443Y82057D01*
X286043Y81657D01*
Y81257D01*
Y92643D02*
X286443D01*
X286843Y93043D01*
X287243Y92643D01*
X287643D01*
Y93043D01*
X287243Y93443D01*
X287643Y93843D01*
Y94243D01*
X287243D01*
X286843Y93843D01*
X286443Y94243D01*
X286043D01*
Y93843D01*
X286443Y93443D01*
X286043Y93043D01*
Y92643D01*
X222843Y47643D02*
X223243D01*
X223643Y48043D01*
X224043Y47643D01*
X224443D01*
Y48043D01*
X224043Y48443D01*
X224443Y48843D01*
Y49243D01*
X224043D01*
X223643Y48843D01*
X223243Y49243D01*
X222843D01*
Y48843D01*
X223243Y48443D01*
X222843Y48043D01*
Y47643D01*
Y36857D02*
X223243D01*
X223643Y37257D01*
X224043Y36857D01*
X224443D01*
Y37257D01*
X224043Y37657D01*
X224443Y38057D01*
Y38457D01*
X224043D01*
X223643Y38057D01*
X223243Y38457D01*
X222843D01*
Y38057D01*
X223243Y37657D01*
X222843Y37257D01*
Y36857D01*
X349200Y77900D02*
X349600D01*
X350000Y78300D01*
X350400Y77900D01*
X350800D01*
Y78300D01*
X350400Y78700D01*
X350800Y79100D01*
Y79500D01*
X350400D01*
X350000Y79100D01*
X349600Y79500D01*
X349200D01*
Y79100D01*
X349600Y78700D01*
X349200Y78300D01*
Y77900D01*
X341816Y72242D02*
X342216D01*
X342616Y72642D01*
X343016Y72242D01*
X343416D01*
Y72642D01*
X343016Y73043D01*
X343416Y73443D01*
Y73843D01*
X343016D01*
X342616Y73443D01*
X342216Y73843D01*
X341816D01*
Y73443D01*
X342216Y73043D01*
X341816Y72642D01*
Y72242D01*
X315250Y51850D02*
X315650D01*
X316050Y52250D01*
X316450Y51850D01*
X316850D01*
Y52250D01*
X316450Y52650D01*
X316850Y53050D01*
Y53450D01*
X316450D01*
X316050Y53050D01*
X315650Y53450D01*
X315250D01*
Y53050D01*
X315650Y52650D01*
X315250Y52250D01*
Y51850D01*
X217300Y50000D02*
X217700Y50800D01*
X217300Y51600D01*
X218100Y51200D01*
X218900Y51600D01*
X218500Y50800D01*
X218900Y50000D01*
X218100Y50400D01*
X217300Y50000D01*
X272843Y47643D02*
X273243Y48443D01*
X272843Y49243D01*
X273643Y48843D01*
X274443Y49243D01*
X274043Y48443D01*
X274443Y47643D01*
X273643Y48043D01*
X272843Y47643D01*
X269000Y42182D02*
X269400Y42982D01*
X269000Y43782D01*
X269800Y43382D01*
X270600Y43782D01*
X270200Y42982D01*
X270600Y42182D01*
X269800Y42582D01*
X269000Y42182D01*
X287000Y32757D02*
X287400Y33558D01*
X287000Y34358D01*
X287800Y33957D01*
X288600Y34358D01*
X288200Y33558D01*
X288600Y32757D01*
X287800Y33158D01*
X287000Y32757D01*
X222700Y11800D02*
X223100Y12600D01*
X222700Y13400D01*
X223500Y13000D01*
X224300Y13400D01*
X223900Y12600D01*
X224300Y11800D01*
X223500Y12200D01*
X222700Y11800D01*
X258700Y9100D02*
X259100Y9900D01*
X258700Y10700D01*
X259500Y10300D01*
X260300Y10700D01*
X259900Y9900D01*
X260300Y9100D01*
X259500Y9500D01*
X258700Y9100D01*
X272650Y6750D02*
X273050Y7550D01*
X272650Y8350D01*
X273450Y7950D01*
X274250Y8350D01*
X273850Y7550D01*
X274250Y6750D01*
X273450Y7150D01*
X272650Y6750D01*
X54926Y94526D02*
X55326Y95326D01*
X54926Y96126D01*
X55726Y95726D01*
X56526Y96126D01*
X56126Y95326D01*
X56526Y94526D01*
X55726Y94926D01*
X54926Y94526D01*
X51468Y97132D02*
X51868Y97932D01*
X51468Y98732D01*
X52268Y98332D01*
X53068Y98732D01*
X52668Y97932D01*
X53068Y97132D01*
X52268Y97532D01*
X51468Y97132D01*
X47400Y84479D02*
X47800Y85280D01*
X47400Y86080D01*
X48200Y85680D01*
X49000Y86080D01*
X48600Y85280D01*
X49000Y84479D01*
X48200Y84879D01*
X47400Y84479D01*
X33193Y88793D02*
X33593Y89593D01*
X33193Y90393D01*
X33993Y89993D01*
X34793Y90393D01*
X34393Y89593D01*
X34793Y88793D01*
X33993Y89193D01*
X33193Y88793D01*
X39100Y79600D02*
X39500D01*
X39900Y80000D01*
X40300Y79600D01*
X40700D01*
Y80000D01*
X40300Y80400D01*
X40700Y80800D01*
Y81200D01*
X40300D01*
X39900Y80800D01*
X39500Y81200D01*
X39100D01*
Y80800D01*
X39500Y80400D01*
X39100Y80000D01*
Y79600D01*
X39000Y83200D02*
X39400D01*
X39800Y83600D01*
X40200Y83200D01*
X40600D01*
Y83600D01*
X40200Y84000D01*
X40600Y84400D01*
Y84800D01*
X40200D01*
X39800Y84400D01*
X39400Y84800D01*
X39000D01*
Y84400D01*
X39400Y84000D01*
X39000Y83600D01*
Y83200D01*
X38956Y86882D02*
X39356D01*
X39756Y87282D01*
X40156Y86882D01*
X40556D01*
Y87282D01*
X40156Y87682D01*
X40556Y88082D01*
Y88482D01*
X40156D01*
X39756Y88082D01*
X39356Y88482D01*
X38956D01*
Y88082D01*
X39356Y87682D01*
X38956Y87282D01*
Y86882D01*
X26400Y81920D02*
X26800Y82721D01*
X26400Y83521D01*
X27200Y83121D01*
X28000Y83521D01*
X27600Y82721D01*
X28000Y81920D01*
X27200Y82320D01*
X26400Y81920D01*
X29600D02*
X30000Y82721D01*
X29600Y83521D01*
X30400Y83121D01*
X31200Y83521D01*
X30800Y82721D01*
X31200Y81920D01*
X30400Y82320D01*
X29600Y81920D01*
X43800Y68000D02*
X44200Y68800D01*
X43800Y69600D01*
X44600Y69200D01*
X45400Y69600D01*
X45000Y68800D01*
X45400Y68000D01*
X44600Y68400D01*
X43800Y68000D01*
X67169Y61700D02*
X67569Y62500D01*
X67169Y63300D01*
X67969Y62900D01*
X68769Y63300D01*
X68369Y62500D01*
X68769Y61700D01*
X67969Y62100D01*
X67169Y61700D01*
X51900Y63000D02*
X52300D01*
X52700Y63400D01*
X53100Y63000D01*
X53500D01*
Y63400D01*
X53100Y63800D01*
X53500Y64200D01*
Y64600D01*
X53100D01*
X52700Y64200D01*
X52300Y64600D01*
X51900D01*
Y64200D01*
X52300Y63800D01*
X51900Y63400D01*
Y63000D01*
Y69200D02*
X52300D01*
X52700Y69600D01*
X53100Y69200D01*
X53500D01*
Y69600D01*
X53100Y70000D01*
X53500Y70400D01*
Y70800D01*
X53100D01*
X52700Y70400D01*
X52300Y70800D01*
X51900D01*
Y70400D01*
X52300Y70000D01*
X51900Y69600D01*
Y69200D01*
Y66030D02*
X52300D01*
X52700Y66430D01*
X53100Y66030D01*
X53500D01*
Y66430D01*
X53100Y66830D01*
X53500Y67230D01*
Y67630D01*
X53100D01*
X52700Y67230D01*
X52300Y67630D01*
X51900D01*
Y67230D01*
X52300Y66830D01*
X51900Y66430D01*
Y66030D01*
X53000Y55400D02*
X53400Y56200D01*
X53000Y57000D01*
X53800Y56600D01*
X54600Y57000D01*
X54200Y56200D01*
X54600Y55400D01*
X53800Y55800D01*
X53000Y55400D01*
X51000Y57787D02*
X51400Y58587D01*
X51000Y59387D01*
X51800Y58987D01*
X52600Y59387D01*
X52200Y58587D01*
X52600Y57787D01*
X51800Y58187D01*
X51000Y57787D01*
X52900Y76200D02*
X53300Y77000D01*
X52900Y77800D01*
X53700Y77400D01*
X54500Y77800D01*
X54100Y77000D01*
X54500Y76200D01*
X53700Y76600D01*
X52900Y76200D01*
X51000Y74213D02*
X51400Y75013D01*
X51000Y75813D01*
X51800Y75413D01*
X52600Y75813D01*
X52200Y75013D01*
X52600Y74213D01*
X51800Y74613D01*
X51000Y74213D01*
X46388Y60512D02*
X46788Y61312D01*
X46388Y62112D01*
X47188Y61712D01*
X47988Y62112D01*
X47588Y61312D01*
X47988Y60512D01*
X47188Y60912D01*
X46388Y60512D01*
X17955Y65855D02*
X18355Y66655D01*
X17955Y67455D01*
X18755Y67055D01*
X19555Y67455D01*
X19155Y66655D01*
X19555Y65855D01*
X18755Y66255D01*
X17955Y65855D01*
X21063Y62137D02*
X21463Y62937D01*
X21063Y63737D01*
X21863Y63337D01*
X22663Y63737D01*
X22263Y62937D01*
X22663Y62137D01*
X21863Y62537D01*
X21063Y62137D01*
Y69437D02*
X21463Y70237D01*
X21063Y71037D01*
X21863Y70637D01*
X22663Y71037D01*
X22263Y70237D01*
X22663Y69437D01*
X21863Y69837D01*
X21063Y69437D01*
X59332Y79384D02*
X59732Y80184D01*
X59332Y80984D01*
X60132Y80584D01*
X60931Y80984D01*
X60532Y80184D01*
X60931Y79384D01*
X60132Y79784D01*
X59332Y79384D01*
X71733Y77300D02*
X72133Y78100D01*
X71733Y78900D01*
X72533Y78500D01*
X73333Y78900D01*
X72933Y78100D01*
X73333Y77300D01*
X72533Y77700D01*
X71733Y77300D01*
X68369Y80382D02*
X68769Y81182D01*
X68369Y81981D01*
X69169Y81581D01*
X69968Y81981D01*
X69569Y81182D01*
X69968Y80382D01*
X69169Y80782D01*
X68369Y80382D01*
X70953Y55753D02*
X71353D01*
X71753Y56153D01*
X72153Y55753D01*
X72553D01*
Y56153D01*
X72153Y56553D01*
X72553Y56953D01*
Y57353D01*
X72153D01*
X71753Y56953D01*
X71353Y57353D01*
X70953D01*
Y56953D01*
X71353Y56553D01*
X70953Y56153D01*
Y55753D01*
X74200Y52600D02*
X74600D01*
X75000Y53000D01*
X75400Y52600D01*
X75800D01*
Y53000D01*
X75400Y53400D01*
X75800Y53800D01*
Y54200D01*
X75400D01*
X75000Y53800D01*
X74600Y54200D01*
X74200D01*
Y53800D01*
X74600Y53400D01*
X74200Y53000D01*
Y52600D01*
X76500Y56400D02*
X76900D01*
X77300Y56800D01*
X77700Y56400D01*
X78100D01*
Y56800D01*
X77700Y57200D01*
X78100Y57600D01*
Y58000D01*
X77700D01*
X77300Y57600D01*
X76900Y58000D01*
X76500D01*
Y57600D01*
X76900Y57200D01*
X76500Y56800D01*
Y56400D01*
X76700Y67900D02*
X77100D01*
X77500Y68300D01*
X77900Y67900D01*
X78300D01*
Y68300D01*
X77900Y68700D01*
X78300Y69100D01*
Y69500D01*
X77900D01*
X77500Y69100D01*
X77100Y69500D01*
X76700D01*
Y69100D01*
X77100Y68700D01*
X76700Y68300D01*
Y67900D01*
X73042Y61700D02*
X73442D01*
X73842Y62100D01*
X74242Y61700D01*
X74642D01*
Y62100D01*
X74242Y62500D01*
X74642Y62900D01*
Y63300D01*
X74242D01*
X73842Y62900D01*
X73442Y63300D01*
X73042D01*
Y62900D01*
X73442Y62500D01*
X73042Y62100D01*
Y61700D01*
X125500Y21800D02*
X125900D01*
X126300Y22200D01*
X126700Y21800D01*
X127100D01*
Y22200D01*
X126700Y22600D01*
X127100Y23000D01*
Y23400D01*
X126700D01*
X126300Y23000D01*
X125900Y23400D01*
X125500D01*
Y23000D01*
X125900Y22600D01*
X125500Y22200D01*
Y21800D01*
X106800Y21700D02*
X107200D01*
X107600Y22100D01*
X108000Y21700D01*
X108400D01*
Y22100D01*
X108000Y22500D01*
X108400Y22900D01*
Y23300D01*
X108000D01*
X107600Y22900D01*
X107200Y23300D01*
X106800D01*
Y22900D01*
X107200Y22500D01*
X106800Y22100D01*
Y21700D01*
X88700Y21600D02*
X89100D01*
X89500Y22000D01*
X89900Y21600D01*
X90300D01*
Y22000D01*
X89900Y22400D01*
X90300Y22800D01*
Y23200D01*
X89900D01*
X89500Y22800D01*
X89100Y23200D01*
X88700D01*
Y22800D01*
X89100Y22400D01*
X88700Y22000D01*
Y21600D01*
X71600Y21700D02*
X72000D01*
X72400Y22100D01*
X72800Y21700D01*
X73200D01*
Y22100D01*
X72800Y22500D01*
X73200Y22900D01*
Y23300D01*
X72800D01*
X72400Y22900D01*
X72000Y23300D01*
X71600D01*
Y22900D01*
X72000Y22500D01*
X71600Y22100D01*
Y21700D01*
X71200Y5300D02*
X71600D01*
X72000Y5700D01*
X72400Y5300D01*
X72800D01*
Y5700D01*
X72400Y6100D01*
X72800Y6500D01*
Y6900D01*
X72400D01*
X72000Y6500D01*
X71600Y6900D01*
X71200D01*
Y6500D01*
X71600Y6100D01*
X71200Y5700D01*
Y5300D01*
X88800Y5500D02*
X89200D01*
X89600Y5900D01*
X90000Y5500D01*
X90400D01*
Y5900D01*
X90000Y6300D01*
X90400Y6700D01*
Y7100D01*
X90000D01*
X89600Y6700D01*
X89200Y7100D01*
X88800D01*
Y6700D01*
X89200Y6300D01*
X88800Y5900D01*
Y5500D01*
X106500D02*
X106900D01*
X107300Y5900D01*
X107700Y5500D01*
X108100D01*
Y5900D01*
X107700Y6300D01*
X108100Y6700D01*
Y7100D01*
X107700D01*
X107300Y6700D01*
X106900Y7100D01*
X106500D01*
Y6700D01*
X106900Y6300D01*
X106500Y5900D01*
Y5500D01*
X125300Y5400D02*
X125700D01*
X126100Y5800D01*
X126500Y5400D01*
X126900D01*
Y5800D01*
X126500Y6200D01*
X126900Y6600D01*
Y7000D01*
X126500D01*
X126100Y6600D01*
X125700Y7000D01*
X125300D01*
Y6600D01*
X125700Y6200D01*
X125300Y5800D01*
Y5400D01*
X164300Y5200D02*
X164700D01*
X165100Y5600D01*
X165500Y5200D01*
X165900D01*
Y5600D01*
X165500Y6000D01*
X165900Y6400D01*
Y6800D01*
X165500D01*
X165100Y6400D01*
X164700Y6800D01*
X164300D01*
Y6400D01*
X164700Y6000D01*
X164300Y5600D01*
Y5200D01*
X164350Y14900D02*
X164750D01*
X165150Y15300D01*
X165550Y14900D01*
X165950D01*
Y15300D01*
X165550Y15700D01*
X165950Y16100D01*
Y16500D01*
X165550D01*
X165150Y16100D01*
X164750Y16500D01*
X164350D01*
Y16100D01*
X164750Y15700D01*
X164350Y15300D01*
Y14900D01*
X154600Y20200D02*
X155000D01*
X155400Y20600D01*
X155800Y20200D01*
X156200D01*
Y20600D01*
X155800Y21000D01*
X156200Y21400D01*
Y21800D01*
X155800D01*
X155400Y21400D01*
X155000Y21800D01*
X154600D01*
Y21400D01*
X155000Y21000D01*
X154600Y20600D01*
Y20200D01*
X155000Y8200D02*
X155400D01*
X155800Y8600D01*
X156200Y8200D01*
X156600D01*
Y8600D01*
X156200Y9000D01*
X156600Y9400D01*
Y9800D01*
X156200D01*
X155800Y9400D01*
X155400Y9800D01*
X155000D01*
Y9400D01*
X155400Y9000D01*
X155000Y8600D01*
Y8200D01*
X141800Y5400D02*
X142200D01*
X142600Y5800D01*
X143000Y5400D01*
X143400D01*
Y5800D01*
X143000Y6200D01*
X143400Y6600D01*
Y7000D01*
X143000D01*
X142600Y6600D01*
X142200Y7000D01*
X141800D01*
Y6600D01*
X142200Y6200D01*
X141800Y5800D01*
Y5400D01*
X134400Y15200D02*
X134800D01*
X135200Y15600D01*
X135600Y15200D01*
X136000D01*
Y15600D01*
X135600Y16000D01*
X136000Y16400D01*
Y16800D01*
X135600D01*
X135200Y16400D01*
X134800Y16800D01*
X134400D01*
Y16400D01*
X134800Y16000D01*
X134400Y15600D01*
Y15200D01*
X148500Y15213D02*
X148900D01*
X149300Y15613D01*
X149700Y15213D01*
X150100D01*
Y15613D01*
X149700Y16013D01*
X150100Y16413D01*
Y16813D01*
X149700D01*
X149300Y16413D01*
X148900Y16813D01*
X148500D01*
Y16413D01*
X148900Y16013D01*
X148500Y15613D01*
Y15213D01*
X125200Y13300D02*
X126000Y14100D01*
X126800Y13300D01*
X126000Y12500D01*
X125200Y13300D01*
X106400Y13400D02*
X107200Y14200D01*
X108000Y13400D01*
X107200Y12600D01*
X106400Y13400D01*
X89000Y13300D02*
X89800Y14100D01*
X90600Y13300D01*
X89800Y12500D01*
X89000Y13300D01*
X71300Y13402D02*
X72100Y14202D01*
X72900Y13402D01*
X72100Y12602D01*
X71300Y13402D01*
X83724Y124876D02*
X84124Y125676D01*
X83724Y126476D01*
X84524Y126076D01*
X85324Y126476D01*
X84924Y125676D01*
X85324Y124876D01*
X84524Y125276D01*
X83724Y124876D01*
X80400Y109000D02*
X80800Y109800D01*
X80400Y110600D01*
X81200Y110200D01*
X82000Y110600D01*
X81600Y109800D01*
X82000Y109000D01*
X81200Y109400D01*
X80400Y109000D01*
X80300Y117900D02*
X80700Y118700D01*
X80300Y119500D01*
X81100Y119100D01*
X81900Y119500D01*
X81500Y118700D01*
X81900Y117900D01*
X81100Y118300D01*
X80300Y117900D01*
X80446Y113400D02*
X80846Y114200D01*
X80446Y115000D01*
X81246Y114600D01*
X82046Y115000D01*
X81646Y114200D01*
X82046Y113400D01*
X81246Y113800D01*
X80446Y113400D01*
X84400Y118200D02*
X84800Y119000D01*
X84400Y119800D01*
X85200Y119400D01*
X86000Y119800D01*
X85600Y119000D01*
X86000Y118200D01*
X85200Y118600D01*
X84400Y118200D01*
X84377Y107877D02*
X84777Y108677D01*
X84377Y109477D01*
X85177Y109077D01*
X85977Y109477D01*
X85577Y108677D01*
X85977Y107877D01*
X85177Y108277D01*
X84377Y107877D01*
D173*
X40170Y11811D02*
G03*
X40170Y11811I-800J0D01*
G01*
X331509D02*
G03*
X331509Y11811I-800J0D01*
G01*
Y295276D02*
G03*
X331509Y295276I-800J0D01*
G01*
X40170D02*
G03*
X40170Y295276I-800J0D01*
G01*
X49225Y121496D02*
G03*
X49225Y121496I-800J0D01*
G01*
X300879Y264488D02*
G03*
X300879Y264488I-800J0D01*
G01*
M02*
