G04*
G04 #@! TF.GenerationSoftware,Altium Limited,Altium Designer,19.0.12 (326)*
G04*
G04 Layer_Color=8388736*
%FSLAX25Y25*%
%MOIN*%
G70*
G01*
G75*
%ADD77R,0.05524X0.02178*%
%ADD78R,0.03950X0.03162*%
%ADD79R,0.18910X0.10642*%
%ADD80R,0.02768X0.02768*%
%ADD81R,0.02768X0.02768*%
%ADD82R,0.03950X0.05524*%
%ADD83R,0.05918X0.04737*%
%ADD84R,0.04343X0.03556*%
%ADD85R,0.02962X0.03356*%
%ADD86R,0.02769X0.02769*%
%ADD87R,0.10249X0.06706*%
%ADD88R,0.05131X0.03162*%
%ADD89R,0.02769X0.02769*%
%ADD90R,0.03950X0.03950*%
%ADD91C,0.01345*%
%ADD92O,0.01981X0.09068*%
%ADD93O,0.09068X0.01981*%
%ADD94R,0.03359X0.04934*%
%ADD95R,0.05918X0.03162*%
%ADD96R,0.09461X0.07887*%
%ADD97R,0.01784X0.01784*%
%ADD98R,0.02532X0.03202*%
%ADD99R,0.02768X0.02768*%
%ADD100R,0.02768X0.02768*%
%ADD101R,0.03950X0.03950*%
%ADD102R,0.04304X0.09816*%
%ADD103C,0.01299*%
%ADD104R,0.06706X0.02965*%
%ADD105C,0.03900*%
%ADD106R,0.04737X0.04934*%
%ADD107R,0.04934X0.09461*%
%ADD108R,0.06787X0.04787*%
%ADD109R,0.04787X0.06787*%
%ADD110R,0.02572X0.07690*%
%ADD111R,0.05600X0.04400*%
%ADD112R,0.03162X0.04343*%
%ADD113R,0.04343X0.03162*%
%ADD114R,0.04737X0.05918*%
%ADD115R,0.02787X0.02787*%
%ADD116R,0.03556X0.06706*%
%ADD117R,0.06706X0.03556*%
%ADD118R,0.05170X0.08674*%
%ADD119R,0.03556X0.04343*%
%ADD120R,0.08674X0.05170*%
%ADD121R,0.03202X0.02532*%
%ADD122R,0.01784X0.01784*%
%ADD123R,0.04147X0.02178*%
%ADD124R,0.06706X0.09461*%
%ADD125R,0.04343X0.07099*%
%ADD126R,0.02913X0.01496*%
%ADD127R,0.09304X0.09068*%
%ADD128R,0.09698X0.09068*%
%ADD129R,0.05524X0.13800*%
%ADD130R,0.06784X0.05524*%
%ADD131R,0.08071X0.16535*%
%ADD132R,0.02520X0.01654*%
%ADD133R,0.04095X0.06850*%
%ADD134C,0.06300*%
%ADD135R,0.06300X0.06300*%
%ADD136C,0.12611*%
%ADD137C,0.08300*%
%ADD138C,0.07300*%
%ADD139R,0.07300X0.07300*%
%ADD140C,0.04200*%
%ADD141C,0.02400*%
%ADD142C,0.02800*%
G36*
X59020Y189544D02*
X59045Y189543D01*
X59046Y189543D01*
X59047Y189543D01*
X59071Y189538D01*
X59097Y189532D01*
X59097Y189532D01*
X59098Y189532D01*
X59122Y189524D01*
X59146Y189516D01*
X59147Y189515D01*
X59148Y189515D01*
X59171Y189504D01*
X59193Y189492D01*
X59194Y189492D01*
X59194Y189492D01*
X59216Y189477D01*
X59237Y189463D01*
X59237Y189463D01*
X59238Y189463D01*
X59258Y189445D01*
X59276Y189429D01*
X59277Y189428D01*
X59277Y189428D01*
X59295Y189408D01*
X59311Y189389D01*
X59311Y189389D01*
X59312Y189388D01*
X59326Y189366D01*
X59340Y189346D01*
X59341Y189345D01*
X59341Y189345D01*
X59352Y189321D01*
X59363Y189299D01*
X59364Y189298D01*
X59364Y189298D01*
X59372Y189274D01*
X59380Y189249D01*
X59380Y189249D01*
X59381Y189248D01*
X59385Y189224D01*
X59390Y189198D01*
X59391Y189197D01*
X59391Y189197D01*
X59392Y189170D01*
X59394Y189145D01*
X59394Y189145D01*
X59394Y189144D01*
X59386Y186388D01*
X59385Y186370D01*
X59384Y186352D01*
X59383Y186344D01*
X59382Y186336D01*
X59379Y186318D01*
X59376Y186300D01*
X59374Y186293D01*
X59372Y186284D01*
X59366Y186267D01*
X59361Y186250D01*
X59358Y186243D01*
X59355Y186235D01*
X59347Y186219D01*
X59340Y186202D01*
X59335Y186195D01*
X59332Y186188D01*
X59322Y186173D01*
X59312Y186158D01*
X59307Y186151D01*
X59303Y186144D01*
X59291Y186131D01*
X59279Y186117D01*
X59273Y186111D01*
X59268Y186105D01*
X59254Y186093D01*
X59241Y186081D01*
X57890Y184961D01*
Y181322D01*
X59241Y180202D01*
X59255Y180189D01*
X59269Y180177D01*
X59274Y180171D01*
X59279Y180166D01*
X59291Y180151D01*
X59303Y180137D01*
X59307Y180131D01*
X59312Y180125D01*
X59322Y180109D01*
X59332Y180094D01*
X59336Y180087D01*
X59340Y180081D01*
X59347Y180064D01*
X59356Y180047D01*
X59358Y180040D01*
X59361Y180033D01*
X59366Y180015D01*
X59372Y179997D01*
X59374Y179990D01*
X59376Y179982D01*
X59379Y179964D01*
X59383Y179946D01*
X59383Y179938D01*
X59384Y179931D01*
X59385Y179912D01*
X59386Y179893D01*
Y177137D01*
X59383Y177085D01*
X59372Y177034D01*
X59356Y176984D01*
X59332Y176937D01*
X59303Y176893D01*
X59269Y176854D01*
X59229Y176819D01*
X59186Y176790D01*
X59139Y176767D01*
X59089Y176750D01*
X59038Y176740D01*
X58985Y176737D01*
X54497D01*
X54445Y176740D01*
X54393Y176750D01*
X54344Y176767D01*
X54297Y176790D01*
X54253Y176819D01*
X54214Y176854D01*
X54179Y176893D01*
X54150Y176937D01*
X54127Y176984D01*
X54110Y177034D01*
X54100Y177085D01*
X54096Y177137D01*
Y189145D01*
X54100Y189198D01*
X54110Y189249D01*
X54127Y189299D01*
X54150Y189346D01*
X54179Y189389D01*
X54214Y189429D01*
X54253Y189463D01*
X54297Y189492D01*
X54344Y189516D01*
X54393Y189532D01*
X54445Y189543D01*
X54497Y189546D01*
X58993D01*
X58994Y189546D01*
X58994Y189546D01*
X59020Y189544D01*
D02*
G37*
G36*
X67541Y189543D02*
X67593Y189532D01*
X67643Y189516D01*
X67690Y189492D01*
X67733Y189463D01*
X67773Y189429D01*
X67807Y189389D01*
X67836Y189346D01*
X67860Y189299D01*
X67876Y189249D01*
X67887Y189198D01*
X67890Y189145D01*
Y177137D01*
X67887Y177085D01*
X67876Y177034D01*
X67860Y176984D01*
X67836Y176937D01*
X67807Y176893D01*
X67773Y176854D01*
X67733Y176819D01*
X67690Y176790D01*
X67643Y176767D01*
X67593Y176750D01*
X67541Y176740D01*
X67489Y176737D01*
X62993D01*
X62993Y176737D01*
X62992Y176737D01*
X62966Y176738D01*
X62941Y176740D01*
X62940Y176740D01*
X62940Y176740D01*
X62915Y176745D01*
X62889Y176750D01*
X62889Y176750D01*
X62888Y176751D01*
X62864Y176759D01*
X62840Y176767D01*
X62839Y176767D01*
X62839Y176768D01*
X62815Y176779D01*
X62793Y176790D01*
X62792Y176791D01*
X62792Y176791D01*
X62770Y176805D01*
X62749Y176819D01*
X62749Y176820D01*
X62748Y176820D01*
X62729Y176837D01*
X62710Y176854D01*
X62709Y176854D01*
X62709Y176855D01*
X62691Y176875D01*
X62675Y176893D01*
X62675Y176894D01*
X62674Y176894D01*
X62660Y176916D01*
X62646Y176937D01*
X62646Y176937D01*
X62645Y176938D01*
X62634Y176961D01*
X62623Y176984D01*
X62623Y176985D01*
X62622Y176985D01*
X62614Y177009D01*
X62606Y177034D01*
X62606Y177034D01*
X62606Y177035D01*
X62601Y177059D01*
X62596Y177085D01*
X62596Y177086D01*
X62595Y177086D01*
X62594Y177112D01*
X62592Y177137D01*
X62592Y177138D01*
X62592Y177139D01*
X62600Y179894D01*
X62601Y179913D01*
X62602Y179931D01*
X62603Y179939D01*
X62604Y179947D01*
X62607Y179965D01*
X62610Y179982D01*
X62612Y179990D01*
X62614Y179998D01*
X62620Y180015D01*
X62625Y180033D01*
X62628Y180040D01*
X62631Y180048D01*
X62639Y180064D01*
X62647Y180081D01*
X62651Y180087D01*
X62654Y180095D01*
X62665Y180110D01*
X62674Y180125D01*
X62679Y180132D01*
X62684Y180138D01*
X62696Y180152D01*
X62707Y180166D01*
X62713Y180172D01*
X62718Y180178D01*
X62732Y180190D01*
X62745Y180202D01*
X64096Y181322D01*
Y184961D01*
X62745Y186081D01*
X62732Y186094D01*
X62717Y186106D01*
X62713Y186112D01*
X62707Y186117D01*
X62695Y186131D01*
X62683Y186145D01*
X62679Y186152D01*
X62674Y186158D01*
X62664Y186173D01*
X62654Y186189D01*
X62651Y186196D01*
X62647Y186202D01*
X62639Y186219D01*
X62631Y186236D01*
X62628Y186243D01*
X62625Y186250D01*
X62620Y186268D01*
X62614Y186286D01*
X62612Y186293D01*
X62610Y186300D01*
X62607Y186319D01*
X62603Y186337D01*
X62603Y186345D01*
X62602Y186352D01*
X62601Y186371D01*
X62600Y186389D01*
Y189145D01*
X62603Y189198D01*
X62614Y189249D01*
X62631Y189299D01*
X62654Y189346D01*
X62683Y189389D01*
X62717Y189429D01*
X62757Y189463D01*
X62801Y189492D01*
X62848Y189516D01*
X62897Y189532D01*
X62949Y189543D01*
X63001Y189546D01*
X67489D01*
X67541Y189543D01*
D02*
G37*
G36*
X47556Y86874D02*
X43658D01*
Y88803D01*
X47556D01*
Y86874D01*
D02*
G37*
G36*
X35942D02*
X32044D01*
Y88803D01*
X35942D01*
Y86874D01*
D02*
G37*
G36*
X47556Y84315D02*
X43658D01*
Y86244D01*
X47556D01*
Y84315D01*
D02*
G37*
G36*
X35942D02*
X32044D01*
Y86244D01*
X35942D01*
Y84315D01*
D02*
G37*
G36*
X47556Y81756D02*
X43658D01*
Y83685D01*
X47556D01*
Y81756D01*
D02*
G37*
G36*
X35942D02*
X32044D01*
Y83685D01*
X35942D01*
Y81756D01*
D02*
G37*
G36*
X47556Y79197D02*
X43658D01*
Y81126D01*
X47556D01*
Y79197D01*
D02*
G37*
G36*
X35942D02*
X32044D01*
Y81126D01*
X35942D01*
Y79197D01*
D02*
G37*
G36*
X43298Y87887D02*
Y86313D01*
Y84787D01*
Y83213D01*
Y81687D01*
Y79026D01*
X36302D01*
Y80113D01*
Y81687D01*
Y83213D01*
Y84787D01*
Y86313D01*
Y87887D01*
Y88974D01*
X43298D01*
Y87887D01*
D02*
G37*
G36*
X54223Y73796D02*
X54265Y73786D01*
X54305Y73769D01*
X54342Y73747D01*
X54375Y73719D01*
X54403Y73685D01*
X54426Y73649D01*
X54442Y73608D01*
X54453Y73566D01*
X54456Y73523D01*
Y71831D01*
X55924D01*
X55967Y71828D01*
X56009Y71817D01*
X56049Y71801D01*
X56086Y71778D01*
X56119Y71750D01*
X56120Y71749D01*
X56148Y71716D01*
X56171Y71679D01*
X56187Y71639D01*
X56198Y71597D01*
X56201Y71554D01*
Y62106D01*
X56198Y62063D01*
X56187Y62020D01*
X56171Y61980D01*
X56148Y61943D01*
X56120Y61910D01*
X56087Y61882D01*
X56050Y61859D01*
X56010Y61843D01*
X55968Y61833D01*
X55924Y61829D01*
X54456D01*
Y60137D01*
X54453Y60094D01*
X54442Y60052D01*
X54426Y60012D01*
X54403Y59975D01*
X54375Y59942D01*
X54342Y59914D01*
X54305Y59891D01*
X54265Y59874D01*
X54223Y59864D01*
X54180Y59861D01*
X53195D01*
X53152Y59864D01*
X53110Y59874D01*
X53070Y59891D01*
X53033Y59914D01*
X53000Y59942D01*
X52972Y59975D01*
X52949Y60012D01*
X52932Y60052D01*
X52922Y60094D01*
X52919Y60137D01*
Y61754D01*
X52476D01*
Y60137D01*
X52473Y60094D01*
X52463Y60052D01*
X52446Y60012D01*
X52424Y59975D01*
X52395Y59942D01*
X52363Y59914D01*
X52325Y59891D01*
X52285Y59874D01*
X52243Y59864D01*
X52200Y59861D01*
X51221D01*
X51177Y59864D01*
X51135Y59874D01*
X51095Y59891D01*
X51058Y59914D01*
X51025Y59942D01*
X50997Y59975D01*
X50974Y60012D01*
X50958Y60052D01*
X50947Y60094D01*
X50944Y60137D01*
Y61829D01*
X49452D01*
X49409Y61833D01*
X49367Y61843D01*
X49327Y61859D01*
X49290Y61882D01*
X49257Y61910D01*
X49228Y61943D01*
X49206Y61980D01*
X49189Y62020D01*
X49179Y62063D01*
X49176Y62106D01*
Y71554D01*
X49179Y71598D01*
X49189Y71640D01*
X49206Y71680D01*
X49228Y71717D01*
X49257Y71750D01*
X49290Y71778D01*
X49327Y71801D01*
X49367Y71817D01*
X49409Y71828D01*
X49452Y71831D01*
X50944D01*
Y73516D01*
X50947Y73559D01*
X50958Y73601D01*
X50974Y73641D01*
X50997Y73678D01*
X51025Y73711D01*
X51058Y73740D01*
X51095Y73762D01*
X51135Y73779D01*
X51177Y73789D01*
X51221Y73792D01*
X52205D01*
X52248Y73789D01*
X52290Y73779D01*
X52330Y73762D01*
X52367Y73740D01*
X52400Y73711D01*
X52428Y73678D01*
X52451Y73641D01*
X52468Y73601D01*
X52478Y73559D01*
X52481Y73516D01*
Y71831D01*
X52919D01*
Y73523D01*
X52922Y73566D01*
X52932Y73608D01*
X52949Y73649D01*
X52972Y73685D01*
X53000Y73719D01*
X53033Y73747D01*
X53070Y73769D01*
X53110Y73786D01*
X53152Y73796D01*
X53195Y73800D01*
X54180D01*
X54223Y73796D01*
D02*
G37*
%LPC*%
G36*
X42137Y87887D02*
X40563D01*
Y86313D01*
X42137D01*
Y87887D01*
D02*
G37*
G36*
X39037D02*
X37463D01*
Y86313D01*
X39037D01*
Y87887D01*
D02*
G37*
G36*
X42137Y84787D02*
X40563D01*
Y83213D01*
X42137D01*
Y84787D01*
D02*
G37*
G36*
X39037D02*
X37463D01*
Y83213D01*
X39037D01*
Y84787D01*
D02*
G37*
G36*
X42137Y81687D02*
X40563D01*
Y80113D01*
X42137D01*
Y81687D01*
D02*
G37*
G36*
X39037D02*
X37463D01*
Y80113D01*
X39037D01*
Y81687D01*
D02*
G37*
%LPD*%
D77*
X29689Y249678D02*
D03*
Y245741D02*
D03*
Y241804D02*
D03*
Y237867D02*
D03*
Y233930D02*
D03*
Y229993D02*
D03*
Y226056D02*
D03*
Y222119D02*
D03*
Y218182D02*
D03*
Y214245D02*
D03*
Y210308D02*
D03*
X41697Y247710D02*
D03*
Y243773D02*
D03*
Y239836D02*
D03*
Y235899D02*
D03*
Y231962D02*
D03*
Y228025D02*
D03*
Y224088D02*
D03*
Y220151D02*
D03*
Y216214D02*
D03*
Y212277D02*
D03*
Y208340D02*
D03*
X29689Y206371D02*
D03*
X41697Y204403D02*
D03*
D78*
X19050Y158900D02*
D03*
X10350D02*
D03*
X110674Y103700D02*
D03*
X119374D02*
D03*
D79*
X42049Y154336D02*
D03*
X75907D02*
D03*
D80*
X24532Y158800D02*
D03*
X77588Y125676D02*
D03*
X66331Y72600D02*
D03*
X97300Y261600D02*
D03*
X305968Y167843D02*
D03*
X284637Y166043D02*
D03*
D81*
X28468Y158800D02*
D03*
X81525Y125676D02*
D03*
X70268Y72600D02*
D03*
X163068Y157643D02*
D03*
X159132D02*
D03*
X163068Y153874D02*
D03*
X159132D02*
D03*
X101237Y261600D02*
D03*
X302031Y167843D02*
D03*
X288574Y166043D02*
D03*
D82*
X64863Y122176D02*
D03*
X72737D02*
D03*
D83*
X232578Y182263D02*
D03*
Y190137D02*
D03*
X185400Y233763D02*
D03*
Y241637D02*
D03*
X55726Y105806D02*
D03*
Y97932D02*
D03*
X92544Y117263D02*
D03*
Y125137D02*
D03*
D84*
X262767Y10109D02*
D03*
X270247Y7550D02*
D03*
X262767Y4991D02*
D03*
X326933Y55209D02*
D03*
X319453Y52650D02*
D03*
X326933Y50091D02*
D03*
D85*
X101831Y103600D02*
D03*
X105769D02*
D03*
D86*
X139900Y145575D02*
D03*
Y149512D02*
D03*
X189800Y176075D02*
D03*
Y180012D02*
D03*
X155300Y153675D02*
D03*
Y157612D02*
D03*
X256478Y190732D02*
D03*
Y194668D02*
D03*
X101100Y251669D02*
D03*
Y247731D02*
D03*
D87*
X244782Y123600D02*
D03*
D88*
X222932Y121828D02*
D03*
Y125372D02*
D03*
D89*
X187712Y115800D02*
D03*
X183775D02*
D03*
X162469Y142943D02*
D03*
X158531D02*
D03*
X217510Y194800D02*
D03*
X221447D02*
D03*
X359068Y23200D02*
D03*
X355132D02*
D03*
X122831Y160300D02*
D03*
X126769D02*
D03*
X352168Y11500D02*
D03*
X348232D02*
D03*
X352168Y7300D02*
D03*
X348232D02*
D03*
X69169Y78100D02*
D03*
X65232D02*
D03*
D90*
X222604Y115000D02*
D03*
X228510D02*
D03*
X222904Y131500D02*
D03*
X228810D02*
D03*
X229253Y144843D02*
D03*
X223347D02*
D03*
X215526Y189200D02*
D03*
X221431D02*
D03*
X215626Y181900D02*
D03*
X221531D02*
D03*
X245226Y173273D02*
D03*
X251131D02*
D03*
X51240Y249740D02*
D03*
X57146D02*
D03*
X51240Y242440D02*
D03*
X57146D02*
D03*
X51340Y235140D02*
D03*
X57246D02*
D03*
X51140Y227440D02*
D03*
X57046D02*
D03*
X57146Y217640D02*
D03*
X51240D02*
D03*
X57146Y210340D02*
D03*
X51240D02*
D03*
X71753Y53370D02*
D03*
X65847D02*
D03*
X65896Y115064D02*
D03*
X71802D02*
D03*
D91*
X145213Y148056D02*
D03*
Y149630D02*
D03*
X146787Y148056D02*
D03*
Y149630D02*
D03*
X362913Y23287D02*
D03*
X364487D02*
D03*
X362913Y21713D02*
D03*
X364487D02*
D03*
D92*
X207464Y167990D02*
D03*
X205495D02*
D03*
X203527D02*
D03*
X201558D02*
D03*
X199590D02*
D03*
X197621D02*
D03*
X195653D02*
D03*
X193684D02*
D03*
X191716D02*
D03*
X189747D02*
D03*
X187779D02*
D03*
X185810D02*
D03*
X183842D02*
D03*
X181873D02*
D03*
X179905D02*
D03*
X177936D02*
D03*
Y123896D02*
D03*
X179905D02*
D03*
X181873D02*
D03*
X183842D02*
D03*
X185810D02*
D03*
X187779D02*
D03*
X189747D02*
D03*
X191716D02*
D03*
X193684D02*
D03*
X195653D02*
D03*
X197621D02*
D03*
X199590D02*
D03*
X201558D02*
D03*
X203527D02*
D03*
X205495D02*
D03*
X207464D02*
D03*
D93*
X170653Y160707D02*
D03*
Y158738D02*
D03*
Y156770D02*
D03*
Y154801D02*
D03*
Y152833D02*
D03*
Y150864D02*
D03*
Y148896D02*
D03*
Y146927D02*
D03*
Y144959D02*
D03*
Y142990D02*
D03*
Y141022D02*
D03*
Y139053D02*
D03*
Y137085D02*
D03*
Y135116D02*
D03*
Y133148D02*
D03*
Y131179D02*
D03*
X214747D02*
D03*
Y133148D02*
D03*
Y135116D02*
D03*
Y137085D02*
D03*
Y139053D02*
D03*
Y141022D02*
D03*
Y142990D02*
D03*
Y144959D02*
D03*
Y146927D02*
D03*
Y148896D02*
D03*
Y150864D02*
D03*
Y152833D02*
D03*
Y154801D02*
D03*
Y156770D02*
D03*
Y158738D02*
D03*
Y160707D02*
D03*
D94*
X202940Y177015D02*
D03*
X199200Y186071D02*
D03*
X195460Y177015D02*
D03*
X77733Y201918D02*
D03*
X73993Y192863D02*
D03*
X70253Y201918D02*
D03*
D95*
X348502Y130361D02*
D03*
Y126424D02*
D03*
Y122487D02*
D03*
Y118550D02*
D03*
Y114613D02*
D03*
Y110676D02*
D03*
Y106739D02*
D03*
D96*
X361298Y139810D02*
D03*
Y97290D02*
D03*
D97*
X286012Y33558D02*
D03*
X284043D02*
D03*
X282075D02*
D03*
Y28242D02*
D03*
X284043D02*
D03*
X286012D02*
D03*
X348012Y73043D02*
D03*
X346043D02*
D03*
X344075D02*
D03*
Y78357D02*
D03*
X346043D02*
D03*
X348012D02*
D03*
D98*
X285539Y30900D02*
D03*
X282547D02*
D03*
X344547Y75700D02*
D03*
X347539D02*
D03*
D99*
X284043Y38326D02*
D03*
X330185Y237945D02*
D03*
X252678Y194668D02*
D03*
X284043Y24769D02*
D03*
X346043Y69769D02*
D03*
X346143Y83131D02*
D03*
X49900Y87868D02*
D03*
X58200Y76247D02*
D03*
D100*
X284043Y42263D02*
D03*
X330185Y234008D02*
D03*
X252678Y190732D02*
D03*
X284043Y20831D02*
D03*
X346043Y65832D02*
D03*
X346143Y87068D02*
D03*
X49900Y83931D02*
D03*
X58200Y80184D02*
D03*
D101*
X324485Y237829D02*
D03*
Y231924D02*
D03*
X89566Y181789D02*
D03*
Y175884D02*
D03*
X328778Y192247D02*
D03*
Y198153D02*
D03*
X26993Y263488D02*
D03*
Y269393D02*
D03*
X38393Y261688D02*
D03*
Y267593D02*
D03*
X86193Y239088D02*
D03*
Y244993D02*
D03*
X86200Y227847D02*
D03*
Y233753D02*
D03*
X70793Y218993D02*
D03*
Y213088D02*
D03*
X23249Y182296D02*
D03*
Y176391D02*
D03*
D102*
X291994Y300858D02*
D03*
X276246D02*
D03*
X260498D02*
D03*
X244750D02*
D03*
X284120Y289874D02*
D03*
X268372D02*
D03*
X252624D02*
D03*
X236876D02*
D03*
X291994Y214259D02*
D03*
X276246D02*
D03*
X260498D02*
D03*
X244750D02*
D03*
X284120Y203274D02*
D03*
X268373D02*
D03*
X252624D02*
D03*
X236876D02*
D03*
X229002Y300858D02*
D03*
X221128Y289874D02*
D03*
X229002Y214259D02*
D03*
X221128Y203274D02*
D03*
D103*
X245206Y182884D02*
D03*
Y180916D02*
D03*
X243237Y182884D02*
D03*
Y180916D02*
D03*
X94554Y182416D02*
D03*
Y184384D02*
D03*
X96523Y182416D02*
D03*
Y184384D02*
D03*
X29009Y185225D02*
D03*
X30977D02*
D03*
X29009Y183256D02*
D03*
X30977D02*
D03*
D104*
X95470Y160200D02*
D03*
Y155200D02*
D03*
Y150200D02*
D03*
Y145200D02*
D03*
X116730Y160200D02*
D03*
Y155200D02*
D03*
Y150200D02*
D03*
Y145200D02*
D03*
D105*
X152100Y167532D02*
D03*
X147100Y172532D02*
D03*
X152100D02*
D03*
X157100Y167532D02*
D03*
Y172532D02*
D03*
X147100Y167532D02*
D03*
X356744Y227451D02*
D03*
X361744Y232451D02*
D03*
Y227451D02*
D03*
X356744Y222451D02*
D03*
X361744D02*
D03*
X356744Y232451D02*
D03*
D106*
X147100Y293600D02*
D03*
D107*
X152907Y299604D02*
D03*
X141293D02*
D03*
D108*
X107100Y281700D02*
D03*
Y276700D02*
D03*
Y271700D02*
D03*
Y266700D02*
D03*
Y261700D02*
D03*
Y256700D02*
D03*
Y251700D02*
D03*
Y246700D02*
D03*
Y241700D02*
D03*
Y236700D02*
D03*
Y231700D02*
D03*
Y226700D02*
D03*
Y221700D02*
D03*
Y216700D02*
D03*
Y211700D02*
D03*
Y206700D02*
D03*
Y201700D02*
D03*
Y196700D02*
D03*
Y191700D02*
D03*
Y186700D02*
D03*
X177100Y281700D02*
D03*
Y276700D02*
D03*
Y271700D02*
D03*
Y266700D02*
D03*
Y261700D02*
D03*
Y256700D02*
D03*
Y251700D02*
D03*
Y246700D02*
D03*
Y241700D02*
D03*
Y236700D02*
D03*
Y231700D02*
D03*
Y226700D02*
D03*
Y221700D02*
D03*
Y216700D02*
D03*
Y211700D02*
D03*
Y206700D02*
D03*
Y201700D02*
D03*
Y196700D02*
D03*
Y191700D02*
D03*
Y186700D02*
D03*
D109*
X132100Y286700D02*
D03*
X137100D02*
D03*
X142100D02*
D03*
X147100D02*
D03*
X152100D02*
D03*
X157100D02*
D03*
X127100D02*
D03*
D110*
X351816Y184573D02*
D03*
X349257D02*
D03*
X346698D02*
D03*
X344139D02*
D03*
X341580D02*
D03*
X339020D02*
D03*
X336461D02*
D03*
X333902D02*
D03*
X331343D02*
D03*
X328784D02*
D03*
X351816Y156227D02*
D03*
X349257D02*
D03*
X346698D02*
D03*
X344139D02*
D03*
X341580D02*
D03*
X339020D02*
D03*
X336461D02*
D03*
X333902D02*
D03*
X331343D02*
D03*
X328784D02*
D03*
D111*
X78793Y225390D02*
D03*
Y212490D02*
D03*
X70893Y238290D02*
D03*
Y225390D02*
D03*
X78693Y231990D02*
D03*
Y244890D02*
D03*
D112*
X62146Y198840D02*
D03*
X56240D02*
D03*
X35847Y66800D02*
D03*
X41753D02*
D03*
D113*
X84593Y195838D02*
D03*
Y201744D02*
D03*
D114*
X39756Y183440D02*
D03*
X47630D02*
D03*
X335963Y234577D02*
D03*
X343837D02*
D03*
X21863Y66655D02*
D03*
X29737D02*
D03*
D115*
X55993Y183141D02*
D03*
X65993D02*
D03*
D116*
X350978Y245059D02*
D03*
X341529D02*
D03*
X336805D02*
D03*
X332080D02*
D03*
Y280492D02*
D03*
X336805D02*
D03*
X341529D02*
D03*
X346253D02*
D03*
Y245059D02*
D03*
X350978Y280492D02*
D03*
D117*
X325584Y251949D02*
D03*
Y256674D02*
D03*
Y261398D02*
D03*
Y266122D02*
D03*
Y270847D02*
D03*
Y275571D02*
D03*
D118*
X273643Y18218D02*
D03*
X253643D02*
D03*
X243643D02*
D03*
X233643D02*
D03*
X223643D02*
D03*
Y42982D02*
D03*
X233643D02*
D03*
X243643D02*
D03*
X253643D02*
D03*
X273643D02*
D03*
X336843Y62918D02*
D03*
X316843D02*
D03*
X306843D02*
D03*
X296843D02*
D03*
X286843D02*
D03*
Y87682D02*
D03*
X296843D02*
D03*
X306843D02*
D03*
X316843D02*
D03*
X336843D02*
D03*
D119*
X315811Y147733D02*
D03*
X318370Y140253D02*
D03*
X320929Y147733D02*
D03*
D120*
X308482Y156643D02*
D03*
Y136643D02*
D03*
Y126643D02*
D03*
Y116643D02*
D03*
Y106643D02*
D03*
X283718D02*
D03*
Y116643D02*
D03*
Y126643D02*
D03*
Y136643D02*
D03*
Y156643D02*
D03*
D121*
X296000Y164447D02*
D03*
Y167439D02*
D03*
D122*
X298657Y167912D02*
D03*
Y165943D02*
D03*
Y163975D02*
D03*
X293342D02*
D03*
Y165943D02*
D03*
Y167912D02*
D03*
D123*
X33993Y80161D02*
D03*
Y82721D02*
D03*
Y85280D02*
D03*
Y87839D02*
D03*
X45607D02*
D03*
Y85280D02*
D03*
Y82721D02*
D03*
Y80161D02*
D03*
D124*
X31281Y42081D02*
D03*
X56478D02*
D03*
D125*
X77502Y62500D02*
D03*
X65298D02*
D03*
D126*
X52700Y66830D02*
D03*
X47188Y70767D02*
D03*
Y68799D02*
D03*
Y66830D02*
D03*
Y64862D02*
D03*
Y62893D02*
D03*
X58212Y70767D02*
D03*
Y68799D02*
D03*
Y66830D02*
D03*
Y64862D02*
D03*
Y62893D02*
D03*
D127*
X142400Y16013D02*
D03*
D128*
Y35187D02*
D03*
D129*
X81000Y13202D02*
D03*
Y38398D02*
D03*
X116570Y13402D02*
D03*
Y38598D02*
D03*
D130*
X190005Y35882D02*
D03*
X155595D02*
D03*
Y15410D02*
D03*
X190005D02*
D03*
D131*
X65134Y95629D02*
D03*
X92615D02*
D03*
D132*
X77505Y117153D02*
D03*
Y115184D02*
D03*
Y113216D02*
D03*
Y111247D02*
D03*
X84986D02*
D03*
Y113216D02*
D03*
Y115184D02*
D03*
Y117153D02*
D03*
D133*
X81246Y114200D02*
D03*
D134*
X334961Y139270D02*
D03*
Y131396D02*
D03*
Y123522D02*
D03*
Y115648D02*
D03*
Y107774D02*
D03*
D135*
Y99900D02*
D03*
D136*
X39370Y11811D02*
D03*
X330709D02*
D03*
Y295276D02*
D03*
X39370D02*
D03*
X48425Y121496D02*
D03*
X300079Y264488D02*
D03*
D137*
X123500Y87600D02*
D03*
Y67915D02*
D03*
X109721D02*
D03*
Y87600D02*
D03*
D138*
X269559Y91379D02*
D03*
X249559D02*
D03*
X229559D02*
D03*
X209559D02*
D03*
X189559D02*
D03*
X169559D02*
D03*
X269559Y63820D02*
D03*
X249559D02*
D03*
X229559D02*
D03*
X209559D02*
D03*
X189559D02*
D03*
X169559D02*
D03*
D139*
X149559D02*
D03*
Y91379D02*
D03*
D140*
X162100Y170032D02*
D03*
X142100Y166032D02*
D03*
Y174032D02*
D03*
X359244Y217451D02*
D03*
X355244Y237451D02*
D03*
X363244D02*
D03*
D141*
X88600Y227847D02*
D03*
X88800Y239088D02*
D03*
X83900Y198700D02*
D03*
X29500Y204200D02*
D03*
X84500Y193800D02*
D03*
X29600Y269400D02*
D03*
X38600Y235896D02*
D03*
X41700Y234600D02*
D03*
X10100Y156600D02*
D03*
X10200Y161200D02*
D03*
X8000Y158800D02*
D03*
X86000Y154900D02*
D03*
X65847Y155100D02*
D03*
X75729Y149000D02*
D03*
Y161000D02*
D03*
X204300Y139000D02*
D03*
X45400Y142000D02*
D03*
D142*
X64240Y198881D02*
D03*
M02*
