G04*
G04 #@! TF.GenerationSoftware,Altium Limited,Altium Designer,19.0.12 (326)*
G04*
G04 Layer_Color=32768*
%FSLAX25Y25*%
%MOIN*%
G70*
G01*
G75*
%ADD15C,0.00500*%
%ADD169C,0.00200*%
D15*
X62993Y177137D02*
X67489D01*
X62993D02*
X63001Y179893D01*
X64497Y181133D01*
Y185149D01*
X63001Y186389D02*
X64497Y185149D01*
X67489Y177137D02*
Y189145D01*
X63001D02*
X67489D01*
X63001Y186389D02*
Y189145D01*
X57489Y185149D02*
X58985Y186389D01*
X58993Y189145D01*
X54497D02*
X58993D01*
X57489Y181133D02*
Y185149D01*
Y181133D02*
X58985Y179893D01*
Y177137D02*
Y179893D01*
X54497Y177137D02*
X58985D01*
X54497D02*
Y189145D01*
D169*
X54180Y60137D02*
Y62106D01*
X55924D01*
Y71554D01*
X54180Y71554D02*
X55924D01*
X54180D02*
Y73523D01*
X53195D02*
X54180D01*
X53195Y71554D02*
Y73523D01*
X52205Y71554D02*
X53195D01*
X52205Y71547D02*
Y73516D01*
X51221D02*
X52205D01*
X51221Y71547D02*
Y73516D01*
X49452Y71554D02*
X51221D01*
X49452Y62106D02*
Y71554D01*
Y62106D02*
X51221D01*
Y60137D02*
Y62106D01*
Y60137D02*
X52200D01*
Y62030D01*
X53195D01*
Y60137D02*
Y62030D01*
Y60137D02*
X54180D01*
M02*
