G04*
G04 #@! TF.GenerationSoftware,Altium Limited,Altium Designer,19.0.12 (326)*
G04*
G04 Layer_Physical_Order=4*
G04 Layer_Color=16711680*
%FSLAX25Y25*%
%MOIN*%
G70*
G01*
G75*
%ADD10C,0.01000*%
%ADD11C,0.00600*%
%ADD12C,0.00800*%
%ADD147C,0.01200*%
%ADD148C,0.02500*%
%ADD150C,0.05500*%
%ADD151R,0.05500X0.05500*%
%ADD152C,0.11811*%
%ADD153C,0.07500*%
%ADD154C,0.06500*%
%ADD155R,0.06500X0.06500*%
%ADD156C,0.03400*%
%ADD157C,0.01600*%
%ADD158C,0.02000*%
%ADD159C,0.05000*%
G36*
X351200Y303600D02*
Y241283D01*
X350700Y241016D01*
X350546Y241119D01*
X350000Y241227D01*
X349454Y241119D01*
X348991Y240809D01*
X348681Y240346D01*
X348573Y239800D01*
X348681Y239254D01*
X348991Y238791D01*
X349082Y238729D01*
Y231700D01*
X349152Y231349D01*
X349351Y231051D01*
X355051Y225351D01*
X355349Y225152D01*
X355700Y225082D01*
X361920D01*
X364443Y222559D01*
X364422Y222451D01*
X364530Y221905D01*
X364840Y221442D01*
X365303Y221132D01*
X365849Y221024D01*
X366395Y221132D01*
X366400Y221135D01*
X366900Y220868D01*
Y44200D01*
X333818D01*
Y46900D01*
X333748Y47251D01*
X333549Y47549D01*
X333251Y47748D01*
X332900Y47818D01*
X285428D01*
X285161Y48318D01*
X285319Y48554D01*
X285427Y49100D01*
X285319Y49646D01*
X285009Y50109D01*
X284546Y50419D01*
X284000Y50527D01*
X283892Y50506D01*
X280018Y54380D01*
Y65700D01*
X279948Y66051D01*
X279749Y66349D01*
X275077Y71020D01*
X275269Y71482D01*
X328186D01*
X328247Y71391D01*
X328710Y71081D01*
X329257Y70973D01*
X329803Y71081D01*
X330266Y71391D01*
X330575Y71854D01*
X330684Y72400D01*
X330575Y72946D01*
X330266Y73409D01*
X329803Y73719D01*
X329257Y73827D01*
X328710Y73719D01*
X328247Y73409D01*
X328186Y73318D01*
X274477D01*
X274446Y73349D01*
X274148Y73548D01*
X273901Y73597D01*
X272549Y74949D01*
X272251Y75148D01*
X271900Y75218D01*
X261271D01*
X261209Y75309D01*
X260746Y75619D01*
X260200Y75727D01*
X259654Y75619D01*
X259191Y75309D01*
X258881Y74846D01*
X258773Y74300D01*
X258881Y73754D01*
X259191Y73291D01*
X259654Y72981D01*
X260200Y72873D01*
X260746Y72981D01*
X261209Y73291D01*
X261271Y73382D01*
X264024D01*
X264073Y72882D01*
X263754Y72819D01*
X263291Y72509D01*
X262981Y72046D01*
X262873Y71500D01*
X262981Y70954D01*
X263291Y70491D01*
X263754Y70181D01*
X264300Y70073D01*
X264846Y70181D01*
X265309Y70491D01*
X265371Y70582D01*
X272920D01*
X278182Y65320D01*
Y54000D01*
X278252Y53649D01*
X278451Y53351D01*
X282594Y49208D01*
X282573Y49100D01*
X282681Y48554D01*
X282839Y48318D01*
X282572Y47818D01*
X280900D01*
X280549Y47748D01*
X280251Y47549D01*
X270720Y38018D01*
X231793D01*
X231442Y37948D01*
X231144Y37749D01*
X229813Y36418D01*
X225341D01*
X225073Y36918D01*
X225150Y37033D01*
X225274Y37657D01*
X225150Y38281D01*
X224797Y38810D01*
X224267Y39164D01*
X223643Y39288D01*
X223019Y39164D01*
X222490Y38810D01*
X222136Y38281D01*
X222012Y37657D01*
X222136Y37033D01*
X222213Y36918D01*
X221946Y36418D01*
X211080D01*
X197849Y49649D01*
X197551Y49848D01*
X197200Y49918D01*
X173280D01*
X163385Y59813D01*
X163319Y60146D01*
X163009Y60609D01*
X162546Y60919D01*
X162000Y61027D01*
X161454Y60919D01*
X160991Y60609D01*
X160681Y60146D01*
X160573Y59600D01*
X160681Y59054D01*
X160991Y58591D01*
X161454Y58281D01*
X162000Y58173D01*
X162358Y58244D01*
X172251Y48351D01*
X172549Y48152D01*
X172900Y48082D01*
X196820D01*
X210051Y34851D01*
X210349Y34652D01*
X210700Y34582D01*
X230193D01*
X230544Y34652D01*
X230842Y34851D01*
X232173Y36182D01*
X271100D01*
X271451Y36252D01*
X271749Y36451D01*
X281280Y45982D01*
X331982D01*
Y43082D01*
X321370Y32470D01*
Y20818D01*
X178680D01*
X144818Y54680D01*
Y55988D01*
X145318Y56289D01*
X145411Y56239D01*
X145495Y56134D01*
X145552Y55849D01*
X145751Y55551D01*
X179171Y22131D01*
X179469Y21932D01*
X179820Y21862D01*
X278929D01*
X278991Y21771D01*
X279454Y21461D01*
X280000Y21353D01*
X280546Y21461D01*
X281009Y21771D01*
X281319Y22234D01*
X281427Y22780D01*
X281319Y23326D01*
X281009Y23789D01*
X280546Y24099D01*
X280000Y24207D01*
X279454Y24099D01*
X278991Y23789D01*
X278929Y23698D01*
X180200D01*
X147318Y56580D01*
Y56603D01*
X147619Y57054D01*
X147727Y57600D01*
X147619Y58146D01*
X147309Y58609D01*
X146846Y58919D01*
X146300Y59027D01*
X145754Y58919D01*
X145535Y58773D01*
X144925Y58808D01*
X144850Y58849D01*
X144446Y59119D01*
X143900Y59227D01*
X143354Y59119D01*
X142891Y58809D01*
X142581Y58346D01*
X142473Y57800D01*
X142581Y57254D01*
X142891Y56791D01*
X142982Y56729D01*
Y54300D01*
X143052Y53949D01*
X143251Y53651D01*
X177651Y19251D01*
X177949Y19052D01*
X178300Y18982D01*
X321370D01*
Y7731D01*
X320908Y7540D01*
X316302Y12146D01*
X316004Y12345D01*
X315653Y12415D01*
X281183D01*
X277049Y16549D01*
X276751Y16748D01*
X276400Y16818D01*
X176780D01*
X140406Y53192D01*
X140427Y53300D01*
X140319Y53846D01*
X140009Y54309D01*
X139546Y54619D01*
X139000Y54727D01*
X138454Y54619D01*
X137991Y54309D01*
X137681Y53846D01*
X137573Y53300D01*
X137681Y52754D01*
X137991Y52291D01*
X138454Y51981D01*
X139000Y51873D01*
X139108Y51894D01*
X175285Y15718D01*
X175077Y15218D01*
X173980D01*
X137149Y52049D01*
X136851Y52248D01*
X136500Y52318D01*
X136271D01*
X136209Y52409D01*
X135746Y52719D01*
X135200Y52827D01*
X134654Y52719D01*
X134191Y52409D01*
X133881Y51946D01*
X133773Y51400D01*
X133881Y50854D01*
X134191Y50391D01*
X134654Y50081D01*
X135200Y49973D01*
X135746Y50081D01*
X136209Y50391D01*
X136211Y50391D01*
X172951Y13651D01*
X173249Y13452D01*
X173600Y13382D01*
X221783D01*
X222129Y12882D01*
X222073Y12600D01*
X222181Y12054D01*
X222491Y11591D01*
X222954Y11281D01*
X223122Y11248D01*
X225335Y9035D01*
X225732Y8770D01*
X226200Y8676D01*
X258811D01*
X258954Y8581D01*
X259500Y8473D01*
X260046Y8581D01*
X260509Y8891D01*
X260819Y9354D01*
X260927Y9900D01*
X260819Y10446D01*
X260509Y10909D01*
X260046Y11219D01*
X259500Y11327D01*
X258954Y11219D01*
X258811Y11124D01*
X226707D01*
X224948Y12882D01*
X225026Y13171D01*
X225217Y13382D01*
X273420D01*
X277154Y9648D01*
X277452Y9449D01*
X277803Y9379D01*
X313893D01*
X319610Y3662D01*
X319419Y3200D01*
X3300D01*
X3000Y3324D01*
Y187900D01*
X23500D01*
Y275000D01*
X3658Y274705D01*
X3305Y275059D01*
X3400Y282600D01*
Y304400D01*
X350400D01*
X351200Y303600D01*
D02*
G37*
G36*
X360848Y237451D02*
X361031Y236534D01*
X361550Y235757D01*
X362327Y235237D01*
X363244Y235055D01*
X364161Y235237D01*
X364939Y235757D01*
X365458Y236534D01*
X365628Y237390D01*
X365847Y237504D01*
X366126Y237574D01*
X367500Y236200D01*
X366900Y235600D01*
Y224034D01*
X366400Y223767D01*
X366395Y223770D01*
X365849Y223878D01*
X365741Y223857D01*
X362949Y226649D01*
X362651Y226848D01*
X362300Y226918D01*
X356080D01*
X352827Y230171D01*
X352991Y230714D01*
X353202Y230755D01*
X353798Y231153D01*
X354164Y231701D01*
X352500D01*
Y232451D01*
X351750D01*
Y234115D01*
X351418Y233893D01*
X350918Y234154D01*
Y237317D01*
X351200Y237700D01*
X352644D01*
X352848Y237451D01*
X353031Y236534D01*
X353550Y235757D01*
X354327Y235237D01*
X355244Y235055D01*
X356161Y235237D01*
X356939Y235757D01*
X357458Y236534D01*
X357640Y237451D01*
X357845Y237700D01*
X360644D01*
X360848Y237451D01*
D02*
G37*
%LPC*%
G36*
X156750Y301268D02*
Y300354D01*
X157664D01*
X157298Y300902D01*
X156750Y301268D01*
D02*
G37*
G36*
X155250D02*
X154702Y300902D01*
X154336Y300354D01*
X155250D01*
Y301268D01*
D02*
G37*
G36*
X150354D02*
Y300354D01*
X151268D01*
X150902Y300902D01*
X150354Y301268D01*
D02*
G37*
G36*
X148854D02*
X148306Y300902D01*
X147940Y300354D01*
X148854D01*
Y301268D01*
D02*
G37*
G36*
X145054D02*
Y300354D01*
X145968D01*
X145602Y300902D01*
X145054Y301268D01*
D02*
G37*
G36*
X143554D02*
X143006Y300902D01*
X142640Y300354D01*
X143554D01*
Y301268D01*
D02*
G37*
G36*
X139054D02*
Y300354D01*
X139968D01*
X139602Y300902D01*
X139054Y301268D01*
D02*
G37*
G36*
X137554D02*
X137006Y300902D01*
X136640Y300354D01*
X137554D01*
Y301268D01*
D02*
G37*
G36*
X157664Y298854D02*
X156750D01*
Y297940D01*
X157298Y298306D01*
X157664Y298854D01*
D02*
G37*
G36*
X155250D02*
X154336D01*
X154702Y298306D01*
X155250Y297940D01*
Y298854D01*
D02*
G37*
G36*
X151268D02*
X150354D01*
Y297940D01*
X150902Y298306D01*
X151268Y298854D01*
D02*
G37*
G36*
X148854D02*
X147940D01*
X148306Y298306D01*
X148854Y297940D01*
Y298854D01*
D02*
G37*
G36*
X145968D02*
X145054D01*
Y297940D01*
X145602Y298306D01*
X145968Y298854D01*
D02*
G37*
G36*
X143554D02*
X142640D01*
X143006Y298306D01*
X143554Y297940D01*
Y298854D01*
D02*
G37*
G36*
X139968D02*
X139054D01*
Y297940D01*
X139602Y298306D01*
X139968Y298854D01*
D02*
G37*
G36*
X137554D02*
X136640D01*
X137006Y298306D01*
X137554Y297940D01*
Y298854D01*
D02*
G37*
G36*
X142043Y296171D02*
Y295257D01*
X142957D01*
X142591Y295805D01*
X142043Y296171D01*
D02*
G37*
G36*
X140543D02*
X139995Y295805D01*
X139629Y295257D01*
X140543D01*
Y296171D01*
D02*
G37*
G36*
X153657Y295764D02*
Y294850D01*
X154571D01*
X154205Y295398D01*
X153657Y295764D01*
D02*
G37*
G36*
X152157D02*
X151609Y295398D01*
X151243Y294850D01*
X152157D01*
Y295764D01*
D02*
G37*
G36*
X142957Y293757D02*
X139629D01*
X139995Y293209D01*
X140452Y292904D01*
X140591Y292782D01*
X140603Y292299D01*
X140436Y292050D01*
X143764D01*
X143398Y292598D01*
X142941Y292903D01*
X142802Y293025D01*
X142790Y293508D01*
X142957Y293757D01*
D02*
G37*
G36*
X127850Y292564D02*
Y291650D01*
X128764D01*
X128398Y292198D01*
X127850Y292564D01*
D02*
G37*
G36*
X126350D02*
X125802Y292198D01*
X125436Y291650D01*
X126350D01*
Y292564D01*
D02*
G37*
G36*
X157850Y292464D02*
Y291550D01*
X158764D01*
X158398Y292098D01*
X157850Y292464D01*
D02*
G37*
G36*
X156350D02*
X155802Y292098D01*
X155436Y291550D01*
X156350D01*
Y292464D01*
D02*
G37*
G36*
X132850D02*
Y291550D01*
X133764D01*
X133398Y292098D01*
X132850Y292464D01*
D02*
G37*
G36*
X131350D02*
X130802Y292098D01*
X130436Y291550D01*
X131350D01*
Y292464D01*
D02*
G37*
G36*
X154571Y293350D02*
X151243D01*
X151524Y292930D01*
X151414Y292466D01*
X151358Y292369D01*
X150802Y291998D01*
X150436Y291450D01*
X153764D01*
X153483Y291870D01*
X153593Y292334D01*
X153649Y292431D01*
X154205Y292802D01*
X154571Y293350D01*
D02*
G37*
G36*
X143764Y290550D02*
X142850D01*
Y289636D01*
X143398Y290002D01*
X143764Y290550D01*
D02*
G37*
G36*
X141350D02*
X140436D01*
X140802Y290002D01*
X141350Y289636D01*
Y290550D01*
D02*
G37*
G36*
X128764Y290150D02*
X127850D01*
Y289236D01*
X128398Y289602D01*
X128764Y290150D01*
D02*
G37*
G36*
X126350D02*
X125436D01*
X125802Y289602D01*
X126350Y289236D01*
Y290150D01*
D02*
G37*
G36*
X158764Y290050D02*
X157850D01*
Y289136D01*
X158398Y289502D01*
X158764Y290050D01*
D02*
G37*
G36*
X156350D02*
X155436D01*
X155802Y289502D01*
X156350Y289136D01*
Y290050D01*
D02*
G37*
G36*
X133764D02*
X132850D01*
Y289136D01*
X133398Y289502D01*
X133764Y290050D01*
D02*
G37*
G36*
X131350D02*
X130436D01*
X130802Y289502D01*
X131350Y289136D01*
Y290050D01*
D02*
G37*
G36*
X153764Y289950D02*
X152850D01*
Y289036D01*
X153398Y289402D01*
X153764Y289950D01*
D02*
G37*
G36*
X151350D02*
X150436D01*
X150802Y289402D01*
X151350Y289036D01*
Y289950D01*
D02*
G37*
G36*
X330709Y301813D02*
X329433Y301687D01*
X328207Y301315D01*
X327077Y300711D01*
X326086Y299898D01*
X325273Y298907D01*
X324669Y297777D01*
X324297Y296551D01*
X324172Y295276D01*
X324297Y294000D01*
X324669Y292774D01*
X325273Y291644D01*
X326086Y290653D01*
X327077Y289840D01*
X328207Y289236D01*
X329433Y288864D01*
X330709Y288739D01*
X331984Y288864D01*
X333210Y289236D01*
X334340Y289840D01*
X335331Y290653D01*
X336144Y291644D01*
X336748Y292774D01*
X337120Y294000D01*
X337246Y295276D01*
X337120Y296551D01*
X336748Y297777D01*
X336144Y298907D01*
X335331Y299898D01*
X334340Y300711D01*
X333210Y301315D01*
X331984Y301687D01*
X330709Y301813D01*
D02*
G37*
G36*
X39370D02*
X38095Y301687D01*
X36869Y301315D01*
X35738Y300711D01*
X34748Y299898D01*
X33935Y298907D01*
X33331Y297777D01*
X32959Y296551D01*
X32833Y295276D01*
X32959Y294000D01*
X33331Y292774D01*
X33935Y291644D01*
X34748Y290653D01*
X35738Y289840D01*
X36869Y289236D01*
X38095Y288864D01*
X39370Y288739D01*
X40645Y288864D01*
X41872Y289236D01*
X43002Y289840D01*
X43992Y290653D01*
X44805Y291644D01*
X45410Y292774D01*
X45781Y294000D01*
X45907Y295276D01*
X45781Y296551D01*
X45410Y297777D01*
X44805Y298907D01*
X43992Y299898D01*
X43002Y300711D01*
X41872Y301315D01*
X40645Y301687D01*
X39370Y301813D01*
D02*
G37*
G36*
X347004Y286664D02*
Y285750D01*
X347917D01*
X347551Y286298D01*
X347004Y286664D01*
D02*
G37*
G36*
X345503D02*
X344956Y286298D01*
X344590Y285750D01*
X345503D01*
Y286664D01*
D02*
G37*
G36*
X127850Y284464D02*
Y283550D01*
X128764D01*
X128398Y284098D01*
X127850Y284464D01*
D02*
G37*
G36*
X126350D02*
X125802Y284098D01*
X125436Y283550D01*
X126350D01*
Y284464D01*
D02*
G37*
G36*
X152850Y284364D02*
Y283450D01*
X153764D01*
X153398Y283998D01*
X152850Y284364D01*
D02*
G37*
G36*
X151350D02*
X150802Y283998D01*
X150436Y283450D01*
X151350D01*
Y284364D01*
D02*
G37*
G36*
X347917Y284250D02*
X347004D01*
Y283336D01*
X347551Y283702D01*
X347917Y284250D01*
D02*
G37*
G36*
X345503D02*
X344590D01*
X344956Y283702D01*
X345503Y283336D01*
Y284250D01*
D02*
G37*
G36*
X157850Y284164D02*
Y283250D01*
X158764D01*
X158398Y283798D01*
X157850Y284164D01*
D02*
G37*
G36*
X156350D02*
X155802Y283798D01*
X155436Y283250D01*
X156350D01*
Y284164D01*
D02*
G37*
G36*
X132850Y284064D02*
Y283150D01*
X133764D01*
X133398Y283698D01*
X132850Y284064D01*
D02*
G37*
G36*
X131350D02*
X130802Y283698D01*
X130436Y283150D01*
X131350D01*
Y284064D01*
D02*
G37*
G36*
X142850Y283964D02*
Y283050D01*
X143764D01*
X143398Y283598D01*
X142850Y283964D01*
D02*
G37*
G36*
X141350D02*
X140802Y283598D01*
X140436Y283050D01*
X141350D01*
Y283964D01*
D02*
G37*
G36*
X183000Y288118D02*
X171100D01*
X170749Y288048D01*
X170451Y287849D01*
X167708Y285106D01*
X167600Y285127D01*
X167054Y285019D01*
X166591Y284709D01*
X166281Y284246D01*
X166173Y283700D01*
X166281Y283154D01*
X166591Y282691D01*
X167054Y282381D01*
X167600Y282273D01*
X168146Y282381D01*
X168609Y282691D01*
X168919Y283154D01*
X169027Y283700D01*
X169006Y283808D01*
X171480Y286282D01*
X182620D01*
X185451Y283451D01*
X185749Y283252D01*
X186100Y283182D01*
X308529D01*
X308591Y283091D01*
X309054Y282781D01*
X309600Y282673D01*
X310146Y282781D01*
X310609Y283091D01*
X310919Y283554D01*
X311027Y284100D01*
X310919Y284646D01*
X310609Y285109D01*
X310146Y285419D01*
X309600Y285527D01*
X309054Y285419D01*
X308591Y285109D01*
X308529Y285018D01*
X186480D01*
X183649Y287849D01*
X183351Y288048D01*
X183000Y288118D01*
D02*
G37*
G36*
X181650Y283364D02*
Y282450D01*
X182564D01*
X182198Y282998D01*
X181650Y283364D01*
D02*
G37*
G36*
X180150D02*
X179602Y282998D01*
X179236Y282450D01*
X180150D01*
Y283364D01*
D02*
G37*
G36*
X173850D02*
Y282450D01*
X174764D01*
X174398Y282998D01*
X173850Y283364D01*
D02*
G37*
G36*
X172350D02*
X171802Y282998D01*
X171436Y282450D01*
X172350D01*
Y283364D01*
D02*
G37*
G36*
X111750D02*
Y282450D01*
X112664D01*
X112298Y282998D01*
X111750Y283364D01*
D02*
G37*
G36*
X110250D02*
X109702Y282998D01*
X109336Y282450D01*
X110250D01*
Y283364D01*
D02*
G37*
G36*
X103850D02*
Y282450D01*
X104764D01*
X104398Y282998D01*
X103850Y283364D01*
D02*
G37*
G36*
X102350D02*
X101802Y282998D01*
X101436Y282450D01*
X102350D01*
Y283364D01*
D02*
G37*
G36*
X128764Y282050D02*
X127850D01*
Y281136D01*
X128398Y281502D01*
X128764Y282050D01*
D02*
G37*
G36*
X126350D02*
X125436D01*
X125802Y281502D01*
X126350Y281136D01*
Y282050D01*
D02*
G37*
G36*
X153764Y281950D02*
X152850D01*
Y281036D01*
X153398Y281402D01*
X153764Y281950D01*
D02*
G37*
G36*
X151350D02*
X150436D01*
X150802Y281402D01*
X151350Y281036D01*
Y281950D01*
D02*
G37*
G36*
X158764Y281750D02*
X157850D01*
Y280836D01*
X158398Y281202D01*
X158764Y281750D01*
D02*
G37*
G36*
X156350D02*
X155436D01*
X155802Y281202D01*
X156350Y280836D01*
Y281750D01*
D02*
G37*
G36*
X133764Y281650D02*
X132850D01*
Y280736D01*
X133398Y281102D01*
X133764Y281650D01*
D02*
G37*
G36*
X131350D02*
X130436D01*
X130802Y281102D01*
X131350Y280736D01*
Y281650D01*
D02*
G37*
G36*
X143764Y281550D02*
X142850D01*
Y280636D01*
X143398Y281002D01*
X143764Y281550D01*
D02*
G37*
G36*
X141350D02*
X140436D01*
X140802Y281002D01*
X141350Y280636D01*
Y281550D01*
D02*
G37*
G36*
X182564Y280950D02*
X181650D01*
Y280036D01*
X182198Y280402D01*
X182564Y280950D01*
D02*
G37*
G36*
X180150D02*
X179236D01*
X179602Y280402D01*
X180150Y280036D01*
Y280950D01*
D02*
G37*
G36*
X174764D02*
X173850D01*
Y280036D01*
X174398Y280402D01*
X174764Y280950D01*
D02*
G37*
G36*
X172350D02*
X171436D01*
X171802Y280402D01*
X172350Y280036D01*
Y280950D01*
D02*
G37*
G36*
X112664D02*
X111750D01*
Y280036D01*
X112298Y280402D01*
X112664Y280950D01*
D02*
G37*
G36*
X110250D02*
X109336D01*
X109702Y280402D01*
X110250Y280036D01*
Y280950D01*
D02*
G37*
G36*
X104764D02*
X103850D01*
Y280036D01*
X104398Y280402D01*
X104764Y280950D01*
D02*
G37*
G36*
X102350D02*
X101436D01*
X101802Y280402D01*
X102350Y280036D01*
Y280950D01*
D02*
G37*
G36*
X319500Y282327D02*
X318954Y282219D01*
X318491Y281909D01*
X318429Y281818D01*
X206300D01*
X205949Y281748D01*
X205651Y281549D01*
X198208Y274106D01*
X198100Y274127D01*
X197554Y274019D01*
X197091Y273709D01*
X196781Y273246D01*
X196673Y272700D01*
X196781Y272154D01*
X197091Y271691D01*
X197554Y271381D01*
X198100Y271273D01*
X198559Y271364D01*
X198767Y271130D01*
X198854Y270952D01*
X194608Y266706D01*
X194500Y266727D01*
X193954Y266619D01*
X193491Y266309D01*
X193181Y265846D01*
X193073Y265300D01*
X193181Y264754D01*
X193491Y264291D01*
X193954Y263981D01*
X194500Y263873D01*
X195046Y263981D01*
X195509Y264291D01*
X195819Y264754D01*
X195927Y265300D01*
X195906Y265408D01*
X204380Y273882D01*
X339229D01*
X339291Y273791D01*
X339754Y273481D01*
X340300Y273373D01*
X340846Y273481D01*
X341309Y273791D01*
X341619Y274254D01*
X341727Y274800D01*
X341619Y275346D01*
X341309Y275809D01*
X340846Y276119D01*
X340300Y276227D01*
X339754Y276119D01*
X339291Y275809D01*
X339229Y275718D01*
X204000D01*
X203649Y275648D01*
X203351Y275449D01*
X199848Y271946D01*
X199670Y272032D01*
X199436Y272241D01*
X199527Y272700D01*
X199506Y272808D01*
X206680Y279982D01*
X318429D01*
X318491Y279891D01*
X318954Y279581D01*
X319500Y279473D01*
X320046Y279581D01*
X320509Y279891D01*
X320819Y280354D01*
X320927Y280900D01*
X320819Y281446D01*
X320509Y281909D01*
X320046Y282219D01*
X319500Y282327D01*
D02*
G37*
G36*
X347004Y277410D02*
Y276497D01*
X347917D01*
X347551Y277044D01*
X347004Y277410D01*
D02*
G37*
G36*
X345503D02*
X344956Y277044D01*
X344590Y276497D01*
X345503D01*
Y277410D01*
D02*
G37*
G36*
X347917Y274996D02*
X347004D01*
Y274083D01*
X347551Y274449D01*
X347917Y274996D01*
D02*
G37*
G36*
X345503D02*
X344590D01*
X344956Y274449D01*
X345503Y274083D01*
Y274996D01*
D02*
G37*
G36*
X27550Y274564D02*
Y273650D01*
X28464D01*
X28098Y274198D01*
X27550Y274564D01*
D02*
G37*
G36*
X26050D02*
X25502Y274198D01*
X25136Y273650D01*
X26050D01*
Y274564D01*
D02*
G37*
G36*
X28464Y272150D02*
X27550D01*
Y271236D01*
X28098Y271602D01*
X28464Y272150D01*
D02*
G37*
G36*
X26050D02*
X25136D01*
X25502Y271602D01*
X26050Y271236D01*
Y272150D01*
D02*
G37*
G36*
X30350Y271064D02*
Y270150D01*
X31264D01*
X30898Y270698D01*
X30350Y271064D01*
D02*
G37*
G36*
X28850D02*
X28302Y270698D01*
X27936Y270150D01*
X28850D01*
Y271064D01*
D02*
G37*
G36*
X41757Y269257D02*
Y268343D01*
X42671D01*
X42305Y268891D01*
X41757Y269257D01*
D02*
G37*
G36*
X40257D02*
X39709Y268891D01*
X39343Y268343D01*
X40257D01*
Y269257D01*
D02*
G37*
G36*
X36643D02*
Y268343D01*
X37557D01*
X37191Y268891D01*
X36643Y269257D01*
D02*
G37*
G36*
X35143D02*
X34595Y268891D01*
X34229Y268343D01*
X35143D01*
Y269257D01*
D02*
G37*
G36*
X31264Y268650D02*
X30350D01*
Y267736D01*
X30898Y268102D01*
X31264Y268650D01*
D02*
G37*
G36*
X28850D02*
X27936D01*
X28302Y268102D01*
X28850Y267736D01*
Y268650D01*
D02*
G37*
G36*
X42671Y266843D02*
X41757D01*
Y265929D01*
X42305Y266295D01*
X42671Y266843D01*
D02*
G37*
G36*
X40257D02*
X39343D01*
X39709Y266295D01*
X40257Y265929D01*
Y266843D01*
D02*
G37*
G36*
X37557D02*
X36643D01*
Y265929D01*
X37191Y266295D01*
X37557Y266843D01*
D02*
G37*
G36*
X35143D02*
X34229D01*
X34595Y266295D01*
X35143Y265929D01*
Y266843D01*
D02*
G37*
G36*
X95300Y263027D02*
X94754Y262919D01*
X94291Y262609D01*
X93981Y262146D01*
X93873Y261600D01*
X93981Y261054D01*
X94291Y260591D01*
X94754Y260281D01*
X95300Y260173D01*
X95846Y260281D01*
X96309Y260591D01*
X96619Y261054D01*
X96727Y261600D01*
X96619Y262146D01*
X96309Y262609D01*
X95846Y262919D01*
X95300Y263027D01*
D02*
G37*
G36*
X317000Y262127D02*
X316454Y262019D01*
X315991Y261709D01*
X315681Y261246D01*
X315573Y260700D01*
X315594Y260592D01*
X305420Y250418D01*
X304671D01*
X304609Y250509D01*
X304146Y250819D01*
X303600Y250927D01*
X303054Y250819D01*
X302591Y250509D01*
X302281Y250046D01*
X302173Y249500D01*
X302281Y248954D01*
X302591Y248491D01*
X303054Y248181D01*
X303600Y248073D01*
X304146Y248181D01*
X304609Y248491D01*
X304671Y248582D01*
X305800D01*
X306151Y248652D01*
X306449Y248851D01*
X316892Y259294D01*
X317000Y259273D01*
X317546Y259381D01*
X318009Y259691D01*
X318319Y260154D01*
X318427Y260700D01*
X318319Y261246D01*
X318009Y261709D01*
X317546Y262019D01*
X317000Y262127D01*
D02*
G37*
G36*
X300079Y271025D02*
X298803Y270900D01*
X297577Y270528D01*
X296447Y269923D01*
X295456Y269110D01*
X294643Y268120D01*
X294039Y266990D01*
X293667Y265763D01*
X293542Y264488D01*
X293667Y263213D01*
X294039Y261987D01*
X294643Y260856D01*
X295456Y259866D01*
X296447Y259053D01*
X297577Y258449D01*
X298803Y258077D01*
X300079Y257951D01*
X301354Y258077D01*
X302580Y258449D01*
X303711Y259053D01*
X304701Y259866D01*
X305514Y260856D01*
X306118Y261987D01*
X306490Y263213D01*
X306616Y264488D01*
X306490Y265763D01*
X306118Y266990D01*
X305514Y268120D01*
X304701Y269110D01*
X303711Y269923D01*
X302580Y270528D01*
X301354Y270900D01*
X300079Y271025D01*
D02*
G37*
G36*
X112050Y258364D02*
Y257450D01*
X112964D01*
X112598Y257998D01*
X112050Y258364D01*
D02*
G37*
G36*
X110550D02*
X110002Y257998D01*
X109636Y257450D01*
X110550D01*
Y258364D01*
D02*
G37*
G36*
X103650D02*
Y257450D01*
X104564D01*
X104198Y257998D01*
X103650Y258364D01*
D02*
G37*
G36*
X102150D02*
X101602Y257998D01*
X101236Y257450D01*
X102150D01*
Y258364D01*
D02*
G37*
G36*
X112964Y255950D02*
X112050D01*
Y255036D01*
X112598Y255402D01*
X112964Y255950D01*
D02*
G37*
G36*
X110550D02*
X109636D01*
X110002Y255402D01*
X110550Y255036D01*
Y255950D01*
D02*
G37*
G36*
X104564D02*
X103650D01*
Y255036D01*
X104198Y255402D01*
X104564Y255950D01*
D02*
G37*
G36*
X102150D02*
X101236D01*
X101602Y255402D01*
X102150Y255036D01*
Y255950D01*
D02*
G37*
G36*
X56396Y253864D02*
X55848Y253498D01*
X55482Y252950D01*
X56396D01*
Y253864D01*
D02*
G37*
G36*
X48200Y251027D02*
X47654Y250919D01*
X47359Y250722D01*
X41800D01*
X41800Y250722D01*
X41371Y250636D01*
X41007Y250393D01*
X41007Y250393D01*
X36507Y245893D01*
X36264Y245529D01*
X36178Y245100D01*
X36178Y245100D01*
Y242641D01*
X35981Y242346D01*
X35873Y241800D01*
X35981Y241254D01*
X36291Y240791D01*
X36754Y240481D01*
X37300Y240373D01*
X37846Y240481D01*
X38309Y240791D01*
X38619Y241254D01*
X38727Y241800D01*
X38619Y242346D01*
X38422Y242641D01*
Y244635D01*
X42265Y248479D01*
X47359D01*
X47654Y248281D01*
X48200Y248173D01*
X48746Y248281D01*
X49209Y248591D01*
X49519Y249054D01*
X49627Y249600D01*
X49519Y250146D01*
X49209Y250609D01*
X48746Y250919D01*
X48200Y251027D01*
D02*
G37*
G36*
X103200Y253127D02*
X102654Y253019D01*
X102191Y252709D01*
X101881Y252246D01*
X101773Y251700D01*
X101881Y251154D01*
X102191Y250691D01*
X102654Y250381D01*
X103200Y250273D01*
X103746Y250381D01*
X104209Y250691D01*
X104519Y251154D01*
X104627Y251700D01*
X104519Y252246D01*
X104209Y252709D01*
X103746Y253019D01*
X103200Y253127D01*
D02*
G37*
G36*
X337555Y251168D02*
Y250255D01*
X338468D01*
X338102Y250802D01*
X337555Y251168D01*
D02*
G37*
G36*
X336055D02*
X335507Y250802D01*
X335141Y250255D01*
X336055D01*
Y251168D01*
D02*
G37*
G36*
X99168Y253096D02*
X98622Y252987D01*
X98159Y252678D01*
X97850Y252215D01*
X97741Y251669D01*
X97850Y251122D01*
X98159Y250659D01*
X98622Y250350D01*
X99168Y250241D01*
X99715Y250350D01*
X100178Y250659D01*
X100487Y251122D01*
X100596Y251669D01*
X100487Y252215D01*
X100178Y252678D01*
X99715Y252987D01*
X99168Y253096D01*
D02*
G37*
G36*
X98282Y249395D02*
X97734Y249029D01*
X97368Y248481D01*
X98282D01*
Y249395D01*
D02*
G37*
G36*
X61202Y248990D02*
X60288D01*
Y248077D01*
X60835Y248443D01*
X61202Y248990D01*
D02*
G37*
G36*
X57896Y253864D02*
Y252200D01*
X57146D01*
Y251450D01*
X55482D01*
X55848Y250902D01*
X56444Y250504D01*
X57146Y250365D01*
X57324Y250400D01*
X57749Y249975D01*
X57702Y249740D01*
X57842Y249038D01*
X58240Y248443D01*
X58788Y248077D01*
Y249740D01*
X59538D01*
Y250490D01*
X61202D01*
X60835Y251038D01*
X60240Y251436D01*
X59538Y251576D01*
X59360Y251540D01*
X58934Y251965D01*
X58981Y252200D01*
X58841Y252902D01*
X58444Y253498D01*
X57896Y253864D01*
D02*
G37*
G36*
X338468Y248755D02*
X337555D01*
Y247841D01*
X338102Y248207D01*
X338468Y248755D01*
D02*
G37*
G36*
X336055D02*
X335141D01*
X335507Y248207D01*
X336055Y247841D01*
Y248755D01*
D02*
G37*
G36*
X102764Y245250D02*
X101850D01*
Y244336D01*
X102398Y244702D01*
X102764Y245250D01*
D02*
G37*
G36*
X99782Y249395D02*
Y247731D01*
X99032D01*
Y246982D01*
X97368D01*
X97734Y246434D01*
X98329Y246036D01*
X99032Y245896D01*
X99276Y245945D01*
X99404Y245298D01*
X99802Y244702D01*
X100350Y244336D01*
Y246000D01*
X101100D01*
Y246750D01*
X102764D01*
X102398Y247298D01*
X101802Y247696D01*
X101100Y247835D01*
X100856Y247787D01*
X100727Y248434D01*
X100329Y249029D01*
X99782Y249395D01*
D02*
G37*
G36*
X185400Y246627D02*
X184854Y246519D01*
X184391Y246209D01*
X184081Y245746D01*
X183973Y245200D01*
X184081Y244654D01*
X184391Y244191D01*
X184854Y243881D01*
X185400Y243773D01*
X185946Y243881D01*
X186409Y244191D01*
X186719Y244654D01*
X186827Y245200D01*
X186719Y245746D01*
X186409Y246209D01*
X185946Y246519D01*
X185400Y246627D01*
D02*
G37*
G36*
X60390Y244104D02*
Y243190D01*
X61304D01*
X60938Y243738D01*
X60390Y244104D01*
D02*
G37*
G36*
X58890D02*
X58343Y243738D01*
X57945Y243143D01*
X57805Y242440D01*
X57852Y242205D01*
X57427Y241779D01*
X57146Y241835D01*
X56444Y241696D01*
X55848Y241298D01*
X55482Y240750D01*
X57146D01*
Y239250D01*
X55482D01*
X55671Y238968D01*
X55948Y238552D01*
X55582Y238004D01*
X58910D01*
X58721Y238286D01*
X58444Y238702D01*
X58841Y239298D01*
X58981Y240000D01*
X58934Y240236D01*
X59359Y240661D01*
X59640Y240605D01*
X60343Y240745D01*
X60938Y241143D01*
X61304Y241690D01*
X59640D01*
Y242440D01*
X58890D01*
Y244104D01*
D02*
G37*
G36*
X181200Y243127D02*
X180654Y243019D01*
X180191Y242709D01*
X179881Y242246D01*
X179773Y241700D01*
X179881Y241154D01*
X180191Y240691D01*
X180654Y240381D01*
X181200Y240273D01*
X181746Y240381D01*
X182209Y240691D01*
X182519Y241154D01*
X182627Y241700D01*
X182519Y242246D01*
X182209Y242709D01*
X181746Y243019D01*
X181200Y243127D01*
D02*
G37*
G36*
X89550Y240751D02*
Y239838D01*
X90464D01*
X90098Y240385D01*
X89550Y240751D01*
D02*
G37*
G36*
X88050D02*
X87502Y240385D01*
X87136Y239838D01*
X88050D01*
Y240751D01*
D02*
G37*
G36*
X84238D02*
Y239838D01*
X85151D01*
X84785Y240385D01*
X84238Y240751D01*
D02*
G37*
G36*
X82738D02*
X82190Y240385D01*
X81824Y239838D01*
X82738D01*
Y240751D01*
D02*
G37*
G36*
X336713Y240301D02*
Y239387D01*
X337627D01*
X337261Y239935D01*
X336713Y240301D01*
D02*
G37*
G36*
X335213D02*
X334665Y239935D01*
X334299Y239387D01*
X335213D01*
Y240301D01*
D02*
G37*
G36*
X74860Y239954D02*
Y239040D01*
X75773D01*
X75407Y239588D01*
X74860Y239954D01*
D02*
G37*
G36*
X73360D02*
X72812Y239588D01*
X72446Y239040D01*
X73360D01*
Y239954D01*
D02*
G37*
G36*
X68360D02*
Y239040D01*
X69273D01*
X68907Y239588D01*
X68360Y239954D01*
D02*
G37*
G36*
X66860D02*
X66312Y239588D01*
X65946Y239040D01*
X66860D01*
Y239954D01*
D02*
G37*
G36*
X181850Y238364D02*
Y237450D01*
X182764D01*
X182398Y237998D01*
X181850Y238364D01*
D02*
G37*
G36*
X180350D02*
X179802Y237998D01*
X179436Y237450D01*
X180350D01*
Y238364D01*
D02*
G37*
G36*
X173550D02*
Y237450D01*
X174464D01*
X174098Y237998D01*
X173550Y238364D01*
D02*
G37*
G36*
X172050D02*
X171502Y237998D01*
X171136Y237450D01*
X172050D01*
Y238364D01*
D02*
G37*
G36*
X90464Y238338D02*
X89550D01*
Y237424D01*
X90098Y237790D01*
X90464Y238338D01*
D02*
G37*
G36*
X88050D02*
X87136D01*
X87502Y237790D01*
X88050Y237424D01*
Y238338D01*
D02*
G37*
G36*
X85151D02*
X84238D01*
Y237424D01*
X84785Y237790D01*
X85151Y238338D01*
D02*
G37*
G36*
X82738D02*
X81824D01*
X82190Y237790D01*
X82738Y237424D01*
Y238338D01*
D02*
G37*
G36*
X337627Y237887D02*
X336713D01*
Y236973D01*
X337261Y237339D01*
X337627Y237887D01*
D02*
G37*
G36*
X335213D02*
X334299D01*
X334665Y237339D01*
X335213Y236973D01*
Y237887D01*
D02*
G37*
G36*
X37850Y237560D02*
X37302Y237193D01*
X36936Y236646D01*
X37850D01*
Y237560D01*
D02*
G37*
G36*
X75773Y237540D02*
X74860D01*
Y236627D01*
X75407Y236993D01*
X75773Y237540D01*
D02*
G37*
G36*
X73360D02*
X72446D01*
X72812Y236993D01*
X73360Y236627D01*
Y237540D01*
D02*
G37*
G36*
X69273D02*
X68360D01*
Y236627D01*
X68907Y236993D01*
X69273Y237540D01*
D02*
G37*
G36*
X66860D02*
X65946D01*
X66312Y236993D01*
X66860Y236627D01*
Y237540D01*
D02*
G37*
G36*
X301300Y239127D02*
X300754Y239019D01*
X300291Y238709D01*
X299981Y238246D01*
X299873Y237700D01*
X299981Y237154D01*
X300291Y236691D01*
X300754Y236381D01*
X301300Y236273D01*
X301846Y236381D01*
X302297Y236682D01*
X317929D01*
X317991Y236591D01*
X318454Y236281D01*
X319000Y236173D01*
X319546Y236281D01*
X320009Y236591D01*
X320319Y237054D01*
X320427Y237600D01*
X320319Y238146D01*
X320009Y238609D01*
X319546Y238919D01*
X319000Y239027D01*
X318454Y238919D01*
X317991Y238609D01*
X317929Y238518D01*
X302437D01*
X302309Y238709D01*
X301846Y239019D01*
X301300Y239127D01*
D02*
G37*
G36*
X58910Y236504D02*
X57996D01*
Y235591D01*
X58544Y235956D01*
X58910Y236504D01*
D02*
G37*
G36*
X56496D02*
X55582D01*
X55948Y235956D01*
X56496Y235591D01*
Y236504D01*
D02*
G37*
G36*
X42450Y236264D02*
Y235350D01*
X43364D01*
X42998Y235898D01*
X42450Y236264D01*
D02*
G37*
G36*
X182764Y235950D02*
X181850D01*
Y235036D01*
X182398Y235402D01*
X182764Y235950D01*
D02*
G37*
G36*
X180350D02*
X179436D01*
X179802Y235402D01*
X180350Y235036D01*
Y235950D01*
D02*
G37*
G36*
X174464D02*
X173550D01*
Y235036D01*
X174098Y235402D01*
X174464Y235950D01*
D02*
G37*
G36*
X172050D02*
X171136D01*
X171502Y235402D01*
X172050Y235036D01*
Y235950D01*
D02*
G37*
G36*
X37850Y235146D02*
X36936D01*
X37302Y234598D01*
X37850Y234232D01*
Y235146D01*
D02*
G37*
G36*
X57996Y234364D02*
Y233450D01*
X58910D01*
X58544Y233998D01*
X57996Y234364D01*
D02*
G37*
G36*
X56496D02*
X55948Y233998D01*
X55582Y233450D01*
X56496D01*
Y234364D01*
D02*
G37*
G36*
X43364Y233850D02*
X42450D01*
Y232936D01*
X42998Y233302D01*
X43364Y233850D01*
D02*
G37*
G36*
X39350Y237560D02*
Y235896D01*
Y234232D01*
X39495Y234329D01*
X39957Y234138D01*
X40004Y233898D01*
X40402Y233302D01*
X40950Y232936D01*
Y234600D01*
Y236264D01*
X40805Y236167D01*
X40343Y236358D01*
X40296Y236598D01*
X39898Y237193D01*
X39350Y237560D01*
D02*
G37*
G36*
X327526Y233588D02*
Y232674D01*
X328440D01*
X328074Y233222D01*
X327526Y233588D01*
D02*
G37*
G36*
X326026D02*
X325478Y233222D01*
X325112Y232674D01*
X326026D01*
Y233588D01*
D02*
G37*
G36*
X186150Y232364D02*
Y231450D01*
X187064D01*
X186698Y231998D01*
X186150Y232364D01*
D02*
G37*
G36*
X184650D02*
X184102Y231998D01*
X183736Y231450D01*
X184650D01*
Y232364D01*
D02*
G37*
G36*
X58910Y231950D02*
X55582D01*
X55727Y231734D01*
X55382Y231218D01*
X58710D01*
X58565Y231434D01*
X58910Y231950D01*
D02*
G37*
G36*
X336713Y232027D02*
Y231113D01*
X337627D01*
X337261Y231661D01*
X336713Y232027D01*
D02*
G37*
G36*
X335213D02*
X334665Y231661D01*
X334299Y231113D01*
X335213D01*
Y232027D01*
D02*
G37*
G36*
X328440Y231174D02*
X324842D01*
X324719Y231021D01*
X324656Y230986D01*
X324485Y231021D01*
X323783Y230881D01*
X323188Y230483D01*
X322822Y229935D01*
X326419D01*
X326543Y230088D01*
X326605Y230123D01*
X326776Y230089D01*
X327478Y230228D01*
X328074Y230626D01*
X328440Y231174D01*
D02*
G37*
G36*
X187064Y229950D02*
X186150D01*
Y229036D01*
X186698Y229402D01*
X187064Y229950D01*
D02*
G37*
G36*
X184650D02*
X183736D01*
X184102Y229402D01*
X184650Y229036D01*
Y229950D01*
D02*
G37*
G36*
X58710Y229718D02*
X57796D01*
Y228804D01*
X58344Y229170D01*
X58710Y229718D01*
D02*
G37*
G36*
X56296D02*
X55382D01*
X55748Y229170D01*
X56296Y228804D01*
Y229718D01*
D02*
G37*
G36*
X337627Y229613D02*
X336713D01*
Y228699D01*
X337261Y229065D01*
X337627Y229613D01*
D02*
G37*
G36*
X335213D02*
X334299D01*
X334665Y229065D01*
X335213Y228699D01*
Y229613D01*
D02*
G37*
G36*
X89350Y229511D02*
Y228597D01*
X90264D01*
X89898Y229145D01*
X89350Y229511D01*
D02*
G37*
G36*
X87850D02*
X87302Y229145D01*
X86936Y228597D01*
X87850D01*
Y229511D01*
D02*
G37*
G36*
X84397D02*
Y228597D01*
X85311D01*
X84945Y229145D01*
X84397Y229511D01*
D02*
G37*
G36*
X82897D02*
X82349Y229145D01*
X81984Y228597D01*
X82897D01*
Y229511D01*
D02*
G37*
G36*
X51140Y231368D02*
X50594Y231259D01*
X50131Y230950D01*
X49822Y230487D01*
X49713Y229940D01*
X49822Y229394D01*
X50131Y228931D01*
X50594Y228622D01*
X51140Y228513D01*
X51687Y228622D01*
X52150Y228931D01*
X52459Y229394D01*
X52568Y229940D01*
X52459Y230487D01*
X52150Y230950D01*
X51687Y231259D01*
X51140Y231368D01*
D02*
G37*
G36*
X326149Y228435D02*
X325235D01*
Y227522D01*
X325783Y227888D01*
X326149Y228435D01*
D02*
G37*
G36*
X323735D02*
X322822D01*
X323188Y227888D01*
X323735Y227522D01*
Y228435D01*
D02*
G37*
G36*
X90264Y227097D02*
X89350D01*
Y226184D01*
X89898Y226550D01*
X90264Y227097D01*
D02*
G37*
G36*
X87850D02*
X86936D01*
X87302Y226550D01*
X87850Y226184D01*
Y227097D01*
D02*
G37*
G36*
X85311D02*
X84397D01*
Y226184D01*
X84945Y226550D01*
X85311Y227097D01*
D02*
G37*
G36*
X82897D02*
X81984D01*
X82349Y226550D01*
X82897Y226184D01*
Y227097D01*
D02*
G37*
G36*
X57796Y226710D02*
Y225796D01*
X58710D01*
X58344Y226344D01*
X57796Y226710D01*
D02*
G37*
G36*
X56296D02*
X55748Y226344D01*
X55382Y225796D01*
X56296D01*
Y226710D01*
D02*
G37*
G36*
X182027Y223364D02*
Y222450D01*
X182940D01*
X182574Y222998D01*
X182027Y223364D01*
D02*
G37*
G36*
X180527D02*
X179979Y222998D01*
X179613Y222450D01*
X180527D01*
Y223364D01*
D02*
G37*
G36*
X174050D02*
Y222450D01*
X174964D01*
X174598Y222998D01*
X174050Y223364D01*
D02*
G37*
G36*
X172550D02*
X172002Y222998D01*
X171636Y222450D01*
X172550D01*
Y223364D01*
D02*
G37*
G36*
X352951Y223878D02*
X352405Y223770D01*
X351942Y223460D01*
X351632Y222997D01*
X351523Y222451D01*
X351632Y221905D01*
X351942Y221442D01*
X352405Y221132D01*
X352951Y221024D01*
X353497Y221132D01*
X353960Y221442D01*
X354270Y221905D01*
X354378Y222451D01*
X354270Y222997D01*
X353960Y223460D01*
X353497Y223770D01*
X352951Y223878D01*
D02*
G37*
G36*
X292744Y221569D02*
Y220656D01*
X293658D01*
X293292Y221203D01*
X292744Y221569D01*
D02*
G37*
G36*
X291244D02*
X290697Y221203D01*
X290331Y220656D01*
X291244D01*
Y221569D01*
D02*
G37*
G36*
X182940Y220950D02*
X182027D01*
Y220036D01*
X182574Y220402D01*
X182940Y220950D01*
D02*
G37*
G36*
X180527D02*
X179613D01*
X179979Y220402D01*
X180527Y220036D01*
Y220950D01*
D02*
G37*
G36*
X174964D02*
X174050D01*
Y220036D01*
X174598Y220402D01*
X174964Y220950D01*
D02*
G37*
G36*
X172550D02*
X171636D01*
X172002Y220402D01*
X172550Y220036D01*
Y220950D01*
D02*
G37*
G36*
X34350Y219764D02*
Y218850D01*
X35264D01*
X34898Y219398D01*
X34350Y219764D01*
D02*
G37*
G36*
X32850D02*
X32302Y219398D01*
X31936Y218850D01*
X32850D01*
Y219764D01*
D02*
G37*
G36*
X293658Y219156D02*
X292744D01*
Y218242D01*
X293292Y218608D01*
X293658Y219156D01*
D02*
G37*
G36*
X291244D02*
X290331D01*
X290697Y218608D01*
X291244Y218242D01*
Y219156D01*
D02*
G37*
G36*
X35264Y217350D02*
X34350D01*
Y216436D01*
X34898Y216802D01*
X35264Y217350D01*
D02*
G37*
G36*
X32850D02*
X31936D01*
X32302Y216802D01*
X32850Y216436D01*
Y217350D01*
D02*
G37*
G36*
X138100Y219827D02*
X137554Y219719D01*
X137091Y219409D01*
X136781Y218946D01*
X136673Y218400D01*
X136781Y217854D01*
X137091Y217391D01*
X137554Y217081D01*
X138100Y216973D01*
X138646Y217081D01*
X139109Y217391D01*
X139171Y217482D01*
X171120D01*
X171594Y217008D01*
X171573Y216900D01*
X171681Y216354D01*
X171991Y215891D01*
X172454Y215581D01*
X173000Y215473D01*
X173546Y215581D01*
X174009Y215891D01*
X174319Y216354D01*
X174427Y216900D01*
X174319Y217446D01*
X174009Y217909D01*
X173546Y218219D01*
X173000Y218327D01*
X172892Y218306D01*
X172149Y219049D01*
X171851Y219248D01*
X171500Y219318D01*
X139171D01*
X139109Y219409D01*
X138646Y219719D01*
X138100Y219827D01*
D02*
G37*
G36*
X359244Y219847D02*
X358327Y219665D01*
X357550Y219145D01*
X357031Y218368D01*
X356848Y217451D01*
X357031Y216534D01*
X357550Y215757D01*
X358327Y215237D01*
X359244Y215055D01*
X360161Y215237D01*
X360939Y215757D01*
X361458Y216534D01*
X361640Y217451D01*
X361458Y218368D01*
X360939Y219145D01*
X360161Y219665D01*
X359244Y219847D01*
D02*
G37*
G36*
X295591Y215922D02*
Y215008D01*
X296505D01*
X296139Y215556D01*
X295591Y215922D01*
D02*
G37*
G36*
X294092D02*
X293544Y215556D01*
X293178Y215008D01*
X294092D01*
Y215922D01*
D02*
G37*
G36*
X296505Y213509D02*
X295591D01*
Y212595D01*
X296139Y212961D01*
X296505Y213509D01*
D02*
G37*
G36*
X294092D02*
X293178D01*
X293544Y212961D01*
X294092Y212595D01*
Y213509D01*
D02*
G37*
G36*
X35500Y231227D02*
X34954Y231119D01*
X34491Y230809D01*
X34181Y230346D01*
X34073Y229800D01*
X34181Y229254D01*
X34491Y228791D01*
X34954Y228481D01*
X35500Y228373D01*
X36046Y228481D01*
X36278Y228636D01*
X36446Y228594D01*
X36681Y228046D01*
X36573Y227500D01*
X36681Y226954D01*
X36991Y226491D01*
X37082Y226429D01*
Y225100D01*
X37152Y224749D01*
X37351Y224451D01*
X50923Y210880D01*
X50731Y210418D01*
X49957D01*
X35206Y225169D01*
X35227Y225277D01*
X35119Y225823D01*
X34809Y226286D01*
X34346Y226595D01*
X33800Y226704D01*
X33254Y226595D01*
X32791Y226286D01*
X32481Y225823D01*
X32373Y225277D01*
X32481Y224730D01*
X32791Y224267D01*
X33254Y223958D01*
X33800Y223849D01*
X33908Y223871D01*
X48928Y208851D01*
X49226Y208652D01*
X49577Y208582D01*
X54956D01*
X54983Y208550D01*
X59309D01*
X59335Y208582D01*
X75708D01*
X83694Y200596D01*
X83530Y200054D01*
X83354Y200019D01*
X82891Y199709D01*
X82581Y199246D01*
X82544Y199059D01*
X79506Y196022D01*
X39265D01*
X30888Y204398D01*
X30819Y204746D01*
X30509Y205209D01*
X30046Y205519D01*
X29500Y205627D01*
X28954Y205519D01*
X28491Y205209D01*
X28181Y204746D01*
X28073Y204200D01*
X28181Y203654D01*
X28491Y203191D01*
X28954Y202881D01*
X29302Y202812D01*
X38007Y194107D01*
X38007Y194107D01*
X38371Y193864D01*
X38800Y193778D01*
X38800Y193778D01*
X79971D01*
X79971Y193778D01*
X80400Y193864D01*
X80764Y194107D01*
X83937Y197280D01*
X84446Y197381D01*
X84909Y197691D01*
X85219Y198154D01*
X85254Y198330D01*
X85796Y198494D01*
X95749Y188542D01*
X95584Y187999D01*
X95575Y187997D01*
X95112Y187688D01*
X94802Y187225D01*
X94694Y186679D01*
X94802Y186133D01*
X95112Y185669D01*
X95575Y185360D01*
X96121Y185251D01*
X96667Y185360D01*
X97131Y185669D01*
X97278Y185890D01*
X97871Y185985D01*
X97873Y185984D01*
X97819Y185413D01*
X97791Y185394D01*
X97481Y184931D01*
X97373Y184384D01*
X97481Y183838D01*
X97791Y183375D01*
X98254Y183065D01*
X98800Y182957D01*
X99346Y183065D01*
X99809Y183375D01*
X99969Y183614D01*
X100567Y183724D01*
X108840Y175451D01*
X109137Y175252D01*
X109488Y175182D01*
X133096D01*
X133447Y175252D01*
X133745Y175451D01*
X134230Y175937D01*
X134667Y175715D01*
X134678Y175426D01*
X134673Y175400D01*
X134680Y175362D01*
X134683Y175281D01*
X134020Y174618D01*
X101486D01*
X95559Y180545D01*
X95580Y180653D01*
X95472Y181199D01*
X95162Y181662D01*
X94699Y181972D01*
X94153Y182080D01*
X93607Y181972D01*
X93143Y181662D01*
X92834Y181199D01*
X92725Y180653D01*
X92834Y180106D01*
X93143Y179643D01*
X93607Y179334D01*
X94153Y179225D01*
X94261Y179247D01*
X100457Y173051D01*
X100754Y172852D01*
X101105Y172782D01*
X133470D01*
X133731Y172282D01*
X133616Y172118D01*
X90317D01*
X89971Y172618D01*
X90027Y172900D01*
X89919Y173446D01*
X89609Y173909D01*
X89146Y174219D01*
X88600Y174327D01*
X88054Y174219D01*
X87591Y173909D01*
X87281Y173446D01*
X87173Y172902D01*
X87096Y172918D01*
X24844D01*
X24568Y173404D01*
X24571Y173418D01*
X24677Y173951D01*
X24568Y174497D01*
X24259Y174960D01*
X23796Y175270D01*
X23249Y175378D01*
X22703Y175270D01*
X22240Y174960D01*
X21930Y174497D01*
X21822Y173951D01*
X21928Y173418D01*
X21930Y173404D01*
X21654Y172918D01*
X19671D01*
X19609Y173009D01*
X19146Y173319D01*
X18600Y173427D01*
X18054Y173319D01*
X17591Y173009D01*
X17281Y172546D01*
X17173Y172000D01*
X17281Y171454D01*
X17591Y170991D01*
X18054Y170681D01*
X18600Y170573D01*
X19146Y170681D01*
X19609Y170991D01*
X19671Y171082D01*
X86716D01*
X87247Y170551D01*
X87545Y170352D01*
X87896Y170282D01*
X134304D01*
X134655Y170352D01*
X134953Y170551D01*
X139383Y174981D01*
X139844Y174735D01*
X139704Y174032D01*
X139886Y173115D01*
X140406Y172338D01*
X141183Y171818D01*
X142100Y171636D01*
X143017Y171818D01*
X143794Y172338D01*
X144314Y173115D01*
X144496Y174032D01*
X144314Y174949D01*
X143794Y175726D01*
X143017Y176246D01*
X142100Y176428D01*
X141397Y176288D01*
X141151Y176749D01*
X141984Y177582D01*
X146872D01*
X147139Y177082D01*
X146981Y176846D01*
X146873Y176300D01*
X146981Y175754D01*
X147291Y175291D01*
X147754Y174981D01*
X148300Y174873D01*
X148846Y174981D01*
X149309Y175291D01*
X149596Y175720D01*
X149812Y175750D01*
X150047Y175745D01*
X150118Y175650D01*
X154013D01*
X154164Y175882D01*
X160348D01*
X160496Y175606D01*
X160568Y175382D01*
X160473Y174900D01*
X160581Y174354D01*
X160751Y174100D01*
X160495Y173600D01*
X159583D01*
X159232Y173530D01*
X158934Y173331D01*
X155321Y169718D01*
X148616D01*
X148264Y169648D01*
X147967Y169449D01*
X144930Y166412D01*
X144388Y166577D01*
X144314Y166949D01*
X143794Y167726D01*
X143017Y168246D01*
X142100Y168428D01*
X141183Y168246D01*
X140406Y167726D01*
X139886Y166949D01*
X139791Y166468D01*
X139542Y166058D01*
X139248Y166105D01*
X139184Y166118D01*
X96371D01*
X96309Y166209D01*
X95846Y166519D01*
X95300Y166627D01*
X94754Y166519D01*
X94291Y166209D01*
X93981Y165746D01*
X93873Y165200D01*
X93981Y164654D01*
X94291Y164191D01*
X94754Y163881D01*
X95300Y163773D01*
X95846Y163881D01*
X96309Y164191D01*
X96371Y164282D01*
X104750D01*
X105049Y163782D01*
X104973Y163400D01*
X105081Y162854D01*
X105391Y162391D01*
X105854Y162081D01*
X106400Y161973D01*
X106946Y162081D01*
X107409Y162391D01*
X107719Y162854D01*
X107738Y162951D01*
X124579D01*
X124606Y162918D01*
X126769D01*
Y161418D01*
X125105D01*
X125471Y160871D01*
X125879Y160598D01*
Y160039D01*
X125471Y159766D01*
X125105Y159219D01*
X126769D01*
Y158468D01*
X127518D01*
Y156805D01*
X128066Y157171D01*
X128192Y157359D01*
X128690Y157408D01*
X130047Y156051D01*
X130345Y155852D01*
X130696Y155782D01*
X150804D01*
X151155Y155852D01*
X151453Y156051D01*
X155484Y160082D01*
X163336D01*
X163398Y159991D01*
X163861Y159681D01*
X164407Y159573D01*
X164953Y159681D01*
X165416Y159991D01*
X165726Y160454D01*
X165738Y160516D01*
X165860Y160752D01*
X166211Y160682D01*
X174204D01*
X174555Y160752D01*
X174853Y160951D01*
X175584Y161682D01*
X182829D01*
X182891Y161591D01*
X183226Y161367D01*
X183307Y161031D01*
X183311Y160963D01*
X183287Y160785D01*
X182308Y159806D01*
X182200Y159827D01*
X181654Y159719D01*
X181191Y159409D01*
X180881Y158946D01*
X180773Y158400D01*
X180881Y157854D01*
X181191Y157391D01*
X181654Y157081D01*
X182200Y156973D01*
X182746Y157081D01*
X183209Y157391D01*
X183519Y157854D01*
X183627Y158400D01*
X183606Y158508D01*
X184380Y159282D01*
X195972D01*
X196239Y158782D01*
X196081Y158546D01*
X195973Y158000D01*
X196081Y157454D01*
X196391Y156991D01*
X196854Y156681D01*
X197400Y156573D01*
X197946Y156681D01*
X198409Y156991D01*
X198604Y157282D01*
X218841D01*
X219073Y157000D01*
X219181Y156454D01*
X219491Y155991D01*
X219800Y155784D01*
X219932Y155456D01*
X219905Y155181D01*
X219681Y154846D01*
X219573Y154300D01*
X219681Y153754D01*
X219991Y153291D01*
X220454Y152981D01*
X221000Y152873D01*
X221546Y152981D01*
X222009Y153291D01*
X222204Y153582D01*
X254529D01*
X254591Y153491D01*
X255054Y153181D01*
X255600Y153073D01*
X256146Y153181D01*
X256609Y153491D01*
X256919Y153954D01*
X257027Y154500D01*
X256919Y155046D01*
X256609Y155509D01*
X256146Y155819D01*
X255600Y155927D01*
X255054Y155819D01*
X254591Y155509D01*
X254529Y155418D01*
X253700D01*
X253566Y155649D01*
X253515Y155918D01*
X265292Y167694D01*
X265400Y167673D01*
X265946Y167781D01*
X266409Y168091D01*
X266719Y168554D01*
X266827Y169100D01*
X266719Y169646D01*
X266561Y169882D01*
X266828Y170382D01*
X267720D01*
X273248Y164854D01*
X273546Y164655D01*
X273897Y164585D01*
X280529D01*
X280591Y164494D01*
X281054Y164184D01*
X281600Y164076D01*
X282146Y164184D01*
X282609Y164494D01*
X282919Y164957D01*
X283027Y165503D01*
X282919Y166049D01*
X282609Y166512D01*
X282146Y166822D01*
X281600Y166930D01*
X281054Y166822D01*
X280591Y166512D01*
X280529Y166421D01*
X274277D01*
X268749Y171949D01*
X268451Y172148D01*
X268100Y172218D01*
X261500D01*
X261149Y172148D01*
X260851Y171949D01*
X250020Y161118D01*
X202903D01*
X202680Y161618D01*
X202877Y161912D01*
X202986Y162458D01*
X202976Y162508D01*
X203309Y162882D01*
X249900D01*
X250251Y162952D01*
X250549Y163151D01*
X260780Y173382D01*
X353420D01*
X360794Y166008D01*
X360773Y165900D01*
X360881Y165354D01*
X361191Y164891D01*
X361654Y164581D01*
X362200Y164473D01*
X362746Y164581D01*
X363209Y164891D01*
X363519Y165354D01*
X363627Y165900D01*
X363519Y166446D01*
X363209Y166909D01*
X362746Y167219D01*
X362200Y167327D01*
X362092Y167306D01*
X354449Y174949D01*
X354151Y175148D01*
X353800Y175218D01*
X260400D01*
X260049Y175148D01*
X259751Y174949D01*
X249520Y164718D01*
X248248D01*
X247851Y164967D01*
X247851Y164967D01*
X247851D01*
X247827Y165218D01*
X247854Y165223D01*
X248146Y165281D01*
X248609Y165591D01*
X248919Y166054D01*
X249027Y166600D01*
X248919Y167146D01*
X248609Y167609D01*
X248146Y167919D01*
X247600Y168027D01*
X247054Y167919D01*
X246591Y167609D01*
X246529Y167518D01*
X218200D01*
X217849Y167448D01*
X217551Y167249D01*
X216999Y166697D01*
X216993Y166697D01*
X216489Y166894D01*
X216419Y167246D01*
X216109Y167709D01*
X215646Y168019D01*
X215100Y168127D01*
X214992Y168106D01*
X212413Y170684D01*
X212448Y170878D01*
X212610Y171195D01*
X213046Y171281D01*
X213509Y171591D01*
X213819Y172054D01*
X213927Y172600D01*
X213819Y173146D01*
X213509Y173609D01*
X213046Y173919D01*
X212500Y174027D01*
X211954Y173919D01*
X211491Y173609D01*
X211181Y173146D01*
X211166Y173070D01*
X206931D01*
X206779Y173570D01*
X206809Y173591D01*
X207119Y174054D01*
X207181Y174365D01*
X207358Y174635D01*
X207711Y174730D01*
X208000Y174673D01*
X208546Y174781D01*
X209009Y175091D01*
X209319Y175554D01*
X209427Y176100D01*
X209319Y176646D01*
X209009Y177109D01*
X208726Y177298D01*
Y177576D01*
X208656Y177927D01*
X208457Y178225D01*
X203633Y183049D01*
X203336Y183248D01*
X202984Y183318D01*
X139396D01*
X139045Y183248D01*
X138747Y183049D01*
X132716Y177018D01*
X112417D01*
X112071Y177518D01*
X112127Y177800D01*
X112019Y178346D01*
X111709Y178809D01*
X111618Y178871D01*
Y183200D01*
X111548Y183551D01*
X111349Y183849D01*
X110754Y184444D01*
X111000Y184904D01*
X111200Y184865D01*
X111902Y185004D01*
X112498Y185402D01*
X112864Y185950D01*
X111200D01*
Y186700D01*
X110450D01*
Y188364D01*
X109902Y187998D01*
X109504Y187402D01*
X109365Y186700D01*
X109404Y186500D01*
X108944Y186254D01*
X104970Y190228D01*
X104672Y190427D01*
X104321Y190496D01*
X98087D01*
X77701Y210882D01*
X77908Y211382D01*
X110920D01*
X128494Y193808D01*
X128473Y193700D01*
X128581Y193154D01*
X128891Y192691D01*
X129354Y192381D01*
X129900Y192273D01*
X130446Y192381D01*
X130909Y192691D01*
X131069Y192930D01*
X131667Y193039D01*
X132555Y192151D01*
X132853Y191952D01*
X133204Y191882D01*
X176624D01*
X179705Y188801D01*
X179642Y188158D01*
X179402Y187998D01*
X179036Y187450D01*
X180700D01*
Y186700D01*
X181450D01*
Y185036D01*
X181998Y185402D01*
X182158Y185642D01*
X182755Y185751D01*
X183053Y185552D01*
X183404Y185482D01*
X195863D01*
X196214Y185552D01*
X196511Y185751D01*
X197613Y186853D01*
X199081D01*
X199108Y186821D01*
X203433D01*
X203460Y186853D01*
X205971D01*
X206322Y186923D01*
X206620Y187122D01*
X212692Y193194D01*
X212800Y193173D01*
X213346Y193281D01*
X213809Y193591D01*
X214119Y194054D01*
X214227Y194600D01*
X214119Y195146D01*
X213809Y195609D01*
X213346Y195919D01*
X212800Y196027D01*
X212254Y195919D01*
X211791Y195609D01*
X211481Y195146D01*
X211416Y194820D01*
X211376Y194775D01*
X211372Y194774D01*
X210934Y195095D01*
X210922Y195127D01*
X210819Y195646D01*
X210509Y196109D01*
X210046Y196419D01*
X209500Y196527D01*
X209392Y196506D01*
X202249Y203649D01*
X201951Y203848D01*
X201600Y203918D01*
X172222D01*
X172015Y204418D01*
X181180Y213582D01*
X251720D01*
X271651Y193651D01*
X271949Y193452D01*
X272300Y193382D01*
X324151D01*
X324387Y192941D01*
X324340Y192871D01*
X324216Y192247D01*
X324340Y191623D01*
X324694Y191094D01*
X325223Y190740D01*
X325847Y190616D01*
X326471Y190740D01*
X327001Y191094D01*
X327354Y191623D01*
X327479Y192247D01*
X327354Y192871D01*
X327308Y192941D01*
X327543Y193382D01*
X334129D01*
X334191Y193291D01*
X334654Y192981D01*
X335200Y192873D01*
X335746Y192981D01*
X336209Y193291D01*
X336519Y193754D01*
X336627Y194300D01*
X336519Y194846D01*
X336209Y195309D01*
X335746Y195619D01*
X335200Y195727D01*
X334654Y195619D01*
X334191Y195309D01*
X334129Y195218D01*
X272680D01*
X252749Y215149D01*
X252451Y215348D01*
X252100Y215418D01*
X180800D01*
X180449Y215348D01*
X180151Y215149D01*
X170620Y205618D01*
X146071D01*
X146009Y205709D01*
X145546Y206019D01*
X145000Y206127D01*
X144454Y206019D01*
X143991Y205709D01*
X143681Y205246D01*
X143595Y204810D01*
X143278Y204648D01*
X143084Y204613D01*
X124968Y222730D01*
X124670Y222929D01*
X124319Y222998D01*
X67190D01*
X67128Y223090D01*
X66665Y223400D01*
X66119Y223508D01*
X65573Y223400D01*
X65110Y223090D01*
X64950Y222851D01*
X64352Y222742D01*
X63145Y223949D01*
X62847Y224148D01*
X62496Y224218D01*
X59213D01*
X59151Y224296D01*
X55181D01*
X55061Y224098D01*
X54967Y224018D01*
X53871D01*
X53809Y224109D01*
X53346Y224419D01*
X52800Y224527D01*
X52553Y224988D01*
X52568Y225060D01*
X52459Y225606D01*
X52150Y226069D01*
X51687Y226378D01*
X51140Y226487D01*
X50594Y226378D01*
X50131Y226069D01*
X49822Y225606D01*
X49713Y225060D01*
X49822Y224513D01*
X50131Y224050D01*
X50594Y223741D01*
X51140Y223632D01*
X51387Y223171D01*
X51373Y223100D01*
X51429Y222818D01*
X51083Y222318D01*
X50519D01*
X42388Y230449D01*
X42090Y230648D01*
X41739Y230718D01*
X36571D01*
X36509Y230809D01*
X36046Y231119D01*
X35500Y231227D01*
D02*
G37*
G36*
X221128Y210727D02*
X220582Y210619D01*
X220119Y210309D01*
X219810Y209846D01*
X219701Y209300D01*
X219810Y208754D01*
X220119Y208291D01*
X220582Y207981D01*
X221128Y207873D01*
X221675Y207981D01*
X222138Y208291D01*
X222447Y208754D01*
X222556Y209300D01*
X222447Y209846D01*
X222138Y210309D01*
X221675Y210619D01*
X221128Y210727D01*
D02*
G37*
G36*
X58810Y207050D02*
X57896D01*
Y206136D01*
X58444Y206502D01*
X58810Y207050D01*
D02*
G37*
G36*
X56396D02*
X55482D01*
X55848Y206502D01*
X56396Y206136D01*
Y207050D01*
D02*
G37*
G36*
X64990Y200771D02*
Y199631D01*
X66130D01*
X66124Y199661D01*
X65682Y200323D01*
X65021Y200765D01*
X64990Y200771D01*
D02*
G37*
G36*
X63490D02*
X63460Y200765D01*
X62798Y200323D01*
X62356Y199661D01*
X62350Y199631D01*
X63490D01*
Y200771D01*
D02*
G37*
G36*
X332397Y200043D02*
Y198903D01*
X333537D01*
X333531Y198933D01*
X333089Y199595D01*
X332428Y200037D01*
X332397Y200043D01*
D02*
G37*
G36*
X330897D02*
X330867Y200037D01*
X330205Y199595D01*
X329763Y198933D01*
X329757Y198903D01*
X330897D01*
Y200043D01*
D02*
G37*
G36*
X326487D02*
Y198903D01*
X327627D01*
X327621Y198933D01*
X327179Y199595D01*
X326517Y200037D01*
X326487Y200043D01*
D02*
G37*
G36*
X324987D02*
X324957Y200037D01*
X324295Y199595D01*
X323853Y198933D01*
X323847Y198903D01*
X324987D01*
Y200043D01*
D02*
G37*
G36*
X218260Y198354D02*
Y197440D01*
X219174D01*
X218808Y197988D01*
X218260Y198354D01*
D02*
G37*
G36*
X216760D02*
X216212Y197988D01*
X215846Y197440D01*
X216760D01*
Y198354D01*
D02*
G37*
G36*
X66130Y198131D02*
X64990D01*
Y196991D01*
X65021Y196997D01*
X65682Y197439D01*
X66124Y198100D01*
X66130Y198131D01*
D02*
G37*
G36*
X63490D02*
X62350D01*
X62356Y198100D01*
X62798Y197439D01*
X63460Y196997D01*
X63490Y196991D01*
Y198131D01*
D02*
G37*
G36*
X333537Y197403D02*
X332397D01*
Y196263D01*
X332428Y196269D01*
X333089Y196711D01*
X333531Y197372D01*
X333537Y197403D01*
D02*
G37*
G36*
X330897D02*
X329757D01*
X329763Y197372D01*
X330205Y196711D01*
X330867Y196269D01*
X330897Y196263D01*
Y197403D01*
D02*
G37*
G36*
X327627D02*
X326487D01*
Y196263D01*
X326517Y196269D01*
X327179Y196711D01*
X327621Y197372D01*
X327627Y197403D01*
D02*
G37*
G36*
X324987D02*
X323847D01*
X323853Y197372D01*
X324295Y196711D01*
X324957Y196269D01*
X324987Y196263D01*
Y197403D01*
D02*
G37*
G36*
X221447Y198443D02*
X220901Y198335D01*
X220438Y198025D01*
X220128Y197562D01*
X220020Y197016D01*
X220128Y196469D01*
X220438Y196006D01*
X220901Y195697D01*
X221447Y195588D01*
X221993Y195697D01*
X222456Y196006D01*
X222766Y196469D01*
X222874Y197016D01*
X222766Y197562D01*
X222456Y198025D01*
X221993Y198335D01*
X221447Y198443D01*
D02*
G37*
G36*
X233328Y195464D02*
Y194550D01*
X234242D01*
X233876Y195098D01*
X233328Y195464D01*
D02*
G37*
G36*
X231828D02*
X231281Y195098D01*
X230915Y194550D01*
X231828D01*
Y195464D01*
D02*
G37*
G36*
X85250D02*
Y194550D01*
X86164D01*
X85798Y195098D01*
X85250Y195464D01*
D02*
G37*
G36*
X83750D02*
X83202Y195098D01*
X82836Y194550D01*
X83750D01*
Y195464D01*
D02*
G37*
G36*
X219174Y195940D02*
X215846D01*
X216212Y195392D01*
X216514Y195191D01*
Y194589D01*
X216212Y194388D01*
X215846Y193840D01*
X219174D01*
X218808Y194388D01*
X218506Y194589D01*
Y195191D01*
X218808Y195392D01*
X219174Y195940D01*
D02*
G37*
G36*
X234242Y193050D02*
X233328D01*
Y192136D01*
X233876Y192502D01*
X234242Y193050D01*
D02*
G37*
G36*
X231828D02*
X230915D01*
X231281Y192502D01*
X231828Y192136D01*
Y193050D01*
D02*
G37*
G36*
X86164D02*
X85250D01*
Y192136D01*
X85798Y192502D01*
X86164Y193050D01*
D02*
G37*
G36*
X83750D02*
X82836D01*
X83202Y192502D01*
X83750Y192136D01*
Y193050D01*
D02*
G37*
G36*
X259018Y192395D02*
Y191481D01*
X259932D01*
X259566Y192029D01*
X259018Y192395D01*
D02*
G37*
G36*
X219174Y192340D02*
X218260D01*
Y191426D01*
X218808Y191792D01*
X219174Y192340D01*
D02*
G37*
G36*
X216760D02*
X215846D01*
X216212Y191792D01*
X216760Y191426D01*
Y192340D01*
D02*
G37*
G36*
X236987Y191801D02*
Y190887D01*
X237901D01*
X237535Y191435D01*
X236987Y191801D01*
D02*
G37*
G36*
X235487D02*
X234939Y191435D01*
X234573Y190887D01*
X235487D01*
Y191801D01*
D02*
G37*
G36*
X221431Y193559D02*
X220885Y193450D01*
X220422Y193140D01*
X220112Y192677D01*
X220004Y192131D01*
X220112Y191585D01*
X220422Y191122D01*
X220885Y190812D01*
X221431Y190704D01*
X221977Y190812D01*
X222441Y191122D01*
X222750Y191585D01*
X222859Y192131D01*
X222750Y192677D01*
X222441Y193140D01*
X221977Y193450D01*
X221431Y193559D01*
D02*
G37*
G36*
X250969Y192159D02*
X250422Y192050D01*
X249959Y191741D01*
X249650Y191278D01*
X249541Y190732D01*
X249650Y190185D01*
X249959Y189722D01*
X250422Y189413D01*
X250969Y189304D01*
X251515Y189413D01*
X251978Y189722D01*
X252287Y190185D01*
X252396Y190732D01*
X252287Y191278D01*
X251978Y191741D01*
X251515Y192050D01*
X250969Y192159D01*
D02*
G37*
G36*
X31727Y189664D02*
Y188750D01*
X32641D01*
X32275Y189298D01*
X31727Y189664D01*
D02*
G37*
G36*
X30227D02*
X29680Y189298D01*
X29314Y188750D01*
X30227D01*
Y189664D01*
D02*
G37*
G36*
X237901Y189387D02*
X236987D01*
Y188473D01*
X237535Y188839D01*
X237901Y189387D01*
D02*
G37*
G36*
X235487D02*
X234573D01*
X234939Y188839D01*
X235487Y188473D01*
Y189387D01*
D02*
G37*
G36*
X242487Y188526D02*
X241940Y188160D01*
X241574Y187613D01*
X242487D01*
Y188526D01*
D02*
G37*
G36*
X173650Y188364D02*
Y187450D01*
X174564D01*
X174198Y187998D01*
X173650Y188364D01*
D02*
G37*
G36*
X172150D02*
X171602Y187998D01*
X171236Y187450D01*
X172150D01*
Y188364D01*
D02*
G37*
G36*
X111950D02*
Y187450D01*
X112864D01*
X112498Y187998D01*
X111950Y188364D01*
D02*
G37*
G36*
X257519Y192395D02*
X256971Y192029D01*
X256573Y191434D01*
X256469Y190912D01*
X255776Y190774D01*
X255181Y190376D01*
X254815Y189828D01*
X256478D01*
Y189078D01*
X257228D01*
Y187415D01*
X257776Y187781D01*
X258174Y188376D01*
X258278Y188898D01*
X258971Y189036D01*
X259566Y189434D01*
X259932Y189981D01*
X258268D01*
Y190732D01*
X257519D01*
Y192395D01*
D02*
G37*
G36*
X255728Y188328D02*
X254815D01*
X255181Y187781D01*
X255728Y187415D01*
Y188328D01*
D02*
G37*
G36*
X344100Y193927D02*
X343554Y193819D01*
X343091Y193509D01*
X342781Y193046D01*
X342712Y192698D01*
X337335Y187322D01*
X329130D01*
X329081Y187822D01*
X329409Y187887D01*
X329938Y188240D01*
X330291Y188770D01*
X330416Y189394D01*
X330291Y190018D01*
X329938Y190547D01*
X329409Y190901D01*
X328784Y191025D01*
X328160Y190901D01*
X327631Y190547D01*
X327277Y190018D01*
X327153Y189394D01*
X327277Y188770D01*
X327631Y188240D01*
X328160Y187887D01*
X328487Y187822D01*
X328438Y187322D01*
X273141D01*
X272846Y187519D01*
X272300Y187627D01*
X271754Y187519D01*
X271291Y187209D01*
X270981Y186746D01*
X270873Y186200D01*
X270981Y185654D01*
X271291Y185191D01*
X271754Y184881D01*
X272300Y184773D01*
X272846Y184881D01*
X273141Y185078D01*
X337800D01*
X337800Y185078D01*
X338229Y185164D01*
X338593Y185407D01*
X344298Y191112D01*
X344646Y191181D01*
X345109Y191491D01*
X345419Y191954D01*
X345527Y192500D01*
X345419Y193046D01*
X345109Y193509D01*
X344646Y193819D01*
X344100Y193927D01*
D02*
G37*
G36*
X216276Y187489D02*
Y186576D01*
X217189D01*
X216823Y187123D01*
X216276Y187489D01*
D02*
G37*
G36*
X214776D02*
X214228Y187123D01*
X213862Y186576D01*
X214776D01*
Y187489D01*
D02*
G37*
G36*
X32641Y187250D02*
X31727D01*
Y186336D01*
X32275Y186702D01*
X32641Y187250D01*
D02*
G37*
G36*
X30227D02*
X29314D01*
X29680Y186702D01*
X30227Y186336D01*
Y187250D01*
D02*
G37*
G36*
X23950Y186864D02*
Y185950D01*
X24864D01*
X24498Y186498D01*
X23950Y186864D01*
D02*
G37*
G36*
X22450D02*
X21902Y186498D01*
X21536Y185950D01*
X22450D01*
Y186864D01*
D02*
G37*
G36*
X93365Y186048D02*
Y185134D01*
X94278D01*
X93912Y185682D01*
X93365Y186048D01*
D02*
G37*
G36*
X91865D02*
X91317Y185682D01*
X90951Y185134D01*
X91865D01*
Y186048D01*
D02*
G37*
G36*
X179950Y185950D02*
X179036D01*
X179402Y185402D01*
X179950Y185036D01*
Y185950D01*
D02*
G37*
G36*
X174564D02*
X173650D01*
Y185036D01*
X174198Y185402D01*
X174564Y185950D01*
D02*
G37*
G36*
X172150D02*
X171236D01*
X171602Y185402D01*
X172150Y185036D01*
Y185950D01*
D02*
G37*
G36*
X202934Y185321D02*
X202021D01*
Y184407D01*
X202568Y184773D01*
X202934Y185321D01*
D02*
G37*
G36*
X200521D02*
X199607D01*
X199973Y184773D01*
X200521Y184407D01*
Y185321D01*
D02*
G37*
G36*
X221531Y187159D02*
X220985Y187050D01*
X220522Y186741D01*
X220212Y186277D01*
X220104Y185731D01*
X220212Y185185D01*
X220522Y184722D01*
X220985Y184412D01*
X221531Y184304D01*
X222077Y184412D01*
X222540Y184722D01*
X222850Y185185D01*
X222959Y185731D01*
X222850Y186277D01*
X222540Y186741D01*
X222077Y187050D01*
X221531Y187159D01*
D02*
G37*
G36*
X36200Y184684D02*
X35654Y184575D01*
X35191Y184265D01*
X35153D01*
X34690Y184575D01*
X34144Y184684D01*
X33598Y184575D01*
X33134Y184265D01*
X32825Y183802D01*
X32716Y183256D01*
X32825Y182710D01*
X33134Y182247D01*
X33598Y181937D01*
X34144Y181829D01*
X34690Y181937D01*
X35153Y182247D01*
X35191D01*
X35654Y181937D01*
X36200Y181829D01*
X36746Y181937D01*
X37209Y182247D01*
X37519Y182710D01*
X37627Y183256D01*
X37519Y183802D01*
X37209Y184265D01*
X36746Y184575D01*
X36200Y184684D01*
D02*
G37*
G36*
X51690Y185104D02*
Y184190D01*
X52604D01*
X52238Y184738D01*
X51690Y185104D01*
D02*
G37*
G36*
X50190D02*
X49643Y184738D01*
X49277Y184190D01*
X50190D01*
Y185104D01*
D02*
G37*
G36*
X217189Y185076D02*
X216276D01*
Y184162D01*
X216823Y184528D01*
X217189Y185076D01*
D02*
G37*
G36*
X214776D02*
X213862D01*
X214228Y184528D01*
X214776Y184162D01*
Y185076D01*
D02*
G37*
G36*
X24864Y184450D02*
X21472D01*
X21201Y184053D01*
X20804Y184131D01*
X20102Y183992D01*
X19506Y183594D01*
X19140Y183046D01*
X22532D01*
X22803Y183444D01*
X23200Y183365D01*
X23902Y183504D01*
X24498Y183902D01*
X24864Y184450D01*
D02*
G37*
G36*
X241950Y184548D02*
Y183634D01*
X242864D01*
X242498Y184182D01*
X241950Y184548D01*
D02*
G37*
G36*
X240450D02*
X239902Y184182D01*
X239536Y183634D01*
X240450D01*
Y184548D01*
D02*
G37*
G36*
X94278Y183634D02*
X93365D01*
Y182721D01*
X93912Y183087D01*
X94278Y183634D01*
D02*
G37*
G36*
X91865D02*
X90951D01*
X91317Y183087D01*
X91865Y182721D01*
Y183634D01*
D02*
G37*
G36*
X213850Y183564D02*
Y182650D01*
X214764D01*
X214398Y183198D01*
X213850Y183564D01*
D02*
G37*
G36*
X212350D02*
X211802Y183198D01*
X211436Y182650D01*
X212350D01*
Y183564D01*
D02*
G37*
G36*
X86739Y183453D02*
Y182539D01*
X87653D01*
X87287Y183087D01*
X86739Y183453D01*
D02*
G37*
G36*
X85239D02*
X84692Y183087D01*
X84325Y182539D01*
X85239D01*
Y183453D01*
D02*
G37*
G36*
X52604Y182690D02*
X51690D01*
Y181777D01*
X52238Y182143D01*
X52604Y182690D01*
D02*
G37*
G36*
X50190D02*
X49277D01*
X49643Y182143D01*
X50190Y181777D01*
Y182690D01*
D02*
G37*
G36*
X243987Y188526D02*
Y186863D01*
X243237D01*
Y186113D01*
X241574D01*
X241940Y185565D01*
X242535Y185167D01*
X243237Y185027D01*
X243649Y185109D01*
X243778Y184980D01*
X243887Y184434D01*
X244197Y183971D01*
X244660Y183661D01*
X245206Y183553D01*
X245752Y183661D01*
X245775Y183677D01*
X245980Y183557D01*
X246180Y183346D01*
X246088Y182884D01*
X246197Y182338D01*
X246506Y181875D01*
X246970Y181565D01*
X247516Y181457D01*
X248062Y181565D01*
X248525Y181875D01*
X248834Y182338D01*
X248943Y182884D01*
X248834Y183431D01*
X248525Y183894D01*
X248062Y184203D01*
X247516Y184312D01*
X246970Y184203D01*
X246947Y184188D01*
X246742Y184307D01*
X246541Y184518D01*
X246633Y184980D01*
X246525Y185527D01*
X246215Y185990D01*
X245752Y186299D01*
X245206Y186408D01*
X245067Y186890D01*
X244933Y187565D01*
X244535Y188160D01*
X243987Y188526D01*
D02*
G37*
G36*
X242864Y182134D02*
X241950D01*
Y181221D01*
X242498Y181587D01*
X242864Y182134D01*
D02*
G37*
G36*
X240450D02*
X239536D01*
X239902Y181587D01*
X240450Y181221D01*
Y182134D01*
D02*
G37*
G36*
X236037Y183690D02*
X235491Y183582D01*
X235028Y183272D01*
X234718Y182809D01*
X234610Y182263D01*
X234718Y181717D01*
X235028Y181254D01*
X235491Y180944D01*
X236037Y180836D01*
X236583Y180944D01*
X237046Y181254D01*
X237356Y181717D01*
X237464Y182263D01*
X237356Y182809D01*
X237046Y183272D01*
X236583Y183582D01*
X236037Y183690D01*
D02*
G37*
G36*
X225863D02*
X225317Y183582D01*
X224854Y183272D01*
X224544Y182809D01*
X224436Y182263D01*
X224544Y181717D01*
X224854Y181254D01*
X225317Y180944D01*
X225863Y180836D01*
X226409Y180944D01*
X226872Y181254D01*
X227182Y181717D01*
X227290Y182263D01*
X227182Y182809D01*
X226872Y183272D01*
X226409Y183582D01*
X225863Y183690D01*
D02*
G37*
G36*
X48380Y181634D02*
Y180720D01*
X49294D01*
X48928Y181268D01*
X48380Y181634D01*
D02*
G37*
G36*
X46880D02*
X46332Y181268D01*
X45966Y180720D01*
X46880D01*
Y181634D01*
D02*
G37*
G36*
X22468Y181546D02*
X21554D01*
Y180632D01*
X22102Y180998D01*
X22468Y181546D01*
D02*
G37*
G36*
X20054D02*
X19140D01*
X19506Y180998D01*
X20054Y180632D01*
Y181546D01*
D02*
G37*
G36*
X214764Y181150D02*
X213850D01*
Y180236D01*
X214398Y180602D01*
X214764Y181150D01*
D02*
G37*
G36*
X212350D02*
X211436D01*
X211802Y180602D01*
X212350Y180236D01*
Y181150D01*
D02*
G37*
G36*
X87653Y181039D02*
X86739D01*
Y180125D01*
X87287Y180491D01*
X87653Y181039D01*
D02*
G37*
G36*
X85239D02*
X84325D01*
X84692Y180491D01*
X85239Y180125D01*
Y181039D01*
D02*
G37*
G36*
X49294Y179220D02*
X48380D01*
Y178306D01*
X48928Y178672D01*
X49294Y179220D01*
D02*
G37*
G36*
X46880D02*
X45966D01*
X46332Y178672D01*
X46880Y178306D01*
Y179220D01*
D02*
G37*
G36*
X26400Y178027D02*
X25854Y177919D01*
X25391Y177609D01*
X25081Y177146D01*
X24973Y176600D01*
X25081Y176054D01*
X25391Y175591D01*
X25854Y175281D01*
X26400Y175173D01*
X26946Y175281D01*
X27409Y175591D01*
X27719Y176054D01*
X27827Y176600D01*
X27719Y177146D01*
X27409Y177609D01*
X26946Y177919D01*
X26400Y178027D01*
D02*
G37*
G36*
X245206Y177311D02*
X244660Y177202D01*
X244197Y176893D01*
X243887Y176430D01*
X243778Y175884D01*
X243887Y175337D01*
X244197Y174874D01*
X244660Y174565D01*
X245206Y174456D01*
X245752Y174565D01*
X246215Y174874D01*
X246525Y175337D01*
X246633Y175884D01*
X246525Y176430D01*
X246215Y176893D01*
X245752Y177202D01*
X245206Y177311D01*
D02*
G37*
G36*
X91316D02*
X90770Y177202D01*
X90307Y176893D01*
X89998Y176430D01*
X89889Y175884D01*
X89998Y175337D01*
X90307Y174874D01*
X90770Y174565D01*
X91316Y174456D01*
X91863Y174565D01*
X92326Y174874D01*
X92635Y175337D01*
X92744Y175884D01*
X92635Y176430D01*
X92326Y176893D01*
X91863Y177202D01*
X91316Y177311D01*
D02*
G37*
G36*
X254077Y174936D02*
Y174023D01*
X254991D01*
X254625Y174570D01*
X254077Y174936D01*
D02*
G37*
G36*
X252577D02*
X252030Y174570D01*
X251664Y174023D01*
X252577D01*
Y174936D01*
D02*
G37*
G36*
X153764Y174150D02*
X152850D01*
Y173236D01*
X153398Y173602D01*
X153764Y174150D01*
D02*
G37*
G36*
X151350D02*
X150436D01*
X150802Y173602D01*
X151350Y173236D01*
Y174150D01*
D02*
G37*
G36*
X242627Y174700D02*
X242081Y174591D01*
X241618Y174282D01*
X241309Y173819D01*
X241200Y173273D01*
X241309Y172726D01*
X241618Y172263D01*
X242081Y171954D01*
X242627Y171845D01*
X243174Y171954D01*
X243637Y172263D01*
X243946Y172726D01*
X244055Y173273D01*
X243946Y173819D01*
X243637Y174282D01*
X243174Y174591D01*
X242627Y174700D01*
D02*
G37*
G36*
X254991Y172523D02*
X251068D01*
X250429Y172396D01*
X249833Y171998D01*
X249467Y171450D01*
X253391D01*
X254030Y171577D01*
X254625Y171975D01*
X254991Y172523D01*
D02*
G37*
G36*
X294092Y172490D02*
Y171350D01*
X295233D01*
X295227Y171380D01*
X294784Y172042D01*
X294123Y172484D01*
X294092Y172490D01*
D02*
G37*
G36*
X292593D02*
X292562Y172484D01*
X291901Y172042D01*
X291459Y171380D01*
X291453Y171350D01*
X292593D01*
Y172490D01*
D02*
G37*
G36*
X252795Y169950D02*
X251881D01*
Y169036D01*
X252429Y169402D01*
X252795Y169950D01*
D02*
G37*
G36*
X250381D02*
X249467D01*
X249833Y169402D01*
X250381Y169036D01*
Y169950D01*
D02*
G37*
G36*
X295233Y169850D02*
X294092D01*
Y168710D01*
X294123Y168716D01*
X294784Y169158D01*
X295227Y169820D01*
X295233Y169850D01*
D02*
G37*
G36*
X292593D02*
X291453D01*
X291459Y169820D01*
X291901Y169158D01*
X292562Y168716D01*
X292593Y168710D01*
Y169850D01*
D02*
G37*
G36*
X301475Y165865D02*
Y164725D01*
X302615D01*
X302609Y164755D01*
X302167Y165417D01*
X301506Y165858D01*
X301475Y165865D01*
D02*
G37*
G36*
X299975D02*
X299945Y165858D01*
X299284Y165417D01*
X298841Y164755D01*
X298835Y164725D01*
X299975D01*
Y165865D01*
D02*
G37*
G36*
X302615Y163225D02*
X301475D01*
Y162085D01*
X301506Y162091D01*
X302167Y162533D01*
X302609Y163194D01*
X302615Y163225D01*
D02*
G37*
G36*
X299975D02*
X298835D01*
X298841Y163194D01*
X299284Y162533D01*
X299945Y162091D01*
X299975Y162085D01*
Y163225D01*
D02*
G37*
G36*
X76479Y162664D02*
Y161750D01*
X77392D01*
X77026Y162298D01*
X76479Y162664D01*
D02*
G37*
G36*
X74979D02*
X74431Y162298D01*
X74065Y161750D01*
X74979D01*
Y162664D01*
D02*
G37*
G36*
X329534Y162806D02*
Y161666D01*
X330674D01*
X330668Y161696D01*
X330226Y162358D01*
X329565Y162800D01*
X329534Y162806D01*
D02*
G37*
G36*
X328034D02*
X328004Y162800D01*
X327342Y162358D01*
X326900Y161696D01*
X326894Y161666D01*
X328034D01*
Y162806D01*
D02*
G37*
G36*
X10200Y162627D02*
X9654Y162519D01*
X9191Y162209D01*
X8881Y161746D01*
X8773Y161200D01*
X8881Y160654D01*
X9071Y160369D01*
X8711Y160009D01*
X8546Y160119D01*
X8000Y160227D01*
X7454Y160119D01*
X6991Y159809D01*
X6681Y159346D01*
X6573Y158800D01*
X6681Y158254D01*
X6991Y157791D01*
X7454Y157481D01*
X8000Y157373D01*
X8382Y157448D01*
X8559Y157315D01*
X8733Y157112D01*
X8763Y157053D01*
X8673Y156600D01*
X8781Y156054D01*
X9091Y155591D01*
X9554Y155281D01*
X10100Y155173D01*
X10646Y155281D01*
X11109Y155591D01*
X11419Y156054D01*
X11527Y156600D01*
X11419Y157146D01*
X11109Y157609D01*
X10646Y157919D01*
X10100Y158027D01*
X9718Y157951D01*
X9541Y158086D01*
X9367Y158288D01*
X9337Y158347D01*
X9427Y158800D01*
X9319Y159346D01*
X9129Y159631D01*
X9489Y159991D01*
X9654Y159881D01*
X10200Y159773D01*
X10746Y159881D01*
X11209Y160191D01*
X11519Y160654D01*
X11627Y161200D01*
X11519Y161746D01*
X11209Y162209D01*
X10746Y162519D01*
X10200Y162627D01*
D02*
G37*
G36*
X77392Y160250D02*
X76479D01*
Y159336D01*
X77026Y159702D01*
X77392Y160250D01*
D02*
G37*
G36*
X74979D02*
X74065D01*
X74431Y159702D01*
X74979Y159336D01*
Y160250D01*
D02*
G37*
G36*
X126019Y157719D02*
X125105D01*
X125471Y157171D01*
X126019Y156805D01*
Y157719D01*
D02*
G37*
G36*
X66597Y156764D02*
Y155850D01*
X67511D01*
X67145Y156398D01*
X66597Y156764D01*
D02*
G37*
G36*
X65097D02*
X64549Y156398D01*
X64183Y155850D01*
X65097D01*
Y156764D01*
D02*
G37*
G36*
X86750Y156564D02*
Y155650D01*
X87664D01*
X87298Y156198D01*
X86750Y156564D01*
D02*
G37*
G36*
X85250D02*
X84702Y156198D01*
X84336Y155650D01*
X85250D01*
Y156564D01*
D02*
G37*
G36*
X278200Y158274D02*
X277576Y158150D01*
X277046Y157797D01*
X276693Y157267D01*
X276569Y156643D01*
X276693Y156019D01*
X277046Y155490D01*
X277576Y155136D01*
X278200Y155012D01*
X278824Y155136D01*
X279353Y155490D01*
X279707Y156019D01*
X279831Y156643D01*
X279707Y157267D01*
X279353Y157797D01*
X278824Y158150D01*
X278200Y158274D01*
D02*
G37*
G36*
X157188Y159039D02*
X156642Y158930D01*
X156179Y158621D01*
X155870Y158158D01*
X155761Y157612D01*
X155870Y157065D01*
X156179Y156602D01*
X156642Y156293D01*
X157188Y156184D01*
X157217Y155708D01*
X156524Y155570D01*
X155928Y155172D01*
X155562Y154624D01*
X158890D01*
X158524Y155172D01*
X157928Y155570D01*
X157226Y155709D01*
X157198Y156186D01*
X157735Y156293D01*
X158198Y156602D01*
X158507Y157065D01*
X158616Y157612D01*
X158507Y158158D01*
X158198Y158621D01*
X157735Y158930D01*
X157188Y159039D01*
D02*
G37*
G36*
X330674Y160166D02*
X326894D01*
X326900Y160135D01*
X327018Y159959D01*
X326783Y159518D01*
X322200D01*
X321849Y159448D01*
X321551Y159249D01*
X304220Y141918D01*
X259700D01*
X259349Y141848D01*
X259051Y141649D01*
X257320Y139918D01*
X253795D01*
X253528Y140418D01*
X253619Y140554D01*
X253727Y141100D01*
X253619Y141646D01*
X253595Y141682D01*
X253862Y142182D01*
X255129D01*
X255191Y142091D01*
X255654Y141781D01*
X256200Y141673D01*
X256746Y141781D01*
X257209Y142091D01*
X257519Y142554D01*
X257627Y143100D01*
X257519Y143646D01*
X257497Y143678D01*
X257765Y144178D01*
X271559D01*
X271854Y143981D01*
X272400Y143873D01*
X272946Y143981D01*
X273409Y144291D01*
X273719Y144754D01*
X273827Y145300D01*
X273719Y145846D01*
X273409Y146309D01*
X272946Y146619D01*
X272400Y146727D01*
X271854Y146619D01*
X271559Y146422D01*
X260992D01*
X260909Y146522D01*
X261006Y147188D01*
X261009Y147191D01*
X261319Y147654D01*
X261427Y148200D01*
X261319Y148746D01*
X261009Y149209D01*
X260546Y149519D01*
X260000Y149627D01*
X259454Y149519D01*
X258991Y149209D01*
X258929Y149118D01*
X231090D01*
X230606Y149602D01*
X230308Y149801D01*
X229957Y149870D01*
X183653D01*
X183302Y149801D01*
X183004Y149602D01*
X175708Y142306D01*
X175600Y142327D01*
X175054Y142219D01*
X174591Y141909D01*
X174281Y141446D01*
X174205Y141061D01*
X173765Y140869D01*
X173695Y140864D01*
X172866Y141693D01*
X172502Y141936D01*
X172073Y142022D01*
X172073Y142022D01*
X166345D01*
X166045Y142522D01*
X166120Y142900D01*
X166012Y143446D01*
X165702Y143909D01*
X165480Y144058D01*
X165257Y144625D01*
X165397Y145327D01*
X165319Y145716D01*
X165646Y145781D01*
X166109Y146091D01*
X166419Y146554D01*
X166527Y147100D01*
X166419Y147646D01*
X166109Y148109D01*
X165693Y148388D01*
X165611Y148521D01*
X165496Y148898D01*
X166580Y149982D01*
X175229D01*
X175291Y149891D01*
X175754Y149581D01*
X176300Y149473D01*
X176846Y149581D01*
X177309Y149891D01*
X177619Y150354D01*
X177727Y150900D01*
X177619Y151446D01*
X177309Y151909D01*
X176846Y152219D01*
X176300Y152327D01*
X175754Y152219D01*
X175291Y151909D01*
X175229Y151818D01*
X167617D01*
X167271Y152318D01*
X167327Y152600D01*
X167219Y153146D01*
X166909Y153609D01*
X166446Y153919D01*
X165900Y154027D01*
X165354Y153919D01*
X164891Y153609D01*
X164581Y153146D01*
X164473Y152600D01*
X164494Y152492D01*
X162720Y150718D01*
X156080D01*
X153549Y153249D01*
X153251Y153448D01*
X152900Y153518D01*
X137100D01*
X136749Y153448D01*
X136451Y153249D01*
X134020Y150818D01*
X122771D01*
X122709Y150909D01*
X122246Y151219D01*
X121700Y151327D01*
X121154Y151219D01*
X120691Y150909D01*
X120381Y150446D01*
X120273Y149900D01*
X120381Y149354D01*
X120691Y148891D01*
X121154Y148581D01*
X121700Y148473D01*
X122246Y148581D01*
X122709Y148891D01*
X122771Y148982D01*
X134400D01*
X134751Y149052D01*
X135049Y149251D01*
X137480Y151682D01*
X148083D01*
X148429Y151182D01*
X148373Y150900D01*
X148481Y150354D01*
X148743Y149962D01*
X148683Y149636D01*
X148592Y149422D01*
X148354Y149374D01*
X147891Y149065D01*
X147581Y148602D01*
X147473Y148056D01*
X147581Y147509D01*
X147891Y147046D01*
X148354Y146737D01*
X148900Y146628D01*
X149446Y146737D01*
X149894Y147036D01*
X153487D01*
X153944Y146579D01*
X154274Y146358D01*
X154665Y146280D01*
X156692D01*
X156928Y145839D01*
X156868Y145750D01*
X160195D01*
X160135Y145839D01*
X160371Y146280D01*
X161478D01*
X161615Y146077D01*
X163561D01*
Y144577D01*
X161898D01*
X162264Y144030D01*
X162859Y143632D01*
X163064Y143172D01*
X163053Y143135D01*
X163045Y143127D01*
X162480Y142963D01*
X162246Y143119D01*
X161700Y143227D01*
X161154Y143119D01*
X160691Y142809D01*
X160479Y142493D01*
X160011Y142433D01*
X159901Y142459D01*
X159829Y142566D01*
X159395Y142857D01*
X159384Y142885D01*
Y143383D01*
X159395Y143412D01*
X159829Y143702D01*
X160195Y144250D01*
X156868D01*
X157234Y143702D01*
X157668Y143412D01*
X157678Y143383D01*
Y142885D01*
X157668Y142857D01*
X157234Y142566D01*
X156868Y142018D01*
X158531D01*
Y140518D01*
X156685D01*
X156511Y140222D01*
X84565D01*
X81993Y142793D01*
X81629Y143036D01*
X81200Y143122D01*
X81200Y143122D01*
X46241D01*
X45946Y143319D01*
X45400Y143427D01*
X44854Y143319D01*
X44391Y143009D01*
X44081Y142546D01*
X43973Y142000D01*
X44081Y141454D01*
X44391Y140991D01*
X44854Y140681D01*
X45400Y140573D01*
X45946Y140681D01*
X46241Y140878D01*
X80735D01*
X83307Y138307D01*
X83671Y138064D01*
X84100Y137978D01*
X84100Y137978D01*
X161269D01*
X161477Y137478D01*
X159616Y135618D01*
X121871D01*
X121809Y135709D01*
X121346Y136019D01*
X120800Y136127D01*
X120254Y136019D01*
X119791Y135709D01*
X119481Y135246D01*
X119373Y134700D01*
X119481Y134154D01*
X119791Y133691D01*
X120254Y133381D01*
X120800Y133273D01*
X121346Y133381D01*
X121809Y133691D01*
X121871Y133782D01*
X148650D01*
X148949Y133282D01*
X148873Y132900D01*
X148969Y132418D01*
X148896Y132194D01*
X148748Y131918D01*
X142497D01*
X142046Y132219D01*
X141500Y132327D01*
X140954Y132219D01*
X140491Y131909D01*
X140181Y131446D01*
X140073Y130900D01*
X140181Y130354D01*
X140491Y129891D01*
X140954Y129581D01*
X141500Y129473D01*
X142046Y129581D01*
X142509Y129891D01*
X142637Y130082D01*
X164331D01*
X164392Y129991D01*
X164855Y129681D01*
X165401Y129573D01*
X165948Y129681D01*
X166411Y129991D01*
X166720Y130454D01*
X166829Y131000D01*
X166720Y131546D01*
X166411Y132009D01*
X165948Y132319D01*
X165549Y132398D01*
X165326Y132767D01*
X165293Y132916D01*
X165319Y132954D01*
X165427Y133500D01*
X165878Y133799D01*
X166011Y133773D01*
X166558Y133881D01*
X166559Y133882D01*
X178529D01*
X178591Y133791D01*
X178838Y133625D01*
X178845Y133409D01*
X178775Y133066D01*
X178391Y132809D01*
X178081Y132346D01*
X177973Y131800D01*
X178081Y131254D01*
X178391Y130791D01*
X178854Y130481D01*
X179400Y130373D01*
X179946Y130481D01*
X180409Y130791D01*
X180746Y130460D01*
X180795Y130387D01*
X181258Y130077D01*
X181804Y129969D01*
X182350Y130077D01*
X182719Y130324D01*
X183037Y129935D01*
X180820Y127718D01*
X107171D01*
X107109Y127809D01*
X106646Y128119D01*
X106100Y128227D01*
X105554Y128119D01*
X105091Y127809D01*
X104781Y127346D01*
X104673Y126800D01*
X104781Y126254D01*
X105091Y125791D01*
X105554Y125481D01*
X106100Y125373D01*
X106646Y125481D01*
X107109Y125791D01*
X107171Y125882D01*
X181200D01*
X181551Y125952D01*
X181849Y126151D01*
X186025Y130327D01*
X186300Y130273D01*
X186846Y130381D01*
X187309Y130691D01*
X187619Y131154D01*
X187727Y131700D01*
X187671Y131982D01*
X188017Y132482D01*
X211424D01*
X213939Y129967D01*
X213830Y129369D01*
X213591Y129209D01*
X213281Y128746D01*
X213173Y128200D01*
X213281Y127654D01*
X213591Y127191D01*
X214054Y126881D01*
X214600Y126773D01*
X214708Y126794D01*
X217251Y124251D01*
X217549Y124052D01*
X217900Y123982D01*
X249531D01*
X249723Y123520D01*
X242920Y116718D01*
X230354D01*
X230119Y117159D01*
X230173Y117240D01*
X226846D01*
X226901Y117159D01*
X226665Y116718D01*
X222380D01*
X220749Y118349D01*
X220451Y118548D01*
X220100Y118618D01*
X202480D01*
X202419Y118709D01*
X201956Y119019D01*
X201409Y119127D01*
X200863Y119019D01*
X200400Y118709D01*
X200091Y118246D01*
X199982Y117700D01*
X200091Y117154D01*
X200400Y116691D01*
X200863Y116381D01*
X201409Y116273D01*
X201835Y116357D01*
X202143Y116105D01*
X202236Y115967D01*
X202173Y115648D01*
X202258Y115218D01*
X201982Y114718D01*
X200771D01*
X200709Y114809D01*
X200246Y115119D01*
X199700Y115227D01*
X199154Y115119D01*
X198691Y114809D01*
X198381Y114346D01*
X198273Y113800D01*
X198381Y113254D01*
X198691Y112791D01*
X199154Y112481D01*
X199700Y112373D01*
X200246Y112481D01*
X200709Y112791D01*
X200771Y112882D01*
X215920D01*
X219251Y109551D01*
X219549Y109352D01*
X219900Y109282D01*
X243100D01*
X243451Y109352D01*
X243749Y109551D01*
X260680Y126482D01*
X305400D01*
X305751Y126552D01*
X306049Y126751D01*
X316253Y136955D01*
X316788Y136783D01*
X316863Y136406D01*
X317216Y135877D01*
X317746Y135523D01*
X318370Y135399D01*
X318994Y135523D01*
X319523Y135877D01*
X319877Y136406D01*
X320001Y137030D01*
X319877Y137654D01*
X319523Y138184D01*
X318994Y138537D01*
X318617Y138612D01*
X318445Y139147D01*
X327892Y148594D01*
X328000Y148573D01*
X328546Y148681D01*
X329009Y148991D01*
X329319Y149454D01*
X329427Y150000D01*
X329319Y150546D01*
X329009Y151009D01*
X328546Y151319D01*
X328000Y151427D01*
X327454Y151319D01*
X327136Y151107D01*
X326759Y151136D01*
X326550Y151250D01*
X326309Y151609D01*
X325846Y151919D01*
X325300Y152027D01*
X324754Y151919D01*
X324291Y151609D01*
X324250Y151549D01*
X323759Y151636D01*
X323722Y151809D01*
X323819Y151954D01*
X323927Y152500D01*
X323819Y153046D01*
X323509Y153509D01*
X323046Y153819D01*
X322500Y153927D01*
X321954Y153819D01*
X321491Y153509D01*
X321181Y153046D01*
X321073Y152500D01*
X321181Y151954D01*
X321491Y151491D01*
X321682Y151363D01*
Y150880D01*
X304020Y133218D01*
X301102D01*
X300950Y133718D01*
X301209Y133891D01*
X301519Y134354D01*
X301627Y134900D01*
X301519Y135446D01*
X301209Y135909D01*
X300746Y136219D01*
X300200Y136327D01*
X299654Y136219D01*
X299191Y135909D01*
X299129Y135818D01*
X282180D01*
X278549Y139449D01*
X278349Y139582D01*
X278434Y140082D01*
X304600D01*
X304951Y140152D01*
X305249Y140351D01*
X322580Y157682D01*
X351839D01*
X352106Y157182D01*
X351989Y157007D01*
X351983Y156977D01*
X353873D01*
Y156227D01*
X354623D01*
Y154337D01*
X354654Y154343D01*
X355315Y154785D01*
X355757Y155446D01*
X355839Y155856D01*
X356381Y156021D01*
X357151Y155251D01*
X357449Y155052D01*
X357800Y154982D01*
X359329D01*
X359391Y154891D01*
X359854Y154581D01*
X360400Y154473D01*
X360946Y154581D01*
X361409Y154891D01*
X361719Y155354D01*
X361827Y155900D01*
X361719Y156446D01*
X361409Y156909D01*
X360946Y157219D01*
X360400Y157327D01*
X359854Y157219D01*
X359391Y156909D01*
X359329Y156818D01*
X358180D01*
X355749Y159249D01*
X355451Y159448D01*
X355100Y159518D01*
X330786D01*
X330550Y159959D01*
X330668Y160135D01*
X330674Y160166D01*
D02*
G37*
G36*
X353123Y155477D02*
X351983D01*
X351989Y155446D01*
X352431Y154785D01*
X353093Y154343D01*
X353123Y154337D01*
Y155477D01*
D02*
G37*
G36*
X112500Y156327D02*
X111954Y156219D01*
X111491Y155909D01*
X111181Y155446D01*
X111073Y154900D01*
X111094Y154792D01*
X107220Y150918D01*
X100871D01*
X100809Y151009D01*
X100346Y151319D01*
X99800Y151427D01*
X99254Y151319D01*
X98791Y151009D01*
X98481Y150546D01*
X98373Y150000D01*
X98481Y149454D01*
X98791Y148991D01*
X99254Y148681D01*
X99800Y148573D01*
X100346Y148681D01*
X100809Y148991D01*
X100871Y149082D01*
X107600D01*
X107951Y149152D01*
X108249Y149351D01*
X112392Y153494D01*
X112500Y153473D01*
X113046Y153581D01*
X113509Y153891D01*
X113819Y154354D01*
X113927Y154900D01*
X113819Y155446D01*
X113509Y155909D01*
X113046Y156219D01*
X112500Y156327D01*
D02*
G37*
G36*
X67511Y154350D02*
X66597D01*
Y153436D01*
X67145Y153802D01*
X67511Y154350D01*
D02*
G37*
G36*
X65097D02*
X64183D01*
X64549Y153802D01*
X65097Y153436D01*
Y154350D01*
D02*
G37*
G36*
X87664Y154150D02*
X86750D01*
Y153236D01*
X87298Y153602D01*
X87664Y154150D01*
D02*
G37*
G36*
X85250D02*
X84336D01*
X84702Y153602D01*
X85250Y153236D01*
Y154150D01*
D02*
G37*
G36*
X342330Y153611D02*
Y152471D01*
X343470D01*
X343463Y152501D01*
X343021Y153162D01*
X342360Y153604D01*
X342330Y153611D01*
D02*
G37*
G36*
X340829D02*
X340799Y153604D01*
X340138Y153162D01*
X339696Y152501D01*
X339689Y152471D01*
X340829D01*
Y153611D01*
D02*
G37*
G36*
X347448Y153592D02*
Y152452D01*
X348588D01*
X348582Y152483D01*
X348140Y153144D01*
X347478Y153586D01*
X347448Y153592D01*
D02*
G37*
G36*
X345948D02*
X345917Y153586D01*
X345256Y153144D01*
X344814Y152483D01*
X344808Y152452D01*
X345948D01*
Y153592D01*
D02*
G37*
G36*
X158890Y153124D02*
X157976D01*
Y152210D01*
X158524Y152576D01*
X158890Y153124D01*
D02*
G37*
G36*
X156476D02*
X155562D01*
X155928Y152576D01*
X156476Y152210D01*
Y153124D01*
D02*
G37*
G36*
X283718Y154513D02*
X283094Y154389D01*
X282565Y154035D01*
X282211Y153506D01*
X282087Y152882D01*
X282211Y152258D01*
X282565Y151728D01*
X283094Y151375D01*
X283718Y151251D01*
X284342Y151375D01*
X284872Y151728D01*
X285225Y152258D01*
X285349Y152882D01*
X285225Y153506D01*
X284872Y154035D01*
X284342Y154389D01*
X283718Y154513D01*
D02*
G37*
G36*
X343470Y150970D02*
X342330D01*
Y149830D01*
X342360Y149837D01*
X343021Y150278D01*
X343463Y150940D01*
X343470Y150970D01*
D02*
G37*
G36*
X340829D02*
X339689D01*
X339696Y150940D01*
X340138Y150278D01*
X340799Y149837D01*
X340829Y149830D01*
Y150970D01*
D02*
G37*
G36*
X348588Y150952D02*
X347448D01*
Y149812D01*
X347478Y149818D01*
X348140Y150260D01*
X348582Y150922D01*
X348588Y150952D01*
D02*
G37*
G36*
X345948D02*
X344808D01*
X344814Y150922D01*
X345256Y150260D01*
X345917Y149818D01*
X345948Y149812D01*
Y150952D01*
D02*
G37*
G36*
X76479Y150664D02*
Y149750D01*
X77392D01*
X77026Y150298D01*
X76479Y150664D01*
D02*
G37*
G36*
X74979D02*
X74431Y150298D01*
X74065Y149750D01*
X74979D01*
Y150664D01*
D02*
G37*
G36*
X77392Y148250D02*
X76479D01*
Y147336D01*
X77026Y147702D01*
X77392Y148250D01*
D02*
G37*
G36*
X74979D02*
X74065D01*
X74431Y147702D01*
X74979Y147336D01*
Y148250D01*
D02*
G37*
G36*
X145963Y147876D02*
Y146963D01*
X146876D01*
X146510Y147510D01*
X145963Y147876D01*
D02*
G37*
G36*
X144463D02*
X143915Y147510D01*
X143549Y146963D01*
X144463D01*
Y147876D01*
D02*
G37*
G36*
X137275Y147238D02*
X136728Y146872D01*
X136362Y146325D01*
X137275D01*
Y147238D01*
D02*
G37*
G36*
X91891Y146864D02*
Y145950D01*
X92805D01*
X92439Y146498D01*
X91891Y146864D01*
D02*
G37*
G36*
X90391D02*
X89843Y146498D01*
X89477Y145950D01*
X90391D01*
Y146864D01*
D02*
G37*
G36*
X146876Y145463D02*
X145963D01*
Y144549D01*
X146510Y144915D01*
X146876Y145463D01*
D02*
G37*
G36*
X144463D02*
X143549D01*
X143915Y144915D01*
X144463Y144549D01*
Y145463D01*
D02*
G37*
G36*
X96220Y144494D02*
Y143580D01*
X97134D01*
X96768Y144128D01*
X96220Y144494D01*
D02*
G37*
G36*
X94720D02*
X94172Y144128D01*
X93806Y143580D01*
X94720D01*
Y144494D01*
D02*
G37*
G36*
X92805Y144450D02*
X91891D01*
Y143536D01*
X92439Y143902D01*
X92805Y144450D01*
D02*
G37*
G36*
X90391D02*
X89477D01*
X89843Y143902D01*
X90391Y143536D01*
Y144450D01*
D02*
G37*
G36*
X141564Y143150D02*
X140650D01*
Y142236D01*
X141198Y142602D01*
X141564Y143150D01*
D02*
G37*
G36*
X138775Y147238D02*
Y145575D01*
X138025D01*
Y144825D01*
X136362D01*
X136728Y144277D01*
X137323Y143879D01*
X138025Y143739D01*
X138094Y143753D01*
X138204Y143198D01*
X138602Y142602D01*
X139150Y142236D01*
Y143900D01*
X139900D01*
Y144650D01*
X141564D01*
X141198Y145198D01*
X140602Y145596D01*
X139900Y145735D01*
X139831Y145722D01*
X139721Y146277D01*
X139323Y146872D01*
X138775Y147238D01*
D02*
G37*
G36*
X337500Y146631D02*
X336876Y146507D01*
X336347Y146153D01*
X335993Y145624D01*
X335869Y145000D01*
X335993Y144376D01*
X336347Y143846D01*
X336876Y143493D01*
X337500Y143369D01*
X337778Y143424D01*
X338382Y142820D01*
Y141793D01*
X337882Y141623D01*
X337636Y141945D01*
X336853Y142546D01*
X335940Y142924D01*
X335711Y142954D01*
Y139270D01*
Y135587D01*
X335940Y135617D01*
X336853Y135995D01*
X337636Y136596D01*
X337882Y136917D01*
X338382Y136747D01*
Y133198D01*
X337905Y133089D01*
X337882Y133092D01*
X337351Y133785D01*
X336651Y134322D01*
X335836Y134660D01*
X334961Y134775D01*
X334087Y134660D01*
X333272Y134322D01*
X332572Y133785D01*
X332035Y133086D01*
X331698Y132271D01*
X331582Y131396D01*
X331698Y130522D01*
X332035Y129707D01*
X332572Y129007D01*
X333272Y128470D01*
X334087Y128132D01*
X334961Y128017D01*
X335836Y128132D01*
X336651Y128470D01*
X337351Y129007D01*
X337882Y129700D01*
X337905Y129703D01*
X338382Y129594D01*
Y128241D01*
X336608Y126466D01*
X335836Y126786D01*
X334961Y126901D01*
X334087Y126786D01*
X333272Y126448D01*
X332572Y125911D01*
X332035Y125212D01*
X331698Y124397D01*
X331582Y123522D01*
X331698Y122648D01*
X332035Y121833D01*
X332572Y121133D01*
X333272Y120596D01*
X334087Y120258D01*
X334961Y120143D01*
X335836Y120258D01*
X336651Y120596D01*
X337351Y121133D01*
X337888Y121833D01*
X338225Y122648D01*
X338340Y123522D01*
X338225Y124397D01*
X337906Y125168D01*
X339949Y127212D01*
X340148Y127509D01*
X340218Y127861D01*
Y143200D01*
X340148Y143551D01*
X339949Y143849D01*
X339076Y144722D01*
X339131Y145000D01*
X339007Y145624D01*
X338653Y146153D01*
X338124Y146507D01*
X337500Y146631D01*
D02*
G37*
G36*
X97134Y142080D02*
X96220D01*
Y141166D01*
X96768Y141532D01*
X97134Y142080D01*
D02*
G37*
G36*
X94720D02*
X93806D01*
X94172Y141532D01*
X94720Y141166D01*
Y142080D01*
D02*
G37*
G36*
X334211Y142954D02*
X333982Y142924D01*
X333070Y142546D01*
X332287Y141945D01*
X331686Y141161D01*
X331308Y140249D01*
X331278Y140020D01*
X334211D01*
Y142954D01*
D02*
G37*
G36*
Y138520D02*
X331278D01*
X331308Y138291D01*
X331686Y137379D01*
X332287Y136596D01*
X333070Y135995D01*
X333982Y135617D01*
X334211Y135587D01*
Y138520D01*
D02*
G37*
G36*
X349252Y135088D02*
Y133948D01*
X350392D01*
X350386Y133978D01*
X349944Y134640D01*
X349283Y135082D01*
X349252Y135088D01*
D02*
G37*
G36*
X347752D02*
X347722Y135082D01*
X347060Y134640D01*
X346618Y133978D01*
X346612Y133948D01*
X347752D01*
Y135088D01*
D02*
G37*
G36*
X350392Y132448D02*
X349252D01*
Y131308D01*
X349283Y131314D01*
X349944Y131756D01*
X350386Y132417D01*
X350392Y132448D01*
D02*
G37*
G36*
X347752D02*
X346612D01*
X346618Y132417D01*
X347060Y131756D01*
X347722Y131314D01*
X347752Y131308D01*
Y132448D01*
D02*
G37*
G36*
X353011Y132251D02*
Y131111D01*
X354151D01*
X354145Y131141D01*
X353703Y131803D01*
X353041Y132245D01*
X353011Y132251D01*
D02*
G37*
G36*
X351511D02*
X351481Y132245D01*
X350819Y131803D01*
X350377Y131141D01*
X350371Y131111D01*
X351511D01*
Y132251D01*
D02*
G37*
G36*
X194434Y131379D02*
Y130466D01*
X195348D01*
X194982Y131014D01*
X194434Y131379D01*
D02*
G37*
G36*
X192934D02*
X192386Y131014D01*
X192021Y130466D01*
X192934D01*
Y131379D01*
D02*
G37*
G36*
X93294Y129764D02*
Y128850D01*
X94208D01*
X93842Y129398D01*
X93294Y129764D01*
D02*
G37*
G36*
X91794D02*
X91247Y129398D01*
X90881Y128850D01*
X91794D01*
Y129764D01*
D02*
G37*
G36*
X195348Y128966D02*
X194434D01*
Y128052D01*
X194982Y128418D01*
X195348Y128966D01*
D02*
G37*
G36*
X192934D02*
X192021D01*
X192386Y128418D01*
X192934Y128052D01*
Y128966D01*
D02*
G37*
G36*
X354151Y129611D02*
X350371D01*
X350377Y129581D01*
X350819Y128919D01*
X351339Y128572D01*
X351400Y128114D01*
X351373Y127994D01*
X351182Y127866D01*
X350740Y127204D01*
X350734Y127174D01*
X354514D01*
X354508Y127204D01*
X354066Y127866D01*
X353546Y128213D01*
X353485Y128672D01*
X353512Y128792D01*
X353703Y128919D01*
X354145Y129581D01*
X354151Y129611D01*
D02*
G37*
G36*
X94208Y127350D02*
X93294D01*
Y126436D01*
X93842Y126802D01*
X94208Y127350D01*
D02*
G37*
G36*
X91794D02*
X90881D01*
X91247Y126802D01*
X91794Y126436D01*
Y127350D01*
D02*
G37*
G36*
X85274Y127339D02*
Y126426D01*
X86188D01*
X85822Y126973D01*
X85274Y127339D01*
D02*
G37*
G36*
X83774D02*
X83227Y126973D01*
X82861Y126426D01*
X83774D01*
Y127339D01*
D02*
G37*
G36*
X96787Y126801D02*
Y125887D01*
X97701D01*
X97335Y126435D01*
X96787Y126801D01*
D02*
G37*
G36*
X95287D02*
X94739Y126435D01*
X94373Y125887D01*
X95287D01*
Y126801D01*
D02*
G37*
G36*
X354514Y125674D02*
X353374D01*
Y124534D01*
X353404Y124540D01*
X354066Y124982D01*
X354508Y125644D01*
X354514Y125674D01*
D02*
G37*
G36*
X351874D02*
X350734D01*
X350740Y125644D01*
X351182Y124982D01*
X351844Y124540D01*
X351874Y124534D01*
Y125674D01*
D02*
G37*
G36*
X86188Y124926D02*
X85274D01*
Y124012D01*
X85822Y124378D01*
X86188Y124926D01*
D02*
G37*
G36*
X83774D02*
X82861D01*
X83227Y124378D01*
X83774Y124012D01*
Y124926D01*
D02*
G37*
G36*
X97701Y124387D02*
X96787D01*
Y123473D01*
X97335Y123839D01*
X97701Y124387D01*
D02*
G37*
G36*
X95287D02*
X94373D01*
X94739Y123839D01*
X95287Y123473D01*
Y124387D01*
D02*
G37*
G36*
X193200Y121418D02*
X186896D01*
X186545Y121348D01*
X186247Y121149D01*
X185516Y120418D01*
X149371D01*
X149309Y120509D01*
X148846Y120819D01*
X148300Y120927D01*
X147754Y120819D01*
X147291Y120509D01*
X146981Y120046D01*
X146946Y119868D01*
X146421Y119793D01*
X146209Y120109D01*
X145746Y120419D01*
X145200Y120527D01*
X144654Y120419D01*
X144191Y120109D01*
X143881Y119646D01*
X143773Y119100D01*
X143881Y118554D01*
X144191Y118091D01*
X144654Y117781D01*
X145182Y117676D01*
X151579Y111279D01*
X151910Y111058D01*
X152300Y110980D01*
X164806D01*
X165254Y110681D01*
X165800Y110573D01*
X166346Y110681D01*
X166794Y110980D01*
X189900D01*
X190290Y111058D01*
X190621Y111279D01*
X191318Y111976D01*
X191846Y112081D01*
X192309Y112391D01*
X192619Y112854D01*
X192727Y113400D01*
X192619Y113946D01*
X192309Y114409D01*
X191846Y114719D01*
X191300Y114827D01*
X190754Y114719D01*
X190291Y114409D01*
X189981Y113946D01*
X189876Y113418D01*
X189768Y113310D01*
X189500Y113343D01*
X189131Y113865D01*
X189139Y113906D01*
X189030Y114452D01*
X188721Y114915D01*
X188384Y115141D01*
X188305Y115575D01*
X188324Y115721D01*
X188400Y115778D01*
X188829Y115864D01*
X189193Y116107D01*
X189998Y116912D01*
X190346Y116981D01*
X190809Y117291D01*
X191119Y117754D01*
X191227Y118300D01*
X191119Y118846D01*
X190961Y119082D01*
X191228Y119582D01*
X192820D01*
X194294Y118108D01*
X194273Y118000D01*
X194381Y117454D01*
X194691Y116991D01*
X195154Y116681D01*
X195700Y116573D01*
X196246Y116681D01*
X196709Y116991D01*
X197019Y117454D01*
X197127Y118000D01*
X197019Y118546D01*
X196709Y119009D01*
X196246Y119319D01*
X195700Y119427D01*
X195592Y119406D01*
X193849Y121149D01*
X193551Y121348D01*
X193200Y121418D01*
D02*
G37*
G36*
X81850Y120364D02*
Y119450D01*
X82764D01*
X82398Y119998D01*
X81850Y120364D01*
D02*
G37*
G36*
X80350D02*
X79802Y119998D01*
X79436Y119450D01*
X80350D01*
Y120364D01*
D02*
G37*
G36*
X229260Y119654D02*
Y118740D01*
X230173D01*
X229807Y119288D01*
X229260Y119654D01*
D02*
G37*
G36*
X227760D02*
X227212Y119288D01*
X226846Y118740D01*
X227760D01*
Y119654D01*
D02*
G37*
G36*
X82764Y117950D02*
X81850D01*
Y117036D01*
X82398Y117402D01*
X82764Y117950D01*
D02*
G37*
G36*
X80350D02*
X79436D01*
X79802Y117402D01*
X80350Y117036D01*
Y117950D01*
D02*
G37*
G36*
X48425Y128033D02*
X47150Y127907D01*
X45924Y127535D01*
X44793Y126931D01*
X43803Y126118D01*
X42990Y125128D01*
X42386Y123998D01*
X42014Y122771D01*
X41888Y121496D01*
X42014Y120221D01*
X42386Y118994D01*
X42990Y117864D01*
X43803Y116874D01*
X44793Y116061D01*
X45924Y115457D01*
X47150Y115085D01*
X48425Y114959D01*
X49700Y115085D01*
X50927Y115457D01*
X52057Y116061D01*
X53048Y116874D01*
X53860Y117864D01*
X54465Y118994D01*
X54837Y120221D01*
X54962Y121496D01*
X54837Y122771D01*
X54465Y123998D01*
X53860Y125128D01*
X53048Y126118D01*
X52057Y126931D01*
X50927Y127535D01*
X49700Y127907D01*
X48425Y128033D01*
D02*
G37*
G36*
X81996Y115864D02*
Y114950D01*
X82909D01*
X82543Y115498D01*
X81996Y115864D01*
D02*
G37*
G36*
X80496D02*
X79948Y115498D01*
X79582Y114950D01*
X80496D01*
Y115864D01*
D02*
G37*
G36*
X82909Y113450D02*
X81996D01*
Y112536D01*
X82543Y112902D01*
X82909Y113450D01*
D02*
G37*
G36*
X80496D02*
X79582D01*
X79948Y112902D01*
X80496Y112536D01*
Y113450D01*
D02*
G37*
G36*
X334961Y119027D02*
X334087Y118912D01*
X333272Y118574D01*
X332572Y118037D01*
X332035Y117338D01*
X331698Y116523D01*
X331582Y115648D01*
X331698Y114773D01*
X332035Y113959D01*
X332572Y113259D01*
X333272Y112722D01*
X334087Y112384D01*
X334961Y112269D01*
X335836Y112384D01*
X336651Y112722D01*
X337351Y113259D01*
X337888Y113959D01*
X338225Y114773D01*
X338340Y115648D01*
X338225Y116523D01*
X337888Y117338D01*
X337351Y118037D01*
X336651Y118574D01*
X335836Y118912D01*
X334961Y119027D01*
D02*
G37*
G36*
X81950Y111464D02*
Y110550D01*
X82864D01*
X82498Y111098D01*
X81950Y111464D01*
D02*
G37*
G36*
X80450D02*
X79902Y111098D01*
X79536Y110550D01*
X80450D01*
Y111464D01*
D02*
G37*
G36*
X82864Y109050D02*
X81950D01*
Y108136D01*
X82498Y108502D01*
X82864Y109050D01*
D02*
G37*
G36*
X80450D02*
X79536D01*
X79902Y108502D01*
X80450Y108136D01*
Y109050D01*
D02*
G37*
G36*
X85200Y120427D02*
X84654Y120319D01*
X84191Y120009D01*
X83881Y119546D01*
X83773Y119000D01*
X83881Y118454D01*
X84055Y118193D01*
Y109518D01*
X83858Y109223D01*
X83749Y108677D01*
X83858Y108130D01*
X84167Y107667D01*
X84630Y107358D01*
X85177Y107249D01*
X85723Y107358D01*
X86186Y107667D01*
X86496Y108130D01*
X86604Y108677D01*
X86496Y109223D01*
X86298Y109518D01*
Y118124D01*
X86519Y118454D01*
X86627Y119000D01*
X86519Y119546D01*
X86209Y120009D01*
X85746Y120319D01*
X85200Y120427D01*
D02*
G37*
G36*
X260300Y117076D02*
X259754Y116967D01*
X259291Y116657D01*
X258981Y116194D01*
X258873Y115648D01*
X258981Y115102D01*
X259291Y114639D01*
X259382Y114577D01*
Y107571D01*
X259291Y107509D01*
X258981Y107046D01*
X258873Y106500D01*
X258981Y105954D01*
X259291Y105491D01*
X259754Y105181D01*
X260300Y105073D01*
X260846Y105181D01*
X261309Y105491D01*
X261619Y105954D01*
X261727Y106500D01*
X261619Y107046D01*
X261309Y107509D01*
X261218Y107571D01*
Y114577D01*
X261309Y114639D01*
X261619Y115102D01*
X261727Y115648D01*
X261619Y116194D01*
X261309Y116657D01*
X260846Y116967D01*
X260300Y117076D01*
D02*
G37*
G36*
X288857Y108274D02*
X288233Y108150D01*
X287703Y107797D01*
X287350Y107267D01*
X287226Y106643D01*
X287350Y106019D01*
X287703Y105490D01*
X288233Y105136D01*
X288857Y105012D01*
X289481Y105136D01*
X290010Y105490D01*
X290364Y106019D01*
X290488Y106643D01*
X290364Y107267D01*
X290010Y107797D01*
X289481Y108150D01*
X288857Y108274D01*
D02*
G37*
G36*
X349252Y105788D02*
Y104648D01*
X350392D01*
X350386Y104678D01*
X349944Y105340D01*
X349283Y105782D01*
X349252Y105788D01*
D02*
G37*
G36*
X347752D02*
X347722Y105782D01*
X347060Y105340D01*
X346618Y104678D01*
X346612Y104648D01*
X347752D01*
Y105788D01*
D02*
G37*
G36*
X334961Y111153D02*
X334087Y111038D01*
X333272Y110700D01*
X332572Y110163D01*
X332035Y109464D01*
X331698Y108649D01*
X331582Y107774D01*
X331698Y106899D01*
X332035Y106085D01*
X332572Y105385D01*
X333272Y104848D01*
X334087Y104510D01*
X334961Y104395D01*
X335836Y104510D01*
X336651Y104848D01*
X337351Y105385D01*
X337888Y106085D01*
X338225Y106899D01*
X338340Y107774D01*
X338225Y108649D01*
X337888Y109464D01*
X337351Y110163D01*
X336651Y110700D01*
X335836Y111038D01*
X334961Y111153D01*
D02*
G37*
G36*
X255800Y116827D02*
X255254Y116719D01*
X254791Y116409D01*
X254481Y115946D01*
X254373Y115400D01*
X254481Y114854D01*
X254791Y114391D01*
X255182Y114129D01*
Y105471D01*
X255091Y105409D01*
X254781Y104946D01*
X254673Y104400D01*
X254781Y103854D01*
X255091Y103391D01*
X255554Y103081D01*
X256100Y102973D01*
X256646Y103081D01*
X257109Y103391D01*
X257419Y103854D01*
X257527Y104400D01*
X257419Y104946D01*
X257109Y105409D01*
X257018Y105471D01*
Y114702D01*
X257119Y114854D01*
X257227Y115400D01*
X257119Y115946D01*
X256809Y116409D01*
X256346Y116719D01*
X255800Y116827D01*
D02*
G37*
G36*
X350392Y103148D02*
X349252D01*
Y102008D01*
X349283Y102014D01*
X349944Y102456D01*
X350386Y103117D01*
X350392Y103148D01*
D02*
G37*
G36*
X347752D02*
X346612D01*
X346618Y103117D01*
X347060Y102456D01*
X347722Y102014D01*
X347752Y102008D01*
Y103148D01*
D02*
G37*
G36*
X283718Y104313D02*
X283094Y104189D01*
X282565Y103835D01*
X282211Y103306D01*
X282087Y102682D01*
X282211Y102058D01*
X282565Y101528D01*
X283094Y101175D01*
X283718Y101050D01*
X284342Y101175D01*
X284872Y101528D01*
X285225Y102058D01*
X285349Y102682D01*
X285225Y103306D01*
X284872Y103835D01*
X284342Y104189D01*
X283718Y104313D01*
D02*
G37*
G36*
X338711Y103650D02*
X335711D01*
Y100650D01*
X338711D01*
Y103650D01*
D02*
G37*
G36*
X334211D02*
X331211D01*
Y100650D01*
X334211D01*
Y103650D01*
D02*
G37*
G36*
X151000Y102627D02*
X150454Y102519D01*
X149991Y102209D01*
X149681Y101746D01*
X149573Y101200D01*
X149594Y101092D01*
X127720Y79218D01*
X99280D01*
X94749Y83749D01*
X94451Y83948D01*
X94100Y84018D01*
X61971D01*
X61909Y84109D01*
X61446Y84419D01*
X60900Y84527D01*
X60354Y84419D01*
X59891Y84109D01*
X59581Y83646D01*
X59473Y83100D01*
X59581Y82554D01*
X59660Y82436D01*
X59430Y81880D01*
X59429Y81880D01*
X58834Y81482D01*
X58468Y80934D01*
X61795D01*
X61553Y81297D01*
X61538Y81363D01*
X61619Y81842D01*
X61664Y81927D01*
X61909Y82091D01*
X61971Y82182D01*
X67117D01*
X67275Y81932D01*
X71062D01*
X71220Y82182D01*
X93720D01*
X98251Y77651D01*
X98549Y77452D01*
X98900Y77382D01*
X128100D01*
X128451Y77452D01*
X128749Y77651D01*
X145247Y94149D01*
X145709Y93958D01*
Y87529D01*
X153409D01*
Y95230D01*
X146981D01*
X146789Y95692D01*
X150892Y99794D01*
X151000Y99773D01*
X151546Y99881D01*
X152009Y100191D01*
X152319Y100654D01*
X152427Y101200D01*
X152319Y101746D01*
X152009Y102209D01*
X151546Y102519D01*
X151000Y102627D01*
D02*
G37*
G36*
X53018Y99596D02*
Y98682D01*
X53932D01*
X53566Y99230D01*
X53018Y99596D01*
D02*
G37*
G36*
X51518D02*
X50970Y99230D01*
X50604Y98682D01*
X51518D01*
Y99596D01*
D02*
G37*
G36*
X242900Y104727D02*
X242354Y104619D01*
X241891Y104309D01*
X241581Y103846D01*
X241473Y103300D01*
X241581Y102754D01*
X241891Y102291D01*
X242354Y101981D01*
X242900Y101873D01*
X243008Y101894D01*
X247251Y97651D01*
X247549Y97452D01*
X247900Y97382D01*
X310729D01*
X310791Y97291D01*
X311254Y96981D01*
X311800Y96873D01*
X312346Y96981D01*
X312809Y97291D01*
X313119Y97754D01*
X313227Y98300D01*
X313119Y98846D01*
X312809Y99309D01*
X312346Y99619D01*
X311800Y99727D01*
X311254Y99619D01*
X310791Y99309D01*
X310729Y99218D01*
X248280D01*
X244306Y103192D01*
X244327Y103300D01*
X244219Y103846D01*
X243909Y104309D01*
X243446Y104619D01*
X242900Y104727D01*
D02*
G37*
G36*
X53932Y97182D02*
X53018D01*
Y96268D01*
X53566Y96634D01*
X53932Y97182D01*
D02*
G37*
G36*
X51518D02*
X50604D01*
X50970Y96634D01*
X51518Y96268D01*
Y97182D01*
D02*
G37*
G36*
X338711Y99150D02*
X335711D01*
Y96150D01*
X338711D01*
Y99150D01*
D02*
G37*
G36*
X334211D02*
X331211D01*
Y96150D01*
X334211D01*
Y99150D01*
D02*
G37*
G36*
X56476Y96990D02*
Y96076D01*
X57389D01*
X57024Y96623D01*
X56476Y96990D01*
D02*
G37*
G36*
X54976D02*
X54428Y96623D01*
X54062Y96076D01*
X54976D01*
Y96990D01*
D02*
G37*
G36*
X57389Y94576D02*
X56476D01*
Y93662D01*
X57024Y94028D01*
X57389Y94576D01*
D02*
G37*
G36*
X54976D02*
X54062D01*
X54428Y94028D01*
X54976Y93662D01*
Y94576D01*
D02*
G37*
G36*
X286843Y95074D02*
X286219Y94950D01*
X285690Y94597D01*
X285336Y94067D01*
X285212Y93443D01*
X285336Y92819D01*
X285690Y92290D01*
X286219Y91936D01*
X286843Y91812D01*
X287467Y91936D01*
X287997Y92290D01*
X288350Y92819D01*
X288474Y93443D01*
X288350Y94067D01*
X287997Y94597D01*
X287467Y94950D01*
X286843Y95074D01*
D02*
G37*
G36*
X34743Y91257D02*
Y90343D01*
X35657D01*
X35291Y90891D01*
X34743Y91257D01*
D02*
G37*
G36*
X33243D02*
X32695Y90891D01*
X32329Y90343D01*
X33243D01*
Y91257D01*
D02*
G37*
G36*
X40506Y89572D02*
Y88432D01*
X41646D01*
X41640Y88462D01*
X41198Y89124D01*
X40536Y89566D01*
X40506Y89572D01*
D02*
G37*
G36*
X39006D02*
X38976Y89566D01*
X38314Y89124D01*
X37872Y88462D01*
X37866Y88432D01*
X39006D01*
Y89572D01*
D02*
G37*
G36*
X124250Y92292D02*
Y88350D01*
X128192D01*
X128128Y88840D01*
X127649Y89995D01*
X126888Y90988D01*
X125896Y91749D01*
X124740Y92228D01*
X124250Y92292D01*
D02*
G37*
G36*
X122750D02*
X122260Y92228D01*
X121105Y91749D01*
X120112Y90988D01*
X119351Y89995D01*
X118872Y88840D01*
X118808Y88350D01*
X122750D01*
Y92292D01*
D02*
G37*
G36*
X35657Y88843D02*
X34743D01*
Y87929D01*
X35291Y88295D01*
X35657Y88843D01*
D02*
G37*
G36*
X33243D02*
X32329D01*
X32695Y88295D01*
X33243Y87929D01*
Y88843D01*
D02*
G37*
G36*
X269559Y95263D02*
X268554Y95130D01*
X267617Y94743D01*
X266813Y94125D01*
X266196Y93321D01*
X265808Y92385D01*
X265676Y91379D01*
X265808Y90374D01*
X266196Y89438D01*
X266813Y88634D01*
X267617Y88017D01*
X268554Y87629D01*
X269559Y87496D01*
X270564Y87629D01*
X271500Y88017D01*
X272305Y88634D01*
X272922Y89438D01*
X273310Y90374D01*
X273442Y91379D01*
X273310Y92385D01*
X272922Y93321D01*
X272305Y94125D01*
X271500Y94743D01*
X270564Y95130D01*
X269559Y95263D01*
D02*
G37*
G36*
X249559D02*
X248554Y95130D01*
X247617Y94743D01*
X246813Y94125D01*
X246196Y93321D01*
X245808Y92385D01*
X245676Y91379D01*
X245808Y90374D01*
X246196Y89438D01*
X246813Y88634D01*
X247617Y88017D01*
X248554Y87629D01*
X249559Y87496D01*
X250564Y87629D01*
X251501Y88017D01*
X252305Y88634D01*
X252922Y89438D01*
X253310Y90374D01*
X253442Y91379D01*
X253310Y92385D01*
X252922Y93321D01*
X252305Y94125D01*
X251501Y94743D01*
X250564Y95130D01*
X249559Y95263D01*
D02*
G37*
G36*
X229559D02*
X228554Y95130D01*
X227617Y94743D01*
X226813Y94125D01*
X226196Y93321D01*
X225808Y92385D01*
X225676Y91379D01*
X225808Y90374D01*
X226196Y89438D01*
X226813Y88634D01*
X227617Y88017D01*
X228554Y87629D01*
X229559Y87496D01*
X230564Y87629D01*
X231501Y88017D01*
X232305Y88634D01*
X232922Y89438D01*
X233310Y90374D01*
X233442Y91379D01*
X233310Y92385D01*
X232922Y93321D01*
X232305Y94125D01*
X231501Y94743D01*
X230564Y95130D01*
X229559Y95263D01*
D02*
G37*
G36*
X189559D02*
X188554Y95130D01*
X187617Y94743D01*
X186813Y94125D01*
X186196Y93321D01*
X185808Y92385D01*
X185676Y91379D01*
X185808Y90374D01*
X186196Y89438D01*
X186813Y88634D01*
X187617Y88017D01*
X188554Y87629D01*
X189559Y87496D01*
X190564Y87629D01*
X191500Y88017D01*
X192305Y88634D01*
X192922Y89438D01*
X193310Y90374D01*
X193442Y91379D01*
X193310Y92385D01*
X192922Y93321D01*
X192305Y94125D01*
X191500Y94743D01*
X190564Y95130D01*
X189559Y95263D01*
D02*
G37*
G36*
X169559D02*
X168554Y95130D01*
X167617Y94743D01*
X166813Y94125D01*
X166196Y93321D01*
X165808Y92385D01*
X165676Y91379D01*
X165808Y90374D01*
X166196Y89438D01*
X166813Y88634D01*
X167617Y88017D01*
X168554Y87629D01*
X169559Y87496D01*
X170564Y87629D01*
X171501Y88017D01*
X172305Y88634D01*
X172922Y89438D01*
X173310Y90374D01*
X173442Y91379D01*
X173310Y92385D01*
X172922Y93321D01*
X172305Y94125D01*
X171501Y94743D01*
X170564Y95130D01*
X169559Y95263D01*
D02*
G37*
G36*
X333018Y89313D02*
X332394Y89189D01*
X331865Y88835D01*
X331511Y88306D01*
X331387Y87682D01*
X331511Y87058D01*
X331865Y86528D01*
X332394Y86175D01*
X333018Y86050D01*
X333642Y86175D01*
X334172Y86528D01*
X334525Y87058D01*
X334649Y87682D01*
X334525Y88306D01*
X334172Y88835D01*
X333642Y89189D01*
X333018Y89313D01*
D02*
G37*
G36*
X48950Y86943D02*
Y86029D01*
X49864D01*
X49498Y86577D01*
X48950Y86943D01*
D02*
G37*
G36*
X47450D02*
X46902Y86577D01*
X46536Y86029D01*
X47450D01*
Y86943D01*
D02*
G37*
G36*
X316100Y128586D02*
X315378Y128443D01*
X314766Y128034D01*
X314357Y127422D01*
X314214Y126700D01*
X314357Y125978D01*
X314766Y125366D01*
X317114Y123019D01*
Y91981D01*
X303619Y78486D01*
X280381D01*
X278434Y80434D01*
X277822Y80843D01*
X277100Y80986D01*
X223100D01*
X222378Y80843D01*
X221766Y80434D01*
X217166Y75834D01*
X216757Y75222D01*
X216614Y74500D01*
Y60581D01*
X212819Y56786D01*
X186481D01*
X178113Y65154D01*
X177501Y65563D01*
X176779Y65707D01*
X172945D01*
X172922Y65762D01*
X172305Y66566D01*
X171501Y67183D01*
X170564Y67571D01*
X169559Y67704D01*
X168554Y67571D01*
X167617Y67183D01*
X166813Y66566D01*
X166196Y65762D01*
X165808Y64825D01*
X165676Y63820D01*
X165808Y62815D01*
X166196Y61879D01*
X166813Y61075D01*
X167617Y60457D01*
X168554Y60070D01*
X169559Y59937D01*
X170564Y60070D01*
X171501Y60457D01*
X172305Y61075D01*
X172922Y61879D01*
X172945Y61934D01*
X175998D01*
X184366Y53566D01*
X184978Y53157D01*
X185700Y53014D01*
X213600D01*
X214322Y53157D01*
X214934Y53566D01*
X219834Y58466D01*
X220243Y59078D01*
X220386Y59800D01*
Y73719D01*
X223881Y77214D01*
X276319D01*
X278266Y75266D01*
X278878Y74857D01*
X279600Y74714D01*
X304400D01*
X305122Y74857D01*
X305734Y75266D01*
X320334Y89866D01*
X320743Y90478D01*
X320886Y91200D01*
Y93482D01*
X321386Y93531D01*
X321481Y93054D01*
X321791Y92591D01*
X322254Y92281D01*
X322800Y92173D01*
X323346Y92281D01*
X323809Y92591D01*
X323871Y92682D01*
X336520D01*
X342094Y87108D01*
X342073Y87000D01*
X342181Y86454D01*
X342491Y85991D01*
X342954Y85681D01*
X343500Y85573D01*
X344046Y85681D01*
X344509Y85991D01*
X344819Y86454D01*
X344927Y87000D01*
X344819Y87546D01*
X344509Y88009D01*
X344046Y88319D01*
X343500Y88427D01*
X343392Y88406D01*
X337549Y94249D01*
X337251Y94448D01*
X336900Y94518D01*
X323871D01*
X323809Y94609D01*
X323346Y94919D01*
X322800Y95027D01*
X322254Y94919D01*
X321791Y94609D01*
X321481Y94146D01*
X321386Y93669D01*
X320886Y93718D01*
Y123800D01*
X320743Y124522D01*
X320334Y125134D01*
X317434Y128034D01*
X316822Y128443D01*
X316100Y128586D01*
D02*
G37*
G36*
X41646Y86932D02*
X37866D01*
X37872Y86901D01*
X38314Y86240D01*
X38559Y86076D01*
Y85576D01*
X38358Y85442D01*
X37916Y84780D01*
X37910Y84750D01*
X41690D01*
X41684Y84780D01*
X41242Y85442D01*
X40997Y85606D01*
Y86106D01*
X41198Y86240D01*
X41640Y86901D01*
X41646Y86932D01*
D02*
G37*
G36*
X49864Y84530D02*
X48950D01*
Y83616D01*
X49498Y83982D01*
X49864Y84530D01*
D02*
G37*
G36*
X47450D02*
X46536D01*
X46902Y83982D01*
X47450Y83616D01*
Y84530D01*
D02*
G37*
G36*
X109721Y91988D02*
X108585Y91838D01*
X107527Y91400D01*
X106618Y90702D01*
X105921Y89794D01*
X105482Y88736D01*
X105333Y87600D01*
X105482Y86464D01*
X105921Y85406D01*
X106618Y84497D01*
X107527Y83800D01*
X108585Y83362D01*
X109721Y83213D01*
X110856Y83362D01*
X111914Y83800D01*
X112823Y84497D01*
X113520Y85406D01*
X113959Y86464D01*
X114108Y87600D01*
X113959Y88736D01*
X113520Y89794D01*
X112823Y90702D01*
X111914Y91400D01*
X110856Y91838D01*
X109721Y91988D01*
D02*
G37*
G36*
X30400Y84148D02*
X29854Y84039D01*
X29391Y83730D01*
X29081Y83267D01*
X29055Y83134D01*
X28545D01*
X28519Y83267D01*
X28209Y83730D01*
X27746Y84039D01*
X27200Y84148D01*
X26654Y84039D01*
X26191Y83730D01*
X25881Y83267D01*
X25773Y82721D01*
X25881Y82174D01*
X26191Y81711D01*
X26654Y81402D01*
X27200Y81293D01*
X27746Y81402D01*
X28209Y81711D01*
X28519Y82174D01*
X28545Y82307D01*
X29055D01*
X29081Y82174D01*
X29391Y81711D01*
X29854Y81402D01*
X30400Y81293D01*
X30946Y81402D01*
X31409Y81711D01*
X31719Y82174D01*
X31827Y82721D01*
X31719Y83267D01*
X31409Y83730D01*
X30946Y84039D01*
X30400Y84148D01*
D02*
G37*
G36*
X128192Y86850D02*
X124250D01*
Y82908D01*
X124740Y82972D01*
X125896Y83451D01*
X126888Y84212D01*
X127649Y85204D01*
X128128Y86360D01*
X128192Y86850D01*
D02*
G37*
G36*
X122750D02*
X118808D01*
X118872Y86360D01*
X119351Y85204D01*
X120112Y84212D01*
X121105Y83451D01*
X122260Y82972D01*
X122750Y82908D01*
Y86850D01*
D02*
G37*
G36*
X41690Y83250D02*
X37910D01*
X37916Y83220D01*
X38358Y82558D01*
X38570Y82417D01*
Y81917D01*
X38458Y81842D01*
X38016Y81180D01*
X38010Y81150D01*
X41790D01*
X41784Y81180D01*
X41342Y81842D01*
X41130Y81983D01*
Y82483D01*
X41242Y82558D01*
X41684Y83220D01*
X41690Y83250D01*
D02*
G37*
G36*
X336843Y84088D02*
X336219Y83964D01*
X335690Y83610D01*
X335336Y83081D01*
X335212Y82457D01*
X335336Y81833D01*
X335690Y81303D01*
X336219Y80950D01*
X336843Y80826D01*
X337467Y80950D01*
X337997Y81303D01*
X338350Y81833D01*
X338474Y82457D01*
X338350Y83081D01*
X337997Y83610D01*
X337467Y83964D01*
X336843Y84088D01*
D02*
G37*
G36*
X286843Y83688D02*
X286219Y83564D01*
X285690Y83210D01*
X285336Y82681D01*
X285212Y82057D01*
X285336Y81433D01*
X285690Y80903D01*
X286219Y80550D01*
X286843Y80426D01*
X287467Y80550D01*
X287997Y80903D01*
X288350Y81433D01*
X288474Y82057D01*
X288350Y82681D01*
X287997Y83210D01*
X287467Y83564D01*
X286843Y83688D01*
D02*
G37*
G36*
X70832Y80431D02*
X69919D01*
Y79518D01*
X70466Y79884D01*
X70832Y80431D01*
D02*
G37*
G36*
X68419D02*
X67505D01*
X67871Y79884D01*
X68419Y79518D01*
Y80431D01*
D02*
G37*
G36*
X350750Y80590D02*
Y79450D01*
X351890D01*
X351884Y79480D01*
X351442Y80142D01*
X350780Y80584D01*
X350750Y80590D01*
D02*
G37*
G36*
X349250D02*
X349220Y80584D01*
X348558Y80142D01*
X348116Y79480D01*
X348110Y79450D01*
X349250D01*
Y80590D01*
D02*
G37*
G36*
X73283Y79764D02*
Y78850D01*
X74197D01*
X73831Y79398D01*
X73283Y79764D01*
D02*
G37*
G36*
X71783D02*
X71235Y79398D01*
X70869Y78850D01*
X71783D01*
Y79764D01*
D02*
G37*
G36*
X61795Y79434D02*
X60882D01*
Y78521D01*
X61429Y78886D01*
X61795Y79434D01*
D02*
G37*
G36*
X59382D02*
X58468D01*
X58834Y78886D01*
X59382Y78521D01*
Y79434D01*
D02*
G37*
G36*
X41790Y79650D02*
X40650D01*
Y78510D01*
X40680Y78516D01*
X41342Y78958D01*
X41784Y79620D01*
X41790Y79650D01*
D02*
G37*
G36*
X39150D02*
X38010D01*
X38016Y79620D01*
X38458Y78958D01*
X39120Y78516D01*
X39150Y78510D01*
Y79650D01*
D02*
G37*
G36*
X54450Y78664D02*
Y77750D01*
X55364D01*
X54998Y78298D01*
X54450Y78664D01*
D02*
G37*
G36*
X351890Y77950D02*
X350750D01*
Y76810D01*
X350780Y76816D01*
X351442Y77258D01*
X351884Y77920D01*
X351890Y77950D01*
D02*
G37*
G36*
X349250D02*
X348110D01*
X348116Y77920D01*
X348558Y77258D01*
X349220Y76816D01*
X349250Y76810D01*
Y77950D01*
D02*
G37*
G36*
X74197Y77350D02*
X73283D01*
Y76436D01*
X73831Y76802D01*
X74197Y77350D01*
D02*
G37*
G36*
X71783D02*
X70869D01*
X71235Y76802D01*
X71783Y76436D01*
Y77350D01*
D02*
G37*
G36*
X343366Y74932D02*
Y73792D01*
X344506D01*
X344500Y73823D01*
X344058Y74484D01*
X343396Y74927D01*
X343366Y74932D01*
D02*
G37*
G36*
X341866D02*
X341835Y74927D01*
X341174Y74484D01*
X340732Y73823D01*
X340726Y73792D01*
X341866D01*
Y74932D01*
D02*
G37*
G36*
X52950Y78664D02*
X52402Y78298D01*
X52004Y77702D01*
X51931Y77332D01*
X51800Y76848D01*
X51098Y76708D01*
X50502Y76310D01*
X50136Y75763D01*
X51800D01*
Y75013D01*
X52550D01*
Y73349D01*
X53098Y73715D01*
X53496Y74310D01*
X53569Y74681D01*
X53700Y75165D01*
X54402Y75304D01*
X54998Y75702D01*
X55364Y76250D01*
X53700D01*
Y77000D01*
X52950D01*
Y78664D01*
D02*
G37*
G36*
X51050Y74263D02*
X50136D01*
X50502Y73715D01*
X51050Y73349D01*
Y74263D01*
D02*
G37*
G36*
X344506Y72293D02*
X343366D01*
Y71153D01*
X343396Y71159D01*
X344058Y71601D01*
X344500Y72262D01*
X344506Y72293D01*
D02*
G37*
G36*
X341866D02*
X340726D01*
X340732Y72262D01*
X341174Y71601D01*
X341835Y71159D01*
X341866Y71153D01*
Y72293D01*
D02*
G37*
G36*
X22613Y71901D02*
Y70987D01*
X23527D01*
X23161Y71535D01*
X22613Y71901D01*
D02*
G37*
G36*
X21113D02*
X20565Y71535D01*
X20199Y70987D01*
X21113D01*
Y71901D01*
D02*
G37*
G36*
X53450Y71890D02*
Y70750D01*
X54590D01*
X54584Y70780D01*
X54142Y71442D01*
X53480Y71884D01*
X53450Y71890D01*
D02*
G37*
G36*
X51950D02*
X51920Y71884D01*
X51258Y71442D01*
X50816Y70780D01*
X50810Y70750D01*
X51950D01*
Y71890D01*
D02*
G37*
G36*
X78250Y70590D02*
Y69450D01*
X79390D01*
X79384Y69480D01*
X78942Y70142D01*
X78280Y70584D01*
X78250Y70590D01*
D02*
G37*
G36*
X76750D02*
X76720Y70584D01*
X76058Y70142D01*
X75616Y69480D01*
X75610Y69450D01*
X76750D01*
Y70590D01*
D02*
G37*
G36*
X124250Y72607D02*
Y68665D01*
X128192D01*
X128128Y69155D01*
X127649Y70310D01*
X126888Y71303D01*
X125896Y72064D01*
X124740Y72543D01*
X124250Y72607D01*
D02*
G37*
G36*
X122750D02*
X122260Y72543D01*
X121105Y72064D01*
X120112Y71303D01*
X119351Y70310D01*
X118872Y69155D01*
X118808Y68665D01*
X122750D01*
Y72607D01*
D02*
G37*
G36*
X23527Y69487D02*
X22613D01*
Y68573D01*
X23161Y68939D01*
X23527Y69487D01*
D02*
G37*
G36*
X21113D02*
X20199D01*
X20565Y68939D01*
X21113Y68573D01*
Y69487D01*
D02*
G37*
G36*
X19505Y68318D02*
Y67405D01*
X20418D01*
X20052Y67952D01*
X19505Y68318D01*
D02*
G37*
G36*
X18005D02*
X17457Y67952D01*
X17091Y67405D01*
X18005D01*
Y68318D01*
D02*
G37*
G36*
X79390Y67950D02*
X78250D01*
Y66810D01*
X78280Y66816D01*
X78942Y67258D01*
X79384Y67920D01*
X79390Y67950D01*
D02*
G37*
G36*
X76750D02*
X75610D01*
X75616Y67920D01*
X76058Y67258D01*
X76720Y66816D01*
X76750Y66810D01*
Y67950D01*
D02*
G37*
G36*
X20418Y65905D02*
X19505D01*
Y64991D01*
X20052Y65357D01*
X20418Y65905D01*
D02*
G37*
G36*
X18005D02*
X17091D01*
X17457Y65357D01*
X18005Y64991D01*
Y65905D01*
D02*
G37*
G36*
X22613Y64601D02*
Y63687D01*
X23527D01*
X23161Y64235D01*
X22613Y64601D01*
D02*
G37*
G36*
X21113D02*
X20565Y64235D01*
X20199Y63687D01*
X21113D01*
Y64601D01*
D02*
G37*
G36*
X109721Y72303D02*
X108585Y72153D01*
X107527Y71715D01*
X106618Y71017D01*
X105921Y70109D01*
X105482Y69051D01*
X105333Y67915D01*
X105482Y66779D01*
X105921Y65721D01*
X106618Y64812D01*
X107527Y64115D01*
X108585Y63677D01*
X109721Y63527D01*
X110856Y63677D01*
X111914Y64115D01*
X112823Y64812D01*
X113520Y65721D01*
X113959Y66779D01*
X114108Y67915D01*
X113959Y69051D01*
X113520Y70109D01*
X112823Y71017D01*
X111914Y71715D01*
X110856Y72153D01*
X109721Y72303D01*
D02*
G37*
G36*
X74592Y64390D02*
Y63250D01*
X75732D01*
X75726Y63280D01*
X75284Y63942D01*
X74622Y64384D01*
X74592Y64390D01*
D02*
G37*
G36*
X73092D02*
X73062Y64384D01*
X72400Y63942D01*
X71958Y63280D01*
X71952Y63250D01*
X73092D01*
Y64390D01*
D02*
G37*
G36*
X128192Y67165D02*
X124250D01*
Y63223D01*
X124740Y63287D01*
X125896Y63766D01*
X126888Y64527D01*
X127649Y65519D01*
X128128Y66675D01*
X128192Y67165D01*
D02*
G37*
G36*
X122750D02*
X118808D01*
X118872Y66675D01*
X119351Y65519D01*
X120112Y64527D01*
X121105Y63766D01*
X122260Y63287D01*
X122750Y63223D01*
Y67165D01*
D02*
G37*
G36*
X44600Y70227D02*
X44054Y70119D01*
X43591Y69809D01*
X43281Y69346D01*
X43173Y68800D01*
X43281Y68254D01*
X43591Y67791D01*
X44054Y67481D01*
X44600Y67373D01*
X45146Y67481D01*
X45441Y67678D01*
X48578D01*
Y63149D01*
X48089Y62875D01*
X47938Y62976D01*
Y61312D01*
Y59648D01*
X48486Y60014D01*
X48884Y60610D01*
X49019Y61288D01*
X49119Y61355D01*
X49491Y61523D01*
X50599Y60415D01*
X50550Y59917D01*
X50502Y59885D01*
X50136Y59337D01*
X51800D01*
Y57837D01*
X50136D01*
X50502Y57290D01*
X51098Y56892D01*
X51574Y56797D01*
X51988Y56319D01*
X51965Y56200D01*
X52104Y55498D01*
X52502Y54902D01*
X53050Y54536D01*
Y56200D01*
X53800D01*
Y56950D01*
X55464D01*
X55098Y57498D01*
X54502Y57896D01*
X54026Y57990D01*
X53612Y58469D01*
X53635Y58587D01*
X53518Y59178D01*
X53791Y59678D01*
X56000D01*
X56000Y59678D01*
X56429Y59764D01*
X56793Y60007D01*
X58165Y61378D01*
X67128D01*
X67423Y61181D01*
X67969Y61073D01*
X68515Y61181D01*
X68979Y61491D01*
X69288Y61954D01*
X69397Y62500D01*
X69288Y63046D01*
X68979Y63509D01*
X68515Y63819D01*
X67969Y63927D01*
X67423Y63819D01*
X67128Y63622D01*
X57700D01*
X57271Y63536D01*
X56907Y63293D01*
X56907Y63293D01*
X55535Y61922D01*
X54320D01*
X54184Y62422D01*
X54584Y63020D01*
X54590Y63050D01*
X52700D01*
Y64550D01*
X54590D01*
X54584Y64580D01*
X54142Y65242D01*
Y65388D01*
X54584Y66050D01*
X54590Y66080D01*
X52700D01*
Y67580D01*
X54590D01*
X54584Y67611D01*
X54142Y68272D01*
Y68558D01*
X54584Y69220D01*
X54590Y69250D01*
X50466D01*
X50316Y69170D01*
X49893Y69593D01*
X49529Y69836D01*
X49100Y69922D01*
X49100Y69922D01*
X45441D01*
X45146Y70119D01*
X44600Y70227D01*
D02*
G37*
G36*
X46438Y62976D02*
X45891Y62609D01*
X45524Y62062D01*
X46438D01*
Y62976D01*
D02*
G37*
G36*
X23527Y62187D02*
X22613D01*
Y61273D01*
X23161Y61639D01*
X23527Y62187D01*
D02*
G37*
G36*
X21113D02*
X20199D01*
X20565Y61639D01*
X21113Y61273D01*
Y62187D01*
D02*
G37*
G36*
X75732Y61750D02*
X74592D01*
Y60610D01*
X74622Y60616D01*
X75284Y61058D01*
X75726Y61720D01*
X75732Y61750D01*
D02*
G37*
G36*
X73092D02*
X71952D01*
X71958Y61720D01*
X72400Y61058D01*
X73062Y60616D01*
X73092Y60610D01*
Y61750D01*
D02*
G37*
G36*
X153409Y67671D02*
X145709D01*
Y59970D01*
X153409D01*
Y67671D01*
D02*
G37*
G36*
X269559Y67704D02*
X268554Y67571D01*
X267617Y67183D01*
X266813Y66566D01*
X266196Y65762D01*
X265808Y64825D01*
X265676Y63820D01*
X265808Y62815D01*
X265831Y62760D01*
X261357Y58286D01*
X223700D01*
X222978Y58143D01*
X222366Y57734D01*
X216766Y52134D01*
X216357Y51522D01*
X216214Y50800D01*
X216357Y50078D01*
X216766Y49466D01*
X217378Y49057D01*
X218100Y48914D01*
X218822Y49057D01*
X219434Y49466D01*
X224481Y54514D01*
X262138D01*
X262860Y54657D01*
X263472Y55066D01*
X268498Y60093D01*
X268554Y60070D01*
X269559Y59937D01*
X270564Y60070D01*
X271500Y60457D01*
X272305Y61075D01*
X272922Y61879D01*
X273310Y62815D01*
X273442Y63820D01*
X273310Y64825D01*
X272922Y65762D01*
X272305Y66566D01*
X271500Y67183D01*
X270564Y67571D01*
X269559Y67704D01*
D02*
G37*
G36*
X249559D02*
X248554Y67571D01*
X247617Y67183D01*
X246813Y66566D01*
X246196Y65762D01*
X245808Y64825D01*
X245676Y63820D01*
X245808Y62815D01*
X246196Y61879D01*
X246813Y61075D01*
X247617Y60457D01*
X248554Y60070D01*
X249559Y59937D01*
X250564Y60070D01*
X251501Y60457D01*
X252305Y61075D01*
X252922Y61879D01*
X253310Y62815D01*
X253442Y63820D01*
X253310Y64825D01*
X252922Y65762D01*
X252305Y66566D01*
X251501Y67183D01*
X250564Y67571D01*
X249559Y67704D01*
D02*
G37*
G36*
X229559D02*
X228554Y67571D01*
X227617Y67183D01*
X226813Y66566D01*
X226196Y65762D01*
X225808Y64825D01*
X225676Y63820D01*
X225808Y62815D01*
X226196Y61879D01*
X226813Y61075D01*
X227617Y60457D01*
X228554Y60070D01*
X229559Y59937D01*
X230564Y60070D01*
X231501Y60457D01*
X232305Y61075D01*
X232922Y61879D01*
X233310Y62815D01*
X233442Y63820D01*
X233310Y64825D01*
X232922Y65762D01*
X232305Y66566D01*
X231501Y67183D01*
X230564Y67571D01*
X229559Y67704D01*
D02*
G37*
G36*
X209559Y95263D02*
X208554Y95130D01*
X207617Y94743D01*
X206813Y94125D01*
X206196Y93321D01*
X205808Y92385D01*
X205676Y91379D01*
X205808Y90374D01*
X206196Y89438D01*
X206813Y88634D01*
X207617Y88017D01*
X207673Y87994D01*
Y67206D01*
X207617Y67183D01*
X206813Y66566D01*
X206196Y65762D01*
X205808Y64825D01*
X205676Y63820D01*
X205808Y62815D01*
X206196Y61879D01*
X206813Y61075D01*
X207617Y60457D01*
X208554Y60070D01*
X209559Y59937D01*
X210564Y60070D01*
X211501Y60457D01*
X212305Y61075D01*
X212922Y61879D01*
X213310Y62815D01*
X213442Y63820D01*
X213310Y64825D01*
X212922Y65762D01*
X212305Y66566D01*
X211501Y67183D01*
X211445Y67206D01*
Y87994D01*
X211501Y88017D01*
X212305Y88634D01*
X212922Y89438D01*
X213310Y90374D01*
X213442Y91379D01*
X213310Y92385D01*
X212922Y93321D01*
X212305Y94125D01*
X211501Y94743D01*
X210564Y95130D01*
X209559Y95263D01*
D02*
G37*
G36*
X189559Y67704D02*
X188554Y67571D01*
X187617Y67183D01*
X186813Y66566D01*
X186196Y65762D01*
X185808Y64825D01*
X185676Y63820D01*
X185808Y62815D01*
X186196Y61879D01*
X186813Y61075D01*
X187617Y60457D01*
X188554Y60070D01*
X189559Y59937D01*
X190564Y60070D01*
X191500Y60457D01*
X192305Y61075D01*
X192922Y61879D01*
X193310Y62815D01*
X193442Y63820D01*
X193310Y64825D01*
X192922Y65762D01*
X192305Y66566D01*
X191500Y67183D01*
X190564Y67571D01*
X189559Y67704D01*
D02*
G37*
G36*
X46438Y60562D02*
X45524D01*
X45891Y60014D01*
X46438Y59648D01*
Y60562D01*
D02*
G37*
G36*
X78050Y59090D02*
Y57950D01*
X79190D01*
X79184Y57980D01*
X78742Y58642D01*
X78080Y59084D01*
X78050Y59090D01*
D02*
G37*
G36*
X76550D02*
X76520Y59084D01*
X75858Y58642D01*
X75416Y57980D01*
X75410Y57950D01*
X76550D01*
Y59090D01*
D02*
G37*
G36*
X72503Y58443D02*
Y57303D01*
X73643D01*
X73637Y57333D01*
X73195Y57995D01*
X72533Y58437D01*
X72503Y58443D01*
D02*
G37*
G36*
X71003D02*
X70972Y58437D01*
X70311Y57995D01*
X69869Y57333D01*
X69863Y57303D01*
X71003D01*
Y58443D01*
D02*
G37*
G36*
X79190Y56450D02*
X75410D01*
X75416Y56420D01*
X75842Y55781D01*
X75817Y55681D01*
X75620Y55316D01*
X75000Y55439D01*
X74220Y55284D01*
X73813Y55012D01*
X73663Y54912D01*
X73303Y55273D01*
X73397Y55413D01*
X73637Y55772D01*
X73643Y55803D01*
X72503D01*
Y54663D01*
X72533Y54669D01*
X72940Y54941D01*
X73089Y55041D01*
X73450Y54680D01*
X73356Y54540D01*
X73116Y54180D01*
X73110Y54150D01*
X76890D01*
X76884Y54180D01*
X76458Y54819D01*
X76483Y54919D01*
X76680Y55284D01*
X77300Y55161D01*
X78080Y55316D01*
X78742Y55758D01*
X79184Y56420D01*
X79190Y56450D01*
D02*
G37*
G36*
X71003Y55803D02*
X69863D01*
X69869Y55772D01*
X70311Y55111D01*
X70972Y54669D01*
X71003Y54663D01*
Y55803D01*
D02*
G37*
G36*
X55464Y55450D02*
X54550D01*
Y54536D01*
X55098Y54902D01*
X55464Y55450D01*
D02*
G37*
G36*
X76890Y52650D02*
X75750D01*
Y51510D01*
X75780Y51516D01*
X76442Y51958D01*
X76884Y52620D01*
X76890Y52650D01*
D02*
G37*
G36*
X74250D02*
X73110D01*
X73116Y52620D01*
X73558Y51958D01*
X74220Y51516D01*
X74250Y51510D01*
Y52650D01*
D02*
G37*
G36*
X316050Y54281D02*
X315426Y54157D01*
X314896Y53803D01*
X314543Y53274D01*
X314419Y52650D01*
X314543Y52026D01*
X314896Y51496D01*
X315426Y51143D01*
X316050Y51019D01*
X316674Y51143D01*
X317203Y51496D01*
X317557Y52026D01*
X317681Y52650D01*
X317557Y53274D01*
X317203Y53803D01*
X316674Y54157D01*
X316050Y54281D01*
D02*
G37*
G36*
X273643Y49870D02*
X273097Y49762D01*
X272634Y49452D01*
X272324Y48989D01*
X272216Y48443D01*
X272324Y47897D01*
X272634Y47434D01*
X273097Y47124D01*
X273643Y47016D01*
X274189Y47124D01*
X274652Y47434D01*
X274962Y47897D01*
X275071Y48443D01*
X274962Y48989D01*
X274652Y49452D01*
X274189Y49762D01*
X273643Y49870D01*
D02*
G37*
G36*
X223643Y50074D02*
X223019Y49950D01*
X222490Y49597D01*
X222136Y49067D01*
X222012Y48443D01*
X222136Y47819D01*
X222490Y47290D01*
X223019Y46936D01*
X223643Y46812D01*
X224267Y46936D01*
X224797Y47290D01*
X225150Y47819D01*
X225274Y48443D01*
X225150Y49067D01*
X224797Y49597D01*
X224267Y49950D01*
X223643Y50074D01*
D02*
G37*
G36*
X155300Y71727D02*
X154754Y71619D01*
X154291Y71309D01*
X153981Y70846D01*
X153873Y70300D01*
X153981Y69754D01*
X154178Y69459D01*
Y52900D01*
X154178Y52900D01*
X154264Y52471D01*
X154507Y52107D01*
X164007Y42607D01*
X164007Y42607D01*
X164371Y42364D01*
X164800Y42278D01*
X164800Y42278D01*
X189835D01*
X204107Y28007D01*
X204107Y28007D01*
X204471Y27764D01*
X204900Y27678D01*
X204900Y27678D01*
X273365D01*
X273365Y27678D01*
X273795Y27764D01*
X274159Y28007D01*
X281030Y34878D01*
X285916D01*
X286184Y34378D01*
X286136Y34308D01*
X287800D01*
Y33558D01*
X288550D01*
Y31894D01*
X289098Y32260D01*
X289496Y32855D01*
X289617Y33466D01*
X289889Y33615D01*
X290123Y33667D01*
X296584Y27207D01*
X296584Y27207D01*
X296948Y26964D01*
X297377Y26878D01*
X297377Y26878D01*
X312159D01*
X312454Y26681D01*
X313000Y26573D01*
X313546Y26681D01*
X314009Y26991D01*
X314319Y27454D01*
X314427Y28000D01*
X314319Y28546D01*
X314009Y29009D01*
X313546Y29319D01*
X313000Y29427D01*
X312454Y29319D01*
X312159Y29122D01*
X297841D01*
X290170Y36793D01*
X289806Y37036D01*
X289377Y37122D01*
X289377Y37122D01*
X281661D01*
X281470Y37584D01*
X282467Y38580D01*
X296270D01*
X302976Y31874D01*
X303081Y31346D01*
X303391Y30883D01*
X303854Y30574D01*
X304400Y30465D01*
X304946Y30574D01*
X305409Y30883D01*
X305719Y31346D01*
X305827Y31892D01*
X305719Y32439D01*
X305409Y32902D01*
X304946Y33211D01*
X304418Y33316D01*
X297413Y40321D01*
X297083Y40542D01*
X296692Y40620D01*
X283176D01*
X282985Y41082D01*
X284986Y43082D01*
X328629D01*
X328691Y42991D01*
X329154Y42681D01*
X329700Y42573D01*
X330246Y42681D01*
X330709Y42991D01*
X331019Y43454D01*
X331127Y44000D01*
X331019Y44546D01*
X330709Y45009D01*
X330246Y45319D01*
X329700Y45427D01*
X329154Y45319D01*
X328691Y45009D01*
X328629Y44918D01*
X284606D01*
X284255Y44848D01*
X283957Y44649D01*
X273326Y34018D01*
X207180D01*
X194249Y46949D01*
X193951Y47148D01*
X193600Y47218D01*
X170580D01*
X159318Y58480D01*
Y60629D01*
X159409Y60691D01*
X159719Y61154D01*
X159827Y61700D01*
X159719Y62246D01*
X159409Y62709D01*
X158946Y63019D01*
X158400Y63127D01*
X157854Y63019D01*
X157391Y62709D01*
X157081Y62246D01*
X156973Y61700D01*
X157081Y61154D01*
X157391Y60691D01*
X157482Y60629D01*
Y58100D01*
X157552Y57749D01*
X157751Y57451D01*
X162319Y52883D01*
X162188Y52308D01*
X161891Y52109D01*
X161581Y51646D01*
X161473Y51100D01*
X161581Y50554D01*
X161891Y50091D01*
X162354Y49781D01*
X162900Y49673D01*
X163440Y49780D01*
X168236Y44984D01*
X168045Y44522D01*
X165265D01*
X156422Y53365D01*
Y69459D01*
X156619Y69754D01*
X156727Y70300D01*
X156619Y70846D01*
X156309Y71309D01*
X155846Y71619D01*
X155300Y71727D01*
D02*
G37*
G36*
X269800Y44409D02*
X269254Y44301D01*
X268791Y43991D01*
X268481Y43528D01*
X268373Y42982D01*
X268481Y42436D01*
X268791Y41973D01*
X269254Y41663D01*
X269800Y41554D01*
X270346Y41663D01*
X270809Y41973D01*
X271119Y42436D01*
X271227Y42982D01*
X271119Y43528D01*
X270809Y43991D01*
X270346Y44301D01*
X269800Y44409D01*
D02*
G37*
G36*
X287050Y32807D02*
X286136D01*
X286502Y32260D01*
X287050Y31894D01*
Y32807D01*
D02*
G37*
G36*
X280950Y29906D02*
Y28993D01*
X281864D01*
X281498Y29540D01*
X280950Y29906D01*
D02*
G37*
G36*
X279450D02*
X278902Y29540D01*
X278536Y28993D01*
X279450D01*
Y29906D01*
D02*
G37*
G36*
X281864Y27492D02*
X280950D01*
Y26579D01*
X281498Y26945D01*
X281864Y27492D01*
D02*
G37*
G36*
X279450D02*
X278536D01*
X278902Y26945D01*
X279450Y26579D01*
Y27492D01*
D02*
G37*
G36*
X127050Y24490D02*
Y23350D01*
X128190D01*
X128184Y23380D01*
X127742Y24042D01*
X127080Y24484D01*
X127050Y24490D01*
D02*
G37*
G36*
X125550D02*
X125520Y24484D01*
X124858Y24042D01*
X124416Y23380D01*
X124410Y23350D01*
X125550D01*
Y24490D01*
D02*
G37*
G36*
X108350Y24390D02*
Y23250D01*
X109490D01*
X109484Y23280D01*
X109042Y23942D01*
X108380Y24384D01*
X108350Y24390D01*
D02*
G37*
G36*
X106850D02*
X106820Y24384D01*
X106158Y23942D01*
X105716Y23280D01*
X105710Y23250D01*
X106850D01*
Y24390D01*
D02*
G37*
G36*
X73150D02*
Y23250D01*
X74290D01*
X74284Y23280D01*
X73842Y23942D01*
X73180Y24384D01*
X73150Y24390D01*
D02*
G37*
G36*
X71650D02*
X71620Y24384D01*
X70958Y23942D01*
X70516Y23280D01*
X70510Y23250D01*
X71650D01*
Y24390D01*
D02*
G37*
G36*
X90250Y24290D02*
Y23150D01*
X91390D01*
X91384Y23180D01*
X90942Y23842D01*
X90280Y24284D01*
X90250Y24290D01*
D02*
G37*
G36*
X88750D02*
X88720Y24284D01*
X88058Y23842D01*
X87616Y23180D01*
X87610Y23150D01*
X88750D01*
Y24290D01*
D02*
G37*
G36*
X156150Y22890D02*
Y21750D01*
X157290D01*
X157284Y21780D01*
X156842Y22442D01*
X156180Y22884D01*
X156150Y22890D01*
D02*
G37*
G36*
X154650D02*
X154620Y22884D01*
X153958Y22442D01*
X153516Y21780D01*
X153510Y21750D01*
X154650D01*
Y22890D01*
D02*
G37*
G36*
X128190Y21850D02*
X127050D01*
Y20710D01*
X127080Y20716D01*
X127742Y21158D01*
X128184Y21820D01*
X128190Y21850D01*
D02*
G37*
G36*
X125550D02*
X124410D01*
X124416Y21820D01*
X124858Y21158D01*
X125520Y20716D01*
X125550Y20710D01*
Y21850D01*
D02*
G37*
G36*
X109490Y21750D02*
X108350D01*
Y20610D01*
X108380Y20616D01*
X109042Y21058D01*
X109484Y21720D01*
X109490Y21750D01*
D02*
G37*
G36*
X106850D02*
X105710D01*
X105716Y21720D01*
X106158Y21058D01*
X106820Y20616D01*
X106850Y20610D01*
Y21750D01*
D02*
G37*
G36*
X74290D02*
X73150D01*
Y20610D01*
X73180Y20616D01*
X73842Y21058D01*
X74284Y21720D01*
X74290Y21750D01*
D02*
G37*
G36*
X71650D02*
X70510D01*
X70516Y21720D01*
X70958Y21058D01*
X71620Y20616D01*
X71650Y20610D01*
Y21750D01*
D02*
G37*
G36*
X91390Y21650D02*
X90250D01*
Y20510D01*
X90280Y20516D01*
X90942Y20958D01*
X91384Y21620D01*
X91390Y21650D01*
D02*
G37*
G36*
X88750D02*
X87610D01*
X87616Y21620D01*
X88058Y20958D01*
X88720Y20516D01*
X88750Y20510D01*
Y21650D01*
D02*
G37*
G36*
X157290Y20250D02*
X156150D01*
Y19110D01*
X156180Y19116D01*
X156842Y19558D01*
X157284Y20220D01*
X157290Y20250D01*
D02*
G37*
G36*
X154650D02*
X153510D01*
X153516Y20220D01*
X153958Y19558D01*
X154620Y19116D01*
X154650Y19110D01*
Y20250D01*
D02*
G37*
G36*
X150050Y17903D02*
Y16763D01*
X151190D01*
X151184Y16794D01*
X150742Y17455D01*
X150080Y17897D01*
X150050Y17903D01*
D02*
G37*
G36*
X148550D02*
X148520Y17897D01*
X147858Y17455D01*
X147416Y16794D01*
X147410Y16763D01*
X148550D01*
Y17903D01*
D02*
G37*
G36*
X135950Y17890D02*
Y16750D01*
X137090D01*
X137084Y16780D01*
X136642Y17442D01*
X135980Y17884D01*
X135950Y17890D01*
D02*
G37*
G36*
X134450D02*
X134420Y17884D01*
X133758Y17442D01*
X133316Y16780D01*
X133310Y16750D01*
X134450D01*
Y17890D01*
D02*
G37*
G36*
X165900Y17590D02*
Y16450D01*
X167040D01*
X167034Y16480D01*
X166592Y17142D01*
X165930Y17584D01*
X165900Y17590D01*
D02*
G37*
G36*
X164400D02*
X164370Y17584D01*
X163708Y17142D01*
X163266Y16480D01*
X163260Y16450D01*
X164400D01*
Y17590D01*
D02*
G37*
G36*
X72850Y16833D02*
Y14152D01*
X75532D01*
X75510Y14315D01*
X75157Y15167D01*
X74596Y15898D01*
X73865Y16459D01*
X73014Y16812D01*
X72850Y16833D01*
D02*
G37*
G36*
X71350D02*
X71186Y16812D01*
X70335Y16459D01*
X69604Y15898D01*
X69043Y15167D01*
X68690Y14315D01*
X68669Y14152D01*
X71350D01*
Y16833D01*
D02*
G37*
G36*
X107950Y16831D02*
Y14150D01*
X110632D01*
X110610Y14314D01*
X110257Y15165D01*
X109696Y15896D01*
X108965Y16457D01*
X108114Y16810D01*
X107950Y16831D01*
D02*
G37*
G36*
X106450D02*
X106286Y16810D01*
X105435Y16457D01*
X104704Y15896D01*
X104143Y15165D01*
X103790Y14314D01*
X103769Y14150D01*
X106450D01*
Y16831D01*
D02*
G37*
G36*
X151190Y15263D02*
X150050D01*
Y14123D01*
X150080Y14129D01*
X150742Y14571D01*
X151184Y15233D01*
X151190Y15263D01*
D02*
G37*
G36*
X148550D02*
X147410D01*
X147416Y15233D01*
X147858Y14571D01*
X148520Y14129D01*
X148550Y14123D01*
Y15263D01*
D02*
G37*
G36*
X137090Y15250D02*
X135950D01*
Y14110D01*
X135980Y14116D01*
X136642Y14558D01*
X137084Y15220D01*
X137090Y15250D01*
D02*
G37*
G36*
X134450D02*
X133310D01*
X133316Y15220D01*
X133758Y14558D01*
X134420Y14116D01*
X134450Y14110D01*
Y15250D01*
D02*
G37*
G36*
X126750Y16732D02*
Y14050D01*
X129431D01*
X129410Y14214D01*
X129057Y15065D01*
X128496Y15796D01*
X127765Y16357D01*
X126914Y16710D01*
X126750Y16732D01*
D02*
G37*
G36*
X125250D02*
X125086Y16710D01*
X124235Y16357D01*
X123504Y15796D01*
X122943Y15065D01*
X122590Y14214D01*
X122569Y14050D01*
X125250D01*
Y16732D01*
D02*
G37*
G36*
X90550D02*
Y14050D01*
X93231D01*
X93210Y14214D01*
X92857Y15065D01*
X92296Y15796D01*
X91565Y16357D01*
X90714Y16710D01*
X90550Y16732D01*
D02*
G37*
G36*
X89050D02*
X88886Y16710D01*
X88035Y16357D01*
X87304Y15796D01*
X86743Y15065D01*
X86390Y14214D01*
X86369Y14050D01*
X89050D01*
Y16732D01*
D02*
G37*
G36*
X167040Y14950D02*
X165900D01*
Y13810D01*
X165930Y13816D01*
X166592Y14258D01*
X167034Y14920D01*
X167040Y14950D01*
D02*
G37*
G36*
X164400D02*
X163260D01*
X163266Y14920D01*
X163708Y14258D01*
X164370Y13816D01*
X164400Y13810D01*
Y14950D01*
D02*
G37*
G36*
X75532Y12652D02*
X72850D01*
Y9970D01*
X73014Y9992D01*
X73865Y10344D01*
X74596Y10905D01*
X75157Y11637D01*
X75510Y12488D01*
X75532Y12652D01*
D02*
G37*
G36*
X71350D02*
X68669D01*
X68690Y12488D01*
X69043Y11637D01*
X69604Y10905D01*
X70335Y10344D01*
X71186Y9992D01*
X71350Y9970D01*
Y12652D01*
D02*
G37*
G36*
X110632Y12650D02*
X107950D01*
Y9968D01*
X108114Y9990D01*
X108965Y10343D01*
X109696Y10904D01*
X110257Y11635D01*
X110610Y12486D01*
X110632Y12650D01*
D02*
G37*
G36*
X106450D02*
X103769D01*
X103790Y12486D01*
X104143Y11635D01*
X104704Y10904D01*
X105435Y10343D01*
X106286Y9990D01*
X106450Y9968D01*
Y12650D01*
D02*
G37*
G36*
X129431Y12550D02*
X126750D01*
Y9868D01*
X126914Y9890D01*
X127765Y10243D01*
X128496Y10804D01*
X129057Y11535D01*
X129410Y12386D01*
X129431Y12550D01*
D02*
G37*
G36*
X125250D02*
X122569D01*
X122590Y12386D01*
X122943Y11535D01*
X123504Y10804D01*
X124235Y10243D01*
X125086Y9890D01*
X125250Y9868D01*
Y12550D01*
D02*
G37*
G36*
X93231D02*
X90550D01*
Y9868D01*
X90714Y9890D01*
X91565Y10243D01*
X92296Y10804D01*
X92857Y11535D01*
X93210Y12386D01*
X93231Y12550D01*
D02*
G37*
G36*
X89050D02*
X86369D01*
X86390Y12386D01*
X86743Y11535D01*
X87304Y10804D01*
X88035Y10243D01*
X88886Y9890D01*
X89050Y9868D01*
Y12550D01*
D02*
G37*
G36*
X156550Y10890D02*
Y9750D01*
X157690D01*
X157684Y9780D01*
X157242Y10442D01*
X156580Y10884D01*
X156550Y10890D01*
D02*
G37*
G36*
X155050D02*
X155020Y10884D01*
X154358Y10442D01*
X153916Y9780D01*
X153910Y9750D01*
X155050D01*
Y10890D01*
D02*
G37*
G36*
X157690Y8250D02*
X156550D01*
Y7110D01*
X156580Y7116D01*
X157242Y7558D01*
X157684Y8220D01*
X157690Y8250D01*
D02*
G37*
G36*
X155050D02*
X153910D01*
X153916Y8220D01*
X154358Y7558D01*
X155020Y7116D01*
X155050Y7110D01*
Y8250D01*
D02*
G37*
G36*
X108050Y8190D02*
Y7050D01*
X109190D01*
X109184Y7080D01*
X108742Y7742D01*
X108080Y8184D01*
X108050Y8190D01*
D02*
G37*
G36*
X106550D02*
X106520Y8184D01*
X105858Y7742D01*
X105416Y7080D01*
X105410Y7050D01*
X106550D01*
Y8190D01*
D02*
G37*
G36*
X90350D02*
Y7050D01*
X91490D01*
X91484Y7080D01*
X91042Y7742D01*
X90380Y8184D01*
X90350Y8190D01*
D02*
G37*
G36*
X88850D02*
X88820Y8184D01*
X88158Y7742D01*
X87716Y7080D01*
X87710Y7050D01*
X88850D01*
Y8190D01*
D02*
G37*
G36*
X143350Y8090D02*
Y6950D01*
X144490D01*
X144484Y6980D01*
X144042Y7642D01*
X143380Y8084D01*
X143350Y8090D01*
D02*
G37*
G36*
X141850D02*
X141820Y8084D01*
X141158Y7642D01*
X140716Y6980D01*
X140710Y6950D01*
X141850D01*
Y8090D01*
D02*
G37*
G36*
X126850D02*
Y6950D01*
X127990D01*
X127984Y6980D01*
X127542Y7642D01*
X126880Y8084D01*
X126850Y8090D01*
D02*
G37*
G36*
X125350D02*
X125320Y8084D01*
X124658Y7642D01*
X124216Y6980D01*
X124210Y6950D01*
X125350D01*
Y8090D01*
D02*
G37*
G36*
X72750Y7990D02*
Y6850D01*
X73890D01*
X73884Y6880D01*
X73442Y7542D01*
X72780Y7984D01*
X72750Y7990D01*
D02*
G37*
G36*
X71250D02*
X71220Y7984D01*
X70558Y7542D01*
X70116Y6880D01*
X70110Y6850D01*
X71250D01*
Y7990D01*
D02*
G37*
G36*
X165850Y7890D02*
Y6750D01*
X166990D01*
X166984Y6780D01*
X166542Y7442D01*
X165880Y7884D01*
X165850Y7890D01*
D02*
G37*
G36*
X164350D02*
X164320Y7884D01*
X163658Y7442D01*
X163216Y6780D01*
X163210Y6750D01*
X164350D01*
Y7890D01*
D02*
G37*
G36*
X273450Y8977D02*
X272904Y8869D01*
X272441Y8559D01*
X272131Y8096D01*
X272023Y7550D01*
X272131Y7004D01*
X272441Y6541D01*
X272904Y6231D01*
X273450Y6123D01*
X273996Y6231D01*
X274459Y6541D01*
X274769Y7004D01*
X274877Y7550D01*
X274769Y8096D01*
X274459Y8559D01*
X273996Y8869D01*
X273450Y8977D01*
D02*
G37*
G36*
X39370Y18348D02*
X38095Y18222D01*
X36869Y17850D01*
X35738Y17246D01*
X34748Y16433D01*
X33935Y15443D01*
X33331Y14313D01*
X32959Y13086D01*
X32833Y11811D01*
X32959Y10536D01*
X33331Y9309D01*
X33935Y8179D01*
X34748Y7189D01*
X35738Y6376D01*
X36869Y5772D01*
X38095Y5400D01*
X39370Y5274D01*
X40645Y5400D01*
X41872Y5772D01*
X43002Y6376D01*
X43992Y7189D01*
X44805Y8179D01*
X45410Y9309D01*
X45781Y10536D01*
X45907Y11811D01*
X45781Y13086D01*
X45410Y14313D01*
X44805Y15443D01*
X43992Y16433D01*
X43002Y17246D01*
X41872Y17850D01*
X40645Y18222D01*
X39370Y18348D01*
D02*
G37*
G36*
X109190Y5550D02*
X108050D01*
Y4410D01*
X108080Y4416D01*
X108742Y4858D01*
X109184Y5520D01*
X109190Y5550D01*
D02*
G37*
G36*
X106550D02*
X105410D01*
X105416Y5520D01*
X105858Y4858D01*
X106520Y4416D01*
X106550Y4410D01*
Y5550D01*
D02*
G37*
G36*
X91490D02*
X90350D01*
Y4410D01*
X90380Y4416D01*
X91042Y4858D01*
X91484Y5520D01*
X91490Y5550D01*
D02*
G37*
G36*
X88850D02*
X87710D01*
X87716Y5520D01*
X88158Y4858D01*
X88820Y4416D01*
X88850Y4410D01*
Y5550D01*
D02*
G37*
G36*
X144490Y5450D02*
X143350D01*
Y4310D01*
X143380Y4316D01*
X144042Y4758D01*
X144484Y5420D01*
X144490Y5450D01*
D02*
G37*
G36*
X141850D02*
X140710D01*
X140716Y5420D01*
X141158Y4758D01*
X141820Y4316D01*
X141850Y4310D01*
Y5450D01*
D02*
G37*
G36*
X127990D02*
X126850D01*
Y4310D01*
X126880Y4316D01*
X127542Y4758D01*
X127984Y5420D01*
X127990Y5450D01*
D02*
G37*
G36*
X125350D02*
X124210D01*
X124216Y5420D01*
X124658Y4758D01*
X125320Y4316D01*
X125350Y4310D01*
Y5450D01*
D02*
G37*
G36*
X73890Y5350D02*
X72750D01*
Y4210D01*
X72780Y4216D01*
X73442Y4658D01*
X73884Y5320D01*
X73890Y5350D01*
D02*
G37*
G36*
X71250D02*
X70110D01*
X70116Y5320D01*
X70558Y4658D01*
X71220Y4216D01*
X71250Y4210D01*
Y5350D01*
D02*
G37*
G36*
X166990Y5250D02*
X165850D01*
Y4110D01*
X165880Y4116D01*
X166542Y4558D01*
X166984Y5220D01*
X166990Y5250D01*
D02*
G37*
G36*
X164350D02*
X163210D01*
X163216Y5220D01*
X163658Y4558D01*
X164320Y4116D01*
X164350Y4110D01*
Y5250D01*
D02*
G37*
%LPD*%
G36*
X143037Y194180D02*
X142845Y193718D01*
X133584D01*
X113153Y214149D01*
X112855Y214348D01*
X112504Y214418D01*
X111715D01*
X111666Y214918D01*
X112102Y215004D01*
X112698Y215402D01*
X113064Y215950D01*
X109736D01*
X110102Y215402D01*
X110698Y215004D01*
X111134Y214918D01*
X111085Y214418D01*
X102615D01*
X102566Y214918D01*
X103002Y215004D01*
X103598Y215402D01*
X103964Y215950D01*
X100636D01*
X101002Y215402D01*
X101598Y215004D01*
X102034Y214918D01*
X101985Y214418D01*
X85080D01*
X84406Y215092D01*
X84427Y215200D01*
X84319Y215746D01*
X84009Y216209D01*
X83546Y216519D01*
X83000Y216627D01*
X82454Y216519D01*
X81991Y216209D01*
X81681Y215746D01*
X81573Y215200D01*
X81681Y214654D01*
X81991Y214191D01*
X82454Y213881D01*
X82741Y213824D01*
X82811Y213718D01*
X82539Y213218D01*
X72179D01*
X68376Y217020D01*
X68567Y217482D01*
X100111D01*
X100137Y217450D01*
X104463D01*
X104489Y217482D01*
X109211D01*
X109237Y217450D01*
X113563D01*
X113589Y217482D01*
X119734D01*
X143037Y194180D01*
D02*
G37*
G36*
X49490Y220751D02*
X49788Y220552D01*
X50139Y220482D01*
X55197D01*
X55265Y220400D01*
X55404Y219698D01*
X55802Y219102D01*
X56350Y218736D01*
Y220400D01*
X57100D01*
Y221150D01*
X59263D01*
X59289Y221182D01*
X61619D01*
X70683Y212118D01*
X70476Y211618D01*
X52780D01*
X38918Y225480D01*
Y226429D01*
X39009Y226491D01*
X39319Y226954D01*
X39427Y227500D01*
X39319Y228046D01*
X39094Y228382D01*
X39255Y228808D01*
X39316Y228882D01*
X41359D01*
X49490Y220751D01*
D02*
G37*
G36*
X106996Y185606D02*
X106832Y185063D01*
X106398Y184977D01*
X105802Y184579D01*
X105436Y184031D01*
X107100D01*
Y183282D01*
X107850D01*
Y181618D01*
X108398Y181984D01*
X108796Y182579D01*
X108882Y183013D01*
X109424Y183178D01*
X109782Y182820D01*
Y178871D01*
X109691Y178809D01*
X109381Y178346D01*
X109359Y178234D01*
X108816Y178070D01*
X98687Y188199D01*
X98878Y188661D01*
X103941D01*
X106996Y185606D01*
D02*
G37*
G36*
X213694Y166808D02*
X213673Y166700D01*
X213729Y166418D01*
X213383Y165918D01*
X196400D01*
X196049Y165848D01*
X195751Y165649D01*
X193772Y163669D01*
X193234Y163810D01*
X193196Y164002D01*
X192798Y164598D01*
X192250Y164964D01*
Y163300D01*
X191500D01*
Y162550D01*
X189836D01*
X190202Y162002D01*
X190778Y161618D01*
X190785Y161580D01*
X190658Y161118D01*
X185101D01*
X184959Y161469D01*
X184927Y161618D01*
X185219Y162054D01*
X185327Y162600D01*
X185219Y163146D01*
X184909Y163609D01*
X184446Y163919D01*
X183900Y164027D01*
X183354Y163919D01*
X182891Y163609D01*
X182829Y163518D01*
X175204D01*
X174896Y163456D01*
X174819Y163846D01*
X174509Y164309D01*
X174046Y164619D01*
X173500Y164727D01*
X173332Y164694D01*
X173251Y164748D01*
X172900Y164818D01*
X158841D01*
X158527Y165200D01*
X158419Y165746D01*
X158340Y165865D01*
X158571Y166419D01*
X158748Y166454D01*
X158951Y166251D01*
X159249Y166052D01*
X159600Y165982D01*
X174729D01*
X174791Y165891D01*
X175254Y165581D01*
X175800Y165473D01*
X176346Y165581D01*
X176809Y165891D01*
X177119Y166354D01*
X177227Y166900D01*
X177119Y167446D01*
X176809Y167909D01*
X176346Y168219D01*
X175800Y168327D01*
X175254Y168219D01*
X174791Y167909D01*
X174729Y167818D01*
X163916D01*
X163764Y168318D01*
X163794Y168338D01*
X164314Y169115D01*
X164423Y169664D01*
X164551Y170032D01*
X164968Y170035D01*
X210467D01*
X213694Y166808D01*
D02*
G37*
%LPC*%
G36*
X58764Y219650D02*
X57850D01*
Y218736D01*
X58398Y219102D01*
X58764Y219650D01*
D02*
G37*
G36*
X57896Y216764D02*
Y215850D01*
X58810D01*
X58444Y216398D01*
X57896Y216764D01*
D02*
G37*
G36*
X56396D02*
X55848Y216398D01*
X55482Y215850D01*
X56396D01*
Y216764D01*
D02*
G37*
G36*
X58810Y214350D02*
X57896D01*
Y213436D01*
X58444Y213802D01*
X58810Y214350D01*
D02*
G37*
G36*
X56396D02*
X55482D01*
X55848Y213802D01*
X56396Y213436D01*
Y214350D01*
D02*
G37*
G36*
X106350Y182531D02*
X105436D01*
X105802Y181984D01*
X106350Y181618D01*
Y182531D01*
D02*
G37*
G36*
X190750Y164964D02*
X190202Y164598D01*
X189836Y164050D01*
X190750D01*
Y164964D01*
D02*
G37*
%LPD*%
G36*
X227090Y148003D02*
X229253D01*
Y146503D01*
X227152D01*
X227088Y146422D01*
X184532D01*
X184000Y146527D01*
X183454Y146419D01*
X182991Y146109D01*
X182681Y145646D01*
X182573Y145100D01*
X182681Y144554D01*
X182991Y144091D01*
X183454Y143781D01*
X184000Y143673D01*
X184546Y143781D01*
X185009Y144091D01*
X185068Y144178D01*
X218402D01*
X218670Y143678D01*
X218581Y143546D01*
X218473Y143000D01*
X218581Y142454D01*
X218891Y141991D01*
X219354Y141681D01*
X219398Y141672D01*
X219628Y141117D01*
X219581Y141046D01*
X219473Y140500D01*
X219581Y139954D01*
X219891Y139491D01*
X220354Y139181D01*
X220900Y139073D01*
X221446Y139181D01*
X221909Y139491D01*
X222104Y139782D01*
X222883D01*
X223229Y139282D01*
X223173Y139000D01*
X223269Y138518D01*
X223196Y138294D01*
X223048Y138018D01*
X222271D01*
X222209Y138109D01*
X221746Y138419D01*
X221200Y138527D01*
X220654Y138419D01*
X220191Y138109D01*
X219881Y137646D01*
X219773Y137100D01*
X219881Y136554D01*
X220191Y136091D01*
X220654Y135781D01*
X221200Y135673D01*
X221363Y135705D01*
X221789Y135280D01*
X221773Y135200D01*
X221881Y134654D01*
X222099Y134327D01*
X221924Y133881D01*
X221878Y133827D01*
X220798D01*
X220609Y134109D01*
X220146Y134419D01*
X219600Y134527D01*
X219054Y134419D01*
X218591Y134109D01*
X218281Y133646D01*
X218173Y133100D01*
X218281Y132554D01*
X218439Y132318D01*
X218172Y131818D01*
X216381D01*
X212950Y135249D01*
X212652Y135448D01*
X212301Y135518D01*
X182200D01*
X181849Y135448D01*
X181827Y135433D01*
X181226Y135554D01*
X181186Y135591D01*
X181080Y135802D01*
X181126Y135935D01*
X181209Y135991D01*
X181519Y136454D01*
X181627Y137000D01*
X181552Y137378D01*
X181852Y137878D01*
X203459D01*
X203754Y137681D01*
X204300Y137573D01*
X204846Y137681D01*
X205309Y137991D01*
X205619Y138454D01*
X205727Y139000D01*
X205619Y139546D01*
X205309Y140009D01*
X204846Y140319D01*
X204300Y140427D01*
X203754Y140319D01*
X203459Y140122D01*
X177319D01*
X176972Y140622D01*
X177027Y140900D01*
X177006Y141008D01*
X184033Y148035D01*
X227063D01*
X227090Y148003D01*
D02*
G37*
G36*
X233751Y128551D02*
X233951Y128418D01*
X233866Y127918D01*
X230941D01*
X230842Y128050D01*
X226777D01*
X226679Y127918D01*
X218584D01*
X216981Y129520D01*
X217173Y129982D01*
X226856D01*
X227119Y129571D01*
X227117Y129550D01*
X230503D01*
X230500Y129571D01*
X230764Y129982D01*
X232320D01*
X233751Y128551D01*
D02*
G37*
G36*
X220826Y113576D02*
X221123Y113378D01*
X221475Y113308D01*
X226469D01*
X226634Y113040D01*
X230385D01*
X230550Y113308D01*
X244203D01*
X244383Y113011D01*
X244420Y112818D01*
X242720Y111118D01*
X230467D01*
X230211Y111530D01*
X230211Y111540D01*
X226809D01*
X226809Y111530D01*
X226552Y111118D01*
X220280D01*
X217167Y114230D01*
X217374Y114730D01*
X219672D01*
X220826Y113576D01*
D02*
G37*
G36*
X187435Y115278D02*
X187165Y115225D01*
X186702Y114915D01*
X186393Y114452D01*
X186284Y113906D01*
X186361Y113520D01*
X186119Y113112D01*
X185754Y113116D01*
X185531Y113475D01*
X183775D01*
Y114975D01*
X185438D01*
X185236Y115278D01*
X185503Y115778D01*
X187385D01*
X187435Y115278D01*
D02*
G37*
%LPC*%
G36*
X353250Y234115D02*
Y233201D01*
X354164D01*
X353798Y233749D01*
X353250Y234115D01*
D02*
G37*
%LPD*%
D10*
X83771Y198700D02*
X83900D01*
X79971Y194900D02*
X83771Y198700D01*
X38800Y194900D02*
X79971D01*
X29500Y204200D02*
X38800Y194900D01*
X172073Y140900D02*
X173973Y139000D01*
X204300D01*
X165387Y140900D02*
X172073D01*
X165287Y141000D02*
X165387Y140900D01*
X163587Y141000D02*
X165287D01*
X161687Y139100D02*
X163587Y141000D01*
X84100Y139100D02*
X161687D01*
X81200Y142000D02*
X84100Y139100D01*
X45400Y142000D02*
X81200D01*
X85177Y108677D02*
Y119023D01*
X184200Y145300D02*
X272400D01*
X184000Y145100D02*
X184200Y145300D01*
X337800Y186200D02*
X344100Y192500D01*
X272300Y186200D02*
X337800D01*
X183687Y116900D02*
X188400D01*
X182887Y117700D02*
X183687Y116900D01*
X181313Y117700D02*
X182887D01*
X188400Y116900D02*
X189800Y118300D01*
X180513Y116900D02*
X181313Y117700D01*
X157700Y116900D02*
X180513D01*
X164800Y43400D02*
X190300D01*
X204900Y28800D01*
X155300Y52900D02*
X164800Y43400D01*
X273365Y28800D02*
X280566Y36000D01*
X204900Y28800D02*
X273365D01*
X280566Y36000D02*
X289377D01*
X155300Y52900D02*
Y70300D01*
X289377Y36000D02*
X297377Y28000D01*
X313000D01*
X41800Y249600D02*
X48200D01*
X37300Y245100D02*
X41800Y249600D01*
X37300Y241800D02*
Y245100D01*
X44600Y68800D02*
X49100D01*
X49700Y68200D01*
Y62900D02*
Y68200D01*
Y62900D02*
X51800Y60800D01*
X56000D01*
X57700Y62500D01*
X67969D01*
X85177Y119023D02*
X85200Y119000D01*
D11*
X52400Y210700D02*
X76586D01*
X97707Y189579D01*
X112504Y213500D02*
X133204Y192800D01*
X84700Y213500D02*
X112504D01*
X83000Y215200D02*
X84700Y213500D01*
X111300Y212300D02*
X129900Y193700D01*
X71799Y212300D02*
X111300D01*
X61999Y222100D02*
X71799Y212300D01*
X38000Y225100D02*
X52400Y210700D01*
X38000Y225100D02*
Y227500D01*
X76088Y209500D02*
X109488Y176100D01*
X49577Y209500D02*
X76088D01*
X33800Y225277D02*
X49577Y209500D01*
X110700Y177800D02*
Y183200D01*
X104321Y189579D02*
X110700Y183200D01*
X97707Y189579D02*
X104321D01*
X133204Y192800D02*
X177004D01*
X183404Y186400D01*
X195863D01*
X197233Y187771D01*
X205971D01*
X212800Y194600D01*
X144514Y194000D02*
X204100D01*
X120114Y218400D02*
X144514Y194000D01*
X67396Y218400D02*
X120114D01*
X62496Y223300D02*
X67396Y218400D01*
X55899Y223300D02*
X62496D01*
X55699Y223100D02*
X55899Y223300D01*
X52800Y223100D02*
X55699D01*
X56396Y222100D02*
X61999D01*
X55696Y221400D02*
X56396Y222100D01*
X50139Y221400D02*
X55696D01*
X41739Y229800D02*
X50139Y221400D01*
X66119Y222081D02*
X124319D01*
X143400Y203000D01*
X201600D01*
X209500Y195100D01*
X35500Y229800D02*
X41739D01*
X207809Y176291D02*
X208000Y176100D01*
X207809Y176291D02*
Y177576D01*
X202984Y182400D02*
X207809Y177576D01*
X139396Y182400D02*
X202984D01*
X133096Y176100D02*
X139396Y182400D01*
X109488Y176100D02*
X133096D01*
X221200Y137100D02*
X227199D01*
X224600Y139000D02*
X257700D01*
X220900Y140500D02*
X221100Y140700D01*
X219900Y143000D02*
X220800Y143900D01*
X223900Y135900D02*
X227696D01*
X223200Y135200D02*
X223900Y135900D01*
X221100Y140700D02*
X228396D01*
X227608Y137510D02*
X250590D01*
X227199Y137100D02*
X227608Y137510D01*
X219790Y132910D02*
X253311D01*
X219600Y133100D02*
X219790Y132910D01*
X216001Y130900D02*
X232700D01*
X164396Y139100D02*
X164500D01*
X164600Y136900D02*
X164700Y137000D01*
X166000Y135200D02*
X166011D01*
X163400Y132900D02*
X164000Y133500D01*
X159996Y134700D02*
X164396Y139100D01*
X221000Y154500D02*
X255600D01*
X221000Y156500D02*
X252800D01*
X219796Y158700D02*
X230500D01*
X268100Y171300D02*
X273897Y165503D01*
X261500Y171300D02*
X268100D01*
X250400Y160200D02*
X261500Y171300D01*
X184000Y160200D02*
X250400D01*
X260400Y174300D02*
X353800D01*
X249900Y163800D02*
X260400Y174300D01*
X202900Y163800D02*
X249900D01*
X218200Y166600D02*
X247600D01*
X353800Y174300D02*
X362200Y165900D01*
X252800Y156500D02*
X265400Y169100D01*
X221000Y154300D02*
Y154500D01*
X220500Y157000D02*
X221000Y156500D01*
X220800Y143900D02*
X230153D01*
X230953Y143100D01*
X228596Y140500D02*
X251700D01*
X252300Y141100D01*
X228396Y140700D02*
X228596Y140500D01*
X230953Y143100D02*
X256200D01*
X183653Y148953D02*
X229957D01*
X175600Y140900D02*
X183653Y148953D01*
X230710Y148200D02*
X260000D01*
X229957Y148953D02*
X230710Y148200D01*
X301400Y237600D02*
X319000D01*
X301300Y237700D02*
X301400Y237600D01*
X197400Y158000D02*
X197600Y158200D01*
X219296D01*
X219796Y158700D01*
X230500D02*
X231000Y158200D01*
X193500Y162100D02*
X196400Y165000D01*
X216600D01*
X218200Y166600D01*
X252100Y214500D02*
X272300Y194300D01*
X180800Y214500D02*
X252100D01*
X272300Y194300D02*
X335200D01*
X171000Y204700D02*
X180800Y214500D01*
X168147Y172153D02*
X212053D01*
X164927Y170953D02*
X210847D01*
X192096Y179300D02*
X201100D01*
X205800Y174600D01*
X181804Y131396D02*
X183592D01*
X185596Y133400D01*
X211804D01*
X182200Y134600D02*
X212301D01*
X179400Y131800D02*
X182200Y134600D01*
X212301D02*
X216001Y130900D01*
X211804Y133400D02*
X218204Y127000D01*
X237300D01*
X238600Y128300D01*
X232700Y130900D02*
X234400Y129200D01*
X236400D01*
X164700Y137000D02*
X180200D01*
X165600Y134800D02*
X166000Y135200D01*
X165600Y134800D02*
X179600D01*
X182200Y158400D02*
X184000Y160200D01*
X273897Y165503D02*
X281600D01*
X227696Y135900D02*
X228105Y136310D01*
X229514D01*
X231714Y134110D01*
X252814D01*
X250590Y137510D02*
X252200Y135900D01*
X252814Y134110D02*
X253900Y135196D01*
Y136604D01*
X253311Y132910D02*
X256301Y135900D01*
X269596D01*
X253900Y136604D02*
X254396Y137100D01*
X257497D01*
X259197Y138800D01*
X277900D01*
X281800Y134900D01*
X300200D01*
X270196Y136500D02*
X275600D01*
X269596Y135900D02*
X270196Y136500D01*
X275600D02*
X275700Y136400D01*
X201558Y162458D02*
X202900Y163800D01*
X257700Y139000D02*
X259700Y141000D01*
X304600D01*
X322200Y158600D01*
X355100D01*
X357800Y155900D01*
X360400D01*
X150300Y132900D02*
X163400D01*
X145000Y204700D02*
X171000D01*
X259800Y132300D02*
X304400D01*
X243300Y115800D02*
X259800Y132300D01*
X260000Y129900D02*
X304600D01*
X244325Y114225D02*
X260000Y129900D01*
X304400Y132300D02*
X322600Y150500D01*
Y152400D01*
X322500Y152500D02*
X322600Y152400D01*
X221475Y114225D02*
X244325D01*
X220052Y115648D02*
X221475Y114225D01*
X214600Y128200D02*
X217900Y124900D01*
X250703D01*
X259303Y133500D01*
X269600D01*
X270900Y134800D01*
X303600Y249500D02*
X305800D01*
X317000Y260700D01*
X120800Y134700D02*
X159996D01*
X155104Y161000D02*
X164407D01*
X166211Y161600D02*
X174204D01*
X165111Y162700D02*
X166211Y161600D01*
X158701Y162700D02*
X165111D01*
X158301Y162300D02*
X158701Y162700D01*
X154600Y162300D02*
X158301D01*
X158204Y163900D02*
X172900D01*
X157804Y163500D02*
X158204Y163900D01*
X156396Y163500D02*
X157804D01*
X155596Y164300D02*
X156396Y163500D01*
X154600Y167600D02*
X158900D01*
X155701Y168800D02*
X159583Y172682D01*
X148616Y168800D02*
X155701D01*
X167600Y283700D02*
X171100Y287200D01*
X183000D01*
X186100Y284100D01*
X309600D01*
X188100Y188100D02*
X194400D01*
X194500Y265300D02*
X204000Y274800D01*
X340300D01*
X175204Y162600D02*
X183900D01*
X174204Y161600D02*
X175204Y162600D01*
X186000Y191100D02*
X194300D01*
X186000D02*
X186100Y191200D01*
X198100Y272700D02*
X206300Y280900D01*
X319500D01*
X350000Y231700D02*
Y239800D01*
Y231700D02*
X355700Y226000D01*
X362300D01*
X365849Y222451D01*
X186100Y131700D02*
X186300D01*
X181200Y126800D02*
X186100Y131700D01*
X159600Y166900D02*
X175800D01*
X305400Y127400D02*
X328000Y150000D01*
X260300Y127400D02*
X305400D01*
X243100Y110200D02*
X260300Y127400D01*
X339300Y127861D02*
Y143200D01*
X334961Y123522D02*
X339300Y127861D01*
X337500Y145000D02*
X339300Y143200D01*
X219900Y110200D02*
X243100D01*
X216300Y113800D02*
X219900Y110200D01*
X199700Y113800D02*
X216300D01*
X222000Y115800D02*
X243300D01*
X220100Y117700D02*
X222000Y115800D01*
X203600Y115648D02*
X220052D01*
X304600Y129900D02*
X325300Y150600D01*
X201409Y117700D02*
X220100D01*
X186567Y178975D02*
X191770D01*
X185842Y179700D02*
X186567Y178975D01*
X191770D02*
X192096Y179300D01*
X187100Y177775D02*
X192625D01*
X192800Y177600D01*
X139100Y179700D02*
X185842D01*
X184225Y174900D02*
X187100Y177775D01*
X161900Y174900D02*
X184225D01*
X212053Y172153D02*
X212500Y172600D01*
X167600Y172700D02*
X168147Y172153D01*
X163198Y172682D02*
X164927Y170953D01*
X210847D02*
X215100Y166700D01*
X171500Y218400D02*
X173000Y216900D01*
X138100Y218400D02*
X171500D01*
X141500Y130900D02*
X141600Y131000D01*
X165401D01*
X247900Y98300D02*
X311800D01*
X242900Y103300D02*
X247900Y98300D01*
X159583Y172682D02*
X163198D01*
X143198Y163382D02*
X148616Y168800D01*
X141002Y163382D02*
X143198D01*
X139184Y165200D02*
X141002Y163382D01*
X95300Y165200D02*
X139184D01*
X151478Y162182D02*
X153596Y164300D01*
X135182Y162182D02*
X151478D01*
X131400Y158400D02*
X135182Y162182D01*
X134304Y171200D02*
X141604Y178500D01*
X180800D01*
X106100Y126800D02*
X181200D01*
X107600Y150000D02*
X112500Y154900D01*
X99800Y150000D02*
X107600D01*
X166200Y150900D02*
X176300D01*
X163900Y148600D02*
X166200Y150900D01*
X155203Y148600D02*
X163900D01*
X154447Y149356D02*
X155203Y148600D01*
X151344Y149356D02*
X154447D01*
X163100Y149800D02*
X165900Y152600D01*
X155700Y149800D02*
X163100D01*
X152900Y152600D02*
X155700Y149800D01*
X149800Y150900D02*
X151344Y149356D01*
X137100Y152600D02*
X152900D01*
X134400Y149900D02*
X137100Y152600D01*
X134400Y173700D02*
X136100Y175400D01*
X87896Y171200D02*
X134304D01*
X101105Y173700D02*
X134400D01*
X138600Y179200D02*
X139100Y179700D01*
X148300Y176300D02*
X148800Y176800D01*
X94153Y180653D02*
X101105Y173700D01*
X121700Y149900D02*
X134400D01*
X151000Y164000D02*
X154600Y167600D01*
X158900D02*
X159600Y166900D01*
X150900Y164100D02*
X151000Y164000D01*
X153596Y164300D02*
X155596D01*
X148800Y176800D02*
X177400D01*
X180800Y178500D02*
X182000Y177300D01*
X172900Y163900D02*
X173500Y163300D01*
X154300Y162600D02*
X154600Y162300D01*
X87096Y172000D02*
X87896Y171200D01*
X18600Y172000D02*
X87096D01*
X150804Y156700D02*
X155104Y161000D01*
X130696Y156700D02*
X150804D01*
X128900Y158496D02*
X130696Y156700D01*
X128900Y158496D02*
Y162441D01*
X128100Y78300D02*
X151000Y101200D01*
X98900Y78300D02*
X128100D01*
X94100Y83100D02*
X98900Y78300D01*
X60900Y83100D02*
X94100D01*
X322800Y93600D02*
X336900D01*
X343500Y87000D01*
X193200Y120500D02*
X195700Y118000D01*
X186896Y120500D02*
X193200D01*
X185896Y119500D02*
X186896Y120500D01*
X148300Y119500D02*
X185896D01*
X146300Y57600D02*
X146400Y57500D01*
Y56200D02*
Y57500D01*
Y56200D02*
X179820Y22780D01*
X280000D01*
X255800Y115400D02*
X256100Y115100D01*
Y104400D02*
Y115100D01*
X260200Y74300D02*
X271900D01*
X273500Y72700D01*
X273797D01*
X274097Y72400D01*
X329257D01*
X260300Y106500D02*
Y115648D01*
X264300Y71500D02*
X273300D01*
X279100Y65700D01*
Y54000D02*
Y65700D01*
Y54000D02*
X284000Y49100D01*
X158400Y58100D02*
X170200Y46300D01*
X158400Y58100D02*
Y61700D01*
X170200Y46300D02*
X193600D01*
X273706Y33100D02*
X284606Y44000D01*
X206800Y33100D02*
X273706D01*
X284606Y44000D02*
X329700D01*
X322650Y4500D02*
X347431D01*
X280803Y11497D02*
X315653D01*
X322650Y4500D01*
X321370Y3200D02*
X348900D01*
X314273Y10297D02*
X321370Y3200D01*
X277803Y10297D02*
X314273D01*
X127473Y163868D02*
X128900Y162441D01*
X106869Y163868D02*
X127473D01*
X106400Y163400D02*
X106869Y163868D01*
X135200Y51400D02*
X136500D01*
X173600Y14300D01*
X273800D01*
X277803Y10297D01*
X348900Y3200D02*
X349876Y4176D01*
X354000D01*
X162000Y59600D02*
X162300D01*
X172900Y49000D01*
X197200D01*
X210700Y35500D01*
X230193D01*
X231793Y37100D01*
X271100D01*
X280900Y46900D01*
X332900D01*
Y40027D02*
Y46900D01*
Y40027D02*
X336700Y36227D01*
Y23800D02*
Y36227D01*
Y23800D02*
X342000Y18500D01*
X358100D01*
X365616Y10984D01*
Y5716D02*
Y10984D01*
X363900Y4000D02*
X365616Y5716D01*
X139000Y53300D02*
X176400Y15900D01*
X276400D01*
X280803Y11497D01*
X347431Y4500D02*
X350132Y7200D01*
X363200D01*
X143900Y54300D02*
Y57800D01*
Y54300D02*
X178300Y19900D01*
X333640D01*
X336540Y17000D01*
X357094D01*
X363694Y10400D01*
X193600Y46300D02*
X206800Y33100D01*
D12*
X164900Y147100D02*
X165100D01*
X164700Y147300D02*
X164900Y147100D01*
X154665Y147300D02*
X164700D01*
X148900Y148056D02*
X153909D01*
X154665Y147300D01*
X145200Y119100D02*
X152300Y112000D01*
X165800D01*
X189900D01*
X191300Y113400D01*
X162900Y51100D02*
X163561D01*
X169661Y45000D01*
X190900D01*
X204100Y31800D01*
X274244D01*
X282044Y39600D01*
X296692D01*
X304400Y31892D01*
D147*
X223500Y12600D02*
X226200Y9900D01*
X259500D01*
D148*
X316100Y126700D02*
X319000Y123800D01*
Y91200D02*
Y123800D01*
X304400Y76600D02*
X319000Y91200D01*
X279600Y76600D02*
X304400D01*
X277100Y79100D02*
X279600Y76600D01*
X223100Y79100D02*
X277100D01*
X218500Y74500D02*
X223100Y79100D01*
X218500Y59800D02*
Y74500D01*
X213600Y54900D02*
X218500Y59800D01*
X185700Y54900D02*
X213600D01*
X176779Y63820D02*
X185700Y54900D01*
X169559Y63820D02*
X176779D01*
X209559D02*
Y91379D01*
X262138Y56400D02*
X269559Y63820D01*
X223700Y56400D02*
X262138D01*
X218100Y50800D02*
X223700Y56400D01*
D150*
X334961Y139270D02*
D03*
Y131396D02*
D03*
Y123522D02*
D03*
Y115648D02*
D03*
Y107774D02*
D03*
D151*
Y99900D02*
D03*
D152*
X39370Y11811D02*
D03*
X330709D02*
D03*
Y295276D02*
D03*
X39370D02*
D03*
X48425Y121496D02*
D03*
X300079Y264488D02*
D03*
D153*
X123500Y87600D02*
D03*
Y67915D02*
D03*
X109721D02*
D03*
Y87600D02*
D03*
D154*
X269559Y91379D02*
D03*
X249559D02*
D03*
X229559D02*
D03*
X209559D02*
D03*
X189559D02*
D03*
X169559D02*
D03*
X269559Y63820D02*
D03*
X249559D02*
D03*
X229559D02*
D03*
X209559D02*
D03*
X189559D02*
D03*
X169559D02*
D03*
D155*
X149559D02*
D03*
Y91379D02*
D03*
D156*
X162100Y170032D02*
D03*
X142100Y166032D02*
D03*
Y174032D02*
D03*
X359244Y217451D02*
D03*
X355244Y237451D02*
D03*
X363244D02*
D03*
D157*
X88600Y227847D02*
D03*
X88800Y239088D02*
D03*
X83900Y198700D02*
D03*
X29500Y204200D02*
D03*
X84500Y193800D02*
D03*
X29600Y269400D02*
D03*
X26800Y272900D02*
D03*
X38600Y235896D02*
D03*
X41700Y234600D02*
D03*
X33600Y218100D02*
D03*
X38000Y227500D02*
D03*
X10100Y156600D02*
D03*
X10200Y161200D02*
D03*
X8000Y158800D02*
D03*
X86000Y154900D02*
D03*
X65847Y155100D02*
D03*
X75729Y149000D02*
D03*
Y161000D02*
D03*
X204300Y139000D02*
D03*
X221200Y137100D02*
D03*
X224600Y139000D02*
D03*
X220900Y140500D02*
D03*
X219900Y143000D02*
D03*
X223200Y135200D02*
D03*
X228810Y134610D02*
D03*
X219600Y133100D02*
D03*
X161700Y141800D02*
D03*
X165100Y147100D02*
D03*
X163561Y145327D02*
D03*
X164693Y142900D02*
D03*
X164500Y139100D02*
D03*
X164600Y136900D02*
D03*
X166011Y135200D02*
D03*
X164000Y133500D02*
D03*
X45400Y142000D02*
D03*
X255600Y154500D02*
D03*
X253327Y173273D02*
D03*
X242627D02*
D03*
X191500Y163300D02*
D03*
X74110Y238290D02*
D03*
X67610D02*
D03*
X229300Y142200D02*
D03*
X229253Y147253D02*
D03*
X101100Y246000D02*
D03*
X99032Y247731D02*
D03*
X111400Y216700D02*
D03*
X102300D02*
D03*
X319000Y237600D02*
D03*
X301300Y237700D02*
D03*
X197400Y158000D02*
D03*
X231000Y158200D02*
D03*
X193500Y162100D02*
D03*
X247600Y166600D02*
D03*
X243237Y186863D02*
D03*
X202940Y180040D02*
D03*
X221000Y154300D02*
D03*
X181804Y131396D02*
D03*
X238600Y128300D02*
D03*
X179400Y131800D02*
D03*
X236400Y129200D02*
D03*
X175600Y140900D02*
D03*
X260000Y148200D02*
D03*
X179600Y134800D02*
D03*
X182200Y158400D02*
D03*
X281600Y165503D02*
D03*
X300200Y134900D02*
D03*
X201558Y162458D02*
D03*
X362200Y165900D02*
D03*
X360400Y155900D02*
D03*
X150300Y132900D02*
D03*
X145000Y204700D02*
D03*
X335200Y194300D02*
D03*
X275700Y136400D02*
D03*
X220500Y157000D02*
D03*
X265400Y169100D02*
D03*
X214600Y128200D02*
D03*
X270900Y134800D02*
D03*
X303600Y249500D02*
D03*
X317000Y260700D02*
D03*
X180200Y137000D02*
D03*
X164407Y161000D02*
D03*
X167600Y283700D02*
D03*
X309600Y284100D02*
D03*
X188100Y188100D02*
D03*
X194400D02*
D03*
X194500Y265300D02*
D03*
X340300Y274800D02*
D03*
X183900Y162600D02*
D03*
X186100Y191200D02*
D03*
X194300Y191100D02*
D03*
X198100Y272700D02*
D03*
X319500Y280900D02*
D03*
X350000Y239800D02*
D03*
X365849Y222451D02*
D03*
X346253Y275746D02*
D03*
Y285000D02*
D03*
X352500Y232451D02*
D03*
X352951Y222451D02*
D03*
X326776Y231924D02*
D03*
X324485Y229185D02*
D03*
X336805Y249505D02*
D03*
X335963Y238637D02*
D03*
Y230363D02*
D03*
X186300Y131700D02*
D03*
X344100Y192500D02*
D03*
X272300Y186200D02*
D03*
X272400Y145300D02*
D03*
X184000Y145100D02*
D03*
X175800Y166900D02*
D03*
X328000Y150000D02*
D03*
X228510Y117990D02*
D03*
X199700Y113800D02*
D03*
X325300Y150600D02*
D03*
X203600Y115648D02*
D03*
X322500Y152500D02*
D03*
X201409Y117700D02*
D03*
X191066Y180675D02*
D03*
X187500Y180700D02*
D03*
X187804Y176075D02*
D03*
X189747Y173853D02*
D03*
X173000Y216900D02*
D03*
X138100Y218400D02*
D03*
X141500Y130900D02*
D03*
X165401Y131000D02*
D03*
X158531Y145000D02*
D03*
Y141269D02*
D03*
X193684Y129716D02*
D03*
X252200Y135900D02*
D03*
X228510Y112290D02*
D03*
X228810Y128800D02*
D03*
X242900Y103300D02*
D03*
X215100Y166700D02*
D03*
X205800Y174600D02*
D03*
X95300Y165200D02*
D03*
X106100Y126800D02*
D03*
X112500Y154900D02*
D03*
X99800Y150000D02*
D03*
X91141Y145200D02*
D03*
X95470Y142830D02*
D03*
X212500Y172600D02*
D03*
X167600Y172700D02*
D03*
X176300Y150900D02*
D03*
X149800D02*
D03*
X136100Y175400D02*
D03*
X148300Y176300D02*
D03*
X94153Y180653D02*
D03*
X212800Y194600D02*
D03*
X83000Y215200D02*
D03*
X52800Y223100D02*
D03*
X57100Y220400D02*
D03*
X209500Y195100D02*
D03*
X66119Y222081D02*
D03*
X204100Y194000D02*
D03*
X208000Y176100D02*
D03*
X33800Y225277D02*
D03*
X165900Y152600D02*
D03*
X121700Y149900D02*
D03*
X110700Y177800D02*
D03*
X129900Y193700D02*
D03*
X35500Y229800D02*
D03*
X150900Y164100D02*
D03*
X177400Y176800D02*
D03*
X157100Y165200D02*
D03*
X152100Y174900D02*
D03*
X192800Y177600D02*
D03*
X161900Y174900D02*
D03*
X157226Y153874D02*
D03*
X157188Y157612D02*
D03*
X182000Y177300D02*
D03*
X18600Y172000D02*
D03*
X145200Y119100D02*
D03*
X148900Y148056D02*
D03*
X145213Y146213D02*
D03*
X138025Y145575D02*
D03*
X139900Y143900D02*
D03*
X120800Y134700D02*
D03*
X154300Y162600D02*
D03*
X151000Y101200D02*
D03*
X60900Y83100D02*
D03*
X311800Y98300D02*
D03*
X322800Y93600D02*
D03*
X343500Y87000D02*
D03*
X195700Y118000D02*
D03*
X187600Y118800D02*
D03*
X187712Y113906D02*
D03*
X148300Y119500D02*
D03*
X146300Y57600D02*
D03*
X280000Y22780D02*
D03*
X280200Y28242D02*
D03*
X252300Y141100D02*
D03*
X255800Y115400D02*
D03*
X256100Y104400D02*
D03*
X260200Y74300D02*
D03*
X329257Y72400D02*
D03*
X256200Y143100D02*
D03*
X260300Y115648D02*
D03*
Y106500D02*
D03*
X264300Y71500D02*
D03*
X284000Y49100D02*
D03*
X183775Y114225D02*
D03*
X182100Y115800D02*
D03*
X191300Y113400D02*
D03*
X165800Y112000D02*
D03*
X162900Y51100D02*
D03*
X304400Y31892D02*
D03*
X189800Y118300D02*
D03*
X157700Y116900D02*
D03*
X155300Y70300D02*
D03*
X313000Y28000D02*
D03*
X348232Y9232D02*
D03*
X345900Y11500D02*
D03*
X126769Y162169D02*
D03*
Y158468D02*
D03*
X106400Y163400D02*
D03*
X135200Y51400D02*
D03*
X354000Y4176D02*
D03*
X162000Y59600D02*
D03*
X363900Y4000D02*
D03*
X173500Y163300D02*
D03*
X131400Y158400D02*
D03*
X139000Y53300D02*
D03*
X363200Y7200D02*
D03*
X138600Y179200D02*
D03*
X143900Y57800D02*
D03*
X363694Y10400D02*
D03*
X158400Y61700D02*
D03*
X329700Y44000D02*
D03*
X355132Y24922D02*
D03*
Y21369D02*
D03*
X364487Y19613D02*
D03*
X365524Y15576D02*
D03*
X357925Y10475D02*
D03*
X346000Y7300D02*
D03*
X294842Y214259D02*
D03*
X291994Y219906D02*
D03*
X256478Y189078D02*
D03*
X258268Y190732D02*
D03*
X250969D02*
D03*
X232578Y193800D02*
D03*
X236237Y190137D02*
D03*
X213100Y181900D02*
D03*
X215526Y185826D02*
D03*
X201271Y186071D02*
D03*
X217510Y196690D02*
D03*
Y193090D02*
D03*
X221128Y209300D02*
D03*
X221447Y197016D02*
D03*
X221431Y192131D02*
D03*
X221531Y185731D02*
D03*
X225863Y182263D02*
D03*
X236037D02*
D03*
X241200Y182884D02*
D03*
X247516D02*
D03*
X245206Y184980D02*
D03*
X251131Y170700D02*
D03*
X245206Y175884D02*
D03*
X180700Y186700D02*
D03*
X172900D02*
D03*
X181277Y221700D02*
D03*
X173300D02*
D03*
X185400Y230700D02*
D03*
X172800Y236700D02*
D03*
X181100D02*
D03*
X185400Y245200D02*
D03*
X181200Y241700D02*
D03*
X173100Y281700D02*
D03*
X180900D02*
D03*
X157100Y290800D02*
D03*
Y282500D02*
D03*
X152100Y290700D02*
D03*
Y282700D02*
D03*
X152907Y294100D02*
D03*
X156000Y299604D02*
D03*
X149604D02*
D03*
X141293Y294507D02*
D03*
X144304Y299604D02*
D03*
X138304D02*
D03*
X142100Y282300D02*
D03*
Y291300D02*
D03*
X132100Y290800D02*
D03*
Y282400D02*
D03*
X127100Y290900D02*
D03*
Y282800D02*
D03*
X111000Y281700D02*
D03*
X103100D02*
D03*
X102900Y256700D02*
D03*
X95300Y261600D02*
D03*
X111300Y256700D02*
D03*
X99168Y251669D02*
D03*
X103200Y251700D02*
D03*
X107100Y183282D02*
D03*
X111200Y186700D02*
D03*
X85989Y181789D02*
D03*
X92615Y184384D02*
D03*
X98800D02*
D03*
X96121Y186679D02*
D03*
X91316Y175884D02*
D03*
X88600Y172900D02*
D03*
X92544Y128100D02*
D03*
X96037Y125137D02*
D03*
X51140Y229940D02*
D03*
Y225060D02*
D03*
X47630Y179970D02*
D03*
X50940Y183440D02*
D03*
X30977Y188000D02*
D03*
X36200Y183256D02*
D03*
X34144D02*
D03*
X20804Y182296D02*
D03*
X23200Y185200D02*
D03*
X23249Y173951D02*
D03*
X26400Y176600D02*
D03*
X57146Y207800D02*
D03*
Y215100D02*
D03*
X57046Y225046D02*
D03*
Y230468D02*
D03*
X83647Y227847D02*
D03*
X83488Y239088D02*
D03*
X57246Y232700D02*
D03*
X57146Y252200D02*
D03*
X59538Y249740D02*
D03*
X59640Y242440D02*
D03*
X57146Y240000D02*
D03*
X57246Y237254D02*
D03*
X48200Y249600D02*
D03*
X37300Y241800D02*
D03*
X41007Y267593D02*
D03*
X35893D02*
D03*
X218100Y50800D02*
D03*
X273643Y48443D02*
D03*
X269800Y42982D02*
D03*
X287800Y33558D02*
D03*
X223500Y12600D02*
D03*
X259500Y9900D02*
D03*
X273450Y7550D02*
D03*
X55726Y95326D02*
D03*
X52268Y97932D02*
D03*
X48200Y85280D02*
D03*
X33993Y89593D02*
D03*
X27200Y82721D02*
D03*
X30400D02*
D03*
X44600Y68800D02*
D03*
X67969Y62500D02*
D03*
X53800Y56200D02*
D03*
X51800Y58587D02*
D03*
X53700Y77000D02*
D03*
X51800Y75013D02*
D03*
X47188Y61312D02*
D03*
X18755Y66655D02*
D03*
X21863Y62937D02*
D03*
Y70237D02*
D03*
X60132Y80184D02*
D03*
X72533Y78100D02*
D03*
X69169Y81182D02*
D03*
X84524Y125676D02*
D03*
X81200Y109800D02*
D03*
X81100Y118700D02*
D03*
X81246Y114200D02*
D03*
X85200Y119000D02*
D03*
X85177Y108677D02*
D03*
D158*
X64240Y198881D02*
D03*
X331647Y198153D02*
D03*
X325737D02*
D03*
X325847Y192247D02*
D03*
X328784Y189394D02*
D03*
X318370Y137030D02*
D03*
X337500Y145000D02*
D03*
X328784Y160916D02*
D03*
X346698Y151702D02*
D03*
X341580Y151720D02*
D03*
X353873Y156227D02*
D03*
X352261Y130361D02*
D03*
X352624Y126424D02*
D03*
X348502Y133198D02*
D03*
Y103898D02*
D03*
X316100Y126700D02*
D03*
X293342Y170600D02*
D03*
X300725Y163975D02*
D03*
X283718Y152882D02*
D03*
X278200Y156643D02*
D03*
X288857Y106643D02*
D03*
X283718Y102682D02*
D03*
X336843Y82457D02*
D03*
X333018Y87682D02*
D03*
X286843Y82057D02*
D03*
Y93443D02*
D03*
X223643Y48443D02*
D03*
Y37657D02*
D03*
X350000Y78700D02*
D03*
X342616Y73043D02*
D03*
X316050Y52650D02*
D03*
X39900Y80400D02*
D03*
X39800Y84000D02*
D03*
X39756Y87682D02*
D03*
X52700Y63800D02*
D03*
Y70000D02*
D03*
Y66830D02*
D03*
X71753Y56553D02*
D03*
X75000Y53400D02*
D03*
X77300Y57200D02*
D03*
X77500Y68700D02*
D03*
X73842Y62500D02*
D03*
X126300Y22600D02*
D03*
X107600Y22500D02*
D03*
X89500Y22400D02*
D03*
X72400Y22500D02*
D03*
X72000Y6100D02*
D03*
X89600Y6300D02*
D03*
X107300D02*
D03*
X126100Y6200D02*
D03*
X165100Y6000D02*
D03*
X165150Y15700D02*
D03*
X155400Y21000D02*
D03*
X155800Y9000D02*
D03*
X142600Y6200D02*
D03*
X135200Y16000D02*
D03*
X149300Y16013D02*
D03*
D159*
X126000Y13300D02*
D03*
X107200Y13400D02*
D03*
X89800Y13300D02*
D03*
X72100Y13402D02*
D03*
M02*
