G04*
G04 #@! TF.GenerationSoftware,Altium Limited,Altium Designer,19.0.12 (326)*
G04*
G04 Layer_Color=16711935*
%FSLAX25Y25*%
%MOIN*%
G70*
G01*
G75*
%ADD134C,0.06300*%
%ADD135R,0.06300X0.06300*%
%ADD136C,0.12611*%
%ADD137C,0.08300*%
%ADD138C,0.07300*%
%ADD139R,0.07300X0.07300*%
%ADD140C,0.04200*%
%ADD141C,0.02400*%
%ADD142C,0.02800*%
D134*
X334961Y139270D02*
D03*
Y131396D02*
D03*
Y123522D02*
D03*
Y115648D02*
D03*
Y107774D02*
D03*
D135*
Y99900D02*
D03*
D136*
X39370Y11811D02*
D03*
X330709D02*
D03*
Y295276D02*
D03*
X39370D02*
D03*
X48425Y121496D02*
D03*
X300079Y264488D02*
D03*
D137*
X123500Y87600D02*
D03*
Y67915D02*
D03*
X109721D02*
D03*
Y87600D02*
D03*
D138*
X269559Y91379D02*
D03*
X249559D02*
D03*
X229559D02*
D03*
X209559D02*
D03*
X189559D02*
D03*
X169559D02*
D03*
X269559Y63820D02*
D03*
X249559D02*
D03*
X229559D02*
D03*
X209559D02*
D03*
X189559D02*
D03*
X169559D02*
D03*
D139*
X149559D02*
D03*
Y91379D02*
D03*
D140*
X162100Y170032D02*
D03*
X142100Y166032D02*
D03*
Y174032D02*
D03*
X359244Y217451D02*
D03*
X355244Y237451D02*
D03*
X363244D02*
D03*
D141*
X88600Y227847D02*
D03*
X88800Y239088D02*
D03*
X83900Y198700D02*
D03*
X29500Y204200D02*
D03*
X84500Y193800D02*
D03*
X29600Y269400D02*
D03*
X38600Y235896D02*
D03*
X41700Y234600D02*
D03*
X10100Y156600D02*
D03*
X10200Y161200D02*
D03*
X8000Y158800D02*
D03*
X86000Y154900D02*
D03*
X65847Y155100D02*
D03*
X75729Y149000D02*
D03*
Y161000D02*
D03*
X204300Y139000D02*
D03*
X45400Y142000D02*
D03*
D142*
X64240Y198881D02*
D03*
M02*
