G04*
G04 #@! TF.GenerationSoftware,Altium Limited,Altium Designer,19.0.12 (326)*
G04*
G04 Layer_Physical_Order=3*
G04 Layer_Color=128*
%FSLAX25Y25*%
%MOIN*%
G70*
G01*
G75*
%ADD18C,0.01500*%
%ADD142C,0.02800*%
%ADD150C,0.05500*%
%ADD160C,0.04000*%
%ADD161R,0.15979X0.47700*%
%ADD162C,0.05100*%
%ADD163C,0.13811*%
%ADD164C,0.06331*%
%ADD165C,0.02600*%
%ADD166C,0.03000*%
%ADD167C,0.04800*%
G36*
X342815Y36926D02*
X363415Y36827D01*
X363722Y36825D01*
X364324Y36703D01*
X364890Y36466D01*
X365400Y36123D01*
X365833Y35688D01*
X366173Y35177D01*
X366407Y34609D01*
X366527Y34007D01*
Y33700D01*
Y33391D01*
X366406Y32785D01*
X366168Y32215D01*
X365824Y31702D01*
X365386Y31266D01*
X364872Y30924D01*
X364300Y30690D01*
X363694Y30572D01*
X363385Y30573D01*
X342785Y30674D01*
X342785Y30674D01*
X342373Y30676D01*
X341579Y30893D01*
X340868Y31308D01*
X340289Y31892D01*
X339881Y32607D01*
X339671Y33404D01*
X339675Y34227D01*
X339893Y35021D01*
X340307Y35732D01*
X340893Y36311D01*
X341607Y36719D01*
X342404Y36928D01*
X342815Y36926D01*
D02*
G37*
G36*
X332027Y36713D02*
X332739Y36302D01*
X333321Y35720D01*
X333733Y35007D01*
X333946Y34212D01*
Y33800D01*
Y25800D01*
Y25388D01*
X333733Y24593D01*
X333321Y23880D01*
X332739Y23298D01*
X332027Y22887D01*
X331231Y22673D01*
X330408D01*
X329613Y22887D01*
X328900Y23298D01*
X328318Y23880D01*
X327906Y24593D01*
X327693Y25388D01*
Y25800D01*
Y33800D01*
Y34212D01*
X327906Y35007D01*
X328318Y35720D01*
X328900Y36302D01*
X329613Y36713D01*
X330408Y36926D01*
X331231D01*
X332027Y36713D01*
D02*
G37*
D18*
X320700Y178100D02*
Y306900D01*
X207700Y178100D02*
X320700D01*
X207700D02*
Y194600D01*
X190500D02*
X207700D01*
X190500Y179200D02*
Y307087D01*
X90900Y179200D02*
X190500D01*
X200D02*
X90900D01*
Y307087D01*
X86200D02*
X90900D01*
D142*
X64240Y198881D02*
D03*
D150*
X162100Y170032D02*
D03*
X142100Y166032D02*
D03*
Y174032D02*
D03*
X359244Y217451D02*
D03*
X355244Y237451D02*
D03*
X363244D02*
D03*
D160*
X-100Y271300D02*
X0Y307087D01*
X-100Y271300D02*
X20900Y271200D01*
Y190500D02*
Y271200D01*
X-100Y190500D02*
X20900D01*
X-100D02*
X0Y0D01*
X331231Y36926D02*
X332027Y36713D01*
X332739Y36302D01*
X333321Y35720D01*
X333733Y35007D01*
X333946Y34212D01*
Y33800D02*
Y34212D01*
Y25800D02*
Y33800D01*
Y25388D02*
Y25800D01*
X333733Y24593D02*
X333946Y25388D01*
X333321Y23880D02*
X333733Y24593D01*
X332739Y23298D02*
X333321Y23880D01*
X332027Y22887D02*
X332739Y23298D01*
X331231Y22673D02*
X332027Y22887D01*
X330408Y22673D02*
X331231D01*
X329613Y22887D02*
X330408Y22673D01*
X328900Y23298D02*
X329613Y22887D01*
X328318Y23880D02*
X328900Y23298D01*
X327906Y24593D02*
X328318Y23880D01*
X327693Y25388D02*
X327906Y24593D01*
X327693Y25388D02*
Y25800D01*
Y33800D01*
Y34212D01*
X327906Y35007D01*
X328318Y35720D01*
X328900Y36302D01*
X329613Y36713D01*
X330408Y36926D01*
X331231D01*
X342404Y36928D02*
X342815Y36926D01*
X363415Y36827D01*
X363722Y36825D01*
X364324Y36703D01*
X364890Y36466D01*
X365400Y36123D01*
X365833Y35688D01*
X366173Y35177D01*
X366407Y34609D01*
X366527Y34007D01*
Y33700D02*
Y34007D01*
Y33391D02*
Y33700D01*
X366406Y32785D02*
X366527Y33391D01*
X366168Y32215D02*
X366406Y32785D01*
X365824Y31702D02*
X366168Y32215D01*
X365386Y31266D02*
X365824Y31702D01*
X364872Y30924D02*
X365386Y31266D01*
X364300Y30690D02*
X364872Y30924D01*
X363694Y30572D02*
X364300Y30690D01*
X363385Y30573D02*
X363694Y30572D01*
X342785Y30674D02*
X363385Y30573D01*
X342785Y30674D02*
X342785Y30674D01*
X342373Y30676D02*
X342785Y30674D01*
X341579Y30893D02*
X342373Y30676D01*
X340868Y31308D02*
X341579Y30893D01*
X340289Y31892D02*
X340868Y31308D01*
X339881Y32607D02*
X340289Y31892D01*
X339671Y33404D02*
X339881Y32607D01*
X339671Y33404D02*
X339675Y34227D01*
X339893Y35021D01*
X340307Y35732D01*
X340893Y36311D01*
X341607Y36719D01*
X342404Y36928D01*
X0Y0D02*
X370079D01*
X370079Y307087D02*
X370079Y0D01*
X0Y307087D02*
X370079D01*
D161*
X362089Y264250D02*
D03*
D162*
X334961Y139270D02*
D03*
Y131396D02*
D03*
Y123522D02*
D03*
Y115648D02*
D03*
Y107774D02*
D03*
Y99900D02*
D03*
D163*
X39370Y11811D02*
D03*
X330709D02*
D03*
Y295276D02*
D03*
X39370D02*
D03*
X48425Y121496D02*
D03*
X300079Y264488D02*
D03*
D164*
X123500Y87600D02*
D03*
Y67915D02*
D03*
X109721D02*
D03*
Y87600D02*
D03*
X269559Y91379D02*
D03*
X249559D02*
D03*
X229559D02*
D03*
X209559D02*
D03*
X189559D02*
D03*
X169559D02*
D03*
X269559Y63820D02*
D03*
X249559D02*
D03*
X229559D02*
D03*
X209559D02*
D03*
X189559D02*
D03*
X169559D02*
D03*
X149559D02*
D03*
Y91379D02*
D03*
D165*
X88600Y227847D02*
D03*
X88800Y239088D02*
D03*
X83900Y198700D02*
D03*
X29500Y204200D02*
D03*
X84500Y193800D02*
D03*
X29600Y269400D02*
D03*
X26800Y272900D02*
D03*
X38600Y235896D02*
D03*
X41700Y234600D02*
D03*
X33600Y218100D02*
D03*
X38000Y227500D02*
D03*
X86000Y154900D02*
D03*
X65847Y155100D02*
D03*
X75729Y149000D02*
D03*
Y161000D02*
D03*
X204300Y139000D02*
D03*
X221200Y137100D02*
D03*
X224600Y139000D02*
D03*
X220900Y140500D02*
D03*
X219900Y143000D02*
D03*
X223200Y135200D02*
D03*
X228810Y134610D02*
D03*
X219600Y133100D02*
D03*
X165100Y147100D02*
D03*
X163561Y145327D02*
D03*
X164500Y139100D02*
D03*
X164600Y136900D02*
D03*
X166011Y135200D02*
D03*
X164000Y133500D02*
D03*
X45400Y142000D02*
D03*
X255600Y154500D02*
D03*
X253327Y173273D02*
D03*
X191500Y163300D02*
D03*
X74110Y238290D02*
D03*
X67610D02*
D03*
X229300Y142200D02*
D03*
X229253Y147253D02*
D03*
X101100Y246000D02*
D03*
X99032Y247731D02*
D03*
X111400Y216700D02*
D03*
X102300D02*
D03*
X319000Y237600D02*
D03*
X301300Y237700D02*
D03*
X197400Y158000D02*
D03*
X231000Y158200D02*
D03*
X193500Y162100D02*
D03*
X247600Y166600D02*
D03*
X243237Y186863D02*
D03*
X221000Y154300D02*
D03*
X181804Y131396D02*
D03*
X238600Y128300D02*
D03*
X179400Y131800D02*
D03*
X236400Y129200D02*
D03*
X175600Y140900D02*
D03*
X260000Y148200D02*
D03*
X179600Y134800D02*
D03*
X182200Y158400D02*
D03*
X281600Y165503D02*
D03*
X300200Y134900D02*
D03*
X201558Y162458D02*
D03*
X362200Y165900D02*
D03*
X360400Y155900D02*
D03*
X150300Y132900D02*
D03*
X145000Y204700D02*
D03*
X335200Y194300D02*
D03*
X275700Y136400D02*
D03*
X220500Y157000D02*
D03*
X265400Y169100D02*
D03*
X214600Y128200D02*
D03*
X270900Y134800D02*
D03*
X303600Y249500D02*
D03*
X317000Y260700D02*
D03*
X180200Y137000D02*
D03*
X164407Y161000D02*
D03*
X167600Y283700D02*
D03*
X309600Y284100D02*
D03*
X188100Y188100D02*
D03*
X194400D02*
D03*
X194500Y265300D02*
D03*
X340300Y274800D02*
D03*
X183900Y162600D02*
D03*
X186100Y191200D02*
D03*
X194300Y191100D02*
D03*
X198100Y272700D02*
D03*
X319500Y280900D02*
D03*
X350000Y239800D02*
D03*
X365849Y222451D02*
D03*
X346253Y275746D02*
D03*
Y285000D02*
D03*
X352500Y232451D02*
D03*
X326776Y231924D02*
D03*
X324485Y229185D02*
D03*
X336805Y249505D02*
D03*
X335963Y238637D02*
D03*
Y230363D02*
D03*
X186300Y131700D02*
D03*
X344100Y192500D02*
D03*
X272300Y186200D02*
D03*
X272400Y145300D02*
D03*
X184000Y145100D02*
D03*
X175800Y166900D02*
D03*
X328000Y150000D02*
D03*
X228510Y117990D02*
D03*
X199700Y113800D02*
D03*
X325300Y150600D02*
D03*
X203600Y115648D02*
D03*
X322500Y152500D02*
D03*
X201409Y117700D02*
D03*
X191066Y180675D02*
D03*
X187500Y180700D02*
D03*
X173000Y216900D02*
D03*
X138100Y218400D02*
D03*
X141500Y130900D02*
D03*
X165401Y131000D02*
D03*
X158531Y145000D02*
D03*
Y141269D02*
D03*
X193684Y129716D02*
D03*
X252200Y135900D02*
D03*
X228510Y112290D02*
D03*
X228810Y128800D02*
D03*
X242900Y103300D02*
D03*
X215100Y166700D02*
D03*
X205800Y174600D02*
D03*
X95300Y165200D02*
D03*
X106100Y126800D02*
D03*
X112500Y154900D02*
D03*
X99800Y150000D02*
D03*
X91141Y145200D02*
D03*
X95470Y142830D02*
D03*
X212500Y172600D02*
D03*
X167600Y172700D02*
D03*
X176300Y150900D02*
D03*
X149800D02*
D03*
X136100Y175400D02*
D03*
X148300Y176300D02*
D03*
X94153Y180653D02*
D03*
X212800Y194600D02*
D03*
X83000Y215200D02*
D03*
X52800Y223100D02*
D03*
X57100Y220400D02*
D03*
X209500Y195100D02*
D03*
X66119Y222081D02*
D03*
X204100Y194000D02*
D03*
X208000Y176100D02*
D03*
X33800Y225277D02*
D03*
X165900Y152600D02*
D03*
X121700Y149900D02*
D03*
X110700Y177800D02*
D03*
X129900Y193700D02*
D03*
X35500Y229800D02*
D03*
X150900Y164100D02*
D03*
X177400Y176800D02*
D03*
X152100Y174900D02*
D03*
X192800Y177600D02*
D03*
X161900Y174900D02*
D03*
X157226Y153874D02*
D03*
X182000Y177300D02*
D03*
X18600Y172000D02*
D03*
X145200Y119100D02*
D03*
X148900Y148056D02*
D03*
X145213Y146213D02*
D03*
X138025Y145575D02*
D03*
X139900Y143900D02*
D03*
X120800Y134700D02*
D03*
X154300Y162600D02*
D03*
X151000Y101200D02*
D03*
X60900Y83100D02*
D03*
X311800Y98300D02*
D03*
X322800Y93600D02*
D03*
X343500Y87000D02*
D03*
X195700Y118000D02*
D03*
X148300Y119500D02*
D03*
X146300Y57600D02*
D03*
X280000Y22780D02*
D03*
X280200Y28242D02*
D03*
X252300Y141100D02*
D03*
X255800Y115400D02*
D03*
X256100Y104400D02*
D03*
X260200Y74300D02*
D03*
X329257Y72400D02*
D03*
X256200Y143100D02*
D03*
X260300Y115648D02*
D03*
Y106500D02*
D03*
X264300Y71500D02*
D03*
X284000Y49100D02*
D03*
X183775Y114225D02*
D03*
X182100Y115800D02*
D03*
X191300Y113400D02*
D03*
X165800Y112000D02*
D03*
X162900Y51100D02*
D03*
X304400Y31892D02*
D03*
X189800Y118300D02*
D03*
X157700Y116900D02*
D03*
X155300Y70300D02*
D03*
X313000Y28000D02*
D03*
X348232Y9232D02*
D03*
X345900Y11500D02*
D03*
X126769Y162169D02*
D03*
Y158468D02*
D03*
X106400Y163400D02*
D03*
X135200Y51400D02*
D03*
X354000Y4176D02*
D03*
X162000Y59600D02*
D03*
X363900Y4000D02*
D03*
X173500Y163300D02*
D03*
X131400Y158400D02*
D03*
X139000Y53300D02*
D03*
X363200Y7200D02*
D03*
X138600Y179200D02*
D03*
X143900Y57800D02*
D03*
X363694Y10400D02*
D03*
X158400Y61700D02*
D03*
X329700Y44000D02*
D03*
X355132Y24922D02*
D03*
Y21369D02*
D03*
X364487Y19613D02*
D03*
X365524Y15576D02*
D03*
X357925Y10475D02*
D03*
X346000Y7300D02*
D03*
X294842Y214259D02*
D03*
X291994Y219906D02*
D03*
X256478Y189078D02*
D03*
X258268Y190732D02*
D03*
X232578Y193800D02*
D03*
X236237Y190137D02*
D03*
X213100Y181900D02*
D03*
X215526Y185826D02*
D03*
X201271Y186071D02*
D03*
X217510Y196690D02*
D03*
Y193090D02*
D03*
X241200Y182884D02*
D03*
X251131Y170700D02*
D03*
X180700Y186700D02*
D03*
X172900D02*
D03*
X181277Y221700D02*
D03*
X173300D02*
D03*
X185400Y230700D02*
D03*
X172800Y236700D02*
D03*
X181100D02*
D03*
X173100Y281700D02*
D03*
X180900D02*
D03*
X157100Y290800D02*
D03*
Y282500D02*
D03*
X152100Y290700D02*
D03*
Y282700D02*
D03*
X152907Y294100D02*
D03*
X156000Y299604D02*
D03*
X149604D02*
D03*
X141293Y294507D02*
D03*
X144304Y299604D02*
D03*
X138304D02*
D03*
X142100Y282300D02*
D03*
Y291300D02*
D03*
X132100Y290800D02*
D03*
Y282400D02*
D03*
X127100Y290900D02*
D03*
Y282800D02*
D03*
X111000Y281700D02*
D03*
X103100D02*
D03*
X102900Y256700D02*
D03*
X111300D02*
D03*
X107100Y183282D02*
D03*
X111200Y186700D02*
D03*
X85989Y181789D02*
D03*
X92615Y184384D02*
D03*
X92544Y128100D02*
D03*
X96037Y125137D02*
D03*
X47630Y179970D02*
D03*
X50940Y183440D02*
D03*
X30977Y188000D02*
D03*
X20804Y182296D02*
D03*
X23200Y185200D02*
D03*
X57146Y207800D02*
D03*
Y215100D02*
D03*
X57046Y225046D02*
D03*
Y230468D02*
D03*
X83647Y227847D02*
D03*
X83488Y239088D02*
D03*
X57246Y232700D02*
D03*
X57146Y252200D02*
D03*
X59538Y249740D02*
D03*
X59640Y242440D02*
D03*
X57146Y240000D02*
D03*
X57246Y237254D02*
D03*
X48200Y249600D02*
D03*
X37300Y241800D02*
D03*
X41007Y267593D02*
D03*
X35893D02*
D03*
X218100Y50800D02*
D03*
X287800Y33558D02*
D03*
X223500Y12600D02*
D03*
X259500Y9900D02*
D03*
X55726Y95326D02*
D03*
X52268Y97932D02*
D03*
X48200Y85280D02*
D03*
X33993Y89593D02*
D03*
X44600Y68800D02*
D03*
X67969Y62500D02*
D03*
X53800Y56200D02*
D03*
X51800Y58587D02*
D03*
X53700Y77000D02*
D03*
X51800Y75013D02*
D03*
X47188Y61312D02*
D03*
X18755Y66655D02*
D03*
X21863Y62937D02*
D03*
Y70237D02*
D03*
X60132Y80184D02*
D03*
X72533Y78100D02*
D03*
X69169Y81182D02*
D03*
X84524Y125676D02*
D03*
X81200Y109800D02*
D03*
X81100Y118700D02*
D03*
X81246Y114200D02*
D03*
X85200Y119000D02*
D03*
X85177Y108677D02*
D03*
D166*
X331647Y198153D02*
D03*
X325737D02*
D03*
X337500Y145000D02*
D03*
X328784Y160916D02*
D03*
X346698Y151702D02*
D03*
X341580Y151720D02*
D03*
X353873Y156227D02*
D03*
X352261Y130361D02*
D03*
X352624Y126424D02*
D03*
X348502Y133198D02*
D03*
Y103898D02*
D03*
X316100Y126700D02*
D03*
X293342Y170600D02*
D03*
X300725Y163975D02*
D03*
X350000Y78700D02*
D03*
X342616Y73043D02*
D03*
X39900Y80400D02*
D03*
X39800Y84000D02*
D03*
X39756Y87682D02*
D03*
X52700Y63800D02*
D03*
Y70000D02*
D03*
Y66830D02*
D03*
X71753Y56553D02*
D03*
X75000Y53400D02*
D03*
X77300Y57200D02*
D03*
X77500Y68700D02*
D03*
X73842Y62500D02*
D03*
X126300Y22600D02*
D03*
X107600Y22500D02*
D03*
X89500Y22400D02*
D03*
X72400Y22500D02*
D03*
X72000Y6100D02*
D03*
X89600Y6300D02*
D03*
X107300D02*
D03*
X126100Y6200D02*
D03*
X165100Y6000D02*
D03*
X165150Y15700D02*
D03*
X155400Y21000D02*
D03*
X155800Y9000D02*
D03*
X142600Y6200D02*
D03*
X135200Y16000D02*
D03*
X149300Y16013D02*
D03*
D167*
X126000Y13300D02*
D03*
X107200Y13400D02*
D03*
X89800Y13300D02*
D03*
X72100Y13402D02*
D03*
M02*
