G04*
G04 #@! TF.GenerationSoftware,Altium Limited,Altium Designer,19.0.12 (326)*
G04*
G04 Layer_Physical_Order=2*
G04 Layer_Color=32768*
%FSLAX25Y25*%
%MOIN*%
G70*
G01*
G75*
%ADD150C,0.05500*%
%ADD160C,0.04000*%
%ADD161R,0.15979X0.47700*%
%ADD162C,0.05100*%
%ADD163C,0.13811*%
%ADD164C,0.06331*%
%ADD165C,0.02600*%
%ADD166C,0.03000*%
G36*
X342815Y36926D02*
X363415Y36827D01*
X363722Y36825D01*
X364324Y36703D01*
X364890Y36466D01*
X365400Y36123D01*
X365833Y35688D01*
X366173Y35177D01*
X366407Y34609D01*
X366527Y34007D01*
Y33700D01*
Y33391D01*
X366406Y32785D01*
X366168Y32215D01*
X365824Y31702D01*
X365386Y31266D01*
X364872Y30924D01*
X364300Y30690D01*
X363694Y30572D01*
X363385Y30573D01*
X342785Y30674D01*
X342785Y30674D01*
X342373Y30676D01*
X341579Y30893D01*
X340868Y31308D01*
X340289Y31892D01*
X339881Y32607D01*
X339671Y33404D01*
X339675Y34227D01*
X339893Y35021D01*
X340307Y35732D01*
X340893Y36311D01*
X341607Y36719D01*
X342404Y36928D01*
X342815Y36926D01*
D02*
G37*
G36*
X332027Y36713D02*
X332739Y36302D01*
X333321Y35720D01*
X333733Y35007D01*
X333946Y34212D01*
Y33800D01*
Y25800D01*
Y25388D01*
X333733Y24593D01*
X333321Y23880D01*
X332739Y23298D01*
X332027Y22887D01*
X331231Y22673D01*
X330408D01*
X329613Y22887D01*
X328900Y23298D01*
X328318Y23880D01*
X327906Y24593D01*
X327693Y25388D01*
Y25800D01*
Y33800D01*
Y34212D01*
X327906Y35007D01*
X328318Y35720D01*
X328900Y36302D01*
X329613Y36713D01*
X330408Y36926D01*
X331231D01*
X332027Y36713D01*
D02*
G37*
D150*
X162100Y170032D02*
D03*
X142100Y166032D02*
D03*
Y174032D02*
D03*
X359244Y217451D02*
D03*
X355244Y237451D02*
D03*
X363244D02*
D03*
D160*
X-100Y271300D02*
X0Y307087D01*
X-100Y271300D02*
X20900Y271200D01*
Y190500D02*
Y271200D01*
X-100Y190500D02*
X20900D01*
X-100D02*
X0Y0D01*
X331231Y36926D02*
X332027Y36713D01*
X332739Y36302D01*
X333321Y35720D01*
X333733Y35007D01*
X333946Y34212D01*
Y33800D02*
Y34212D01*
Y25800D02*
Y33800D01*
Y25388D02*
Y25800D01*
X333733Y24593D02*
X333946Y25388D01*
X333321Y23880D02*
X333733Y24593D01*
X332739Y23298D02*
X333321Y23880D01*
X332027Y22887D02*
X332739Y23298D01*
X331231Y22673D02*
X332027Y22887D01*
X330408Y22673D02*
X331231D01*
X329613Y22887D02*
X330408Y22673D01*
X328900Y23298D02*
X329613Y22887D01*
X328318Y23880D02*
X328900Y23298D01*
X327906Y24593D02*
X328318Y23880D01*
X327693Y25388D02*
X327906Y24593D01*
X327693Y25388D02*
Y25800D01*
Y33800D01*
Y34212D01*
X327906Y35007D01*
X328318Y35720D01*
X328900Y36302D01*
X329613Y36713D01*
X330408Y36926D01*
X331231D01*
X342404Y36928D02*
X342815Y36926D01*
X363415Y36827D01*
X363722Y36825D01*
X364324Y36703D01*
X364890Y36466D01*
X365400Y36123D01*
X365833Y35688D01*
X366173Y35177D01*
X366407Y34609D01*
X366527Y34007D01*
Y33700D02*
Y34007D01*
Y33391D02*
Y33700D01*
X366406Y32785D02*
X366527Y33391D01*
X366168Y32215D02*
X366406Y32785D01*
X365824Y31702D02*
X366168Y32215D01*
X365386Y31266D02*
X365824Y31702D01*
X364872Y30924D02*
X365386Y31266D01*
X364300Y30690D02*
X364872Y30924D01*
X363694Y30572D02*
X364300Y30690D01*
X363385Y30573D02*
X363694Y30572D01*
X342785Y30674D02*
X363385Y30573D01*
X342785Y30674D02*
X342785Y30674D01*
X342373Y30676D02*
X342785Y30674D01*
X341579Y30893D02*
X342373Y30676D01*
X340868Y31308D02*
X341579Y30893D01*
X340289Y31892D02*
X340868Y31308D01*
X339881Y32607D02*
X340289Y31892D01*
X339671Y33404D02*
X339881Y32607D01*
X339671Y33404D02*
X339675Y34227D01*
X339893Y35021D01*
X340307Y35732D01*
X340893Y36311D01*
X341607Y36719D01*
X342404Y36928D01*
X0Y0D02*
X370079D01*
X370079Y307087D02*
X370079Y0D01*
X0Y307087D02*
X370079D01*
D161*
X362089Y264250D02*
D03*
D162*
X334961Y131396D02*
D03*
Y123522D02*
D03*
Y115648D02*
D03*
Y107774D02*
D03*
D163*
X39370Y11811D02*
D03*
X330709D02*
D03*
Y295276D02*
D03*
X39370D02*
D03*
X48425Y121496D02*
D03*
X300079Y264488D02*
D03*
D164*
X109721Y67915D02*
D03*
Y87600D02*
D03*
X269559Y91379D02*
D03*
X249559D02*
D03*
X229559D02*
D03*
X209559D02*
D03*
X189559D02*
D03*
X169559D02*
D03*
X269559Y63820D02*
D03*
X249559D02*
D03*
X229559D02*
D03*
X209559D02*
D03*
X189559D02*
D03*
X169559D02*
D03*
X149559D02*
D03*
Y91379D02*
D03*
D165*
X83900Y198700D02*
D03*
X29500Y204200D02*
D03*
X38000Y227500D02*
D03*
X10100Y156600D02*
D03*
X10200Y161200D02*
D03*
X8000Y158800D02*
D03*
X204300Y139000D02*
D03*
X221200Y137100D02*
D03*
X224600Y139000D02*
D03*
X220900Y140500D02*
D03*
X219900Y143000D02*
D03*
X223200Y135200D02*
D03*
X219600Y133100D02*
D03*
X161700Y141800D02*
D03*
X165100Y147100D02*
D03*
X164693Y142900D02*
D03*
X164500Y139100D02*
D03*
X164600Y136900D02*
D03*
X166011Y135200D02*
D03*
X164000Y133500D02*
D03*
X45400Y142000D02*
D03*
X255600Y154500D02*
D03*
X242627Y173273D02*
D03*
X319000Y237600D02*
D03*
X301300Y237700D02*
D03*
X197400Y158000D02*
D03*
X231000Y158200D02*
D03*
X193500Y162100D02*
D03*
X247600Y166600D02*
D03*
X202940Y180040D02*
D03*
X221000Y154300D02*
D03*
X181804Y131396D02*
D03*
X238600Y128300D02*
D03*
X179400Y131800D02*
D03*
X236400Y129200D02*
D03*
X175600Y140900D02*
D03*
X260000Y148200D02*
D03*
X179600Y134800D02*
D03*
X182200Y158400D02*
D03*
X281600Y165503D02*
D03*
X300200Y134900D02*
D03*
X201558Y162458D02*
D03*
X362200Y165900D02*
D03*
X360400Y155900D02*
D03*
X150300Y132900D02*
D03*
X145000Y204700D02*
D03*
X335200Y194300D02*
D03*
X275700Y136400D02*
D03*
X220500Y157000D02*
D03*
X265400Y169100D02*
D03*
X214600Y128200D02*
D03*
X270900Y134800D02*
D03*
X303600Y249500D02*
D03*
X317000Y260700D02*
D03*
X180200Y137000D02*
D03*
X164407Y161000D02*
D03*
X167600Y283700D02*
D03*
X309600Y284100D02*
D03*
X188100Y188100D02*
D03*
X194400D02*
D03*
X194500Y265300D02*
D03*
X340300Y274800D02*
D03*
X183900Y162600D02*
D03*
X186100Y191200D02*
D03*
X194300Y191100D02*
D03*
X198100Y272700D02*
D03*
X319500Y280900D02*
D03*
X350000Y239800D02*
D03*
X365849Y222451D02*
D03*
X352951D02*
D03*
X186300Y131700D02*
D03*
X344100Y192500D02*
D03*
X272300Y186200D02*
D03*
X272400Y145300D02*
D03*
X184000Y145100D02*
D03*
X175800Y166900D02*
D03*
X328000Y150000D02*
D03*
X199700Y113800D02*
D03*
X325300Y150600D02*
D03*
X203600Y115648D02*
D03*
X322500Y152500D02*
D03*
X201409Y117700D02*
D03*
X187804Y176075D02*
D03*
X189747Y173853D02*
D03*
X173000Y216900D02*
D03*
X138100Y218400D02*
D03*
X141500Y130900D02*
D03*
X165401Y131000D02*
D03*
X252200Y135900D02*
D03*
X242900Y103300D02*
D03*
X215100Y166700D02*
D03*
X205800Y174600D02*
D03*
X95300Y165200D02*
D03*
X106100Y126800D02*
D03*
X112500Y154900D02*
D03*
X99800Y150000D02*
D03*
X212500Y172600D02*
D03*
X167600Y172700D02*
D03*
X176300Y150900D02*
D03*
X149800D02*
D03*
X136100Y175400D02*
D03*
X148300Y176300D02*
D03*
X94153Y180653D02*
D03*
X212800Y194600D02*
D03*
X83000Y215200D02*
D03*
X52800Y223100D02*
D03*
X209500Y195100D02*
D03*
X66119Y222081D02*
D03*
X204100Y194000D02*
D03*
X208000Y176100D02*
D03*
X33800Y225277D02*
D03*
X165900Y152600D02*
D03*
X121700Y149900D02*
D03*
X110700Y177800D02*
D03*
X129900Y193700D02*
D03*
X35500Y229800D02*
D03*
X150900Y164100D02*
D03*
X177400Y176800D02*
D03*
X157100Y165200D02*
D03*
X192800Y177600D02*
D03*
X161900Y174900D02*
D03*
X157188Y157612D02*
D03*
X182000Y177300D02*
D03*
X18600Y172000D02*
D03*
X145200Y119100D02*
D03*
X148900Y148056D02*
D03*
X120800Y134700D02*
D03*
X154300Y162600D02*
D03*
X151000Y101200D02*
D03*
X60900Y83100D02*
D03*
X311800Y98300D02*
D03*
X322800Y93600D02*
D03*
X343500Y87000D02*
D03*
X195700Y118000D02*
D03*
X187600Y118800D02*
D03*
X187712Y113906D02*
D03*
X148300Y119500D02*
D03*
X146300Y57600D02*
D03*
X280000Y22780D02*
D03*
X252300Y141100D02*
D03*
X255800Y115400D02*
D03*
X256100Y104400D02*
D03*
X260200Y74300D02*
D03*
X329257Y72400D02*
D03*
X256200Y143100D02*
D03*
X260300Y115648D02*
D03*
Y106500D02*
D03*
X264300Y71500D02*
D03*
X284000Y49100D02*
D03*
X191300Y113400D02*
D03*
X165800Y112000D02*
D03*
X162900Y51100D02*
D03*
X304400Y31892D02*
D03*
X189800Y118300D02*
D03*
X157700Y116900D02*
D03*
X155300Y70300D02*
D03*
X313000Y28000D02*
D03*
X106400Y163400D02*
D03*
X135200Y51400D02*
D03*
X354000Y4176D02*
D03*
X162000Y59600D02*
D03*
X363900Y4000D02*
D03*
X173500Y163300D02*
D03*
X131400Y158400D02*
D03*
X139000Y53300D02*
D03*
X363200Y7200D02*
D03*
X138600Y179200D02*
D03*
X143900Y57800D02*
D03*
X363694Y10400D02*
D03*
X158400Y61700D02*
D03*
X329700Y44000D02*
D03*
X250969Y190732D02*
D03*
X221128Y209300D02*
D03*
X221447Y197016D02*
D03*
X221431Y192131D02*
D03*
X221531Y185731D02*
D03*
X225863Y182263D02*
D03*
X236037D02*
D03*
X247516Y182884D02*
D03*
X245206Y184980D02*
D03*
Y175884D02*
D03*
X185400Y245200D02*
D03*
X181200Y241700D02*
D03*
X95300Y261600D02*
D03*
X99168Y251669D02*
D03*
X103200Y251700D02*
D03*
X98800Y184384D02*
D03*
X96121Y186679D02*
D03*
X91316Y175884D02*
D03*
X88600Y172900D02*
D03*
X51140Y229940D02*
D03*
Y225060D02*
D03*
X36200Y183256D02*
D03*
X34144D02*
D03*
X23249Y173951D02*
D03*
X26400Y176600D02*
D03*
X48200Y249600D02*
D03*
X37300Y241800D02*
D03*
X218100Y50800D02*
D03*
X273643Y48443D02*
D03*
X269800Y42982D02*
D03*
X223500Y12600D02*
D03*
X259500Y9900D02*
D03*
X273450Y7550D02*
D03*
X27200Y82721D02*
D03*
X30400D02*
D03*
X44600Y68800D02*
D03*
X67969Y62500D02*
D03*
X85200Y119000D02*
D03*
X85177Y108677D02*
D03*
D166*
X325847Y192247D02*
D03*
X328784Y189394D02*
D03*
X318370Y137030D02*
D03*
X337500Y145000D02*
D03*
X316100Y126700D02*
D03*
X283718Y152882D02*
D03*
X278200Y156643D02*
D03*
X288857Y106643D02*
D03*
X283718Y102682D02*
D03*
X336843Y82457D02*
D03*
X333018Y87682D02*
D03*
X286843Y82057D02*
D03*
Y93443D02*
D03*
X223643Y48443D02*
D03*
Y37657D02*
D03*
X316050Y52650D02*
D03*
M02*
