M48
;Layer_Color=9474304
;FILE_FORMAT=2:5
INCH,LZ
;TYPE=PLATED
T1F00S00C0.00600
T2F00S00C0.00800
T3F00S00C0.01000
T4F00S00C0.02800
T5F00S00C0.03100
T6F00S00C0.04331
;TYPE=NON_PLATED
T7F00S00C0.03500
T8F00S00C0.11811
%
T01
X02235Y00126
X02595Y00099
X027345Y000755
X028Y002278
X02802Y0028242
X02878Y0033558
X03044Y0031892
X0313Y0028
X03297Y0044
X0355132Y0024922
Y0021369
X0364487Y0019613
X0365524Y0015576
X0363694Y00104
X03632Y00072
X03639Y0004
X0354Y0004176
X0357925Y0010475
X0348232Y0009232
X0346Y00073
X03459Y00115
X0284Y00491
X0273643Y0048443
X02698Y0042982
X02181Y00508
X01629Y00511
X01463Y00576
X01439Y00578
X0139Y00533
X01352Y00514
X00538Y00562
X00518Y0058587
X0047188Y0061312
X00446Y00688
X00518Y0075013
X00482Y008528
X0052268Y0097932
X0033993Y0089593
X00304Y0082721
X00272
X0021863Y0070237
X0018755Y0066655
X0021863Y0062937
X00454Y0142
X004763Y017997
X005094Y018344
X0039756Y0186989
X00362Y0183256
X0034144
X0030977Y0188
X00232Y01852
X0020804Y0182296
X0023249Y0173951
X00264Y01766
X00186Y0172
X00102Y01612
X0008Y01588
X00101Y01566
X00362Y01952
X0066688Y0195488
X0072788
X0085989Y0181789
X0092615Y0184384
X0094153Y0180653
X0091316Y0175884
X00886Y01729
X00953Y01652
X01064Y01634
X01125Y01549
X01217Y01499
X0126769Y0158468
Y0162169
X01314Y01584
X0138025Y0145575
X01399Y01439
X0145213Y0146213
X01489Y0148056
X01498Y01509
X0157226Y0153874
X0157188Y0157612
X01571Y01652
X01543Y01626
X01509Y01641
X01521Y01749
X01483Y01763
X01386Y01792
X01361Y01754
X01299Y01937
X01112Y01867
X01071Y0183282
X01107Y01778
X00988Y0184384
X0096121Y0186679
X00998Y015
X009547Y014283
X0091141Y01452
X0086Y01549
X0075729Y0149
Y0161
X0065847Y01551
X0084524Y0125676
X00852Y0119
X00811Y01187
X0081246Y01142
X00812Y01098
X0085177Y0108677
X0092544Y01281
X0096037Y0125137
X01061Y01268
X01208Y01347
X01415Y01309
X01503Y01329
X0164Y01335
X0166011Y01352
X01646Y01369
X01645Y01391
X0164693Y01429
X0163561Y0145327
X01651Y01471
X01659Y01526
X0164407Y0161
X01735Y01633
X01758Y01669
X01774Y01768
X0182Y01773
X0187804Y0176075
X0189747Y0173853
X01928Y01776
X0191066Y0180675
X01875Y01807
X01881Y01881
X01861Y01912
X01943Y01911
X01944Y01881
X0201271Y0186071
X020294Y018004
X02058Y01746
X0208Y01761
X0201558Y0162458
X01935Y01621
X01915Y01633
X01839Y01626
X01822Y01584
X01763Y01509
X01756Y01409
X01802Y0137
X01796Y01348
X01794Y01318
X0181804Y0131396
X01863Y01317
X0193684Y0129716
X01957Y0118
X0201409Y01177
X02036Y0115648
X01997Y01138
X01913Y01134
X0187712Y0113906
X0183775Y0114225
X01821Y01158
X01876Y01188
X01898Y01183
X01658Y0112
X01577Y01169
X01483Y01195
X01452Y01191
X0151Y01012
X01553Y00703
X01584Y00617
X0162Y00596
X0165401Y0131
X01617Y01418
X0158531Y0141269
Y0145
X0184Y01451
X01974Y0158
X02043Y0139
X02041Y0194
X02095Y01951
X01807Y01867
X01729
X01676Y01727
X01619Y01749
X0145Y02047
X0055726Y0095326
X00609Y00831
X0060132Y0080184
X00537Y0077
X0069169Y0081182
X0072533Y00781
X0067969Y00625
X02602Y00743
X02643Y00715
X02603Y01065
X02561Y01044
X02558Y01154
X02603Y0115648
X02522Y01359
X02523Y01411
X02562Y01431
X026Y01482
X02556Y01545
X02476Y01666
X0251131Y01707
X0253327Y0173273
X0242627
X0245206Y0175884
Y018498
X0243237Y0186863
X02412Y0182884
X0236037Y0182263
X0236237Y0190137
X0232578Y01938
X0221431Y0192131
X021751Y019309
Y019669
X0221447Y0197016
X02128Y01946
X0215526Y0185826
X0221531Y0185731
X0225863Y0182263
X02131Y01819
X02125Y01726
X02151Y01667
X02205Y0157
X0221Y01543
X02199Y0143
X02209Y01405
X02212Y01371
X02232Y01352
X02246Y0139
X02293Y01422
X0229253Y0147253
X0231Y01582
X022881Y013461
Y01288
X02364Y01292
X02386Y01283
X022851Y011799
Y011229
X02429Y01033
X02196Y01331
X02146Y01282
X02709Y01348
X02757Y01364
X02724Y01453
X02816Y0165503
X02654Y01691
X02723Y01862
X0258268Y0190732
X0256478Y0189078
X0250969Y0190732
X0247516Y0182884
X0221128Y02093
X0294842Y0214259
X03352Y01943
X03441Y01925
X03622Y01659
X03604Y01559
X0328Y015
X03253Y01506
X03225Y01525
X03002Y01349
X03118Y00983
X03228Y00936
X03435Y0087
X0329257Y00724
X0324485Y0229185
X0326776Y0231924
X0335963Y0230363
Y0238637
X0336805Y0249505
X035Y02398
X03525Y0232451
X0352951Y0222451
X0365849
X0319Y02376
X03013Y02377
X03036Y02495
X0317Y02607
X03195Y02809
X03096Y02841
X0346253Y0285
Y0275746
X03403Y02748
X0291994Y0219906
X0181277Y02217
X01733
X0173Y02169
X01728Y02367
X01811
X01812Y02417
X01854Y02452
Y02307
X01945Y02653
X01981Y02727
X01809Y02817
X01731
X01676Y02837
X01571Y02825
X01521Y02827
Y02907
X0152907Y02941
X01571Y02908
X0156Y0299604
X0149604
X0144304
X0138304
X0141293Y0294507
X01421Y02913
Y02823
X01321Y02824
X01271Y02828
Y02909
X01321Y02908
X0111Y02817
X01031
X01029Y02567
X01032Y02517
X0099168Y0251669
X0099032Y0247731
X01011Y0246
X0088112Y0248388
X0082788
X007341Y024759
X006691
X0056546Y0246554
X0056446Y02493
X005894Y025174
X0058838Y025904
X0056446Y02615
X0056546Y0242
X0056346Y0239768
Y0234346
X00564Y02297
X0056446Y02244
Y02171
X0065419Y0231381
X0082947Y0237147
X0087947
X00823Y02245
X01023Y02167
X01114
X01381Y02184
X01113Y02567
X00953Y02616
X00475Y02589
X0032759Y0255041
X00366Y02511
X00379Y0245196
X0041Y02439
X00373Y02368
X00348Y02391
X00331Y0234577
X00329Y02274
X00521Y02324
X005044Y023436
Y023924
X0040907Y0278793
X0035793
X0028993Y0278893
X0026593Y0281793
X00346Y0273
T02
X006354Y0208181
T03
X0223643Y0037657
Y0048443
X031605Y005265
X016515Y00157
X01651Y0006
X01558Y0009
X01554Y0021
X01493Y0016013
X01352Y0016
X01263Y00226
X01261Y00062
X01426
X01073Y00063
X01076Y00225
X00895Y00224
X00896Y00063
X0072Y00061
X00724Y00225
X0075Y00534
X00773Y00572
X0071753Y0056553
X00527Y00638
Y006683
Y007
X00399Y00804
X00398Y0084
X0039756Y0087682
X00775Y00687
X0073842Y00625
X0286843Y0082057
Y0093443
X0283718Y0102682
X0288857Y0106643
X03161Y01267
X031837Y013703
X03375Y0145
X034158Y015172
X0346698Y0151702
X0353873Y0156227
X0352261Y0130361
X0352624Y0126424
X0348502Y0133198
Y0103898
X035Y00787
X0342616Y0073043
X0336843Y0082457
X0333018Y0087682
X0328784Y0160916
Y0189394
X0325847Y0192247
X0325737Y0198153
X0331647
X0300725Y0163975
X0293342Y01706
X0283718Y0152882
X02782Y0156643
T04
X00721Y0013402
X00898Y00133
X01072Y00134
X0126Y00133
T05
X0334961Y00999
Y0107774
Y0115648
Y0123522
Y0131396
Y013927
T06
X0109721Y0067915
X01235
Y00876
X0109721
X0149559Y0091379
X0169559
X0189559
X0209559
Y006382
X0189559
X0169559
X0149559
X0229559
X0249559
X0269559
Y0091379
X0249559
X0229559
T07
X01421Y0166032
Y0174032
X01621Y0170032
X0359244Y0217451
X0355244Y0237451
X0363244
T08
X0330709Y0011811
X003937
X0048425Y0121496
X0300079Y0264488
X0330709Y0295276
X003937
M30
