G04*
G04 #@! TF.GenerationSoftware,Altium Limited,Altium Designer,19.0.12 (326)*
G04*
G04 Layer_Color=255*
%FSLAX25Y25*%
%MOIN*%
G70*
G01*
G75*
%ADD22R,0.04724X0.01378*%
%ADD23R,0.03150X0.02362*%
%ADD24R,0.18110X0.09843*%
%ADD25R,0.01968X0.01968*%
%ADD26R,0.01968X0.01968*%
%ADD27R,0.03150X0.04724*%
%ADD28R,0.05118X0.03937*%
%ADD29R,0.03543X0.02756*%
%ADD30R,0.02362X0.02756*%
%ADD31R,0.01968X0.01968*%
%ADD32R,0.09449X0.05906*%
%ADD33R,0.04331X0.02362*%
%ADD34R,0.01968X0.01968*%
%ADD35R,0.03150X0.03150*%
%ADD36C,0.00945*%
%ADD37O,0.01181X0.08268*%
%ADD38O,0.08268X0.01181*%
%ADD39R,0.02559X0.04134*%
%ADD40R,0.05118X0.02362*%
%ADD41R,0.08661X0.07087*%
%ADD42R,0.00984X0.00984*%
%ADD43R,0.01732X0.02402*%
%ADD44R,0.01968X0.01968*%
%ADD45R,0.01968X0.01968*%
%ADD46R,0.03150X0.03150*%
%ADD47R,0.03504X0.09016*%
%ADD49R,0.05906X0.02165*%
%ADD50R,0.01575X0.01575*%
%ADD51R,0.03937X0.04134*%
%ADD52R,0.04134X0.08661*%
%ADD53R,0.06000X0.04000*%
%ADD54R,0.04000X0.06000*%
%ADD55R,0.01772X0.06890*%
%ADD56R,0.04800X0.03600*%
%ADD57R,0.02362X0.03543*%
%ADD58R,0.03543X0.02362*%
%ADD59R,0.03937X0.05118*%
%ADD60R,0.02000X0.02000*%
%ADD61R,0.02756X0.05906*%
%ADD62R,0.05906X0.02756*%
%ADD63R,0.04370X0.07874*%
%ADD64R,0.02756X0.03543*%
%ADD65R,0.07874X0.04370*%
%ADD66R,0.02402X0.01732*%
%ADD67R,0.00984X0.00984*%
%ADD68R,0.05906X0.08661*%
%ADD69R,0.03543X0.06299*%
%ADD70R,0.02362X0.00945*%
%ADD71R,0.08504X0.08268*%
%ADD72R,0.08898X0.08268*%
%ADD73R,0.04724X0.13000*%
%ADD74R,0.05984X0.04724*%
%ADD75R,0.07520X0.15984*%
%ADD76R,0.01968X0.01102*%
%ADD143C,0.00906*%
%ADD144C,0.03100*%
%ADD145R,0.06496X0.09449*%
%ADD146R,0.03347X0.01378*%
%ADD150C,0.05500*%
%ADD151R,0.05500X0.05500*%
%ADD152C,0.11811*%
%ADD153C,0.07500*%
%ADD154C,0.06500*%
%ADD155R,0.06500X0.06500*%
%ADD156C,0.03400*%
D22*
X29689Y249678D02*
D03*
Y245741D02*
D03*
Y241804D02*
D03*
Y237867D02*
D03*
Y233930D02*
D03*
Y229993D02*
D03*
Y226056D02*
D03*
Y222119D02*
D03*
Y218182D02*
D03*
Y214245D02*
D03*
Y210308D02*
D03*
X41697Y247710D02*
D03*
Y243773D02*
D03*
Y239836D02*
D03*
Y235899D02*
D03*
Y231962D02*
D03*
Y228025D02*
D03*
Y224088D02*
D03*
Y220151D02*
D03*
Y216214D02*
D03*
Y212277D02*
D03*
Y208340D02*
D03*
X29689Y206371D02*
D03*
X41697Y204403D02*
D03*
D23*
X19050Y158900D02*
D03*
X10350D02*
D03*
X110674Y103700D02*
D03*
X119374D02*
D03*
D24*
X42049Y154336D02*
D03*
X75907D02*
D03*
D25*
X24532Y158800D02*
D03*
X77588Y125676D02*
D03*
X66331Y72600D02*
D03*
X97300Y261600D02*
D03*
X305968Y167843D02*
D03*
X284637Y166043D02*
D03*
D26*
X28468Y158800D02*
D03*
X81525Y125676D02*
D03*
X70268Y72600D02*
D03*
X163068Y157643D02*
D03*
X159132D02*
D03*
X163068Y153874D02*
D03*
X159132D02*
D03*
X101237Y261600D02*
D03*
X302031Y167843D02*
D03*
X288574Y166043D02*
D03*
D27*
X64863Y122176D02*
D03*
X72737D02*
D03*
D28*
X232578Y182263D02*
D03*
Y190137D02*
D03*
X185400Y233763D02*
D03*
Y241637D02*
D03*
X55726Y105806D02*
D03*
Y97932D02*
D03*
X92544Y117263D02*
D03*
Y125137D02*
D03*
D29*
X262767Y10109D02*
D03*
X270247Y7550D02*
D03*
X262767Y4991D02*
D03*
X326933Y55209D02*
D03*
X319453Y52650D02*
D03*
X326933Y50091D02*
D03*
D30*
X101831Y103600D02*
D03*
X105769D02*
D03*
D31*
X139900Y145575D02*
D03*
Y149512D02*
D03*
X189800Y176075D02*
D03*
Y180012D02*
D03*
X155300Y153675D02*
D03*
Y157612D02*
D03*
X256478Y190732D02*
D03*
Y194668D02*
D03*
X101100Y251669D02*
D03*
Y247731D02*
D03*
D32*
X244782Y123600D02*
D03*
D33*
X222932Y121828D02*
D03*
Y125372D02*
D03*
D34*
X187712Y115800D02*
D03*
X183775D02*
D03*
X162469Y142943D02*
D03*
X158531D02*
D03*
X217510Y194800D02*
D03*
X221447D02*
D03*
X359068Y23200D02*
D03*
X355132D02*
D03*
X122831Y160300D02*
D03*
X126769D02*
D03*
X352168Y11500D02*
D03*
X348232D02*
D03*
X352168Y7300D02*
D03*
X348232D02*
D03*
X69169Y78100D02*
D03*
X65232D02*
D03*
D35*
X222604Y115000D02*
D03*
X228510D02*
D03*
X222904Y131500D02*
D03*
X228810D02*
D03*
X229253Y144843D02*
D03*
X223347D02*
D03*
X215526Y189200D02*
D03*
X221431D02*
D03*
X215626Y181900D02*
D03*
X221531D02*
D03*
X245226Y173273D02*
D03*
X251131D02*
D03*
X51240Y249740D02*
D03*
X57146D02*
D03*
X51240Y242440D02*
D03*
X57146D02*
D03*
X51340Y235140D02*
D03*
X57246D02*
D03*
X51140Y227440D02*
D03*
X57046D02*
D03*
X57146Y217640D02*
D03*
X51240D02*
D03*
X57146Y210340D02*
D03*
X51240D02*
D03*
X71753Y53370D02*
D03*
X65847D02*
D03*
X65896Y115064D02*
D03*
X71802D02*
D03*
D36*
X145213Y148056D02*
D03*
Y149630D02*
D03*
X146787Y148056D02*
D03*
Y149630D02*
D03*
X362913Y23287D02*
D03*
X364487D02*
D03*
X362913Y21713D02*
D03*
X364487D02*
D03*
D37*
X207464Y167990D02*
D03*
X205495D02*
D03*
X203527D02*
D03*
X201558D02*
D03*
X199590D02*
D03*
X197621D02*
D03*
X195653D02*
D03*
X193684D02*
D03*
X191716D02*
D03*
X189747D02*
D03*
X187779D02*
D03*
X185810D02*
D03*
X183842D02*
D03*
X181873D02*
D03*
X179905D02*
D03*
X177936D02*
D03*
Y123896D02*
D03*
X179905D02*
D03*
X181873D02*
D03*
X183842D02*
D03*
X185810D02*
D03*
X187779D02*
D03*
X189747D02*
D03*
X191716D02*
D03*
X193684D02*
D03*
X195653D02*
D03*
X197621D02*
D03*
X199590D02*
D03*
X201558D02*
D03*
X203527D02*
D03*
X205495D02*
D03*
X207464D02*
D03*
D38*
X170653Y160707D02*
D03*
Y158738D02*
D03*
Y156770D02*
D03*
Y154801D02*
D03*
Y152833D02*
D03*
Y150864D02*
D03*
Y148896D02*
D03*
Y146927D02*
D03*
Y144959D02*
D03*
Y142990D02*
D03*
Y141022D02*
D03*
Y139053D02*
D03*
Y137085D02*
D03*
Y135116D02*
D03*
Y133148D02*
D03*
Y131179D02*
D03*
X214747D02*
D03*
Y133148D02*
D03*
Y135116D02*
D03*
Y137085D02*
D03*
Y139053D02*
D03*
Y141022D02*
D03*
Y142990D02*
D03*
Y144959D02*
D03*
Y146927D02*
D03*
Y148896D02*
D03*
Y150864D02*
D03*
Y152833D02*
D03*
Y154801D02*
D03*
Y156770D02*
D03*
Y158738D02*
D03*
Y160707D02*
D03*
D39*
X202940Y177015D02*
D03*
X199200Y186071D02*
D03*
X195460Y177015D02*
D03*
X77733Y201918D02*
D03*
X73993Y192863D02*
D03*
X70253Y201918D02*
D03*
D40*
X348502Y130361D02*
D03*
Y126424D02*
D03*
Y122487D02*
D03*
Y118550D02*
D03*
Y114613D02*
D03*
Y110676D02*
D03*
Y106739D02*
D03*
D41*
X361298Y139810D02*
D03*
Y97290D02*
D03*
D42*
X286012Y33558D02*
D03*
X284043D02*
D03*
X282075D02*
D03*
Y28242D02*
D03*
X284043D02*
D03*
X286012D02*
D03*
X348012Y73043D02*
D03*
X346043D02*
D03*
X344075D02*
D03*
Y78357D02*
D03*
X346043D02*
D03*
X348012D02*
D03*
D43*
X285539Y30900D02*
D03*
X282547D02*
D03*
X344547Y75700D02*
D03*
X347539D02*
D03*
D44*
X284043Y38326D02*
D03*
X330185Y237945D02*
D03*
X252678Y194668D02*
D03*
X284043Y24769D02*
D03*
X346043Y69769D02*
D03*
X346143Y83131D02*
D03*
X49900Y87868D02*
D03*
X58200Y76247D02*
D03*
D45*
X284043Y42263D02*
D03*
X330185Y234008D02*
D03*
X252678Y190732D02*
D03*
X284043Y20831D02*
D03*
X346043Y65832D02*
D03*
X346143Y87068D02*
D03*
X49900Y83931D02*
D03*
X58200Y80184D02*
D03*
D46*
X324485Y237829D02*
D03*
Y231924D02*
D03*
X89566Y181789D02*
D03*
Y175884D02*
D03*
X328778Y192247D02*
D03*
Y198153D02*
D03*
X26993Y263488D02*
D03*
Y269393D02*
D03*
X38393Y261688D02*
D03*
Y267593D02*
D03*
X86193Y239088D02*
D03*
Y244993D02*
D03*
X86200Y227847D02*
D03*
Y233753D02*
D03*
X70793Y218993D02*
D03*
Y213088D02*
D03*
X23249Y182296D02*
D03*
Y176391D02*
D03*
D47*
X291994Y300858D02*
D03*
X276246D02*
D03*
X260498D02*
D03*
X244750D02*
D03*
X284120Y289874D02*
D03*
X268372D02*
D03*
X252624D02*
D03*
X236876D02*
D03*
X291994Y214259D02*
D03*
X276246D02*
D03*
X260498D02*
D03*
X244750D02*
D03*
X284120Y203274D02*
D03*
X268373D02*
D03*
X252624D02*
D03*
X236876D02*
D03*
X229002Y300858D02*
D03*
X221128Y289874D02*
D03*
X229002Y214259D02*
D03*
X221128Y203274D02*
D03*
D49*
X95470Y160200D02*
D03*
Y155200D02*
D03*
Y150200D02*
D03*
Y145200D02*
D03*
X116730Y160200D02*
D03*
Y155200D02*
D03*
Y150200D02*
D03*
Y145200D02*
D03*
D50*
X356076Y4176D02*
D03*
Y7325D02*
D03*
Y10475D02*
D03*
Y13624D02*
D03*
X365524Y4176D02*
D03*
Y7325D02*
D03*
Y10475D02*
D03*
Y13624D02*
D03*
D51*
X147100Y293600D02*
D03*
D52*
X152907Y299604D02*
D03*
X141293D02*
D03*
D53*
X107100Y281700D02*
D03*
Y276700D02*
D03*
Y271700D02*
D03*
Y266700D02*
D03*
Y261700D02*
D03*
Y256700D02*
D03*
Y251700D02*
D03*
Y246700D02*
D03*
Y241700D02*
D03*
Y236700D02*
D03*
Y231700D02*
D03*
Y226700D02*
D03*
Y221700D02*
D03*
Y216700D02*
D03*
Y211700D02*
D03*
Y206700D02*
D03*
Y201700D02*
D03*
Y196700D02*
D03*
Y191700D02*
D03*
Y186700D02*
D03*
X177100Y281700D02*
D03*
Y276700D02*
D03*
Y271700D02*
D03*
Y266700D02*
D03*
Y261700D02*
D03*
Y256700D02*
D03*
Y251700D02*
D03*
Y246700D02*
D03*
Y241700D02*
D03*
Y236700D02*
D03*
Y231700D02*
D03*
Y226700D02*
D03*
Y221700D02*
D03*
Y216700D02*
D03*
Y211700D02*
D03*
Y206700D02*
D03*
Y201700D02*
D03*
Y196700D02*
D03*
Y191700D02*
D03*
Y186700D02*
D03*
D54*
X132100Y286700D02*
D03*
X137100D02*
D03*
X142100D02*
D03*
X147100D02*
D03*
X152100D02*
D03*
X157100D02*
D03*
X127100D02*
D03*
D55*
X351816Y184573D02*
D03*
X349257D02*
D03*
X346698D02*
D03*
X344139D02*
D03*
X341580D02*
D03*
X339020D02*
D03*
X336461D02*
D03*
X333902D02*
D03*
X331343D02*
D03*
X328784D02*
D03*
X351816Y156227D02*
D03*
X349257D02*
D03*
X346698D02*
D03*
X344139D02*
D03*
X341580D02*
D03*
X339020D02*
D03*
X336461D02*
D03*
X333902D02*
D03*
X331343D02*
D03*
X328784D02*
D03*
D56*
X78793Y225390D02*
D03*
Y212490D02*
D03*
X70893Y238290D02*
D03*
Y225390D02*
D03*
X78693Y231990D02*
D03*
Y244890D02*
D03*
D57*
X62146Y198840D02*
D03*
X56240D02*
D03*
X35847Y66800D02*
D03*
X41753D02*
D03*
D58*
X84593Y195838D02*
D03*
Y201744D02*
D03*
D59*
X39756Y183440D02*
D03*
X47630D02*
D03*
X335963Y234577D02*
D03*
X343837D02*
D03*
X21863Y66655D02*
D03*
X29737D02*
D03*
D60*
X55993Y183141D02*
D03*
X65993D02*
D03*
D61*
X350978Y245059D02*
D03*
X341529D02*
D03*
X336805D02*
D03*
X332080D02*
D03*
Y280492D02*
D03*
X336805D02*
D03*
X341529D02*
D03*
X346253D02*
D03*
Y245059D02*
D03*
X350978Y280492D02*
D03*
D62*
X325584Y251949D02*
D03*
Y256674D02*
D03*
Y261398D02*
D03*
Y266122D02*
D03*
Y270847D02*
D03*
Y275571D02*
D03*
D63*
X273643Y18218D02*
D03*
X253643D02*
D03*
X243643D02*
D03*
X233643D02*
D03*
X223643D02*
D03*
Y42982D02*
D03*
X233643D02*
D03*
X243643D02*
D03*
X253643D02*
D03*
X273643D02*
D03*
X336843Y62918D02*
D03*
X316843D02*
D03*
X306843D02*
D03*
X296843D02*
D03*
X286843D02*
D03*
Y87682D02*
D03*
X296843D02*
D03*
X306843D02*
D03*
X316843D02*
D03*
X336843D02*
D03*
D64*
X315811Y147733D02*
D03*
X318370Y140253D02*
D03*
X320929Y147733D02*
D03*
D65*
X308482Y156643D02*
D03*
Y136643D02*
D03*
Y126643D02*
D03*
Y116643D02*
D03*
Y106643D02*
D03*
X283718D02*
D03*
Y116643D02*
D03*
Y126643D02*
D03*
Y136643D02*
D03*
Y156643D02*
D03*
D66*
X296000Y164447D02*
D03*
Y167439D02*
D03*
D67*
X298657Y167912D02*
D03*
Y165943D02*
D03*
Y163975D02*
D03*
X293342D02*
D03*
Y165943D02*
D03*
Y167912D02*
D03*
D68*
X31281Y42081D02*
D03*
X56478D02*
D03*
D69*
X77502Y62500D02*
D03*
X65298D02*
D03*
X81246Y114200D02*
D03*
D70*
X52700Y66830D02*
D03*
X47188Y70767D02*
D03*
Y68799D02*
D03*
Y66830D02*
D03*
Y64862D02*
D03*
Y62893D02*
D03*
X58212Y70767D02*
D03*
Y68799D02*
D03*
Y66830D02*
D03*
Y64862D02*
D03*
Y62893D02*
D03*
D71*
X142400Y16013D02*
D03*
D72*
Y35187D02*
D03*
D73*
X81000Y13202D02*
D03*
Y38398D02*
D03*
X116570Y13402D02*
D03*
Y38598D02*
D03*
D74*
X190005Y35882D02*
D03*
X155595D02*
D03*
Y15410D02*
D03*
X190005D02*
D03*
D75*
X65134Y95629D02*
D03*
X92615D02*
D03*
D76*
X77505Y117153D02*
D03*
Y115184D02*
D03*
Y113216D02*
D03*
Y111247D02*
D03*
X84986D02*
D03*
Y113216D02*
D03*
Y115184D02*
D03*
Y117153D02*
D03*
D143*
X245206Y182884D02*
D03*
Y180916D02*
D03*
X243237Y182884D02*
D03*
Y180916D02*
D03*
X94554Y182416D02*
D03*
Y184384D02*
D03*
X96523Y182416D02*
D03*
Y184384D02*
D03*
X29009Y185225D02*
D03*
X30977D02*
D03*
X29009Y183256D02*
D03*
X30977D02*
D03*
D144*
X152100Y167532D02*
D03*
X147100Y172532D02*
D03*
X152100D02*
D03*
X157100Y167532D02*
D03*
Y172532D02*
D03*
X147100Y167532D02*
D03*
X356744Y227451D02*
D03*
X361744Y232451D02*
D03*
Y227451D02*
D03*
X356744Y222451D02*
D03*
X361744D02*
D03*
X356744Y232451D02*
D03*
D145*
X39800Y84000D02*
D03*
D146*
X33993Y80161D02*
D03*
Y82721D02*
D03*
Y85280D02*
D03*
Y87839D02*
D03*
X45607D02*
D03*
Y85280D02*
D03*
Y82721D02*
D03*
Y80161D02*
D03*
D150*
X334961Y139270D02*
D03*
Y131396D02*
D03*
Y123522D02*
D03*
Y115648D02*
D03*
Y107774D02*
D03*
D151*
Y99900D02*
D03*
D152*
X39370Y11811D02*
D03*
X330709D02*
D03*
Y295276D02*
D03*
X39370D02*
D03*
X48425Y121496D02*
D03*
X300079Y264488D02*
D03*
D153*
X123500Y87600D02*
D03*
Y67915D02*
D03*
X109721D02*
D03*
Y87600D02*
D03*
D154*
X269559Y91379D02*
D03*
X249559D02*
D03*
X229559D02*
D03*
X209559D02*
D03*
X189559D02*
D03*
X169559D02*
D03*
X269559Y63820D02*
D03*
X249559D02*
D03*
X229559D02*
D03*
X209559D02*
D03*
X189559D02*
D03*
X169559D02*
D03*
D155*
X149559D02*
D03*
Y91379D02*
D03*
D156*
X162100Y170032D02*
D03*
X142100Y166032D02*
D03*
Y174032D02*
D03*
X359244Y217451D02*
D03*
X355244Y237451D02*
D03*
X363244D02*
D03*
M02*
